<?xml version="1.0" standalone="no"?>
<!DOCTYPE svg PUBLIC "-//W3C//DTD SVG 1.1//EN" "http://www.w3.org/Graphics/SVG/1.1/DTD/svg11.dtd" >
<svg xmlns="http://www.w3.org/2000/svg">
<metadata></metadata>
<defs>
<font id="merriweatheritalic" horiz-adv-x="0" >
<font-face units-per-em="2048" ascent="1638" descent="-410" />
<missing-glyph horiz-adv-x="485" />
<glyph />
<glyph unicode="&#xd;" />
<glyph unicode="&#x9;" />
<glyph unicode="&#xa;" />
<glyph />
<glyph />
<glyph />
<glyph />
<glyph />
<glyph />
<glyph />
<glyph unicode=" "  horiz-adv-x="485" />
<glyph unicode="&#x09;" horiz-adv-x="485" />
<glyph unicode="&#xa0;" horiz-adv-x="485" />
<glyph unicode="!" horiz-adv-x="687" d="M137 105q4 31 19 58.5t36.5 47.5t48.5 31.5t55 11.5q36 0 60.5 -10t39.5 -27.5t20 -40.5t2 -49q-5 -34 -20.5 -61.5t-39 -47t-52 -30t-58.5 -10.5q-27 0 -49 8.5t-37 25t-21.5 40t-3.5 53.5zM254 490l136 1288h249l-244 -1288h-141z" />
<glyph unicode="&#x22;" horiz-adv-x="1007" d="M250 966l77 721h230l-165 -721h-142zM731 966l77 721h230l-165 -721h-142z" />
<glyph unicode="#" horiz-adv-x="1405" d="M111 365l9 130h224l64 401h-219l8 129h231l53 332h167l-51 -332h309l56 332h167l-54 -332h231l-8 -129h-243l-64 -401h226l-9 -130h-238l-57 -365h-162l51 365h-310l-62 -365h-164l58 365h-213zM513 495h309l64 401h-309z" />
<glyph unicode="$" horiz-adv-x="1205" d="M105 65l46 280h129l22 -185q24 -20 53 -34t61.5 -24t66 -14.5t65.5 -4.5q49 0 103 14t99 45.5t74 80.5t29 120q0 60 -21 108t-57 87.5t-83.5 73.5t-100.5 67q-62 39 -123.5 79.5t-110 91t-78.5 114t-30 148.5q0 91 33 165t90.5 129t135 88.5t165.5 43.5l30 183h181 l-31 -185q99 -10 165 -33.5t98 -45.5l-47 -247h-119l-36 165q-17 13 -41.5 24t-53 19t-59 12t-58.5 4q-40 0 -86.5 -13t-86 -42t-66 -76.5t-26.5 -116.5q0 -61 22 -108.5t59.5 -86.5t86.5 -73t104 -67q62 -38 122.5 -79t108 -90.5t77 -111t29.5 -140.5q0 -96 -35 -174 t-96 -135t-143 -92.5t-176 -46.5l-34 -212h-180l34 211q-55 5 -105 14.5t-91 21t-70.5 24t-44.5 24.5z" />
<glyph unicode="%" horiz-adv-x="1911" d="M198 1055q0 79 31 155.5t86.5 136.5t131 96.5t165.5 36.5q75 0 127.5 -22t86.5 -61t49.5 -93.5t15.5 -118.5q0 -82 -29 -161t-83 -141t-130.5 -100t-170.5 -38q-69 0 -121.5 23.5t-87.5 65.5t-53 98.5t-18 122.5zM372 1057q0 -47 8 -85t24.5 -66t42 -43t60.5 -15 q55 0 93.5 34t62.5 84.5t34.5 107.5t10.5 103q0 93 -29.5 147t-94.5 54q-56 0 -96 -32.5t-66 -81t-38 -104.5t-12 -103zM394 0l947 1530h161l-947 -1530h-161zM1035 374q0 53 14 105t40 99.5t63 88t83 70t100 46.5t114 17q75 0 127.5 -22t86.5 -61.5t49.5 -94t15.5 -118.5 q0 -82 -29 -161t-83 -141t-130.5 -100t-171.5 -38q-69 0 -121 23.5t-87 65.5t-53 98.5t-18 122.5zM1209 376q0 -47 8 -85t24.5 -66t41.5 -43t60 -15q55 0 93.5 34t62.5 84.5t35 107.5t11 103q0 93 -29.5 147t-94.5 54q-56 0 -96.5 -32.5t-66 -81t-37.5 -104.5t-12 -103z" />
<glyph unicode="&#x26;" horiz-adv-x="1545" d="M50 367q0 77 29 137.5t77.5 109t112 89t133.5 76.5q-18 42 -34 89.5t-28.5 96t-19.5 96t-7 88.5q0 91 35.5 165t97 126t144.5 80.5t179 28.5q94 0 157.5 -24.5t102.5 -64t55.5 -90t16.5 -101.5q0 -60 -20 -110.5t-55 -94t-82 -81t-101.5 -71.5t-113 -66.5t-115.5 -64.5 q90 -159 191.5 -294t221.5 -241q38 57 51.5 130.5t13.5 164.5q0 42 -6.5 76.5t-15.5 62.5q-10 0 -19.5 0.5t-20.5 0.5q-47 0 -87 -13.5t-62 -24.5v138q7 7 19.5 15.5t31.5 16t45 12.5t59 5q28 0 57 -4t60 -8.5t63 -8t67 -3.5q38 0 69.5 8t55 27t39.5 50t23 77h78 q0 -71 -12.5 -129.5t-39 -100t-68.5 -64.5t-102 -23q-28 0 -55 3q2 -15 3.5 -32t1.5 -37q0 -128 -43 -230.5t-120 -178.5q22 -17 43.5 -30.5t44.5 -24.5q41 -15 89 -24.5t89 -10.5l-11 -86q-61 -15 -105 -17.5t-76 -2.5q-63 0 -124.5 20t-114.5 61q-166 -79 -380 -79 q-97 0 -190 22t-166 68.5t-117.5 119.5t-44.5 175zM260 372q0 -73 27 -125.5t72.5 -86.5t104.5 -50.5t124 -16.5q90 0 158.5 9.5t122.5 28.5q-80 74 -139 142t-106 134.5t-87.5 133.5t-83.5 139q-42 -30 -77.5 -63.5t-61 -71.5t-40 -81t-14.5 -92zM499 1176q0 -94 22.5 -174 t48.5 -137q66 35 126 73t105.5 83.5t72 101t26.5 125.5q0 34 -6 69t-23 63.5t-47.5 46.5t-79.5 18q-58 0 -103.5 -21t-77 -57t-48 -85t-16.5 -106z" />
<glyph unicode="'" horiz-adv-x="527" d="M241 966l77 721h230l-165 -721h-142z" />
<glyph unicode="(" horiz-adv-x="855" d="M202 505q0 103 15 219q15 108 45 207.5t69.5 188t87 166.5t96 144t97 119t90 92.5t74.5 65t51 35.5l89 -60q-21 -14 -58.5 -50t-83.5 -93t-96.5 -134.5t-97.5 -174t-85.5 -211.5t-61.5 -246q-4 -31 -7.5 -65.5t-6.5 -68.5t-4.5 -66.5t-1.5 -60.5q0 -110 14 -205.5 t36.5 -176t51 -145t57 -113t54.5 -80.5t44 -47l-109 -65h-17q-19 12 -51.5 42.5t-70.5 79.5t-77 117t-71 155.5t-52 195t-20 235.5z" />
<glyph unicode=")" horiz-adv-x="856" d="M-41 -254q21 14 58.5 50t83.5 93t96.5 134.5t97.5 174t85.5 211.5t61.5 246q4 31 7.5 65.5t6.5 68.5t4.5 66.5t1.5 60.5q0 110 -14 205.5t-36.5 176t-51 145t-57 113t-54.5 80.5t-44 47l109 65h17q19 -12 51.5 -42.5t70.5 -79.5t77 -117t71 -155.5t52 -195t20 -235.5 q0 -103 -15 -219q-15 -108 -45 -207.5t-69.5 -188t-87 -166.5t-96 -144t-97 -119t-90 -92.5t-74.5 -65t-51 -35.5z" />
<glyph unicode="*" horiz-adv-x="1366" d="M276 982l324 131l111 37l-103 37l-298 131l116 167l245 -203l79 -75l-11 112l-7 335l194 -1l-77 -334l-33 -112l94 75l291 204l77 -168l-323 -131l-112 -38l104 -36l298 -131l-116 -167l-246 203l-80 77l11 -114l7 -335l-194 1l77 334l33 114l-93 -77l-291 -204z" />
<glyph unicode="+" horiz-adv-x="1364" d="M252 692l18 160h225l138 -11l13 165l27 230h180l-26 -230l-29 -164l115 10h254l-18 -160h-255l-112 7q-2 -42 -5 -82t-5 -82l-28 -241h-180l27 241l26 164l-141 -7h-224z" />
<glyph unicode="," horiz-adv-x="527" d="M-8 -422l3 21q34 18 67 47.5t58.5 69.5t41 89t15.5 107q0 33 -8 63t-21 54.5t-30 42t-36 25.5l1 45l158 124q42 -18 72 -50t49.5 -72t28.5 -85.5t9 -91.5q0 -84 -28.5 -159t-76 -135.5t-110 -105.5t-130.5 -69z" />
<glyph unicode="-" horiz-adv-x="1127" d="M223 692l18 160h717l-18 -160h-717z" />
<glyph unicode="." horiz-adv-x="527" d="M86 105q4 31 19 58.5t36.5 47.5t48.5 31.5t55 11.5q36 0 60.5 -10t39 -27.5t19.5 -40.5t2 -49q-4 -34 -19.5 -61.5t-39 -47t-52 -30t-58.5 -10.5q-27 0 -49 8.5t-37 25t-22 40t-3 53.5z" />
<glyph unicode="/" horiz-adv-x="854" d="M-132 -362l861 1959h177l-863 -1959h-175z" />
<glyph unicode="0" horiz-adv-x="1278" d="M131 451q0 151 48.5 281t132 225.5t195 150t236.5 54.5q114 0 193 -34.5t128 -96t71 -147.5t22 -188q0 -94 -20.5 -183.5t-59 -168.5t-93 -145t-122 -114t-146.5 -74.5t-166 -26.5q-114 0 -193.5 37.5t-129.5 101.5t-73 148.5t-23 179.5zM343 466q0 -75 13 -142.5 t40.5 -118.5t71 -81t104.5 -30q64 0 116.5 24.5t94 67t72 99.5t50.5 121.5t29.5 134t9.5 136.5q0 83 -13 152t-40.5 118.5t-70.5 77t-104 28.5q-74 1 -130 -26t-97.5 -73t-69.5 -106.5t-45 -126.5t-24 -132t-7 -123z" />
<glyph unicode="1" horiz-adv-x="918" d="M109 0l10 88l199 25l110 802q-58 -14 -121 -27.5t-129 -24.5l-15 97q52 12 109 34.5t112.5 50.5t106 59t90.5 58l88 -21l-144 -1027l213 -26l-10 -88h-619z" />
<glyph unicode="2" horiz-adv-x="1170" d="M35 80q146 72 276 154.5t227 172.5t153.5 185.5t56.5 192.5q0 57 -11.5 101.5t-37 75t-66.5 46.5t-100 16q-52 0 -99 -14.5t-88.5 -37t-77 -49t-63.5 -50.5l-54 91q30 31 75 66t103.5 64t129 48.5t151.5 19.5q109 0 179.5 -28.5t111.5 -75.5t57 -108t16 -126 q0 -69 -26 -135.5t-72 -130.5t-109.5 -124.5t-139 -116t-160 -106.5t-172.5 -95l545 48l97 150l103 -36l-80 -278h-907z" />
<glyph unicode="3" horiz-adv-x="1077" d="M24 -316l15 116q37 -5 69.5 -8t60.5 -3q98 0 190.5 24.5t164.5 72t116 116t44 156.5q0 57 -16 102t-50.5 76.5t-88.5 48.5t-130 17l-141 -34l16 118q45 9 94.5 25.5t97 39t90.5 52t75.5 65.5t51.5 79.5t19 93.5q0 51 -16 85t-43 55t-62 30t-73 9q-50 0 -94.5 -10.5 t-84 -27.5t-75.5 -40t-69 -47l-43 101q25 25 69 54t103.5 54t131 41.5t152.5 16.5q64 0 123.5 -16.5t105 -50.5t72.5 -87.5t27 -126.5q0 -68 -31.5 -130t-83.5 -114.5t-118 -92.5t-135 -64q103 4 171.5 -17.5t109 -61t57.5 -93.5t17 -115q0 -77 -29.5 -146t-80.5 -127 t-120.5 -104t-150.5 -78.5t-169 -49.5t-176 -17q-38 0 -78 3.5t-85 9.5z" />
<glyph unicode="4" horiz-adv-x="1251" d="M34 94q63 81 141.5 197.5t168.5 264t188.5 324t201.5 376.5h37l159 -91q-27 -51 -69 -119t-93.5 -147t-110 -165.5t-119 -174.5t-120.5 -174t-114 -164l-100 -120l502 28l51 403l198 59l-56 -446l249 15l-21 -160h-248l-47 -375h-194l49 375h-616z" />
<glyph unicode="5" horiz-adv-x="1108" d="M38 -329l14 92q23 -4 42.5 -5t37.5 -1q75 0 147.5 15.5t137 43.5t119.5 68t94.5 89t62 106t22.5 120q0 72 -15 122t-47.5 81.5t-82 45.5t-118.5 14q-55 0 -121 -14.5t-139 -39.5l-49 39l170 699h569l22 16h139l-58 -187h-534l-116 -424q24 7 53 12.5t59 9.5t58.5 6 t52.5 2q81 0 152.5 -20.5t125 -64t84.5 -111.5t31 -163q0 -91 -32 -168.5t-88 -140.5t-132 -111.5t-162.5 -81t-180 -49.5t-185.5 -17q-13 0 -29.5 0.5t-34.5 2.5t-36 5.5t-33 8.5z" />
<glyph unicode="6" horiz-adv-x="1244" d="M135 470q0 121 29.5 240.5t83.5 230.5t131 210.5t172.5 181.5t207 143t234.5 95l30 -87q-112 -42 -211 -113t-180 -159t-141.5 -186.5t-95.5 -196.5q25 27 61 53.5t81.5 47t99.5 33.5t116 13q95 0 163.5 -30.5t112.5 -83t65 -122.5t21 -149q0 -117 -40.5 -227.5 t-114.5 -195.5t-178 -136.5t-231 -51.5q-103 0 -180.5 38t-130 104t-79 155.5t-26.5 192.5zM347 448q0 -74 12 -139t40.5 -114t76.5 -77.5t119 -28.5q55 0 99 20.5t78 54.5t58 79.5t39.5 96t22.5 102.5t7 100q0 150 -54 229t-143 79q-73 0 -127.5 -18.5t-94 -45t-65 -55 t-41.5 -48.5q-14 -65 -20.5 -122.5t-6.5 -112.5z" />
<glyph unicode="7" horiz-adv-x="1096" d="M108 813l61 333h894l32 -43l-602 -1425l-212 67l655 1248h-610l-86 -184z" />
<glyph unicode="8" horiz-adv-x="1183" d="M105 334q0 79 28 148.5t78.5 128.5t121.5 108t158 87q-41 33 -79 72t-67 84t-47 96.5t-18 108.5q0 83 36.5 153.5t100 121.5t149 79.5t182.5 28.5q82 0 151 -22t119 -63t78 -101t28 -135q0 -72 -26 -132.5t-71 -111.5t-106.5 -93.5t-132.5 -78.5q54 -38 103 -85.5 t86 -101.5t59 -113.5t22 -122.5q0 -100 -42.5 -176.5t-113.5 -128.5t-162.5 -78.5t-190.5 -26.5q-52 0 -105 9t-102 27.5t-92.5 47t-75.5 68t-50.5 90t-18.5 112.5zM321 367q0 -134 65 -207t183 -73q59 0 110.5 15.5t89.5 49t59.5 85t21.5 123.5q0 55 -21 105.5t-59.5 97.5 t-92 91t-117.5 87q-56 -26 -100 -64.5t-75 -87t-47.5 -105t-16.5 -117.5zM474 1185q0 -51 18.5 -95t50 -82.5t73 -73.5t87.5 -68q51 23 92 58t70 79.5t44.5 98t15.5 112.5q0 60 -15.5 104.5t-42.5 73.5t-63 43.5t-77 14.5q-53 0 -99 -16t-80.5 -49t-54 -83t-19.5 -117z" />
<glyph unicode="9" horiz-adv-x="1245" d="M132 572q0 68 16 138.5t47.5 136t79 123t110 100t140 67.5t169.5 25q103 0 180.5 -37t130 -101.5t79 -152t26.5 -186.5q0 -127 -29.5 -249.5t-84 -235.5t-131.5 -212.5t-172.5 -181.5t-207 -142.5t-234.5 -94.5l-30 88q111 42 211 113.5t182.5 160t144.5 187.5t98 197 q-28 -30 -66.5 -57t-85 -47.5t-100 -33t-113.5 -12.5q-97 0 -165.5 35.5t-111.5 93.5t-63 131t-20 147zM337 616q0 -78 17 -139t45.5 -102t65.5 -62.5t78 -21.5q69 0 122.5 18.5t93.5 44.5t67.5 55t44.5 50q14 57 20.5 123t6.5 123q0 66 -12 129t-40.5 111.5t-76.5 78 t-119 29.5q-55 0 -99.5 -20t-79 -53.5t-60 -78t-42 -93t-24.5 -98t-8 -94.5z" />
<glyph unicode=":" horiz-adv-x="527" d="M68 105q4 31 19 58.5t36.5 47.5t48.5 31.5t55 11.5q36 0 60.5 -10t39 -27.5t19.5 -40.5t2 -49q-4 -34 -19.5 -61.5t-39 -47t-52 -30t-58.5 -10.5q-27 0 -49 8.5t-37 25t-22 40t-3 53.5zM160 914q4 31 19 58.5t36.5 47.5t48.5 31.5t55 11.5q36 0 60.5 -10t39 -27.5 t19.5 -40.5t2 -49q-4 -34 -19.5 -61.5t-39 -47t-52 -30t-58.5 -10.5q-27 0 -49 8.5t-37 25t-22 40t-3 53.5z" />
<glyph unicode=";" horiz-adv-x="527" d="M-25 -422l3 21q34 18 67 47.5t58.5 69.5t41 89t15.5 107q0 33 -8 63t-21 54.5t-30 42t-36 25.5l1 45l158 124q42 -18 72 -50t49.5 -72t28.5 -85.5t9 -91.5q0 -84 -28.5 -159t-76 -135.5t-110 -105.5t-130.5 -69zM162 914q4 31 19 58.5t36.5 47.5t48.5 31.5t55 11.5 q36 0 60.5 -10t39 -27.5t19.5 -40.5t2 -49q-4 -34 -19.5 -61.5t-39 -47t-52 -30t-58.5 -10.5q-27 0 -49 8.5t-37 25t-22 40t-3 53.5z" />
<glyph unicode="&#x3c;" horiz-adv-x="1368" d="M195 686l16 128l1009 510l-24 -197l-792 -376l704 -376l-23 -199z" />
<glyph unicode="=" horiz-adv-x="1063" d="M80 338l18 158h815l-18 -158h-815zM150 848l18 158h815l-18 -158h-815z" />
<glyph unicode="&#x3e;" horiz-adv-x="1368" d="M250 179l24 197l792 376l-704 376l23 199l890 -510l-16 -128z" />
<glyph unicode="?" horiz-adv-x="1017" d="M260 721q0 45 21 84.5t58.5 75t90 67.5t115.5 63q41 19 79.5 37.5t73 41.5t65 53t57.5 73q5 22 7 43t2 42q0 86 -28 151t-77 109t-115.5 66.5t-143.5 22.5q-17 0 -39 -1.5t-46 -5.5t-48 -10t-45 -16l29 143q11 11 33 20.5t50.5 17t60.5 12t63 4.5q138 0 230.5 -36 t148 -95t79 -135t23.5 -156q0 -67 -14.5 -121t-40.5 -98q-28 -49 -66 -87t-81.5 -69.5t-89 -57.5t-87.5 -51q-38 -23 -71 -45.5t-57.5 -49t-38.5 -57t-14 -69.5q-1 -51 3 -99t9 -74l-129 -50l-17 1q-11 17 -20.5 45.5t-16 63t-10 72.5t-3.5 75zM294 105q4 31 18.5 58.5 t36 47.5t48.5 31.5t56 11.5q36 0 60.5 -10t39 -27.5t19.5 -40.5t2 -49q-4 -34 -20 -61.5t-39 -47t-51.5 -30t-58.5 -10.5q-27 0 -49 8.5t-37 25t-22 40t-3 53.5z" />
<glyph unicode="@" horiz-adv-x="1969" d="M117 334q0 181 39.5 341.5t110.5 295t170.5 241.5t219.5 181t257.5 113.5t284.5 39.5q151 0 275 -43.5t212 -125t136 -200t48 -268.5q0 -140 -26.5 -260t-72.5 -219t-106.5 -175.5t-128.5 -128.5t-139.5 -79t-138.5 -27q-34 0 -52.5 15t-27.5 42t-10.5 64.5t-1.5 82.5 q0 35 6.5 85t22.5 119q-34 -80 -77.5 -155.5t-93.5 -134.5t-104.5 -95t-109.5 -36q-51 0 -101 25t-90 77t-64.5 133t-24.5 192q0 73 14.5 150t44 150.5t74 138.5t105 114t136.5 77.5t169 28.5q21 0 49.5 -3t59.5 -9.5t60 -16.5t50 -25l167 30q-15 -57 -31 -140.5t-31 -175.5 t-27.5 -184.5t-19.5 -167.5q-8 -77 -7 -123.5t5 -73.5q2 -14 5.5 -26.5t11.5 -12.5q42 0 84.5 27.5t81 75.5t72.5 113t58.5 139.5t39 155.5t14.5 162q0 164 -51.5 274.5t-136.5 177.5t-193.5 95.5t-222.5 28.5q-135 0 -249.5 -39.5t-208 -109.5t-164.5 -165.5t-119.5 -207 t-73 -235t-24.5 -249.5q0 -190 44.5 -323t126.5 -216t198.5 -121t260.5 -38q44 0 96 5.5t102 14.5t92.5 20.5t68.5 23.5l32 -86q-70 -53 -179 -84.5t-238 -31.5q-176 0 -316.5 46t-238.5 140.5t-151 238t-53 337.5zM711 447q0 -58 7 -108t23 -87t41.5 -58.5t63.5 -21.5 q34 0 74.5 36t82 94.5t81 133.5t72 153.5t55 154t30.5 135.5q-13 22 -35.5 39t-49 27.5t-52.5 16t-47 5.5q-69 0 -121.5 -22.5t-91 -61t-64 -90t-41 -109t-22 -118.5t-6.5 -119z" />
<glyph unicode="A" horiz-adv-x="1342" d="M-120 0l9 87l119 29l707 1406h205l253 -1403l156 -32l-7 -87h-515l5 87l156 29l-50 319h-567l-150 -318l160 -30l-6 -87h-475zM408 557h491l-104 676l-11 121z" />
<glyph unicode="B" horiz-adv-x="1295" d="M28 0l9 87l148 30l161 1281l-133 23l12 101h229q75 0 149.5 7.5t155.5 7.5q117 0 201 -26.5t138 -71t79.5 -102t26.5 -119.5v-8q0 -77 -20 -139q-20 -65 -59 -115.5t-95 -86.5t-126 -59q62 -9 115 -36t92 -68.5t61.5 -96.5t23.5 -119v-14q0 -84 -22 -150 q-24 -72 -69 -128t-107.5 -96t-138 -66t-161 -38t-175.5 -12q-29 0 -62.5 2t-68 5t-67 5t-59.5 2h-238zM388 127q14 -6 37.5 -9.5t50 -6t51 -3.5t39.5 -1q93 0 169.5 19t131.5 62t85 112q28 65 27 156v12q-3 130 -72.5 193.5t-220.5 63.5q-78 0 -135 -2.5t-89 -4.5zM479 852 q31 -2 67 -2h18q46 0 88 1q74 0 138.5 20t112 61.5t74.5 105.5q25 60 25 142v12q-1 58 -17 100.5t-50.5 71t-89 42.5t-133.5 14q-11 0 -31.5 -0.5t-43.5 -1.5t-46.5 -3.5t-41.5 -5.5z" />
<glyph unicode="C" horiz-adv-x="1225" d="M92 627v20q0 126 24 238q26 121 74.5 222t117.5 181t152 135.5t178 85t196 29.5q68 0 123 -5t98.5 -12t76.5 -15t57 -14l38 -11l-66 -368h-122l-24 262q-14 9 -31.5 17.5t-42 14.5t-57.5 9.5t-76 3.5q-95 0 -169.5 -36.5t-130.5 -97t-94.5 -140t-62.5 -165t-34 -171.5 q-9 -79 -9 -148v-14q1 -66 10 -132.5t26 -127t44 -112.5t64 -90.5t85 -60.5t108 -22q34 0 74 5.5t77 18t67.5 32t46.5 47.5l5 14q5 15 12.5 36.5t16.5 47t16.5 47.5t12.5 36.5t5 15.5l124 -1l-40 -329q-26 -9 -69 -24t-101 -29.5t-130.5 -25t-156.5 -10.5q-92 0 -165.5 26 t-130 71.5t-97.5 107.5t-67 133.5t-39 149t-14 155.5z" />
<glyph unicode="D" horiz-adv-x="1434" d="M26 0l10 87l148 30l162 1281l-133 23l12 101h297q66 1 132 8.5t137 7.5q154 0 263 -44t178.5 -125t103 -194.5t35.5 -252.5v-20q0 -121 -22 -234q-24 -122 -71.5 -227.5t-117 -191t-157.5 -145.5t-193 -92q-96 -29 -203 -28h-21t-25 1t-29.5 2t-30.5 2t-27 2q-17 1 -42 3 t-53 3t-55.5 2t-48.5 1h-249zM390 132q22 -8 54.5 -13.5t67 -9t67.5 -6t57 -2.5q96 7 172.5 43t135 94.5t100.5 135t68 163.5t38 181q11 86 11 172v15q-2 144 -27 242.5t-76.5 159.5t-131.5 88t-193 27q-21 0 -46.5 -1.5t-51.5 -4.5t-48.5 -7t-37.5 -8z" />
<glyph unicode="E" horiz-adv-x="1232" d="M25 0l11 87l149 29l160 1282l-133 23l12 101h934l-8 -312h-111l-47 189l-437 15l-72 -559l448 8l-13 -159l-447 17l-83 -604l547 24l119 211l109 -30l-88 -322h-1050z" />
<glyph unicode="F" horiz-adv-x="1164" d="M28 0l8 88l149 29l160 1281l-133 23l12 101h976l-23 -313h-125l-29 184l-472 19l-68 -558l471 9l-13 -161l-470 18l-82 -601l269 -31l-8 -88h-622z" />
<glyph unicode="G" horiz-adv-x="1345" d="M100 627v28q0 122 23 230q26 121 74.5 222t117 181t151.5 135.5t178 85t196 29.5q77 0 139.5 -6t112 -14.5t87 -18t64.5 -17.5l39 -11l-58 -297h-131l-22 183q-16 13 -37 24.5t-51 20t-70.5 13.5t-94.5 5q-96 0 -171 -36t-131 -96.5t-95 -139.5t-63 -165t-34 -173 q-9 -78 -9 -148v-14q1 -66 10 -132t27 -126.5t45.5 -113t65.5 -91.5t87.5 -61t111.5 -22q35 0 73.5 3.5t77 13.5t74 27.5t64.5 46.5l57 397l-233 17l13 117h447l-90 -630q-29 -3 -58.5 -12t-71.5 -21q-38 -11 -84.5 -24.5t-99.5 -25t-111 -19.5t-118 -8q-89 0 -160.5 26 t-127 71.5t-95.5 107.5t-66 133.5t-39 149t-14 155.5z" />
<glyph unicode="H" horiz-adv-x="1538" d="M28 0l10 87l147 30l161 1281l-133 23l12 101h491l-11 -101l-154 -23l-70 -554h649l70 554l-151 23l10 101h495l-12 -101l-138 -23l-161 -1280l152 -31l-9 -87h-518l8 88l164 30l74 596h-650l-75 -597l158 -29l-8 -88h-511z" />
<glyph unicode="I" horiz-adv-x="708" d="M28 0l9 87l148 30l161 1281l-133 23l12 101h490l-11 -101l-153 -23l-162 -1281l158 -29l-8 -88h-511z" />
<glyph unicode="J" horiz-adv-x="726" d="M-152 -256q67 19 127 56.5t107.5 85t79 99.5t42.5 101q32 146 54 308t39.5 331t33.5 339.5t35 333.5l-141 23l14 101h490l-11 -101l-155 -22q-18 -166 -35 -322.5t-32 -295.5t-29 -258t-25.5 -210.5t-21.5 -152.5t-18 -85q-32 -102 -88.5 -175.5t-126.5 -123.5 t-148.5 -79t-154.5 -42z" />
<glyph unicode="K" horiz-adv-x="1366" d="M28 0l9 87l148 30l161 1281l-133 23l12 101h490l-11 -101l-154 -23l-89 -710l611 710l-118 23l12 101h420l-14 -101l-104 -23l-525 -569q25 -43 57.5 -99t65.5 -112t63.5 -107.5t51.5 -85.5q45 -74 76.5 -124.5t54.5 -83.5t40 -51.5t33 -27.5l130 -44l-14 -94h-278 q-20 3 -47.5 40.5t-57.5 91.5t-60 113.5t-54 106.5q-19 36 -42.5 80.5t-48.5 91t-49.5 91t-44.5 80.5l-182 -198l-48 -380l158 -29l-8 -88h-511z" />
<glyph unicode="L" horiz-adv-x="1182" d="M29 0l8 88l148 29l161 1281l-133 23l12 101h524l-11 -101l-188 -23l-161 -1281l464 11l139 332l119 -23l-96 -437h-986z" />
<glyph unicode="M" horiz-adv-x="1876" d="M-54 0l10 88l160 29l317 1281l-161 23l12 101h447l164 -1044l15 -167l65 167q52 126 110 257.5t117 264.5t117 264.5t111 257.5h424l-11 -101l-165 -23l-25 -1280l154 -30l-9 -88h-533l9 88l176 28l37 901l30 403l-137 -355l-471 -1068l-112 -15l-172 1059l-61 377 l-72 -387l-212 -914l187 -29l-9 -88h-512z" />
<glyph unicode="N" horiz-adv-x="1518" d="M32 0l8 87l136 28l170 1283l-147 23l17 101h348l464 -1099l71 -233l144 1208l-151 23l12 101h453l-10 -101l-145 -23l-203 -1398h-195l-470 1104l-62 222l-127 -1209l162 -29l-9 -88h-466z" />
<glyph unicode="O" horiz-adv-x="1383" d="M119 619v21q1 120 21 231q22 120 65 222.5t105.5 185.5t140.5 141.5t169 90t192 31.5q127 0 220 -50.5t155 -136.5t93 -200.5t33 -243.5v-22q0 -121 -20 -231q-22 -120 -65.5 -223.5t-106 -187.5t-140 -143.5t-169 -91.5t-192.5 -32q-127 0 -220.5 51.5t-155 139 t-92.5 203.5t-33 245zM327 646q2 -120 23 -220.5t61 -173t99 -112.5t138 -40q98 0 182 58.5t144 161.5q60 104 94 247q31 131 31 284v28q-2 122 -23 221t-61 169.5t-99.5 109t-137.5 38.5q-98 0 -182 -57t-145 -159.5t-94 -244.5q-30 -130 -30 -282v-28z" />
<glyph unicode="P" horiz-adv-x="1239" d="M28 0l9 87l148 30l161 1281l-133 23l12 101h255q36 0 70.5 2.5t69.5 6t71.5 6t75.5 2.5q220 0 339 -96t122 -295v-16q0 -89 -20 -165q-22 -83 -62.5 -150.5t-97.5 -118.5t-126 -85.5t-148.5 -52t-163.5 -17.5q-67 0 -105 1t-65 3l-51 -430l200 -29l-8 -88h-553zM455 677 q46 -8 87 -11t78 -3q108 1 182.5 31.5t121 90t67.5 146t23 200.5v11q0 64 -11 114q-12 55 -44 92q-33 38 -87 56q-49 17 -122 16h-16q-19 0 -42 -2t-48 -4.5t-49 -6.5t-44 -8z" />
<glyph unicode="Q" horiz-adv-x="1389" d="M115 620v21q0 121 21 231q22 120 65 222.5t105.5 185.5t140.5 141.5t169 90t192 31.5q127 0 220 -50.5t155 -136.5t93 -200.5t33 -243.5v-24q0 -168 -40 -316q-43 -159 -122 -281t-189.5 -200.5t-243.5 -100.5q4 -59 28.5 -93.5t63 -51.5t88.5 -21.5t105 -4.5 q20 0 47.5 3t56.5 8.5t57 13.5t50 18l2 -138q-18 -15 -48.5 -30t-68 -27.5t-80.5 -20t-86 -7.5q-78 0 -147.5 21t-119 63.5t-72.5 106.5q-14 39 -14 84q0 32 7 68q-119 7 -206 60.5t-144.5 140.5t-86.5 199.5t-31 237.5zM323 647q2 -120 23 -220.5t61 -173t99 -112.5 t138 -40q98 0 182 58.5t144.5 162t93.5 246.5q31 131 31 284v28q-2 122 -23 221t-61 169.5t-99.5 109t-137.5 38.5q-98 0 -182 -57t-145 -159.5t-94 -243.5q-30 -130 -30 -283v-28z" />
<glyph unicode="R" horiz-adv-x="1352" d="M47 0l9 87l129 30l161 1281l-133 23l12 101h272q60 0 120 8t120 8q127 0 217.5 -20.5t148.5 -62.5t86 -106.5t30 -152.5v-14q-1 -83 -23 -157q-24 -80 -72 -145t-119.5 -112.5t-162.5 -73.5q23 -20 49.5 -56t51.5 -77.5t46.5 -84t36.5 -74.5q31 -66 52.5 -114t39 -82 t33.5 -55t35.5 -33t45 -16t62.5 -4l-5 -98h-233q-21 0 -40 12t-40.5 43.5t-47 86.5t-59.5 140q-18 45 -36.5 91t-38 89t-39.5 81t-41 66t-43 44.5t-44 17.5q-37 -1 -71 -1h-112l-63 -553l185 -29l-8 -88h-511zM460 789q17 -1 47.5 -2t62.5 -1.5t61 -0.5t44 1q90 6 155 40 t106 88q42 54 60 122q17 62 17 129v15q-2 59 -16 103.5t-48 74.5t-92.5 45.5t-149.5 15.5q-11 0 -31.5 -1t-44.5 -3t-47.5 -4.5t-39.5 -5.5z" />
<glyph unicode="S" horiz-adv-x="1083" d="M54 65l42 282h120l25 -193q20 -14 47 -25t57 -19t61.5 -12t61.5 -4q48 0 101.5 13.5t99.5 43t77.5 76.5t35.5 114v16q0 51 -16 93q-19 49 -53 89.5t-80 75t-98 66.5q-61 38 -121.5 82t-108.5 98t-78.5 119.5t-31.5 146.5v9q1 88 37 160q38 76 104.5 130.5t154.5 85 t186 30.5q72 0 130 -8t103.5 -20.5t78 -27.5t53.5 -29l-47 -263h-109l-28 180q-30 22 -84 36.5t-114 14.5q-45 0 -91.5 -12.5t-85 -39.5t-62.5 -69t-24 -100q0 -62 20 -112t55 -92t82 -78.5t101 -69.5q60 -38 118.5 -78t105 -89t75.5 -109.5t31 -139.5v-10q0 -101 -37 -182 q-39 -85 -109.5 -144.5t-167 -91t-209.5 -31.5q-70 0 -135.5 8.5t-120 21.5t-94.5 28.5t-58 29.5z" />
<glyph unicode="T" horiz-adv-x="1234" d="M83 1051l77 471h1148l-67 -471h-111l7 342l-321 21l-166 -1297l250 -23l-7 -94h-700l9 94l244 23l165 1297l-316 -20l-96 -341z" />
<glyph unicode="U" horiz-adv-x="1382" d="M127 1422l12 100h491l-11 -100l-153 -25l-104 -786q-6 -56 -9 -103q-2 -35 -2 -68v-22q3 -162 76.5 -244.5t204.5 -82.5q171 0 270.5 136t129.5 399l103 771l-134 24l11 101h434l-12 -101l-124 -23l-104 -771q-23 -177 -72 -300t-125 -200.5t-178 -112t-230 -34.5 q-110 0 -194 31.5t-141.5 89.5t-88 141t-32.5 186q0 39 1.5 79.5t6.5 85.5l107 805z" />
<glyph unicode="V" horiz-adv-x="1226" d="M71 1421l10 101h488l-10 -101l-152 -23l135 -947l27 -276l94 276l413 947l-136 24l10 100h415l-10 -100l-106 -23l-641 -1408l-178 -12l-236 1419z" />
<glyph unicode="W" horiz-adv-x="1788" d="M28 1421l12 101h473l-11 -101l-156 -19l117 -963l36 -264l57 199l343 906l-14 121l-119 20l11 101h483l-20 -101l-150 -21l104 -961l18 -264l74 227l406 996l-135 23l11 101h429l-15 -101l-121 -23l-599 -1408h-207l-115 1020l-387 -1020h-205l-197 1408z" />
<glyph unicode="X" horiz-adv-x="1297" d="M-63 0l11 88l121 28l499 651l-301 628l-138 26l10 101h522l-11 -101l-145 -23l200 -503l338 503l-140 23l12 101h471l-10 -101l-137 -23l-470 -621l332 -660l153 -29l-9 -88h-542l8 88l151 28l-234 526l-360 -525l149 -30l-8 -87h-472z" />
<glyph unicode="Y" horiz-adv-x="1178" d="M60 1421l10 101h498l-12 -101l-161 -23l226 -557l36 -127l72 126l341 558l-140 23l11 101h417l-11 -101l-101 -23l-523 -807l-61 -474l196 -29l-8 -88h-607l9 88l215 29l61 474l-363 807z" />
<glyph unicode="Z" horiz-adv-x="1192" d="M-5 89l811 1123l167 195l-570 -7l-97 -248l-121 24l57 346h942l25 -86l-813 -1136l-151 -192l635 25l128 255l123 -32l-93 -356h-1016z" />
<glyph unicode="[" horiz-adv-x="855" d="M177 -49q0 26 1 53t3 57q5 88 17.5 197.5t29.5 231.5t37.5 251.5t41 258t39 252t33.5 232.5q9 72 24.5 120.5t42 77.5t67 41.5t99.5 12.5q33 0 77.5 -7.5t85.5 -16.5q48 -11 97 -23l-13 -88h-275l-223 -1656q31 0 66.5 -0.5t71 -0.5t70.5 -0.5t67 -0.5l-11 -88 q-34 -10 -65.5 -18.5t-64 -15t-67.5 -10t-76 -3.5q-47 0 -80.5 7t-54.5 23.5t-30.5 44t-9.5 68.5z" />
<glyph unicode="\" horiz-adv-x="854" d="M122 1597h175l577 -1959h-176z" />
<glyph unicode="]" horiz-adv-x="855" d="M32 -133l13 88h275l223 1656q-31 0 -66.5 0.5t-71 0.5t-70.5 0.5t-67 0.5l11 88q34 10 65.5 18.5t64 15t67.5 10t76 3.5q47 0 80.5 -7t54.5 -23.5t30.5 -44t9.5 -68.5q0 -26 -1 -53t-3 -57q-5 -88 -17.5 -197.5t-29.5 -231.5t-37.5 -251.5t-41 -258t-39 -252 t-33.5 -232.5q-9 -72 -24.5 -120.5t-42 -77.5t-67 -41.5t-99.5 -12.5q-33 0 -77.5 7.5t-85.5 16.5q-48 11 -97 23z" />
<glyph unicode="^" horiz-adv-x="1363" d="M185 413l392 1118h204l397 -1118h-161l-337 905l-336 -905h-159z" />
<glyph unicode="_" horiz-adv-x="1335" d="M-111 -338l20 151h1378l-20 -151h-1378z" />
<glyph unicode="`" horiz-adv-x="541" d="M48 1595l155 148l288 -432l-67 -60q-21 9 -52.5 30t-68 50t-75 63.5t-73 69.5t-63 69t-44.5 62z" />
<glyph unicode="a" horiz-adv-x="1175" d="M82 412q0 77 19.5 163t57.5 169.5t93.5 159.5t127.5 133.5t160.5 91.5t191.5 34q50 0 103.5 -10.5t95.5 -24.5l121 34l-131 -973q-5 -41 6 -58.5t24 -17.5q14 0 33.5 9t54.5 37l31 -54q-5 -9 -24.5 -30t-49.5 -42t-69 -37t-82 -16q-30 0 -55 7.5t-42 23.5t-25.5 42 t-6.5 62l7 66q-29 -37 -65.5 -73t-78.5 -64.5t-89 -46t-96 -17.5q-84 0 -143.5 32.5t-97 90t-54.5 136.5t-17 173zM293 435q0 -73 8 -130.5t25.5 -98t44 -62t64.5 -21.5q43 0 87.5 22t85.5 55.5t76 73.5t60 75l86 660q-27 17 -59.5 24t-69.5 7q-71 0 -129 -28t-103 -75 t-78.5 -108t-55 -128.5t-32 -136t-10.5 -129.5z" />
<glyph unicode="b" horiz-adv-x="1189" d="M123 -20l197 1504l-95 43l21 84l245 39l51 -27l-83 -621q24 31 55.5 60t70 51.5t82.5 36t94 13.5q87 0 151 -32.5t106 -90t62.5 -137t20.5 -173.5q0 -78 -19 -164t-56.5 -169t-92 -159t-125.5 -133t-158 -91t-188 -34q-31 0 -64 4t-64.5 10t-60 14t-50.5 16zM343 142 q30 -23 68 -31.5t82 -8.5q69 0 125.5 28.5t101 76.5t76.5 110.5t53.5 131t31.5 137.5t10 131q0 145 -44.5 223.5t-122.5 78.5q-45 0 -88.5 -17.5t-81 -45t-68 -60.5t-50.5 -64z" />
<glyph unicode="c" horiz-adv-x="882" d="M76 431q0 77 17 161t50.5 165.5t83 155t115.5 129t147.5 88.5t178.5 33q27 0 57 -3.5t59 -9.5t56.5 -15t48.5 -20l-59 -199q-5 5 -11.5 9t-11.5 8q-43 35 -90.5 59t-95.5 24q-74 0 -135 -36.5t-104.5 -107t-67 -174.5t-23.5 -238q0 -89 14.5 -153t41 -105.5t64 -61 t83.5 -19.5q37 0 68.5 6.5t62 20.5t63.5 35.5t74 51.5l40 -82q-18 -22 -51 -51.5t-79.5 -56.5t-105.5 -46t-131 -19q-85 0 -151.5 30.5t-112.5 88.5t-70.5 141.5t-24.5 190.5z" />
<glyph unicode="d" horiz-adv-x="1182" d="M82 412q0 77 19.5 163t57 169.5t93 159.5t127.5 133.5t160.5 91.5t191.5 34q32 0 67.5 -5t69.5 -13l51 337l-125 43l21 83l271 42l53 -27l-208 -1434q-5 -36 1 -56t21 -20q13 0 32.5 9t54.5 37l31 -53q-6 -9 -26 -30t-50 -42.5t-68 -37.5t-80 -16q-61 0 -93 32 q-30 30 -30 97v9l-1 23q-24 -31 -56.5 -60t-72 -51.5t-85 -36t-96.5 -13.5q-84 0 -146.5 32.5t-103.5 90t-61 136.5t-20 173zM293 425q0 -146 42 -224t115 -78q44 0 87 16t80.5 41.5t69 57t52.5 61.5l106 699q-29 24 -65.5 33t-78.5 9q-71 0 -129 -28.5t-103.5 -76.5 t-78.5 -111t-54.5 -131t-32 -137.5t-10.5 -130.5z" />
<glyph unicode="e" horiz-adv-x="1052" d="M85 430q2 95 24 186t60 172.5t91 150t118 118.5t140.5 78t158.5 28q73 0 126.5 -19t89 -53t53 -79.5t17.5 -98.5q0 -78 -35.5 -141t-93 -113t-130.5 -87t-146.5 -61t-141.5 -37t-116 -14q-2 -19 -2 -41q0 -14 1 -29q2 -38 11 -76t25 -73t41 -62t59 -43t79 -16 q77 0 165 34t173 113l47 -84q-21 -30 -60.5 -65t-93 -66t-119.5 -51.5t-139 -20.5q-107 0 -184 38t-126 101t-71 144q-21 74 -21 153v14zM305 570q40 2 89 12.5t98.5 30t97 47t84 63t58.5 79t22 94.5q-1 78 -35.5 113.5t-89.5 35.5q-51 0 -93 -23.5t-76.5 -62t-61 -88.5 t-46 -103t-31 -104.5t-16.5 -93.5z" />
<glyph unicode="f" horiz-adv-x="700" d="M-209 -500l53 169q5 -2 24.5 -8.5t44.5 -13t51 -11.5t45 -5q24 0 43.5 18.5t34 51t24.5 76.5t17 95l138 1139h-138l15 76l149 62l12 71q15 93 56.5 174.5t98.5 143t126 97t140 35.5q40 0 80 -4.5t78 -21.5l-59 -168q-10 7 -23 15.5t-30.5 16t-39.5 12t-49 4.5 q-38 0 -68 -20.5t-51.5 -57.5t-36 -88t-22.5 -113l-12 -90h234l-17 -144h-235l-133 -1061q-13 -103 -47 -188t-84.5 -145.5t-115 -94.5t-138.5 -35h-21q-40 0 -76 3q-45 4 -68 10z" />
<glyph unicode="g" horiz-adv-x="1156" d="M82 412q0 77 19.5 163t57.5 169.5t93.5 159.5t127.5 133.5t160.5 91.5t191.5 34q61 0 118.5 -13t99.5 -29l122 42l-192 -1240q-12 -79 -43 -142t-74.5 -111t-96.5 -81.5t-109 -55t-112 -31.5t-106 -10q-33 0 -66 3t-62.5 8t-53.5 11.5t-39 12.5l50 186q21 -10 50.5 -21 t65 -20.5t74.5 -15.5t78 -6q63 0 104 8.5t66.5 31.5t39.5 63t24 102l45 275q-25 -29 -57 -56t-70.5 -48t-82 -33.5t-92.5 -12.5q-84 0 -146.5 32.5t-103.5 90t-61 136.5t-20 173zM293 425q0 -146 42.5 -224t114.5 -78q45 0 87.5 16.5t80.5 42t69.5 57t52.5 61.5l102 701 q-29 22 -64.5 30.5t-76.5 8.5q-71 0 -129 -28.5t-103 -76.5t-78.5 -111t-55 -131t-32 -137.5t-10.5 -130.5z" />
<glyph unicode="h" horiz-adv-x="1241" d="M117 0l193 1482l-119 43l17 83l272 42l52 -27l-94 -711q39 52 85.5 98t99 80t109.5 53.5t116 19.5q52 0 94 -15.5t72 -51t46 -93t16 -142.5q0 -37 -5 -81.5t-12.5 -91.5t-16.5 -94t-17 -89q-13 -77 -26 -159t-19 -159q-2 -36 3 -55.5t19 -19.5q16 0 39 11t67 44l31 -53 q-6 -10 -28 -32.5t-55 -45t-75.5 -39.5t-88.5 -17q-63 0 -97 30q-30 27 -30 88v15q2 34 7 74.5t12 83t15 86.5t15 86q8 44 18 95.5t18.5 104.5t14 106t5.5 100q0 54 -9 84.5t-24.5 46t-36 19.5t-43.5 4q-39 0 -83 -19t-88.5 -52t-88 -78.5t-80.5 -98.5l-100 -755h-200z" />
<glyph unicode="i" horiz-adv-x="642" d="M139 1031l18 81l306 51l49 -24l-139 -950q-3 -19 -3 -33q0 -43 26 -43q16 0 40 13t66 53l32 -54q-7 -11 -29.5 -35t-55.5 -48.5t-74.5 -43t-87.5 -18.5q-63 0 -97 30q-30 26 -30 85q0 9 1 18q4 60 16.5 149t29.5 200.5t37.5 242t40.5 274.5zM315 1503q0 30 13 57t34 48 t47 33t52 12q28 0 51 -9t39.5 -24t25 -35.5t8.5 -43.5q0 -30 -12.5 -58t-33.5 -49.5t-48.5 -34.5t-58.5 -13q-24 0 -45.5 9.5t-37 25t-25 37t-9.5 45.5z" />
<glyph unicode="j" horiz-adv-x="647" d="M-211 -481l36 82q7 -3 17 -5.5t20.5 -4t19.5 -2t13 -0.5q73 0 123.5 40.5t84.5 107t53 152.5t29 176l98 915l-156 51l18 81l317 51l48 -24l-130 -1139q-15 -128 -55 -224.5t-99 -162t-134.5 -98.5t-160.5 -33q-48 0 -86.5 9.5t-55.5 27.5zM315 1503q0 30 13 57t34 48 t47 33t52 12q28 0 51 -9t39.5 -24t25 -35.5t8.5 -43.5q0 -30 -12.5 -58t-33.5 -49.5t-48.5 -34.5t-58.5 -13q-24 0 -45.5 9.5t-37 25t-25 37t-9.5 45.5z" />
<glyph unicode="k" horiz-adv-x="1081" d="M103 0l193 1482l-117 43l16 83l272 42l52 -27l-216 -1623h-200zM399 610l2 1h-2q50 39 95.5 71t86.5 65t79.5 70.5t74.5 86.5q16 22 25.5 42t14.5 38.5t8 36t6 33.5q5 28 19 48.5t33 34t41 20t43 6.5q43 0 74 -27.5t33 -70.5q1 -26 -7.5 -53.5t-28.5 -56.5 q-35 -51 -90 -100.5t-115 -93.5t-117.5 -80t-96.5 -60l259 -403q27 -42 59.5 -68.5t55.5 -26.5q20 0 50 14t62 45l34 -61q-15 -23 -41 -48t-60.5 -45.5t-75 -34t-82.5 -13.5q-43 0 -84.5 25t-73.5 84z" />
<glyph unicode="l" horiz-adv-x="607" d="M140 115q0 14 1.5 36t4.5 41l183 1290l-123 43l21 83l268 42l48 -27l-201 -1434q-5 -36 1 -56t20 -20q7 0 16.5 2.5t22.5 9t29.5 19.5t38.5 34l31 -53q-6 -11 -28 -35t-54 -48.5t-73.5 -43t-86.5 -18.5q-61 0 -90 31t-29 104z" />
<glyph unicode="m" horiz-adv-x="1885" d="M133 0l130 963l-99 59l18 89l247 52l48 -24l-19 -212q40 49 87.5 92.5t99.5 75t107.5 50t111.5 18.5q48 0 86.5 -13t67 -42t45.5 -76.5t22 -116.5q38 52 84 97t97 78.5t105 53t110 19.5q49 0 91 -17t72.5 -53.5t47.5 -93.5t17 -138q0 -36 -4.5 -79.5t-11.5 -90t-15 -94 t-15 -91.5q-13 -79 -25 -159.5t-17 -158.5q-2 -36 2.5 -55.5t18.5 -19.5q8 0 17.5 2.5t22 9.5t29 20t39.5 33l31 -53q-7 -11 -29 -35t-54.5 -48.5t-74 -43t-87.5 -18.5q-63 0 -94 31q-28 28 -28 88v12q4 74 16 162t26 177q7 42 15 92t15.5 102.5t12.5 104.5t5 99 q0 54 -8 84.5t-22 45.5t-32.5 19t-38.5 4q-36 0 -77 -18.5t-83 -50.5t-83 -75.5t-77 -93.5q-5 -63 -13.5 -130.5t-17.5 -127.5l-64 -505h-203l56 443q7 44 14.5 95.5t13.5 104.5t9.5 106t3.5 100q0 54 -7 84.5t-20.5 46t-34 19.5t-46.5 4q-38 0 -81.5 -18.5t-88 -51.5 t-88 -77.5t-80.5 -96.5l-103 -759h-200z" />
<glyph unicode="n" horiz-adv-x="1260" d="M133 0l130 963l-98 59l18 89l247 52l48 -24l-20 -212q40 49 87.5 92.5t100 75t108 50t111.5 18.5q52 0 94 -15.5t71.5 -51t45.5 -93t16 -142.5q0 -37 -5 -81.5t-13 -91.5t-17 -94t-16 -89q-14 -77 -27 -159t-17 -159q-2 -36 2.5 -55.5t18.5 -19.5q13 0 32.5 9t54.5 37 l31 -53q-6 -9 -26 -30t-51 -42.5t-69.5 -37.5t-81.5 -16q-63 1 -97 31q-30 27 -30 85q0 9 1 18q2 34 7 74.5t12 83t14.5 86.5t15.5 86q8 44 17.5 95.5t18 104.5t14.5 106t6 100q0 54 -8 84.5t-22.5 46t-35.5 19.5t-47 4q-38 0 -81.5 -18.5t-88 -51.5t-88 -77.5t-80.5 -96.5 l-103 -759h-200z" />
<glyph unicode="o" horiz-adv-x="1145" d="M85 439v18q1 82 17 162q18 89 53 169.5t86 149t115 118.5t139 78.5t160 28.5q96 0 169.5 -31t124 -90t77.5 -144.5t29 -194.5v-10q0 -86 -17 -170q-18 -89 -53 -169.5t-86 -148.5t-115 -118t-139.5 -78.5t-160.5 -28.5q-96 0 -169.5 31t-123.5 89.5t-77 144t-29 194.5z M299 441q2 -160 57 -249.5t163 -89.5q57 0 103 26.5t82 72t62.5 105.5t43.5 126q16 66 24 136q7 61 6 119v15q-2 159 -57.5 248.5t-163.5 89.5q-57 0 -103 -26.5t-82 -71.5t-62 -105t-43 -126.5t-25 -136.5q-6 -55 -5 -106v-27z" />
<glyph unicode="p" horiz-adv-x="1162" d="M37 -520l203 1500l-109 52l18 79l258 52l47 -24l-14 -132q24 30 54.5 58t68 50t80.5 35t92 13q87 0 151 -32.5t106 -90t63 -137t21 -173.5q0 -78 -19.5 -164t-56.5 -169t-92 -159t-126 -133t-158 -91t-188 -34q-32 0 -66 4t-67 11l-71 -515h-195zM323 137 q29 -20 65.5 -27.5t78.5 -7.5q69 0 125.5 28.5t101 76.5t76.5 110.5t53.5 131t31.5 137.5t10 131q0 145 -44.5 223.5t-122.5 78.5q-42 0 -82.5 -15.5t-76 -40t-65.5 -54.5t-52 -59z" />
<glyph unicode="q" horiz-adv-x="1158" d="M82 412q0 77 19.5 163t57 169.5t93 159.5t127.5 133.5t160.5 91.5t191.5 34q27 0 56.5 -3.5t58 -9.5t54.5 -13.5t47 -14.5l95 11l-190 -1443q-2 -13 -1 -26.5t4 -24.5t7.5 -18t10.5 -7q8 0 17.5 3t22.5 10.5t29.5 20t38.5 32.5l31 -54q-7 -11 -29.5 -34.5t-56 -48 t-76 -43t-88.5 -18.5q-62 0 -91 32q-26 28 -26 90v13l66 509q-25 -29 -56.5 -55t-69 -46.5t-81 -32.5t-91.5 -12q-84 0 -146.5 32.5t-103.5 90t-61 136.5t-20 173zM293 425q0 -146 42 -224t115 -78q43 0 84 15.5t78 39.5t68 54t53 59l94 720q-27 16 -59 22.5t-67 6.5 q-71 0 -129 -28.5t-103.5 -76.5t-78.5 -111t-54.5 -131t-32 -137.5t-10.5 -130.5z" />
<glyph unicode="r" horiz-adv-x="837" d="M133 0l122 962l-100 60l18 89l246 52l48 -24l-21 -229q15 31 46.5 74t77.5 82.5t106 67.5t131 28q15 0 34 -2.5t27 -10.5l-45 -214q-29 15 -103 15q-36 0 -76 -11.5t-79.5 -38.5t-76.5 -71t-65 -109l-90 -720h-200z" />
<glyph unicode="s" horiz-adv-x="869" d="M40 39l37 153q16 -11 43 -24t62 -24.5t76.5 -19.5t86.5 -8q31 0 66 4t64 18.5t48 43t19 77.5q0 41 -15 75t-40 63t-56.5 54.5t-64.5 49.5q-27 20 -63 52.5t-68.5 75.5t-55 95.5t-22.5 113.5q0 75 32 135t85.5 102t124 65t147.5 23q40 0 80.5 -3.5t75.5 -9t61.5 -12 t38.5 -12.5l-38 -169q-5 7 -23 19.5t-47.5 25t-69 22t-86.5 9.5q-32 0 -63 -6t-56.5 -21t-43.5 -41t-22 -66q-1 -11 -1 -23q0 -26 8 -50q12 -34 34.5 -66t53.5 -60t64 -54q39 -30 78.5 -64.5t71.5 -76.5t52.5 -92.5t20.5 -113.5q0 -78 -33 -137.5t-88 -100t-127.5 -61 t-151.5 -20.5q-45 0 -92 5t-87.5 13t-71.5 19t-44 22z" />
<glyph unicode="t" horiz-adv-x="735" d="M131 1015l20 88l123 47q17 19 35 50t36 68t34.5 75.5t29.5 72.5h98l-34 -261h260l-20 -140h-257l-83 -625q-8 -57 -12.5 -102t-4.5 -74q0 -28 3.5 -46t13 -28.5t25.5 -14.5t42 -4q19 0 45.5 8.5t53.5 21t51.5 27t40.5 26.5l18 -78q-18 -22 -53.5 -47.5t-79.5 -47.5 t-93 -36.5t-92 -14.5q-37 0 -70.5 8.5t-58.5 29.5t-39.5 55.5t-14.5 85.5v11.5t1 22.5t4 39.5t8 63.5l90 719h-120z" />
<glyph unicode="u" horiz-adv-x="1210" d="M149 1023l18 89l249 51l48 -24l-69 -550q-6 -45 -11 -84.5t-9.5 -75.5t-7 -71t-2.5 -72q0 -51 10 -84t28.5 -51.5t44.5 -25.5t58 -7q35 0 71 13.5t69.5 35.5t63.5 51t54 60l116 877h199l-125 -964q-2 -18 -2 -32q0 -44 24 -44q8 0 17 2.5t21.5 10t29 20.5t38.5 33l31 -54 q-7 -11 -29.5 -35t-56 -48.5t-75.5 -43t-88 -18.5q-70 0 -98 42q-19 28 -18 67q0 21 5 46l-1 9q-27 -32 -61 -62t-75 -53t-90 -37t-106 -14t-104.5 13.5t-81.5 45.5t-52.5 84.5t-18.5 130.5q0 33 3 74t8.5 86t11.5 91.5t12 91.5l51 366z" />
<glyph unicode="v" horiz-adv-x="1058" d="M36 1058q5 8 22.5 25.5t43.5 35t60 31t72 13.5t62.5 -9t39.5 -26.5t22.5 -43t10.5 -58.5l69 -667l12 -186l112 164q41 66 77.5 129t67.5 130t55 140t40 159q4 25 0 47t-10 41.5t-12 37t-6 33.5q0 56 27.5 82.5t70.5 26.5q67 0 98.5 -53.5t31.5 -147.5q0 -46 -13.5 -99.5 t-37 -110t-53.5 -114.5t-63 -114.5t-66.5 -109.5t-63.5 -99l-230 -323l-153 -12l-59 375l-97 608q-5 31 -15.5 43.5t-24.5 12.5h-2q-27 0 -59 -22z" />
<glyph unicode="w" horiz-adv-x="1701" d="M36 1058q6 8 23.5 25.5t44 35t61 31t73.5 13.5t64 -9t40.5 -26.5t23 -43t10.5 -58.5l53 -682l12 -186l77 172l347 825h179l64 -812l16 -185l108 165q12 18 31.5 52t42 79.5t46 99.5t43 112t33.5 116.5t17 112.5q1 25 -3 47t-9.5 41.5t-10.5 37t-5 33.5q0 56 27 82.5 t70 26.5q68 0 97 -51.5t29 -158.5q0 -70 -27 -153.5t-68.5 -169t-90 -167t-90.5 -148.5l-203 -323l-188 -11l-39 374l-33 377l-8 142l-48 -143l-191 -405l-166 -334l-172 -12l-60 375l-87 608q-6 31 -16.5 43.5t-24.5 12.5h-2q-27 0 -60 -22z" />
<glyph unicode="x" horiz-adv-x="1009" d="M-25 0l434 590l-184 383q-14 29 -26.5 43t-30.5 14q-19 0 -38.5 -13t-30.5 -29l-38 56q5 9 22 28.5t44 40t62 35.5t76 15q34 0 57.5 -6.5t40 -20t27.5 -33t19 -44.5l111 -346l294 442h216l-446 -599l199 -384q14 -29 25.5 -43.5t25.5 -14.5q7 0 16.5 2.5t21.5 10t28.5 20 t37.5 32.5l36 -56q-5 -11 -26.5 -34.5t-54 -47.5t-73.5 -42.5t-85 -18.5q-33 0 -55 7.5t-37 21.5t-24.5 33t-18.5 43l-128 349l-283 -434h-214z" />
<glyph unicode="y" horiz-adv-x="1072" d="M-126 -478l47 160q7 -3 21 -10t35 -13.5t49.5 -12t64.5 -5.5q32 0 76.5 14.5t92.5 50t96.5 94t89.5 146.5h-96l-172 1017q-5 32 -15 44t-25 12q-6 0 -12.5 -1t-15.5 -4.5t-22 -12t-31 -23.5l-29 60q6 9 26 30t49.5 42t66 37t76.5 16q37 0 61.5 -9.5t39.5 -27.5 t22.5 -43.5t11.5 -56.5q0 -2 4 -34t10 -83.5t14 -116.5t15.5 -133t15.5 -133t14 -116t10 -83t4 -34l20 -272l155 310q32 76 66 146.5t62 142t46 146.5t18 162q0 17 -5.5 32.5t-11.5 31t-11.5 32t-5.5 34.5q0 56 28 80t71 24q68 0 99 -49t31 -142q0 -84 -23 -169 t-57.5 -167.5t-76 -160.5t-77.5 -149q-71 -142 -128.5 -249t-105 -186t-85 -134t-68.5 -92q-20 -29 -52.5 -59t-77.5 -54.5t-103 -40.5t-128 -16q-17 0 -41 2.5t-48.5 7t-47 9t-37.5 9.5z" />
<glyph unicode="z" horiz-adv-x="1024" d="M-4 39l642 788l143 156l-411 1q-31 0 -55 -13.5t-41.5 -37t-28.5 -54t-16 -63.5h-83q0 35 4 85t13.5 99t24.5 89t37 54q13 8 28.5 15t52.5 7q59 0 139.5 -4.5t162.5 -10t156.5 -10t121.5 -4.5q23 0 42 5t42 22l57 -60l-650 -807l-126 -139h409q35 0 65.5 12.5t54 34.5 t38.5 51.5t20 63.5h83q0 -35 -6.5 -84t-18 -97t-28.5 -87t-39 -54q-13 -8 -38.5 -14t-62.5 -6t-85 2.5t-100.5 6t-106.5 8t-104 8t-93 6t-73 2.5q-18 0 -43 -4.5t-46 -17.5l-14 -11z" />
<glyph unicode="{" horiz-adv-x="1020" d="M152 714l18 124q49 12 101 28.5t91 36.5q27 14 44.5 30t20.5 33l77 518q12 74 28.5 123t43.5 77.5t67 40t99 11.5q33 0 77.5 -7.5t85.5 -16.5q48 -11 97 -23q-3 -19 -6 -37q-2 -15 -4.5 -29.5t-2.5 -21.5h-276l-96 -631q-6 -41 -32 -70t-66 -54q-11 -7 -34.5 -18.5 t-48.5 -22.5q-29 -13 -62 -29q45 -23 82.5 -46t59.5 -46q23 -23 34.5 -50.5t6.5 -58.5l-95 -630h275q-2 -6 -3.5 -20.5t-3.5 -29.5q-3 -18 -5 -39q-34 -10 -66 -18.5t-64.5 -15t-68 -10t-76.5 -3.5q-47 0 -79.5 7t-53 23.5t-29.5 44t-9 68.5q0 5 4 35t10.5 75t14.5 101 t16 113q19 135 45 303q0 17 -14 34t-38 33q-32 22 -76 39.5t-89 28.5z" />
<glyph unicode="|" horiz-adv-x="854" d="M359 -186v1966h175v-1966h-175z" />
<glyph unicode="}" horiz-adv-x="1020" d="M55 -143q3 19 6 37q2 15 4.5 29.5t2.5 21.5h276l96 631q6 41 32 70t66 54q11 7 34.5 18.5t48.5 22.5q29 13 62 29q-45 23 -82.5 46t-59.5 46q-23 23 -34.5 50.5t-6.5 58.5l95 630h-275q2 6 3.5 20.5t3.5 29.5q3 18 5 39q34 10 66 18.5t64.5 15t68 10t76.5 3.5 q47 0 79.5 -7t53 -23.5t29.5 -44t9 -68.5q0 -5 -4 -35t-10.5 -75t-14.5 -101t-16 -113q-19 -135 -45 -303q0 -17 14 -34t38 -33q32 -22 76 -39.5t89 -28.5l-18 -124q-49 -12 -101 -28.5t-91 -36.5q-27 -14 -44.5 -30t-20.5 -33l-77 -518q-12 -74 -28.5 -123t-43.5 -77.5 t-67 -40t-99 -11.5q-33 0 -77.5 7.5t-85.5 16.5q-48 11 -97 23z" />
<glyph unicode="~" horiz-adv-x="1137" d="M150 849q12 36 41 73.5t70.5 67.5t92.5 49.5t108 19.5q39 0 71.5 -12.5t61 -31.5t54.5 -41.5t51 -41.5t51 -31.5t54 -12.5q67 0 117 32t85 85l72 -75q-11 -41 -40 -79t-70.5 -67t-93 -47t-108.5 -18q-39 0 -71.5 12.5t-61 31.5t-54 41.5t-51 41.5t-51.5 31.5t-55 12.5 q-66 0 -116 -31.5t-85 -84.5z" />
<glyph unicode="&#xa2;" horiz-adv-x="1056" d="M134 431q0 69 13.5 143.5t40 148t66.5 142t92.5 125.5t117.5 98.5t143 60.5l52 209h150l-49 -196q49 -4 99.5 -16.5t87.5 -30.5l-59 -199q-5 5 -11.5 9t-11.5 8q-43 35 -90.5 59t-95.5 24q-74 0 -135 -36.5t-104.5 -107t-67 -174.5t-23.5 -238q0 -89 14.5 -153t41 -105.5 t64 -61t83.5 -19.5q37 0 68.5 6.5t62 20.5t63.5 35.5t74 51.5l40 -82q-17 -20 -44.5 -46t-66.5 -50.5t-88.5 -45t-108.5 -27.5l-37 -199h-150l38 205q-64 15 -114 51t-84.5 92.5t-52.5 131t-18 166.5z" />
<glyph unicode="&#xa3;" horiz-adv-x="1369" d="M-12 74q4 26 27 54t59 51.5t82 38t97 14.5q14 20 26.5 51t23 67t18.5 72.5t13 67.5q11 60 21 123.5t21 129.5h-177l18 133h180l17 104q11 73 37 143.5t63.5 133t86.5 115.5t107 91.5t124 60t138 21.5q43 0 79.5 -3t69 -12t60.5 -25t53 -42l-113 -172q-4 9 -23.5 27.5 t-52 37.5t-76 33.5t-95.5 14.5q-36 0 -75 -18.5t-74 -66t-64.5 -128.5t-46.5 -206q-3 -24 -8 -52t-10 -57h321l-17 -133h-328l-8 -52q-15 -101 -32 -172t-38 -125.5t-47 -100t-59 -96.5q48 -13 96 -30.5t97 -33.5t99.5 -27.5t104.5 -11.5q80 0 135.5 14.5t90 43t50 71.5 t15.5 100q0 20 -7 43.5t-17.5 45.5t-23.5 40.5t-25 29.5l140 131q30 -24 55 -54.5t43.5 -66.5t29 -75.5t10.5 -81.5q0 -35 -7 -74.5t-25.5 -79t-51 -76t-85.5 -64.5t-128.5 -44.5t-178.5 -16.5q-69 0 -135.5 11.5t-130.5 29.5t-124.5 39t-117.5 41q-20 -25 -46.5 -47 t-57 -38.5t-62.5 -26t-63 -9.5q-15 0 -31 3.5t-27.5 14t-17.5 29t-2 47.5z" />
<glyph unicode="&#xa5;" horiz-adv-x="1483" d="M210 1422l11 100h505l-11 -100l-175 -17l231 -427l41 -112l67 119l300 420l-138 17l11 100h467l-11 -99l-136 -28l-422 -533h340l-15 -132h-413l-26 -223h413l-15 -131h-414l-30 -258l223 -30l-9 -88h-623l8 88l219 30l31 258h-410l15 131h410l27 223h-411l14 132h345 l-301 542z" />
<glyph unicode="&#xa7;" horiz-adv-x="1194" d="M56 -100l41 330h107l34 -208q25 -30 58.5 -48.5t72 -28.5t79 -13.5t80.5 -3.5q45 0 96.5 14.5t96.5 45t77.5 77t40.5 110.5q6 50 -21 87t-75 67t-110.5 55t-128 52t-127.5 58t-109 72.5t-72 96t-16 128.5q4 36 15 74t28 75.5t39 72.5t48 65q-42 42 -63 95t-13 124 q8 69 37.5 124t73 96.5t97 71t108 48.5t107 27.5t94.5 8.5q70 0 131 -7t110.5 -18t86 -24.5t56.5 -26.5l-38 -302h-98l-54 208q-15 17 -38 29t-52 19.5t-62.5 11t-69.5 3.5q-32 0 -79.5 -8.5t-93.5 -32t-81.5 -66t-43.5 -110.5q-6 -54 21 -94.5t75 -73t111 -60t128.5 -57 t128 -63t109 -78t71.5 -103t16 -137.5q-9 -72 -41.5 -145t-80.5 -133q35 -39 52.5 -87.5t9.5 -111.5q-8 -65 -36 -119.5t-70 -98t-95 -76t-109 -54.5t-112.5 -33t-105.5 -11q-62 0 -131.5 8.5t-131.5 21.5t-110.5 28t-67.5 28zM351 866q-6 -53 15.5 -93t62 -72.5t95 -58.5 t114.5 -51.5t120 -52t112 -58.5q16 30 27 61t14 58q7 57 -13.5 100.5t-59.5 78t-92 62.5t-112 54.5t-119 53.5t-112 59q-19 -32 -33 -68.5t-19 -72.5z" />
<glyph unicode="&#xa8;" horiz-adv-x="809" d="M59 1503q0 30 12 57t32.5 47.5t46.5 33t55 12.5q28 0 51 -9t39 -24t25 -35.5t9 -43.5q0 -30 -12.5 -58t-33.5 -49.5t-49 -34.5t-59 -13q-24 0 -45 9.5t-36.5 25t-25 37t-9.5 45.5zM481 1503q0 30 12 57t32 47.5t46.5 33t55.5 12.5q57 0 90 -33t33 -79q0 -30 -12 -58 t-33 -49.5t-49 -34.5t-59 -13q-24 0 -45.5 9.5t-37 25t-24.5 37t-9 45.5z" />
<glyph unicode="&#xa9;" horiz-adv-x="1768" d="M177 806q0 104 27 200.5t76.5 180.5t118.5 152.5t153 117.5t180.5 76t200.5 27t200.5 -27t180.5 -76t153.5 -117.5t119 -152.5t76.5 -180.5t27 -200.5q0 -105 -27 -201.5t-76.5 -180.5t-119 -152.5t-153.5 -117.5t-180.5 -76t-200.5 -27t-200.5 27t-180.5 76t-153 117.5 t-118.5 152.5t-76.5 180.5t-27 201.5zM297 806q0 -89 22.5 -172t63.5 -155t98.5 -131t128.5 -101.5t152.5 -65.5t170.5 -23t171 23t153 65.5t128.5 101.5t98.5 131t63.5 155t22.5 172t-22.5 171.5t-63.5 154.5t-98.5 131.5t-128.5 101.5t-153 65.5t-171 23.5t-170.5 -23.5 t-152.5 -65.5t-128.5 -101.5t-98.5 -131.5t-63.5 -154.5t-22.5 -171.5zM542 802q-1 90 28 171t84 141.5t134.5 96.5t180.5 36q34 0 69 -3t66.5 -8t57.5 -12t41 -15v-206h-75l-54 120q-22 20 -59 29.5t-86 9.5q-45 0 -86.5 -18.5t-73.5 -55.5t-51.5 -94t-19.5 -133 q-1 -105 23.5 -179.5t63.5 -122t86.5 -70t93.5 -22.5q36 0 68.5 5.5t61 14.5t51 19.5t39.5 19.5l28 -68q-21 -18 -53 -34.5t-70.5 -29t-81.5 -20.5t-88 -8q-90 0 -160 34.5t-118.5 94t-74 138.5t-25.5 169z" />
<glyph unicode="&#xaa;" horiz-adv-x="854" d="M82 1040q0 63 18 127.5t51 124t79.5 111.5t104 90.5t124 61t139.5 22.5q45 0 92.5 -9t81.5 -20l105 38l-122 -694q-1 -25 1.5 -39.5t10.5 -14.5t20.5 3.5t35.5 16.5l23 -39q-3 -6 -20.5 -18.5t-42.5 -25t-55 -22.5t-60 -10q-23 0 -41.5 9.5t-30.5 26t-16.5 39.5t1.5 50 q-20 -23 -44 -45t-55 -40t-68.5 -29t-82.5 -11q-59 0 -105.5 20.5t-78.5 59t-48.5 93.5t-16.5 124zM270 1055q0 -91 33.5 -142t109.5 -51q22 0 45 8t45.5 21t43.5 29.5t39 32.5l81 467q-18 26 -44 40.5t-50 14.5q-80 0 -137 -38.5t-94 -99t-54.5 -135t-17.5 -147.5z" />
<glyph unicode="&#xab;" horiz-adv-x="1866" d="M241 530l22 160l693 396l39 -117l-508 -354l413 -350l-72 -113zM916 530l22 160l693 396l39 -117l-508 -354l413 -350l-72 -113z" />
<glyph unicode="&#xac;" horiz-adv-x="1370" d="M213 720l15 134h961l-62 -532h-179l47 398h-782z" />
<glyph unicode="&#xad;" horiz-adv-x="1127" d="M223 692l18 160h717l-18 -160h-717z" />
<glyph unicode="&#xae;" horiz-adv-x="1768" d="M177 806q0 104 27 200.5t76.5 180.5t118.5 152.5t153 117.5t180.5 76t200.5 27t200.5 -27t180.5 -76t153.5 -117.5t119 -152.5t76.5 -180.5t27 -200.5q0 -105 -27 -201.5t-76.5 -180.5t-119 -152.5t-153.5 -117.5t-180.5 -76t-200.5 -27t-200.5 27t-180.5 76t-153 117.5 t-118.5 152.5t-76.5 180.5t-27 201.5zM297 806q0 -89 22.5 -172t63.5 -155t98.5 -131t128.5 -101.5t152.5 -65.5t170.5 -23t171 23t153 65.5t128.5 101.5t98.5 131t63.5 155t22.5 172t-22.5 171.5t-63.5 154.5t-98.5 131.5t-128.5 101.5t-153 65.5t-171 23.5t-170.5 -23.5 t-152.5 -65.5t-128.5 -101.5t-98.5 -131.5t-63.5 -154.5t-22.5 -171.5zM572 375v74l83 20v665l-83 22v84h144q27 -1 46.5 -0.5t43.5 1t58 2t90 2.5q77 0 135.5 -16.5t98.5 -47t60.5 -73t22.5 -94.5q0 -40 -9.5 -79t-35 -72.5t-71 -59t-118.5 -38.5q49 -28 81 -70.5 t56.5 -86.5t46 -83t51.5 -60q14 -7 30 -9.5t36 -2.5v-78h-162q-19 0 -36 22t-34.5 57t-38 77.5t-46 84t-59.5 77t-78 55.5h-86v-279l101 -20v-74h-327zM798 837q26 -5 65.5 -6.5t78.5 -1.5q38 0 69 13.5t53.5 36t35 52t12.5 62.5q0 43 -13.5 73.5t-38 50t-58.5 28.5t-75 9 q-31 0 -61 -0.5t-68 -9.5v-307z" />
<glyph unicode="&#xb0;" horiz-adv-x="901" d="M203 1278q1 69 27 128t71 102.5t107 68t134 24.5q70 0 129.5 -25.5t103 -69.5t67.5 -103t23 -125q-1 -69 -27.5 -128.5t-72.5 -103t-108 -68t-134 -24.5q-70 0 -129 25.5t-102 70t-66.5 103.5t-22.5 125zM345 1278q-1 -42 13 -78.5t39 -63.5t59 -43t74 -16q42 0 77 15 t60.5 42t40 63.5t15.5 80.5q1 42 -13 78.5t-39.5 63.5t-59.5 42.5t-74 15.5q-42 0 -76.5 -15t-60 -42t-40 -63.5t-15.5 -79.5z" />
<glyph unicode="&#xb1;" horiz-adv-x="1368" d="M180 29l17 151h868l-17 -151h-868zM249 692l18 160h225l139 -11q2 40 6.5 83t7.5 82l26 230h179l-26 -230l-29 -164l115 10h254l-18 -160h-255l-112 7q-2 -42 -5.5 -82t-5.5 -82l-27 -241h-180l27 241l26 164l-141 -7h-224z" />
<glyph unicode="&#xb4;" horiz-adv-x="559" d="M50 1312l317 431l144 -138q-9 -17 -33.5 -46.5t-58.5 -65.5t-74.5 -74t-81.5 -71.5t-79.5 -60t-68.5 -37.5z" />
<glyph unicode="&#xb5;" horiz-adv-x="1364" d="M118 -372l108 730q19 142 43.5 284.5t38.5 299.5q2 36 -3 55.5t-19 19.5q-11 0 -26 -5t-42 -21l-30 53q5 8 24 25.5t47 35.5t64 32t76 14q58 0 90 -28t28 -101q-5 -80 -17.5 -166.5t-26.5 -174.5q-14 -89 -29 -179t-15 -185q0 -56 9 -94t26 -61t42 -33t58 -10q38 0 78 16 t77.5 39.5t70 51.5t55.5 52l112 863h200l-123 -950q-10 -76 22 -76q11 0 26.5 5.5t41.5 21.5l32 -54q-6 -8 -25.5 -25.5t-48 -35.5t-64 -31.5t-73.5 -13.5q-30 0 -54 5.5t-39.5 20.5t-22.5 41.5t-2 68.5q-27 -26 -61 -50.5t-75.5 -44t-91.5 -31.5t-109 -12q-35 1 -67 9.5 t-59 23.5l-58 -385h-188z" />
<glyph unicode="&#xb6;" horiz-adv-x="1364" d="M152 1085q-2 102 28.5 186t98 144t174 93t258.5 33q54 0 102.5 -3t96 -6.5t95.5 -6.5t101 -3h242l-11 -103l-142 -33l-159 -1270l135 -30l-9 -86h-341l171 1384h-207l-180 -1384h-354l8 87l167 30l79 623q-80 2 -145 25.5t-110.5 67t-71 107t-26.5 145.5z" />
<glyph unicode="&#xb7;" horiz-adv-x="687" d="M205 716q4 31 19 58.5t36.5 47.5t48.5 31.5t55 11.5q36 0 60.5 -10t39 -27.5t19.5 -40.5t2 -49q-4 -34 -19.5 -61.5t-39 -47t-52 -30t-58.5 -10.5q-27 0 -49 8.5t-37 25t-22 40t-3 53.5z" />
<glyph unicode="&#xb8;" horiz-adv-x="479" d="M2 -437l16 151q6 -3 17 -6t23.5 -4.5t25.5 -2.5t25 -1q42 0 76 17.5t57.5 50t36.5 78.5t13 103q0 27 -2.5 46.5t-6.5 34.5l49 4l54 -4q15 -21 22.5 -60t7.5 -85q0 -89 -22 -154.5t-60 -109t-89.5 -65t-111.5 -21.5q-40 0 -77 8t-54 20z" />
<glyph unicode="&#xba;" horiz-adv-x="854" d="M91 1085q0 121 43 215.5t110 159t148.5 97.5t158.5 32q80 -1 141 -27.5t102.5 -73.5t62.5 -112t21 -142q0 -122 -41 -216t-107 -158t-148.5 -96.5t-164.5 -30.5q-73 1 -133 26t-103 71t-66.5 110.5t-23.5 144.5zM287 1103q0 -60 11 -108.5t30 -83t45 -54t55 -19.5 q76 -1 124.5 33.5t76.5 89t39 122t11 133.5q0 60 -10 110.5t-29.5 87t-47.5 57t-64 20.5q-47 0 -82.5 -18t-62.5 -47.5t-45.5 -68.5t-29.5 -82.5t-16 -87.5t-5 -84z" />
<glyph unicode="&#xbb;" horiz-adv-x="1866" d="M126 269l508 354l-413 350l72 113l587 -378l-22 -160l-693 -396zM802 269l508 354l-413 350l72 113l587 -378l-22 -160l-693 -396z" />
<glyph unicode="&#xf7;" horiz-adv-x="1370" d="M273 695l18 159h872l-18 -159h-872zM526 374q3 32 20.5 59t42 47t54 31.5t58.5 11.5q35 0 59.5 -10t39.5 -27.5t20.5 -40.5t2.5 -48q-4 -33 -21 -60.5t-41 -47t-53.5 -30.5t-59.5 -11q-27 0 -50.5 8.5t-40.5 25t-25.5 40t-5.5 52.5zM622 1153q3 32 20.5 59t42.5 47 t54.5 31.5t58.5 11.5q35 0 59.5 -10t39.5 -27.5t20.5 -40.5t2.5 -49q-3 -33 -20 -60.5t-42 -47t-54.5 -30.5t-58.5 -11q-26 0 -50 8.5t-41 25t-26 40t-6 53.5z" />
<glyph unicode="&#x192;" horiz-adv-x="1058" d="M193 1003l7 79l219 59l8 62q6 74 30.5 139.5t61 119.5t82 96.5t93.5 71.5t96 44.5t90 15.5q68 0 99 -6t41 -11l-11 -173q-14 8 -60 20t-118 12q-39 0 -74.5 -7t-63.5 -32.5t-47 -74.5t-26 -133l-17 -144h306l-12 -138h-306l-172 -1359h-182l172 1359h-216z" />
<glyph unicode="&#x2c6;" horiz-adv-x="795" d="M50 1286l329 365h178l190 -365l-76 -58l-229 271l-333 -270z" />
<glyph unicode="&#x2da;" horiz-adv-x="722" d="M88 1486q0 80 32 137t83 93.5t113.5 53.5t122.5 17q131 0 203 -59.5t72 -168.5q0 -80 -30.5 -137.5t-79.5 -95t-110.5 -55.5t-124.5 -18q-139 0 -210 63t-71 170zM232 1506q0 -35 11.5 -65t32 -52t48 -35t60.5 -13q38 0 72 9.5t60 32t41 60.5t15 95q0 35 -11 64t-30.5 50 t-47 33t-60.5 12q-38 0 -72.5 -10t-60.5 -32.5t-42 -59t-16 -89.5z" />
<glyph unicode="&#x2dc;" horiz-adv-x="816" d="M49 1482q16 32 42 62.5t58.5 54t70 38t76.5 14.5q33 0 59 -10.5t47 -26t39 -33.5t35 -33.5t36 -26t42 -10.5q28 0 50 10.5t40.5 26t34 35t29.5 37.5l59 -92q-13 -38 -37.5 -71t-58 -57.5t-73 -38.5t-82.5 -14q-41 0 -69 10t-49 25.5t-37.5 33.5t-33 33.5t-36 26 t-47.5 11.5q-17 0 -37 -8t-39.5 -21.5t-38 -29.5t-32.5 -31z" />
<glyph unicode="&#x3a9;" horiz-adv-x="1660" d="M-18 0l9 362l132 6l20 -216h339q-37 25 -75.5 64.5t-74.5 90t-68 110.5t-56 125.5t-38 135t-14 139.5q0 160 58 293.5t161 230t244 150.5t306 54q133 0 245 -36.5t193 -107t126.5 -175t45.5 -239.5q0 -69 -16.5 -145.5t-45.5 -153.5t-70 -152.5t-90 -144t-104.5 -127.5 t-113.5 -102h320l89 237l121 -7l-69 -392h-630l-21 130q82 51 157.5 136t133 194t91.5 238t34 270q0 123 -34.5 210.5t-93 144t-135 83t-160.5 26.5q-115 0 -212.5 -37t-169 -114.5t-111.5 -196t-40 -281.5q0 -117 27 -224.5t69 -196t93.5 -154t99.5 -98.5l-40 -130h-632z " />
<glyph unicode="&#x3c0;" horiz-adv-x="1621" d="M157 99q66 18 112 43t77 55.5t49.5 65t30.5 72t20 77t17 78.5l107 470h-66q-25 0 -52.5 -10t-52.5 -27.5t-45.5 -39.5t-31.5 -46l-126 17q-1 16 4 46t22 57q26 43 62.5 74t80 51t92 29t99.5 9h671q26 0 49 3.5t43.5 14t38.5 29.5t33 49h129q-11 -71 -40 -120t-72.5 -79.5 t-100 -44t-120.5 -13.5h-19q-22 -172 -37.5 -291.5t-25.5 -198.5t-15 -124t-8 -68t-3.5 -30t-0.5 -11q0 -45 17 -69.5t38 -25.5q25 -1 50.5 9.5t49 30.5t41.5 48.5t28 63.5h135q-14 -53 -45.5 -109t-79 -102.5t-111 -76t-139.5 -29.5q-45 0 -77.5 14t-53.5 39.5t-31.5 59.5 t-10.5 75q0 20 2 48.5t6.5 71.5t12 102t19.5 141t29 188.5t40 243.5h-274l-84 -528q-20 -126 -55 -210t-81.5 -136t-103.5 -77.5t-123 -35.5z" />
<glyph unicode="&#x400;" horiz-adv-x="1233" d="M25 0l11 87l149 29l160 1282l-133 23l12 101h934l-8 -312h-111l-47 189l-437 15l-72 -559l448 8l-13 -159l-447 17l-83 -604l547 24l119 211l109 -30l-88 -322h-1050zM424 1880l135 121l263 -342l-68 -48q-36 13 -85.5 42t-98.5 66t-89 79t-57 82z" />
<glyph unicode="&#x401;" horiz-adv-x="1233" d="M25 0l11 87l149 29l160 1282l-133 23l12 101h934l-8 -312h-111l-47 189l-437 15l-72 -559l448 8l-13 -159l-447 17l-83 -604l547 24l119 211l109 -30l-88 -322h-1050zM456 1840q0 30 13 57t33.5 48t46 33t51.5 12q28 0 51 -9t39 -24.5t24.5 -36t8.5 -43.5 q0 -30 -12.5 -58t-33.5 -49t-49 -33.5t-58 -12.5q-23 0 -44 9.5t-36.5 25t-24.5 36.5t-9 45zM875 1844q0 30 13.5 56.5t35 46.5t47.5 31.5t50 11.5q57 0 89.5 -33t32.5 -79q0 -30 -12 -58t-33 -49.5t-49 -34t-59 -12.5q-24 0 -45 9.5t-36.5 26t-24.5 38t-9 46.5z" />
<glyph unicode="&#x402;" horiz-adv-x="1594" d="M83 1055l82 467h1285l-68 -467h-126l3 350l-413 15l-79 -637q32 14 75.5 29.5t95 28.5t109 21.5t116.5 8.5q83 0 144 -17t103 -45.5t68 -66t40.5 -77.5t19.5 -80t5 -75q0 -53 -14 -111.5t-40.5 -116t-66 -109.5t-90 -91.5t-112.5 -63t-134 -23.5q-21 0 -40.5 1.5 t-31.5 4.5l7 93q6 -1 17.5 -0.5t25 1.5t27 3t24.5 5q55 12 94 49t64 85.5t36.5 101.5t11.5 96q0 70 -12 126t-41 95.5t-78 61t-123 21.5q-44 0 -88 -6.5t-84.5 -15.5t-76.5 -20t-64 -20l-68 -558l200 -32l-12 -87h-588l12 87l191 32l159 1301l-331 -15l-105 -350h-129z" />
<glyph unicode="&#x403;" horiz-adv-x="1078" d="M4 0l11 87l172 30l158 1281l-184 26l12 98h935l-39 -471h-140l-17 352l-367 9l-160 -1294l317 -31l-9 -87h-689zM538 1659l276 342l126 -121q-20 -42 -61.5 -84t-90.5 -78.5t-99 -65t-86 -41.5z" />
<glyph unicode="&#x404;" horiz-adv-x="1225" d="M92 627q-2 137 23.5 258t74.5 222t118 181t152 135.5t178 85t196 29.5q68 0 123 -5t98.5 -12t76.5 -15t57 -14l38 -11l-66 -368h-122l-24 262q-14 9 -31.5 17.5t-42 14.5t-57.5 9.5t-76 3.5q-95 0 -169.5 -36.5t-130.5 -97t-94.5 -140t-62.5 -165t-34 -172t-9 -161.5 q1 -66 10 -132.5t26 -127t44 -112.5t64 -90.5t85 -60.5t108 -22q34 0 74 5.5t77 18t67.5 32t46.5 47.5l5 14.5t12.5 36t16.5 47t16.5 47.5t12.5 36.5t5 15.5l124 -1l-40 -329q-26 -9 -69 -24t-101 -29.5t-130.5 -25t-156.5 -10.5q-92 0 -165.5 26t-130 71.5t-97.5 107.5 t-67 133.5t-39 149t-14 155.5zM266 741l16 102l650 20l-34 -171q-29 2 -74 4t-98.5 4.5t-113.5 6t-120.5 8.5t-118.5 11t-107 15z" />
<glyph unicode="&#x405;" horiz-adv-x="1083" d="M54 65l42 282h120l25 -193q20 -14 47 -25t57 -19t61.5 -12t61.5 -4q48 0 101.5 13.5t99.5 43t77.5 76.5t35.5 114q3 60 -16 109t-53 89.5t-80 75t-98 66.5q-61 38 -121.5 82t-108.5 98t-78.5 119.5t-31.5 146.5q-2 92 36.5 168.5t105 131t154.5 85t186 30.5q72 0 130 -8 t103.5 -20.5t78 -27.5t53.5 -29l-47 -263h-109l-28 180q-30 22 -84 36.5t-114 14.5q-45 0 -91.5 -12.5t-85 -39.5t-62.5 -69t-24 -100q0 -62 20 -112t55 -92t82 -78.5t101 -69.5q60 -38 118.5 -78t105 -89t75.5 -109.5t31 -139.5q2 -107 -37 -192t-109.5 -144.5t-167 -91 t-209.5 -31.5q-70 0 -135.5 8.5t-120 21.5t-94.5 28.5t-58 29.5z" />
<glyph unicode="&#x406;" horiz-adv-x="708" d="M28 0l9 87l148 30l161 1281l-133 23l12 101h490l-11 -101l-153 -23l-162 -1281l158 -29l-8 -88h-511z" />
<glyph unicode="&#x407;" horiz-adv-x="708" d="M28 0l9 87l148 30l161 1281l-133 23l12 101h490l-11 -101l-153 -23l-162 -1281l158 -29l-8 -88h-511zM192 1840q0 30 13 57t33.5 48t46 33t51.5 12q28 0 51 -9t39 -24.5t24.5 -36t8.5 -43.5q0 -30 -12.5 -58t-33.5 -49t-49 -33.5t-58 -12.5q-23 0 -44 9.5t-36.5 25 t-24.5 36.5t-9 45zM611 1844q0 30 13.5 56.5t35 46.5t47.5 31.5t50 11.5q57 0 89.5 -33t32.5 -79q0 -30 -12 -58t-33 -49.5t-49 -34t-59 -12.5q-24 0 -45 9.5t-36.5 26t-24.5 38t-9 46.5z" />
<glyph unicode="&#x408;" horiz-adv-x="726" d="M-152 -256q67 19 127 56.5t107.5 85t79 99.5t42.5 101q32 146 54 308t39.5 331t33.5 339.5t35 333.5l-141 23l14 101h490l-11 -101l-155 -22q-18 -166 -35 -322.5t-32 -295.5t-29 -258t-25.5 -210.5t-21.5 -152.5t-18 -85q-32 -102 -88.5 -175.5t-126.5 -123.5 t-148.5 -79t-154.5 -42z" />
<glyph unicode="&#x409;" horiz-adv-x="1874" d="M-57 37l45 208q4 -6 16.5 -15.5t30 -18t39.5 -15t46 -6.5q38 0 78 38.5t78.5 109t74.5 168.5t67 218t56 258t41 287l13 121l-217 32l13 100h1084l-12 -100l-181 -25l-71 -567q35 8 93.5 16t126.5 8q220 0 335 -91.5t115 -257.5q0 -129 -46 -226.5t-125.5 -163t-186 -98.5 t-226.5 -33q-17 0 -51.5 2.5t-75 5.5t-82.5 5.5t-74 2.5h-266l8 88l162 29l163 1295h-360l-17 -151q-16 -141 -42.5 -290.5t-63 -291.5t-81.5 -268.5t-98.5 -221t-114.5 -150t-128 -55.5q-30 0 -52 3t-41 9.5t-36 16.5t-37 24zM1055 115q30 -8 74.5 -14.5t118.5 -6.5 q82 0 149 25.5t113.5 74t72 119.5t25.5 161q0 64 -22 111.5t-62.5 79t-97.5 47t-126 15.5q-53 0 -96.5 -4t-74.5 -11z" />
<glyph unicode="&#x40a;" horiz-adv-x="1988" d="M28 0l10 87l147 30l161 1281l-133 23l12 101h491l-11 -101l-154 -23l-70 -554h649l70 554l-151 23l10 101h495l-12 -101l-138 -23l-71 -568q35 8 93 16t127 8q220 0 335 -91.5t115 -257.5q0 -129 -46.5 -226.5t-126 -163t-185.5 -98.5t-226 -33q-18 0 -54.5 2.5t-80 5.5 t-87 5.5t-74.5 2.5h-255l8 88l164 30l74 596h-650l-75 -597l158 -29l-8 -88h-511zM1243 115q30 -8 75 -14.5t119 -6.5q82 0 148.5 25.5t113.5 74t72.5 119.5t25.5 161q0 64 -22 111.5t-62.5 79t-97.5 47t-126 15.5q-53 0 -97 -4t-74 -11z" />
<glyph unicode="&#x40b;" horiz-adv-x="1551" d="M83 1056l77 466h1247l-68 -467h-126l3 350l-380 9l-81 -567q78 39 167.5 57.5t173.5 18.5q88 0 159 -17t116.5 -64.5t63.5 -133t1 -222.5l-46 -369l134 -30l-11 -87h-475l9 87l138 30l28 221q15 125 20.5 210t-13.5 137t-69 74.5t-146 22.5q-34 0 -72 -4.5t-74 -11.5 t-68 -17t-53 -20l-88 -612l186 -30l-9 -87h-593l9 87l209 30l179 1297l-336 -17l-96 -341h-116z" />
<glyph unicode="&#x40c;" horiz-adv-x="1326" d="M28 0l9 87l148 30l161 1281l-133 23l12 101h488l-11 -101l-155 -23l-76 -604h158l467 599l-155 29l12 100h463l-12 -100l-146 -25l-505 -622q28 -20 57.5 -56.5t59 -84t58.5 -101.5t57.5 -108t55.5 -105t51.5 -91.5t46.5 -67.5t41 -34l86 -27l-12 -100h-230 q-24 0 -50.5 29.5t-54.5 77.5t-57 109.5t-58.5 125.5t-58.5 125.5t-57.5 109.5t-56 77.5t-52.5 29.5h-122l-71 -567l158 -29l-8 -88h-508zM482 1933q0 20 1 39.5t8 40.5h178q17 0 22.5 -13.5t5.5 -32.5q0 -20 -2.5 -42t-2.5 -40q0 -32 7.5 -57.5t27.5 -43.5t54.5 -28 t88.5 -10q55 0 89.5 14t55 39t29.5 59.5t14 75.5q2 15 5 29t8 25t13 18t20 7h147q0 -8 -0.5 -16.5t-1.5 -16.5q-10 -87 -44 -150t-85.5 -103.5t-119 -60t-143.5 -19.5t-144 17t-119.5 52t-81.5 89t-30 128z" />
<glyph unicode="&#x40d;" horiz-adv-x="1599" d="M28 0l10 87l147 30l161 1281l-133 23l12 101h485l-11 -101l-154 -23l-126 -1002l125 165l699 732l13 105l-133 23l12 101h485l-12 -101l-154 -23l-161 -1281l158 -29l-8 -88h-505l9 87l148 30l126 1001l-106 -141l-719 -760l-12 -100l157 -29l-8 -88h-505zM666 1880 l135 121l263 -342l-68 -48q-36 13 -85.5 42t-98.5 66t-89 79t-57 82z" />
<glyph unicode="&#x40e;" horiz-adv-x="1218" d="M106 1421l12 101h494l-10 -100l-166 -25l210 -732l37 -183l67 185l333 730l-153 24l12 101h412l-12 -100l-104 -25l-523 -1058q-16 -33 -35 -72t-42.5 -79.5t-52 -78.5t-64 -67t-78.5 -47t-96 -18q-51 0 -93.5 10.5t-71.5 27.5l18 157h146q43 0 76.5 5t60.5 20t47.5 42 t36.5 72l-339 1086zM434 1933q0 20 1 39.5t8 40.5h178q17 0 22.5 -13.5t5.5 -32.5q0 -20 -2.5 -42t-2.5 -40q0 -32 7.5 -57.5t27.5 -43.5t54.5 -28t88.5 -10q55 0 89.5 14t55 39t29.5 59.5t14 75.5q2 15 5 29t8 25t13 18t20 7h147q0 -8 -0.5 -16.5t-1.5 -16.5 q-10 -87 -44 -150t-85.5 -103.5t-119 -60t-143.5 -19.5t-144 17t-119.5 52t-81.5 89t-30 128z" />
<glyph unicode="&#x40f;" horiz-adv-x="1506" d="M28 0l9 87l148 30l161 1281l-134 23l13 101h488l-11 -101l-151 -23l-162 -1281h618l162 1281l-149 23l10 101h492l-12 -101l-138 -23l-160 -1280l151 -31l-9 -87h-560l-81 -341h-129l25 341h-581z" />
<glyph unicode="&#x410;" horiz-adv-x="1342" d="M-120 0l9 87l119 29l707 1406h205l253 -1403l156 -32l-7 -87h-515l5 87l156 29l-50 319h-567l-150 -318l160 -30l-6 -87h-475zM408 557h491l-104 676l-11 121z" />
<glyph unicode="&#x411;" horiz-adv-x="1241" d="M2 0l10 87l175 30l158 1280l-156 25l12 100h1015l-26 -367h-130l-40 256l-482 1l-63 -505q17 4 43 8t57.5 7.5t66.5 6t69 2.5q109 0 192 -25.5t139.5 -73.5t85 -118t28.5 -159q0 -123 -42 -227.5t-119 -181t-185.5 -119.5t-241.5 -43q-18 0 -54.5 2.5t-80 5.5t-87 5.5 t-74.5 2.5h-270zM377 113q15 -4 31 -7.5t37 -6t50.5 -4t72.5 -1.5q93 0 164 33t120 91t74 137t25 171q0 70 -22 122.5t-62 87t-96 51.5t-125 17q-52 0 -102.5 -4t-82.5 -11z" />
<glyph unicode="&#x412;" horiz-adv-x="1295" d="M28 0l9 87l148 30l161 1281l-133 23l12 101h229q75 0 149.5 7.5t155.5 7.5q117 0 201 -26.5t138 -71t79.5 -102t26.5 -119.5q1 -82 -19.5 -147t-59.5 -115.5t-95 -86.5t-126 -59q62 -9 115 -36t92 -68.5t61.5 -96.5t23.5 -119q2 -91 -22.5 -163.5t-69 -128.5t-107 -96 t-138 -66t-161 -38t-175.5 -12q-29 0 -62.5 2t-68 5t-67 5t-59.5 2h-238zM388 127q14 -6 37.5 -9.5t50 -6t51 -3.5t39.5 -1q93 0 169.5 19t131.5 62t84.5 112t27.5 168q-3 130 -72.5 193.5t-220.5 63.5q-78 0 -135 -2.5t-89 -4.5zM479 852q39 -2 85.5 -1.5t87.5 0.5 q74 0 138.5 20t112 61.5t74.5 106t25 153.5q-1 58 -17 100.5t-50.5 71t-89 42.5t-133.5 14q-11 0 -31.5 -0.5t-43.5 -1.5t-46.5 -3.5t-41.5 -5.5z" />
<glyph unicode="&#x413;" horiz-adv-x="1078" d="M4 0l11 87l172 30l158 1281l-184 26l12 98h935l-39 -471h-140l-17 352l-367 9l-160 -1294l317 -31l-9 -87h-689z" />
<glyph unicode="&#x414;" horiz-adv-x="1342" d="M-54 -342q0 2 3.5 37t8.5 86.5t11.5 111t11.5 110.5t9 85t4 35l1 -2v2h137q16 17 44 57t62.5 105t73 157.5t75 214t69 274t55.5 338.5l15 128l-217 25l13 100h1040l-12 -100l-143 -26l-161 -1273h185l-3 -114l4 -4q-17 -102 -36.5 -185t-35.5 -162h-126q2 48 5 95.5 t4.5 91.5t0.5 83.5t-6 71.5h-868q-10 -26 -23.5 -72t-27 -96.5t-25 -98t-15.5 -75.5h-133zM304 123h537l164 1288h-354l-17 -154q-28 -240 -73 -435t-93.5 -339.5t-92.5 -235.5t-71 -124z" />
<glyph unicode="&#x415;" horiz-adv-x="1233" d="M25 0l11 87l149 29l160 1282l-133 23l12 101h934l-8 -312h-111l-47 189l-437 15l-72 -559l448 8l-13 -159l-447 17l-83 -604l547 24l119 211l109 -30l-88 -322h-1050z" />
<glyph unicode="&#x416;" horiz-adv-x="2018" d="M-30 0l12 87l82 30q21 7 52 35.5t69 71.5t82 97t90.5 110.5t94 112.5t92 104t85.5 83.5t75 51.5l-390 615l-146 24l12 100h464l-12 -100l-151 -25l349 -603h126l76 604l-134 23l12 101h481l-11 -101l-153 -23l-77 -604h146l484 603l-147 24l13 101h462l-13 -100l-149 -26 l-526 -611q38 -19 79.5 -71.5t83.5 -121t83.5 -145.5t81 -144.5t76 -118.5t68.5 -67l91 -30l-12 -87h-256q-24 0 -50 29.5t-54 77.5t-57 109.5t-58.5 125.5t-59 125.5t-58 109.5t-56 77.5t-52.5 29.5h-134l-71 -567l158 -29l-8 -88h-501l9 87l148 30l71 567h-110 q-26 0 -60.5 -29.5t-74.5 -77.5t-84.5 -109.5t-89 -125.5t-88.5 -125.5t-83 -109.5t-72 -77.5t-57 -29.5h-253z" />
<glyph unicode="&#x417;" horiz-adv-x="1156" d="M10 68l88 331h104v-237q40 -22 109.5 -36t170.5 -14q78 0 144 24.5t114 72.5t75 119t27 165q0 54 -15 97.5t-50.5 73.5t-94.5 46t-147 16l-146 -11l14 128h122q58 0 117 21.5t106.5 67t77.5 115.5t30 168q0 104 -55 155.5t-156 51.5q-95 0 -161 -23t-90 -67l-46 -162 h-120l21 301q31 2 74 12.5t93.5 22.5t105 22t110.5 10q107 0 188.5 -20.5t136 -58.5t82.5 -91.5t28 -120.5q0 -102 -31.5 -178.5t-81 -130t-110.5 -85t-119 -44.5q91 -2 155.5 -26.5t105.5 -65t60.5 -95t19.5 -117.5q0 -121 -51.5 -217t-140.5 -162.5t-207.5 -102 t-252.5 -35.5q-74 0 -137.5 8.5t-114.5 20.5t-89.5 26t-62.5 25z" />
<glyph unicode="&#x418;" horiz-adv-x="1599" d="M28 0l10 87l147 30l161 1281l-133 23l12 101h485l-11 -101l-154 -23l-126 -1002l125 165l699 732l13 105l-133 23l12 101h485l-12 -101l-154 -23l-161 -1281l158 -29l-8 -88h-505l9 87l148 30l126 1001l-106 -141l-719 -760l-12 -100l157 -29l-8 -88h-505z" />
<glyph unicode="&#x419;" horiz-adv-x="1599" d="M28 0l10 87l147 30l161 1281l-133 23l12 101h485l-11 -101l-154 -23l-126 -1002l125 165l699 732l13 105l-133 23l12 101h485l-12 -101l-154 -23l-161 -1281l158 -29l-8 -88h-505l9 87l148 30l126 1001l-106 -141l-719 -760l-12 -100l157 -29l-8 -88h-505zM543 1933 q0 20 1 39.5t8 40.5h178q17 0 22.5 -13.5t5.5 -32.5q0 -20 -2.5 -42t-2.5 -40q0 -32 7.5 -57.5t27.5 -43.5t54.5 -28t88.5 -10q55 0 89.5 14t55 39t29.5 59.5t14 75.5q2 15 5 29t8 25t13 18t20 7h147q0 -8 -0.5 -16.5t-1.5 -16.5q-10 -87 -44 -150t-85.5 -103.5t-119 -60 t-143.5 -19.5t-144 17t-119.5 52t-81.5 89t-30 128z" />
<glyph unicode="&#x41a;" horiz-adv-x="1326" d="M28 0l9 87l148 30l161 1281l-133 23l12 101h488l-11 -101l-155 -23l-76 -604h158l467 599l-155 29l12 100h463l-12 -100l-146 -25l-505 -622q28 -20 57.5 -56.5t59 -84t58.5 -101.5t57.5 -108t55.5 -105t51.5 -91.5t46.5 -67.5t41 -34l86 -27l-12 -100h-230 q-24 0 -50.5 29.5t-54.5 77.5t-57 109.5t-58.5 125.5t-58.5 125.5t-57.5 109.5t-56 77.5t-52.5 29.5h-122l-71 -567l158 -29l-8 -88h-508z" />
<glyph unicode="&#x41b;" horiz-adv-x="1351" d="M-56 36l46 210q4 -6 16 -15t29.5 -18t38.5 -15t45 -6q38 0 76.5 35t75.5 99q40 69 77 167.5t69 220t57 262t40 293.5l13 121l-216 32l12 100h1085l-12 -100l-181 -25l-160 -1280l153 -31l-9 -86h-518l8 88l162 29l163 1295h-360l-17 -151q-13 -123 -34.5 -252.5 t-50.5 -255t-65.5 -241.5t-78.5 -213q-31 -72 -65.5 -130t-71.5 -99t-77 -63.5t-83 -22.5q-30 0 -52.5 3t-41 9.5t-36 16t-37.5 23.5z" />
<glyph unicode="&#x41c;" horiz-adv-x="1876" d="M-54 0l10 88l160 29l317 1281l-161 23l12 101h447l164 -1044l15 -167l65 167q52 126 110 257.5t117 264.5t117 264.5t111 257.5h424l-11 -101l-165 -23l-25 -1280l154 -30l-9 -88h-533l9 88l176 28l37 901l30 403l-137 -355l-471 -1068l-112 -15l-172 1059l-61 377 l-72 -387l-212 -914l187 -29l-9 -88h-512z" />
<glyph unicode="&#x41d;" horiz-adv-x="1538" d="M28 0l10 87l147 30l161 1281l-133 23l12 101h491l-11 -101l-154 -23l-70 -554h649l70 554l-151 23l10 101h495l-12 -101l-138 -23l-161 -1280l152 -31l-9 -87h-518l8 88l164 30l74 596h-650l-75 -597l158 -29l-8 -88h-511z" />
<glyph unicode="&#x41e;" horiz-adv-x="1389" d="M119 619q-2 132 20.5 252t65.5 222.5t105.5 185.5t140.5 141.5t169 90t192 31.5q127 0 220 -50.5t155 -136.5t93 -200.5t33 -243.5q2 -132 -20 -252.5t-65.5 -224t-106 -187.5t-140 -143.5t-169 -91.5t-192.5 -32q-127 0 -220.5 51.5t-155 139t-92.5 203.5t-33 245z M327 646q2 -120 23 -220.5t61 -173t99 -112.5t138 -40q98 0 182 58.5t144.5 162t94 246.5t30.5 312q-2 122 -23 221t-61 169.5t-99.5 109t-137.5 38.5q-98 0 -182 -57t-145 -159.5t-94 -244t-30 -310.5z" />
<glyph unicode="&#x41f;" horiz-adv-x="1492" d="M28 0l10 87l146 30l161 1272l-167 33l12 100h1330l-9 -100l-154 -25l-162 -1281l158 -29l-8 -87h-510l9 87l147 30l162 1281h-604l-161 -1281l159 -30l-8 -87h-511z" />
<glyph unicode="&#x420;" horiz-adv-x="1239" d="M28 0l9 87l148 30l161 1281l-133 23l12 101h255q36 0 70.5 2.5t69.5 6t71.5 6t75.5 2.5q220 0 339 -96t122 -295q2 -98 -20 -181t-62.5 -150.5t-97.5 -118.5t-126 -85.5t-148.5 -52t-163.5 -17.5q-67 0 -105 1t-65 3l-51 -430l200 -29l-8 -88h-553zM455 677q46 -8 87 -11 t78 -3q108 1 182.5 31.5t121 90t67.5 146t23 200.5q1 70 -11 125t-44 92t-86.5 55.5t-138.5 16.5q-19 0 -42 -2t-48 -4.5t-49 -6.5t-44 -8z" />
<glyph unicode="&#x421;" horiz-adv-x="1225" d="M92 627q-2 137 23.5 258t74.5 222t118 181t152 135.5t178 85t196 29.5q68 0 123 -5t98.5 -12t76.5 -15t57 -14l38 -11l-66 -368h-122l-24 262q-14 9 -31.5 17.5t-42 14.5t-57.5 9.5t-76 3.5q-95 0 -169.5 -36.5t-130.5 -97t-94.5 -140t-62.5 -165t-34 -172t-9 -161.5 q1 -66 10 -132.5t26 -127t44 -112.5t64 -90.5t85 -60.5t108 -22q34 0 74 5.5t77 18t67.5 32t46.5 47.5l5 14.5t12.5 36t16.5 47t16.5 47.5t12.5 36.5t5 15.5l124 -1l-40 -329q-26 -9 -69 -24t-101 -29.5t-130.5 -25t-156.5 -10.5q-92 0 -165.5 26t-130 71.5t-97.5 107.5 t-67 133.5t-39 149t-14 155.5z" />
<glyph unicode="&#x422;" horiz-adv-x="1234" d="M83 1051l77 471h1148l-67 -471h-111l7 342l-321 21l-166 -1297l250 -23l-7 -94h-700l9 94l244 23l165 1297l-316 -20l-96 -341z" />
<glyph unicode="&#x423;" horiz-adv-x="1218" d="M106 1421l12 101h494l-10 -100l-166 -25l210 -732l37 -183l67 185l333 730l-153 24l12 101h412l-12 -100l-104 -25l-523 -1058q-16 -33 -35 -72t-42.5 -79.5t-52 -78.5t-64 -67t-78.5 -47t-96 -18q-51 0 -93.5 10.5t-71.5 27.5l18 157h146q43 0 76.5 5t60.5 20t47.5 42 t36.5 72l-339 1086z" />
<glyph unicode="&#x424;" horiz-adv-x="1458" d="M57 663q0 135 44.5 253t131 209t212.5 149.5t289 73.5l15 110l-171 25l12 101h539l-12 -101l-177 -26l-14 -109q159 -8 262 -47t163 -99t83 -137.5t23 -162.5q0 -132 -45.5 -251.5t-132.5 -213.5t-213.5 -155.5t-287.5 -77.5l-16 -124l170 -32l-12 -95h-538l12 101 l177 27l15 119q-158 8 -260.5 48.5t-162 103.5t-83 143.5t-23.5 167.5zM258 681q0 -66 15 -129.5t53.5 -116t104.5 -89t168 -48.5l124 960q-100 -10 -173.5 -41t-125 -76.5t-84 -101.5t-51 -116.5t-25 -122.5t-6.5 -119zM790 298q141 16 231.5 73t142.5 139.5t72 181.5 t20 200q0 65 -15.5 126t-54.5 110t-105 83t-167 45z" />
<glyph unicode="&#x425;" horiz-adv-x="1297" d="M-63 0l11 88l121 28l499 651l-301 628l-138 26l10 101h522l-11 -101l-145 -23l200 -503l338 503l-140 23l12 101h471l-10 -101l-137 -23l-470 -621l332 -660l153 -29l-9 -88h-542l8 88l151 28l-234 526l-360 -525l149 -30l-8 -87h-472z" />
<glyph unicode="&#x426;" horiz-adv-x="1552" d="M-16 0l10 87l191 30l159 1280l-133 24l12 101h490l-11 -100l-154 -25l-160 -1270h603l155 1270l-130 25l12 100h464l-12 -100l-141 -24l-159 -1270h250q-9 -51 -21 -116t-25 -130.5t-25 -125t-21 -98.5h-126q2 48 5 95.5t4.5 91.5t0.5 83.5t-5 71.5h-1233z" />
<glyph unicode="&#x427;" horiz-adv-x="1283" d="M80 1421l12 101h476l-11 -101l-138 -27l-26 -210q-15 -125 -20.5 -210t13 -137t68.5 -74.5t145 -22.5q34 0 72.5 4.5t75 12t69 17t53.5 20.5l76 604l-154 23l12 101h491l-11 -101l-134 -23l-161 -1281l139 -30l-9 -87h-512l10 87l168 30l70 560q-79 -41 -170.5 -59.5 t-175.5 -18.5q-88 0 -158.5 17t-116 64.5t-63.5 133t-1 222.5l45 361z" />
<glyph unicode="&#x428;" horiz-adv-x="2085" d="M29 0l10 87l147 30l161 1281l-133 24l12 100h487l-12 -100l-164 -25l-158 -1281h498l161 1281l-133 25l12 100h482l-11 -100l-154 -25l-162 -1281h482l160 1281l-131 25l12 100h479l-11 -100l-153 -24l-157 -1270l181 -28l-12 -100h-1893z" />
<glyph unicode="&#x429;" horiz-adv-x="2109" d="M29 0l10 87l147 30l161 1281l-133 24l12 100h482l-12 -100l-164 -25l-158 -1281h503l161 1281l-133 25l12 100h478l-11 -100l-154 -24l-159 -1282h488l160 1281l-131 25l12 100h474l-11 -100l-153 -24l-159 -1281h261q-8 -51 -20.5 -114.5t-25.5 -127t-25.5 -121 t-21.5 -96.5h-126q2 48 5 95.5t4.5 91.5t1 83.5t-5.5 71.5h-1769z" />
<glyph unicode="&#x42a;" horiz-adv-x="1524" d="M136 1051l82 471h834l-10 -101l-155 -23l-61 -491q17 4 43 8t57.5 7.5t66.5 6t69 2.5q109 0 192 -25.5t139 -73.5t85 -118t29 -159q0 -123 -42 -227.5t-119.5 -181t-186 -119.5t-241.5 -43q-18 0 -57 2.5t-85 5.5t-91.5 5.5t-76.5 2.5h-262l11 87l165 30l163 1295 l-315 -7l-104 -354h-130zM728 113q15 -4 30.5 -7.5t37 -6t51 -4t71.5 -1.5q93 0 164.5 33t120.5 91t74 137t25 171q0 70 -22 122.5t-62 87t-96 51.5t-125 17q-53 0 -103.5 -4t-81.5 -11z" />
<glyph unicode="&#x42b;" horiz-adv-x="1829" d="M28 0l9 87l148 30l161 1280l-133 24l12 101h490l-11 -101l-154 -23l-72 -569l1 1q35 8 93.5 16t127.5 8q220 0 334.5 -91.5t114.5 -257.5q0 -129 -46 -226.5t-125.5 -163t-186 -98.5t-226.5 -33q-18 0 -54.5 2.5t-80 5.5t-86.5 5.5t-74 2.5h-242zM389 115 q30 -8 75.5 -14.5t119.5 -6.5q82 0 148.5 25.5t113.5 74t72.5 119.5t25.5 161q0 64 -22.5 111.5t-63 79t-97 47t-125.5 15.5q-53 0 -97 -4t-74 -11h-1zM1172 0l9 87l148 30l161 1281l-133 23l12 101h490l-11 -101l-153 -23l-162 -1281l158 -29l-8 -88h-511z" />
<glyph unicode="&#x42c;" horiz-adv-x="1210" d="M28 0l9 87l148 30l161 1280l-133 24l12 101h490l-11 -101l-154 -23l-72 -569l1 1q35 8 93.5 16t127.5 8q220 0 334.5 -91.5t114.5 -257.5q0 -129 -46 -226.5t-125.5 -163t-186 -98.5t-226.5 -33q-18 0 -54.5 2.5t-80 5.5t-86.5 5.5t-74 2.5h-242zM389 115 q30 -8 75.5 -14.5t119.5 -6.5q82 0 148.5 25.5t113.5 74t72.5 119.5t25.5 161q0 64 -22.5 111.5t-63 79t-97 47t-125.5 15.5q-53 0 -97 -4t-74 -11h-1z" />
<glyph unicode="&#x42d;" horiz-adv-x="1222" d="M45 346l124 11l60 -166q12 -15 31.5 -32.5t51.5 -32.5t78 -24.5t110 -9.5q90 0 174 43t151.5 125.5t114 202t63.5 271.5q-74 -11 -160 -18t-168 -11.5t-151.5 -7.5t-110.5 -5l-34 171l631 -20q1 11 1 20.5v20.5q0 108 -20.5 206t-65.5 172.5t-116 118.5t-173 44 q-54 0 -96 -9t-74 -24t-55.5 -35t-42.5 -42l-63 -165h-133l50 309q39 2 77 14.5t87 27t115 26t161 11.5q136 0 243 -47t180.5 -132t112.5 -205t39 -265q0 -132 -29 -251t-81 -220.5t-125 -183t-161 -138.5t-188.5 -88t-208.5 -31q-79 0 -134 12t-97.5 27t-77.5 27t-73 12z " />
<glyph unicode="&#x42e;" horiz-adv-x="2042" d="M28 0l9 87l148 30l161 1281l-133 23l12 101h490l-11 -101l-153 -23l-70 -555h311q25 155 85.5 283.5t149 221t201.5 143.5t242 51q127 0 220 -50.5t155 -136.5t93 -200.5t33 -243.5q2 -132 -20 -252.5t-65.5 -224t-106 -187.5t-140 -143.5t-169 -91.5t-192.5 -32 q-127 0 -220.5 51.5t-155 139t-92.5 203.5t-33 245q-1 26 -0.5 52.5t2.5 52.5h-313l-77 -607l158 -29l-8 -88h-511zM985 646q2 -120 23 -220.5t61 -173t99 -112.5t138 -40q98 0 182 58.5t144.5 162t94 246.5t30.5 312q-2 122 -23 221t-61 169.5t-99.5 109t-137.5 38.5 q-98 0 -182 -57t-145 -159.5t-94 -244t-30 -310.5z" />
<glyph unicode="&#x42f;" horiz-adv-x="1317" d="M-86 0l11 86l74 30q26 6 59 44.5t70 94.5t77 122t81.5 128t84 113t83.5 76q-54 19 -96.5 52t-72.5 76.5t-45.5 96t-15.5 110.5q0 113 39.5 207t116 161t188 104t255.5 37q37 0 71 -2.5t67 -5.5t67 -5.5t72 -2.5h247l-11 -100l-154 -25l-160 -1280l157 -30l-8 -87h-501 l10 87l147 30l72 558q-10 -1 -31.5 -1.5t-48.5 -0.5h-57t-57.5 -0.5t-49.5 -0.5h-33q-29 -23 -60 -64t-62.5 -92.5t-63 -110t-62 -115.5t-59.5 -109.5t-55.5 -92.5t-49.5 -64t-42 -24h-254zM434 1069q0 -68 24 -120.5t67 -88.5t103 -55t133 -19q38 0 79.5 1t73.5 5l74 606 q-12 1 -30.5 4.5t-44.5 7.5t-60.5 7.5t-77.5 3.5q-95 0 -160 -25.5t-105 -72t-58 -111t-18 -143.5z" />
<glyph unicode="&#x430;" horiz-adv-x="1175" d="M82 412q0 77 19.5 163t57.5 169.5t93.5 159.5t127.5 133.5t160.5 91.5t191.5 34q50 0 103.5 -10.5t95.5 -24.5l121 34l-131 -973q-5 -41 6 -58.5t24 -17.5q14 0 33.5 9t54.5 37l31 -54q-5 -9 -24.5 -30t-49.5 -42t-69 -37t-82 -16q-30 0 -55 7.5t-42 23.5t-25.5 42 t-6.5 62l7 66q-29 -37 -65.5 -73t-78.5 -64.5t-89 -46t-96 -17.5q-84 0 -143.5 32.5t-97 90t-54.5 136.5t-17 173zM293 435q0 -73 8 -130.5t25.5 -98t44 -62t64.5 -21.5q43 0 87.5 22t85.5 55.5t76 73.5t60 75l86 660q-27 17 -59.5 24t-69.5 7q-71 0 -129 -28t-103 -75 t-78.5 -108t-55 -128.5t-32 -136t-10.5 -129.5z" />
<glyph unicode="&#x431;" horiz-adv-x="1115" d="M75 514q0 177 34.5 328.5t93.5 276t138.5 220.5t169.5 161.5t186 99t189 33.5q16 0 27 8.5t22 25.5l63 98h102l-38 -230q-3 -21 -7.5 -35.5t-13.5 -22.5t-23.5 -11.5t-38.5 -3.5q-76 0 -151 -10.5t-145 -37.5t-134 -75t-119.5 -122.5t-100.5 -180t-77 -248.5 q30 66 74 125t100.5 103.5t124 70.5t145.5 26q96 0 163 -30t109 -84.5t61 -131t19 -168.5q0 -95 -19.5 -185t-55.5 -169.5t-87.5 -146t-115 -114t-138.5 -74t-158 -26.5q-104 0 -179.5 43.5t-124 116.5t-72 169t-23.5 201zM280 467q0 -81 13.5 -149t41 -117.5t68.5 -77 t96 -27.5q63 0 112.5 25t87 67.5t63.5 98.5t42 117.5t23 124.5t7 120q0 77 -10.5 139t-34.5 105.5t-62 66.5t-93 23t-102.5 -23.5t-87 -63.5t-70.5 -92.5t-52 -110t-31.5 -116t-10.5 -110.5z" />
<glyph unicode="&#x432;" horiz-adv-x="1105" d="M83 450q0 123 29 222.5t76.5 177t110 134.5t129.5 93.5t134 54.5t125 18q84 0 143 -16.5t96.5 -43.5t54.5 -61t17 -68q0 -51 -14 -95t-45.5 -81.5t-83 -69.5t-125.5 -59q72 1 122.5 -19.5t82 -54.5t46 -77.5t14.5 -86.5q0 -86 -33 -165t-98.5 -139.5t-164.5 -96.5 t-231 -36q-75 0 -144.5 32t-123 92.5t-85.5 147.5t-32 197zM293 463q0 -22 0.5 -42.5t0.5 -35.5q0 -56 14 -108t42 -92t69.5 -63.5t95.5 -23.5q58 0 107.5 19t85.5 55t56.5 87t20.5 114q0 42 -10 80.5t-34 67t-63.5 45.5t-98.5 17q-13 0 -26.5 -1t-28.5 -3l-225 -34 q-3 -17 -4.5 -38.5t-1.5 -43.5zM317 649l142 24q76 13 135 31.5t99.5 46t61.5 65.5t21 89q0 58 -34 91.5t-119 33.5q-33 0 -83 -22.5t-97 -69t-83.5 -118.5t-42.5 -171z" />
<glyph unicode="&#x433;" horiz-adv-x="841" d="M40 245q0 77 28 134t74 103t105 84.5t122 79.5q54 36 91.5 68.5t60.5 65.5t33 67.5t10 72.5q0 21 -7 41.5t-20.5 36t-34.5 25t-48 9.5q-47 0 -90.5 -9.5t-77.5 -22t-57 -25t-29 -18.5l-22 99q17 13 46 31.5t69 35t90.5 28.5t110.5 12q63 0 116.5 -15.5t92.5 -44 t60.5 -70.5t21.5 -94q0 -83 -34 -144.5t-85 -110.5t-110.5 -87.5t-110.5 -74.5q-45 -32 -81.5 -60t-62 -56.5t-39.5 -60.5t-14 -73q0 -30 8.5 -58t28 -49.5t51 -34.5t77.5 -13q45 0 78 7.5t60 20.5t52 30t55 37l31 -97q-27 -30 -67 -55t-86.5 -43t-96 -27.5t-95.5 -9.5 q-66 0 -121.5 21.5t-96 58t-63.5 84.5t-23 101z" />
<glyph unicode="&#x434;" horiz-adv-x="1162" d="M105 420q0 94 21.5 184t61 169t94.5 145.5t121.5 114.5t143 74.5t159.5 26.5q50 0 89.5 -10t71.5 -27q-14 227 -89.5 344.5t-222.5 117.5q-47 0 -102 -13t-123 -59l-58 69q40 34 86.5 58t94 39t92.5 22t83 7q94 0 164.5 -30t120.5 -81.5t82 -121t51 -148t26 -162.5 t7 -165q0 -106 -13.5 -221t-43.5 -226t-77.5 -211t-116 -175.5t-159 -120t-205.5 -44.5q-90 0 -157 34t-112 94t-67.5 141t-22.5 175zM313 455q0 -61 5 -124t24 -114t56.5 -83t102.5 -32q101 0 171 62.5t114 178t64 277.5t20 362q-35 25 -76.5 35.5t-93.5 10.5 q-72 0 -141.5 -44t-124 -121t-88 -182t-33.5 -226z" />
<glyph unicode="&#x435;" horiz-adv-x="1052" d="M85 430q2 95 24 186t60 172.5t91 150t118 118.5t140.5 78t158.5 28q73 0 126.5 -19t89 -53t53 -79.5t17.5 -98.5q0 -78 -35.5 -141t-93 -113t-130.5 -87t-146.5 -61t-141.5 -37t-116 -14q-3 -32 -1 -70t11 -76t25 -73t41 -62t59 -43t79 -16q77 0 165 34t173 113l47 -84 q-21 -30 -60.5 -65t-93 -66t-119.5 -51.5t-139 -20.5q-107 0 -184 38t-126 101t-71.5 144t-20.5 167zM305 570q40 2 89 12.5t98.5 30t97 47t84 63t58.5 79t22 94.5q-1 78 -35.5 113.5t-89.5 35.5q-51 0 -93 -23.5t-76.5 -62t-61 -88.5t-46 -103t-31 -104.5t-16.5 -93.5z" />
<glyph unicode="&#x436;" horiz-adv-x="1832" d="M-38 15l70 189l108 -111q36 0 81.5 39t86.5 112.5t69 179.5t28 240q0 89 -12 151.5t-32.5 102.5t-48.5 58t-60 18q-26 0 -47 -5t-41.5 -17t-43 -31.5t-52.5 -48.5l-43 53q14 21 40.5 55t63 66.5t83 56t100.5 23.5q65 0 118.5 -30.5t92 -88.5t60 -141.5t21.5 -189.5 q0 -15 -0.5 -29.5t-1.5 -28.5h214l59 498h200l-59 -498h208q24 103 70.5 195t110 161.5t141.5 110.5t167 41q48 0 78.5 -9t51.5 -26l-70 -189l-109 111q-36 0 -81.5 -39t-86 -112.5t-68.5 -179.5t-28 -240q0 -89 11.5 -151.5t32 -102.5t48.5 -58t61 -18q25 0 46 5t41.5 17 t43.5 31.5t53 48.5l42 -53q-14 -21 -40.5 -55t-63 -66.5t-83 -56t-100.5 -23.5q-65 0 -118.5 30.5t-92 88.5t-60 141.5t-21.5 189.5q0 27 1.5 54t5.5 54h-203l-64 -539l-199 1l63 538h-214q-20 -111 -65 -212t-110 -178t-147 -122.5t-176 -45.5q-48 0 -78.5 9t-51.5 26z" />
<glyph unicode="&#x437;" horiz-adv-x="1033" d="M23 71l72 191l110 -114q23 -16 44 -26t42.5 -15.5t45 -7.5t50.5 -2q86 0 146 19t98 53.5t55 81t17 102.5q0 40 -11.5 74.5t-41 59.5t-78.5 39.5t-124 14.5l-111 -21l24 133l63 6q78 9 134.5 33.5t92.5 58t53 74t17 80.5q0 32 -10.5 58t-34.5 45t-63.5 29t-98.5 10 q-49 0 -84 -6t-60 -15t-40 -19.5t-24 -19.5l-63 -178h-113l36 297q49 0 87.5 8.5t80.5 19t94.5 19t131.5 8.5q86 0 153.5 -16t114 -47t71 -75t24.5 -101q0 -46 -25 -92.5t-67 -87.5t-96 -73.5t-111 -51.5q70 -3 125 -21.5t93 -49.5t58 -74t20 -95q0 -90 -41.5 -163 t-113 -124t-166.5 -78.5t-201 -27.5q-71 0 -129 8.5t-103.5 21.5t-81 28t-61.5 29z" />
<glyph unicode="&#x438;" horiz-adv-x="1210" d="M149 1023l18 89l249 51l48 -24l-69 -550q-6 -45 -11 -84.5t-9.5 -75.5t-7 -71t-2.5 -72q0 -51 10 -84t28.5 -51.5t44.5 -25.5t58 -7q35 0 71 13.5t69.5 35.5t63.5 51t54 60l116 877h199l-125 -964q-10 -76 22 -76q8 0 17 2.5t21.5 10t29 20.5t38.5 33l31 -54 q-7 -11 -29.5 -35t-56 -48.5t-75.5 -43t-88 -18.5q-69 0 -97.5 42t-13.5 113l-1 9q-27 -32 -61 -62t-75 -53t-90 -37t-106 -14t-104.5 13.5t-81.5 45.5t-52.5 84.5t-18.5 130.5q0 33 3 74t8.5 86t11.5 91.5t12 91.5l51 366z" />
<glyph unicode="&#x439;" horiz-adv-x="1210" d="M149 1023l18 89l249 51l48 -24l-69 -550q-6 -45 -11 -84.5t-9.5 -75.5t-7 -71t-2.5 -72q0 -51 10 -84t28.5 -51.5t44.5 -25.5t58 -7q35 0 71 13.5t69.5 35.5t63.5 51t54 60l116 877h199l-125 -964q-10 -76 22 -76q8 0 17 2.5t21.5 10t29 20.5t38.5 33l31 -54 q-7 -11 -29.5 -35t-56 -48.5t-75.5 -43t-88 -18.5q-69 0 -97.5 42t-13.5 113l-1 9q-27 -32 -61 -62t-75 -53t-90 -37t-106 -14t-104.5 13.5t-81.5 45.5t-52.5 84.5t-18.5 130.5q0 33 3 74t8.5 86t11.5 91.5t12 91.5l51 366zM308 1555q0 20 1 39.5t8 40.5h177 q17 0 22.5 -13.5t5.5 -32.5q0 -20 -2.5 -42t-2.5 -40q0 -27 8 -49.5t28 -38t54.5 -24t87.5 -8.5q55 0 89.5 12.5t55 35t29.5 53.5t14 68q2 15 5 29t8 25t13 18t20 7h147q0 -8 -0.5 -16.5t-1.5 -16.5q-10 -83 -44 -142.5t-85.5 -97.5t-119 -56.5t-143.5 -18.5q-75 0 -143 16 t-119.5 49t-81.5 83.5t-30 119.5z" />
<glyph unicode="&#x43a;" horiz-adv-x="1113" d="M133 0l130 963l-98 59l18 89l247 52l55 -25l-67 -499h133q37 30 69.5 58t64 58.5t62.5 66t65 79.5q9 10 20.5 36.5t11.5 53.5q0 16 -4.5 28.5t-4.5 32.5q0 25 12.5 45t32 34t44 21.5t49.5 7.5q18 0 35 -4.5t30 -14.5t21 -25.5t8 -37.5q0 -42 -19.5 -85t-52 -85.5 t-75.5 -84t-90 -82t-96 -79.5t-93 -75q24 -31 53 -76t60.5 -94t63.5 -98.5t62.5 -90t59 -68t51.5 -32.5l74 -36l-12 -92h-192q-41 0 -79 40t-74 100t-70 129.5t-68 129.5t-67.5 100t-68.5 40h-29l-72 -539h-200z" />
<glyph unicode="&#x43b;" horiz-adv-x="1140" d="M-52 8l50 223q4 -3 21 -8.5t38 -11.5t40.5 -10t27.5 -4q23 0 46 33q20 27 39 74.5t37.5 108.5t35.5 133t31.5 149t27 156t21.5 154l-179 29l13 102h817l-112 -948q-8 -76 22 -76q13 0 32.5 9t54.5 37l31 -53q-6 -10 -28.5 -31t-55.5 -42t-73.5 -37t-82.5 -16 q-31 0 -56.5 7.5t-42.5 23.5t-24.5 41.5t-2.5 61.5l115 894h-316q-17 -139 -40 -278t-49.5 -258.5t-55 -210t-55.5 -132.5q-20 -30 -41 -56.5t-48.5 -46t-64 -30.5t-86.5 -11q-9 0 -23 2.5t-27.5 6t-24.5 8t-12 7.5z" />
<glyph unicode="&#x43c;" horiz-adv-x="1623" d="M-70 8l50 223q4 -3 25.5 -8.5t48 -11.5t50.5 -10t32 -4q48 109 83.5 229.5t61 231.5t42.5 203t29 144l-178 29l12 102h454l135 -669l33 -205l76 205l312 669h247l3 -907q1 -18 4 -39t7 -38t10 -28.5t13 -11.5q14 0 33.5 9t53.5 37l32 -54q-6 -9 -27 -30t-52.5 -42 t-71.5 -37t-82 -16q-60 0 -91 29.5t-33 102.5l7 578l18 336l-151 -334l-338 -706h-88l-157 702l-68 314l-64 -316q-20 -96 -38 -176.5t-37 -148.5t-39 -125.5t-43 -106.5q-15 -33 -34 -59.5t-45 -45.5t-62.5 -29t-86.5 -10q-9 0 -23 2.5t-27.5 6t-24 8t-11.5 7.5z" />
<glyph unicode="&#x43d;" horiz-adv-x="1303" d="M133 0l130 963l-99 59l18 89l248 52l55 -25l-66 -491h497l61 489h195l-110 -948q-8 -76 22 -76q13 0 32.5 9t54.5 37l31 -53q-6 -10 -26.5 -31t-51.5 -42t-70.5 -37t-81.5 -16q-31 0 -56.5 7.5t-42.5 23t-25 41t-3 61.5l56 416h-498l-70 -528h-200z" />
<glyph unicode="&#x43e;" horiz-adv-x="1145" d="M85 439q-2 91 16.5 180t53.5 169.5t86 149t115 118.5t139 78.5t160 28.5q96 0 169.5 -31t124 -90t77.5 -144.5t29 -194.5q1 -91 -17 -180t-53 -169.5t-86 -148.5t-115 -118t-139.5 -78.5t-160.5 -28.5q-96 0 -169.5 31t-123.5 89.5t-77 144t-29 194.5zM299 441 q2 -160 57 -249.5t163 -89.5q57 0 103 26.5t82 72t62.5 105.5t43 126.5t24 136t6.5 133.5q-2 159 -57.5 248.5t-163.5 89.5q-57 0 -103 -26.5t-82 -71.5t-62 -105t-43 -126.5t-24.5 -136t-5.5 -133.5z" />
<glyph unicode="&#x43f;" horiz-adv-x="1260" d="M133 0l130 963l-98 59l18 89l247 52l48 -24l-20 -212q40 49 87.5 92.5t100 75t108 50t111.5 18.5q52 0 94 -15.5t71.5 -51t45.5 -93t16 -142.5q0 -37 -5 -81.5t-13 -91.5t-17 -94t-16 -89q-14 -77 -27 -159t-17 -159q-2 -36 2.5 -55.5t18.5 -19.5q13 0 32.5 9t54.5 37 l31 -53q-6 -9 -26 -30t-51 -42.5t-69.5 -37.5t-81.5 -16q-63 0 -97 30.5t-29 103.5q2 34 7 74.5t12 83t14.5 86.5t15.5 86q8 44 17.5 95.5t18 104.5t14.5 106t6 100q0 54 -8 84.5t-22.5 46t-35.5 19.5t-47 4q-38 0 -81.5 -18.5t-88 -51.5t-88 -77.5t-80.5 -96.5l-103 -759 h-200z" />
<glyph unicode="&#x440;" horiz-adv-x="1162" d="M37 -520l203 1500l-109 52l18 79l258 52l47 -24l-14 -132q24 30 54.5 58t68 50t80.5 35t92 13q87 0 151 -32.5t106 -90t63 -137t21 -173.5q0 -78 -19.5 -164t-56.5 -169t-92 -159t-126 -133t-158 -91t-188 -34q-32 0 -66 4t-67 11l-71 -515h-195zM323 137 q29 -20 65.5 -27.5t78.5 -7.5q69 0 125.5 28.5t101 76.5t76.5 110.5t53.5 131t31.5 137.5t10 131q0 145 -44.5 223.5t-122.5 78.5q-42 0 -82.5 -15.5t-76 -40t-65.5 -54.5t-52 -59z" />
<glyph unicode="&#x441;" horiz-adv-x="882" d="M76 431q0 77 17 161t50.5 165.5t83 155t115.5 129t147.5 88.5t178.5 33q27 0 57 -3.5t59 -9.5t56.5 -15t48.5 -20l-59 -199q-5 5 -11.5 9t-11.5 8q-43 35 -90.5 59t-95.5 24q-74 0 -135 -36.5t-104.5 -107t-67 -174.5t-23.5 -238q0 -89 14.5 -153t41 -105.5t64 -61 t83.5 -19.5q37 0 68.5 6.5t62 20.5t63.5 35.5t74 51.5l40 -82q-18 -22 -51 -51.5t-79.5 -56.5t-105.5 -46t-131 -19q-85 0 -151.5 30.5t-112.5 88.5t-70.5 141.5t-24.5 190.5z" />
<glyph unicode="&#x442;" horiz-adv-x="1885" d="M133 0l130 963l-99 59l18 89l247 52l48 -24l-19 -212q40 49 87.5 92.5t99.5 75t107.5 50t111.5 18.5q48 0 86.5 -13t67 -42t45.5 -76.5t22 -116.5q38 52 84 97t97 78.5t105 53t110 19.5q49 0 91 -17t72.5 -53.5t47.5 -93.5t17 -138q0 -36 -4.5 -79.5t-11.5 -90t-15 -94 t-15 -91.5q-13 -79 -25 -159.5t-17 -158.5q-2 -36 2.5 -55.5t18.5 -19.5q8 0 17.5 2.5t22 9.5t29 20t39.5 33l31 -53q-7 -11 -29 -35t-54.5 -48.5t-74 -43t-87.5 -18.5q-63 0 -94 31t-28 100q4 74 16 162t26 177q7 42 15 92t15.5 102.5t12.5 104.5t5 99q0 54 -8 84.5 t-22 45.5t-32.5 19t-38.5 4q-36 0 -77 -18.5t-83 -50.5t-83 -75.5t-77 -93.5q-5 -63 -13.5 -130.5t-17.5 -127.5l-64 -505h-203l56 443q7 44 14.5 95.5t13.5 104.5t9.5 106t3.5 100q0 54 -7 84.5t-20.5 46t-34 19.5t-46.5 4q-38 0 -81.5 -18.5t-88 -51.5t-88 -77.5 t-80.5 -96.5l-103 -759h-200z" />
<glyph unicode="&#x443;" horiz-adv-x="1072" d="M-126 -478l47 160q7 -3 21 -10t35 -13.5t49.5 -12t64.5 -5.5q32 0 76.5 14.5t92.5 50t96.5 94t89.5 146.5h-96l-172 1017q-5 32 -15 44t-25 12q-6 0 -12.5 -1t-15.5 -4.5t-22 -12t-31 -23.5l-29 60q6 9 26 30t49.5 42t66 37t76.5 16q37 0 61.5 -9.5t39.5 -27.5 t22.5 -43.5t11.5 -56.5q0 -2 4 -34t10 -83.5t14 -116.5t15.5 -133t15.5 -133t14 -116t10 -83t4 -34l20 -272l155 310q32 76 66 146.5t62 142t46 146.5t18 162q0 17 -5.5 32.5t-11.5 31t-11.5 32t-5.5 34.5q0 56 28 80t71 24q68 0 99 -49t31 -142q0 -84 -23 -169 t-57.5 -167.5t-76 -160.5t-77.5 -149q-71 -142 -128.5 -249t-105 -186t-85 -134t-68.5 -92q-20 -29 -52.5 -59t-77.5 -54.5t-103 -40.5t-128 -16q-17 0 -41 2.5t-48.5 7t-47 9t-37.5 9.5z" />
<glyph unicode="&#x444;" horiz-adv-x="1682" d="M82 412q0 77 18.5 163t54.5 169.5t88.5 159.5t121.5 133.5t153.5 91.5t183.5 34q32 0 67 -8t67 -20l53 347l-124 43l21 83l264 42h1l52 -27l-81 -554q44 39 102.5 66.5t130.5 27.5q87 0 151 -32.5t106 -90.5t62.5 -137t20.5 -173q0 -77 -18 -163t-53.5 -169.5t-87.5 -159 t-119.5 -133t-151 -91.5t-180.5 -34q-29 0 -59.5 5.5t-60.5 14.5l-45 -309q-6 -42 3.5 -59.5t22.5 -17.5q8 0 17.5 2.5t22 10t29 20.5t38.5 33l31 -54q-6 -11 -28 -34.5t-54.5 -48t-73.5 -43t-87 -18.5q-30 0 -56.5 7.5t-45.5 24t-28.5 41.5t-5.5 61l5.5 36t15 99.5t23 150 t28.5 187.5q-23 -22 -51.5 -41.5t-62 -34.5t-71 -24t-79.5 -9q-84 0 -146.5 32.5t-103.5 90t-61 136.5t-20 173zM293 425q0 -146 42 -224t115 -78q38 0 74 11t68.5 28.5t60 39.5t48.5 44l113 741q-29 31 -65 42.5t-78 11.5q-66 0 -119.5 -28.5t-95.5 -77t-73 -111t-51 -131 t-29.5 -138t-9.5 -130.5zM885 137q28 -20 61 -28t70 -8q64 0 116.5 28.5t93.5 77t71 111t49.5 131t29 138t9.5 130.5q0 146 -45 224t-122 78q-32 0 -62.5 -9t-58.5 -23.5t-53 -33t-45 -38.5z" />
<glyph unicode="&#x445;" horiz-adv-x="1009" d="M-25 0l434 590l-184 383q-14 29 -26.5 43t-30.5 14q-19 0 -38.5 -13t-30.5 -29l-38 56q5 9 22 28.5t44 40t62 35.5t76 15q34 0 57.5 -6.5t40 -20t27.5 -33t19 -44.5l111 -346l294 442h216l-446 -599l199 -384q14 -29 25.5 -43.5t25.5 -14.5q7 0 16.5 2.5t21.5 10t28.5 20 t37.5 32.5l36 -56q-5 -11 -26.5 -34.5t-54 -47.5t-73.5 -42.5t-85 -18.5q-33 0 -55 7.5t-37 21.5t-24.5 33t-18.5 43l-128 349l-283 -434h-214z" />
<glyph unicode="&#x446;" horiz-adv-x="1210" d="M149 1023l18 89l249 51l48 -24l-69 -550q-6 -45 -11 -84.5t-9.5 -75.5t-7 -71t-2.5 -72q0 -51 10 -84t28.5 -51.5t44.5 -25.5t58 -7q35 0 71 13.5t69.5 35.5t63.5 51t54 60l116 877h199l-125 -964q-10 -76 22 -76q8 0 17 2.5t21.5 10t29 20.5t38.5 33l31 -54 q-5 -7 -15.5 -19.5t-26.5 -27.5t-36 -31t-44 -29q-17 -11 -36.5 -21t-35.5 -21.5t-26.5 -26t-10.5 -34.5q0 -18 8 -37t18 -40t18 -44.5t8 -50.5q0 -40 -24 -78t-61.5 -70.5t-84 -56t-90.5 -34.5l-55 64q19 7 40.5 21.5t40 33t31 40t12.5 44.5q0 20 -5.5 35t-11.5 30.5 t-11.5 35t-5.5 47.5q0 43 25.5 78t62.5 62q-32 17 -43.5 53t-0.5 87l-1 9q-27 -32 -61 -62t-75 -53t-90 -37t-106 -14t-104.5 13.5t-81.5 45.5t-52.5 84.5t-18.5 130.5q0 33 3 74t8.5 86t11.5 91.5t12 91.5l51 366z" />
<glyph unicode="&#x447;" horiz-adv-x="1167" d="M83 1023l17 89l249 51l55 -25l-33 -273q-9 -79 -13.5 -134.5t-1 -93.5t16 -60.5t37 -34t62 -15t90.5 -3.5q68 0 121.5 11t86.5 30l70 571h185l-99 -948q-4 -36 4.5 -56t23.5 -20q13 0 32.5 9t54.5 37l31 -53q-6 -10 -27 -31t-52.5 -42t-70 -37t-80.5 -16 q-63 0 -99.5 31.5t-27.5 103.5l40 333q-75 -35 -151.5 -50.5t-160.5 -15.5q-80 0 -138 13t-93 53.5t-46 115t3 197.5l23 198z" />
<glyph unicode="&#x448;" horiz-adv-x="1820" d="M149 1023l18 89l249 51l48 -24l-69 -550q-3 -27 -8 -64t-9.5 -77.5t-8 -82.5t-3.5 -79q0 -51 10 -84t28 -51.5t44 -25.5t58 -7q37 0 74 14.5t71.5 38t65.5 54t55 63.5q2 63 11.5 140t19.5 152l77 575h199l-78 -569q-6 -45 -11 -84t-9.5 -74.5t-7 -70t-2.5 -71.5 q0 -51 10 -84t28.5 -51.5t44.5 -25.5t58 -7q36 0 72 13.5t69.5 35.5t63.5 51t54 61l116 876h199l-125 -964q-10 -76 22 -76q8 0 17 2.5t21.5 10t29 20.5t38.5 33l31 -54q-7 -11 -29.5 -35t-56 -48.5t-75.5 -43t-88 -18.5q-69 0 -97.5 42t-13.5 113l-1 10q-27 -32 -61 -62 t-75 -53.5t-90 -37.5t-107 -14q-51 0 -93 10t-74 33t-53 60.5t-30 91.5q-27 -35 -62 -70t-79 -63t-97.5 -45t-117.5 -17q-57 0 -104.5 13.5t-81 45.5t-52 84.5t-18.5 130.5q0 33 4 82t10 99t11.5 94.5t8.5 67.5l51 366z" />
<glyph unicode="&#x449;" horiz-adv-x="1817" d="M149 1023l18 89l249 51l48 -24l-69 -550q-3 -27 -8 -64t-9.5 -77.5t-8 -82.5t-3.5 -79q0 -51 10 -84t28 -51.5t44 -25.5t58 -7q37 0 74 14.5t71.5 38t65.5 54t55 63.5q2 63 11.5 140t19.5 152l77 575h199l-78 -569q-6 -45 -11 -84t-9.5 -74.5t-7 -70t-2.5 -71.5 q0 -51 10 -84t28.5 -51.5t44.5 -25.5t58 -7q36 0 72 13.5t69.5 35.5t63.5 51t54 61l116 876h199l-125 -964q-10 -76 22 -76q8 0 17 2.5t21.5 10t29 20.5t38.5 33l31 -54q-5 -7 -16 -20.5t-28 -29t-39 -32t-47 -30.5q-17 -10 -35 -19.5t-33 -20.5t-24.5 -25t-9.5 -33 q0 -18 8 -37t18 -40t18 -44.5t8 -50.5q0 -40 -24 -78t-61.5 -70.5t-84 -56t-90.5 -34.5l-55 64q19 7 40.5 21.5t40 33t31 40t12.5 44.5q0 20 -5.5 35t-11.5 30.5t-11.5 35t-5.5 47.5q0 43 25.5 78.5t62.5 61.5q-32 17 -43 53t0 87l-1 10q-27 -32 -61 -62t-75 -53.5 t-90 -37.5t-107 -14q-51 0 -93 10t-74 33t-53 60.5t-30 91.5q-27 -35 -62 -70t-79 -63t-97.5 -45t-117.5 -17q-57 0 -104.5 13.5t-81 45.5t-52 84.5t-18.5 130.5q0 33 4 82t10 99t11.5 94.5t8.5 67.5l51 366z" />
<glyph unicode="&#x44a;" horiz-adv-x="1243" d="M100 816q0 35 4 85t13.5 99t24.5 89t37 54q13 8 38 14t62 6q56 0 117 -5.5t121 -12t115.5 -12t100.5 -5.5q10 0 25 2.5t31 7t31.5 11t26.5 14.5q6 4 19 -2.5t24.5 -18t17.5 -24t-1 -19.5q-64 -60 -118.5 -123.5t-97.5 -131.5t-73.5 -143t-45.5 -157q31 49 66.5 87.5 t79 64.5t97 40t119.5 14q60 0 105 -21.5t75.5 -61.5t45.5 -97.5t15 -128.5q0 -56 -16.5 -112t-47.5 -107.5t-75 -96t-99 -77.5t-120 -52t-137 -19q-75 0 -137 27t-106 76t-68 118t-24 154q0 105 20 195.5t57 168.5t89 145t115 127l-270 2q-33 0 -56.5 -7t-41.5 -19t-32 -28 t-27 -34q-27 -38 -35 -86h-64zM558 381q0 -51 6.5 -102.5t22.5 -93.5t43.5 -68.5t69.5 -26.5q62 0 113 26.5t87 71t56 103.5t20 125q0 36 -3 70.5t-16 62t-40.5 44.5t-76.5 17q-32 0 -71.5 -14.5t-79 -41.5t-74.5 -65t-57 -85v-23z" />
<glyph unicode="&#x44b;" horiz-adv-x="1504" d="M113.5 262q-10.5 96 15.5 225l95 476l-98 59l18 89l248 52l54 -25l-100 -560q16 21 46.5 50.5t74 56.5t98.5 46t119 19q127 0 186.5 -78t59.5 -222q0 -51 -17 -106t-49 -107.5t-77 -99.5t-101 -82.5t-121.5 -56.5t-137.5 -21q-87 0 -154.5 31t-108 94.5t-51 159.5z M304.5 267.5q3.5 -53.5 21 -93t48 -62t72.5 -22.5q62 0 113 30t87 77t55.5 105t19.5 114q0 36 -3 70.5t-16 62t-40.5 44.5t-76.5 17q-32 0 -70 -14.5t-75.5 -41.5t-70.5 -65.5t-54 -86.5l-3 -19q-11 -62 -7.5 -115.5zM1046 138l128 1017h199l-126 -964q-10 -76 23 -76 q8 0 17 2.5t21.5 10t29 20.5t38.5 33l31 -54q-7 -11 -29.5 -35t-56.5 -48.5t-76 -43t-87 -18.5q-70 0 -95.5 42t-16.5 114z" />
<glyph unicode="&#x44c;" horiz-adv-x="1019" d="M128.5 262q-10.5 96 15.5 225l95 476l-98 59l18 89l248 52l54 -25l-100 -560q16 21 46.5 50.5t74 56.5t98.5 46t119 19q127 0 186.5 -78t59.5 -222q0 -51 -17 -106t-49 -107.5t-77 -99.5t-101 -82.5t-121.5 -56.5t-137.5 -21q-87 0 -154.5 31t-108 94.5t-51 159.5z M319.5 267.5q3.5 -53.5 21 -93t48 -62t72.5 -22.5q62 0 113 30t87 77t55.5 105t19.5 114q0 36 -3 70.5t-16 62t-40.5 44.5t-76.5 17q-32 0 -70 -14.5t-75.5 -41.5t-70.5 -65.5t-54 -86.5l-3 -19q-11 -62 -7.5 -115.5z" />
<glyph unicode="&#x44d;" horiz-adv-x="1011" d="M24 91l27 202h111q1 -1 3 -26t4 -55t4 -54.5t3 -25.5q41 -16 93 -27t113 -11q88 0 152 38t108 99.5t70 140t38 160.5q-66 -6 -133 -10.5t-128.5 -8t-112.5 -5.5t-84 -4l-34 151h502q1 8 1 14.5v14.5q0 97 -21.5 168.5t-58.5 117.5t-86.5 68.5t-105.5 22.5 q-68 0 -111.5 -13t-78.5 -39l-67 -146h-103l32 260q23 11 63.5 20t88.5 16t100 10.5t99 3.5q104 0 188.5 -30.5t144.5 -91.5t93 -152t33 -212q0 -165 -49.5 -296.5t-132 -223.5t-190 -141t-222.5 -49q-65 0 -119 9t-97.5 24.5t-77.5 36.5t-59 44z" />
<glyph unicode="&#x44e;" horiz-adv-x="1689" d="M133 0l130 963l-99 59l18 89l248 52l55 -25l-66 -491h233q25 105 75.5 199t121 164.5t159.5 111.5t191 41q96 0 169.5 -31t124 -90t77.5 -144.5t29 -194.5q1 -91 -17 -180t-53 -169.5t-86 -148.5t-115 -118t-139.5 -78.5t-160.5 -28.5q-96 0 -169.5 31t-123.5 89.5 t-77 144t-29 194.5q-2 44 3 88h-229l-70 -527h-200zM843 441q2 -160 57 -249.5t163 -89.5q57 0 103 26.5t82 72t62.5 105.5t43 126.5t24 136t6.5 133.5q-2 159 -57.5 248.5t-163.5 89.5q-57 0 -103 -26.5t-82 -71.5t-62 -105t-43 -126.5t-24.5 -136t-5.5 -133.5z" />
<glyph unicode="&#x44f;" horiz-adv-x="1202" d="M-31 0l12 100l78 27q31 8 59 30.5t54 54t50.5 69.5t48.5 77t48 75t49 64q-107 32 -156 104.5t-49 169.5t37.5 168t105 117.5t162 69.5t208.5 23q101 0 172.5 -6.5t122.5 -6.5h90q-31 -272 -55 -486q-10 -91 -20 -179t-17.5 -157t-12 -112t-4.5 -44q0 -43 25 -43q8 0 17 3 t21.5 10.5t28.5 20t38 32.5l31 -54q-6 -11 -28.5 -35t-56.5 -48.5t-76 -43t-88 -18.5q-61 0 -87 32t-26 88q0 2 1.5 19t4.5 44t7 60t8 68q9 81 21 183l-263 1q-31 -32 -58.5 -79.5t-53.5 -100.5t-51 -106t-49 -95.5t-48.5 -69t-49.5 -26.5h-251zM366 795q0 -47 14.5 -85.5 t47 -65.5t83.5 -42t123 -15h41h51t48 1t33 3l54 439q-21 2 -69 4t-137 2q-58 0 -110.5 -9.5t-92 -36t-63 -73.5t-23.5 -122z" />
<glyph unicode="&#x450;" horiz-adv-x="1052" d="M85 430q2 95 24 186t60 172.5t91 150t118 118.5t140.5 78t158.5 28q73 0 126.5 -19t89 -53t53 -79.5t17.5 -98.5q0 -78 -35.5 -141t-93 -113t-130.5 -87t-146.5 -61t-141.5 -37t-116 -14q-3 -32 -1 -70t11 -76t25 -73t41 -62t59 -43t79 -16q77 0 165 34t173 113l47 -84 q-21 -30 -60.5 -65t-93 -66t-119.5 -51.5t-139 -20.5q-107 0 -184 38t-126 101t-71.5 144t-20.5 167zM255 1595l155 148l288 -432l-67 -60q-21 9 -52.5 30t-68 50t-75 63.5t-73 69.5t-63 69t-44.5 62zM305 570q40 2 89 12.5t98.5 30t97 47t84 63t58.5 79t22 94.5 q-1 78 -35.5 113.5t-89.5 35.5q-51 0 -93 -23.5t-76.5 -62t-61 -88.5t-46 -103t-31 -104.5t-16.5 -93.5z" />
<glyph unicode="&#x451;" horiz-adv-x="1052" d="M85 430q2 95 24 186t60 172.5t91 150t118 118.5t140.5 78t158.5 28q73 0 126.5 -19t89 -53t53 -79.5t17.5 -98.5q0 -78 -35.5 -141t-93 -113t-130.5 -87t-146.5 -61t-141.5 -37t-116 -14q-3 -32 -1 -70t11 -76t25 -73t41 -62t59 -43t79 -16q77 0 165 34t173 113l47 -84 q-21 -30 -60.5 -65t-93 -66t-119.5 -51.5t-139 -20.5q-107 0 -184 38t-126 101t-71.5 144t-20.5 167zM305 570q40 2 89 12.5t98.5 30t97 47t84 63t58.5 79t22 94.5q-1 78 -35.5 113.5t-89.5 35.5q-51 0 -93 -23.5t-76.5 -62t-61 -88.5t-46 -103t-31 -104.5t-16.5 -93.5z M323 1503q0 30 12 57t32.5 47.5t46.5 33t55 12.5q28 0 51 -9t39 -24t25 -35.5t9 -43.5q0 -30 -12.5 -58t-33.5 -49.5t-49 -34.5t-59 -13q-24 0 -45 9.5t-36.5 25t-25 37t-9.5 45.5zM745 1503q0 30 12 57t32 47.5t46.5 33t55.5 12.5q57 0 90 -33t33 -79q0 -30 -12 -58 t-33 -49.5t-49 -34.5t-59 -13q-24 0 -45.5 9.5t-37 25t-24.5 37t-9 45.5z" />
<glyph unicode="&#x452;" horiz-adv-x="1239" d="M117 0l168 1291h-166l14 108h166l11 83l-119 43l17 83l272 42l52 -27l-30 -224h293l-14 -108h-293l-50 -379q39 52 85.5 98t99 80t109.5 53.5t116 19.5q114 0 170.5 -71t56.5 -202q0 -5 -4.5 -45t-12.5 -102t-17.5 -139.5t-20 -157t-20.5 -156t-17.5 -136t-12.5 -96 t-5 -37.5q-34 -258 -136.5 -389t-254.5 -131q-12 0 -26.5 0.5t-28 1t-24 2.5t-13.5 5l5 101q26 0 52 5.5t52 14.5q44 15 76 54.5t54 95.5t35.5 124.5t22.5 141.5q0 1 4 35.5t10.5 91t14.5 129t16.5 148t16.5 148.5t14 131t10 95t4 41q0 75 -25.5 106t-86.5 31q-39 0 -83 -19 t-88.5 -52t-88 -78.5t-80.5 -98.5l-100 -755h-200z" />
<glyph unicode="&#x453;" horiz-adv-x="841" d="M40 245q0 77 28 134t74 103t105 84.5t122 79.5q54 36 91.5 68.5t60.5 65.5t33 67.5t10 72.5q0 21 -7 41.5t-20.5 36t-34.5 25t-48 9.5q-47 0 -90.5 -9.5t-77.5 -22t-57 -25t-29 -18.5l-22 99q17 13 46 31.5t69 35t90.5 28.5t110.5 12q63 0 116.5 -15.5t92.5 -44 t60.5 -70.5t21.5 -94q0 -83 -34 -144.5t-85 -110.5t-110.5 -87.5t-110.5 -74.5q-45 -32 -81.5 -60t-62 -56.5t-39.5 -60.5t-14 -73q0 -30 8.5 -58t28 -49.5t51 -34.5t77.5 -13q45 0 78 7.5t60 20.5t52 30t55 37l31 -97q-27 -30 -67 -55t-86.5 -43t-96 -27.5t-95.5 -9.5 q-66 0 -121.5 21.5t-96 58t-63.5 84.5t-23 101zM423 1312l317 431l144 -138q-9 -17 -33.5 -46.5t-58.5 -65.5t-74.5 -74t-81.5 -71.5t-79.5 -60t-68.5 -37.5z" />
<glyph unicode="&#x454;" horiz-adv-x="1014" d="M76 452q0 97 21.5 188t61.5 171t97 147t127.5 114.5t153.5 74t176 26.5q47 0 93.5 -4t87 -10.5t73 -16t53.5 -20.5l-33 -262h-101l-33 149q-27 26 -67 39t-107 13q-83 0 -145.5 -32t-107.5 -86t-74 -124t-44 -146h527l-34 -170q-36 2 -94.5 5t-127.5 6.5t-144.5 9.5 t-145.5 14q-2 -20 -2 -39v-37q0 -95 20.5 -164.5t56.5 -114.5t83.5 -67t101.5 -22q62 0 117.5 11t100.5 27l49 158h114l-24 -200q-30 -23 -69.5 -43.5t-87 -36t-104 -24.5t-120.5 -9q-115 0 -199.5 32.5t-140 94t-82.5 149.5t-27 199z" />
<glyph unicode="&#x455;" horiz-adv-x="869" d="M40 39l37 153q16 -11 43 -24t62 -24.5t76.5 -19.5t86.5 -8q31 0 66 4t64 18.5t48 43t19 77.5q0 41 -15 75t-40 63t-56.5 54.5t-64.5 49.5q-27 20 -63 52.5t-68.5 75.5t-55 95.5t-22.5 113.5q0 75 32 135t85.5 102t124 65t147.5 23q40 0 80.5 -3.5t75.5 -9t61.5 -12 t38.5 -12.5l-38 -169q-5 7 -23 19.5t-47.5 25t-69 22t-86.5 9.5q-32 0 -63 -6t-56.5 -21t-43.5 -41t-22 -66q-5 -39 7 -73.5t34.5 -66t53.5 -59.5t64 -54q39 -30 78.5 -64.5t71.5 -76.5t52.5 -92.5t20.5 -113.5q0 -78 -33 -137.5t-88 -100t-127.5 -61t-151.5 -20.5 q-45 0 -92 5t-87.5 13t-71.5 19t-44 22z" />
<glyph unicode="&#x456;" horiz-adv-x="642" d="M139 1031l18 81l306 51l49 -24l-139 -950q-11 -76 23 -76q16 0 40 13t66 53l32 -54q-7 -11 -29.5 -35t-55.5 -48.5t-74.5 -43t-87.5 -18.5q-63 0 -97 30t-29 103q4 60 16.5 149t29.5 200.5t37.5 242t40.5 274.5zM315 1503q0 30 13 57t34 48t47 33t52 12q28 0 51 -9 t39.5 -24t25 -35.5t8.5 -43.5q0 -30 -12.5 -58t-33.5 -49.5t-48.5 -34.5t-58.5 -13q-24 0 -45.5 9.5t-37 25t-25 37t-9.5 45.5z" />
<glyph unicode="&#x457;" horiz-adv-x="642" d="M114 1503q0 30 12 57t32.5 47.5t46.5 33t55 12.5q28 0 51 -9t39 -24t25 -35.5t9 -43.5q0 -30 -12.5 -58t-33.5 -49.5t-49 -34.5t-59 -13q-24 0 -45 9.5t-36.5 25t-25 37t-9.5 45.5zM139 1031l18 81l306 51l49 -24l-139 -950q-11 -76 23 -76q16 0 40 13t66 53l32 -54 q-7 -11 -29.5 -35t-55.5 -48.5t-74.5 -43t-87.5 -18.5q-63 0 -97 30t-29 103q4 60 16.5 149t29.5 200.5t37.5 242t40.5 274.5zM536 1503q0 30 12 57t32 47.5t46.5 33t55.5 12.5q57 0 90 -33t33 -79q0 -30 -12 -58t-33 -49.5t-49 -34.5t-59 -13q-24 0 -45.5 9.5t-37 25 t-24.5 37t-9 45.5z" />
<glyph unicode="&#x458;" horiz-adv-x="647" d="M-211 -481l36 82q7 -3 17 -5.5t20.5 -4t19.5 -2t13 -0.5q73 0 123.5 40.5t84.5 107t53 152.5t29 176l98 915l-156 51l18 81l317 51l48 -24l-130 -1139q-15 -128 -55 -224.5t-99 -162t-134.5 -98.5t-160.5 -33q-48 0 -86.5 9.5t-55.5 27.5zM315 1503q0 30 13 57t34 48 t47 33t52 12q28 0 51 -9t39.5 -24t25 -35.5t8.5 -43.5q0 -30 -12.5 -58t-33.5 -49.5t-48.5 -34.5t-58.5 -13q-24 0 -45.5 9.5t-37 25t-25 37t-9.5 45.5z" />
<glyph unicode="&#x459;" horiz-adv-x="1604" d="M-52 8l50 223q4 -3 21 -8.5t38 -11.5t40.5 -10t27.5 -4q31 0 64 62q27 51 53 134.5t48.5 185t41 212t31.5 214.5l-179 29l13 102h817l-69 -582l4 4q8 16 38 48t77 64t109.5 56t135.5 24q63 0 108 -24t73.5 -66t41.5 -98.5t13 -121.5q0 -48 -16.5 -101.5t-47 -105 t-74.5 -98t-99 -81.5t-119.5 -56t-136.5 -21q-76 0 -140.5 30.5t-109.5 87.5t-66 138t-10 181l65 593h-316l-13 -110q-8 -69 -20 -145t-27 -152.5t-31.5 -149t-34.5 -135t-37 -111t-37 -76.5q-20 -30 -41 -56.5t-48.5 -46t-64 -30.5t-86.5 -11q-9 0 -23 2.5t-27.5 6t-24.5 8 t-12 7.5zM922.5 281.5q2.5 -54.5 18 -97t47 -68.5t83.5 -26q62 0 113 30t87 77t55.5 105t19.5 114q0 36 -2.5 70.5t-16 62t-41 44.5t-76.5 17q-32 0 -73 -15t-81 -43.5t-75 -68.5t-55 -90q-6 -57 -3.5 -111.5z" />
<glyph unicode="&#x45a;" horiz-adv-x="1789" d="M133 0l130 963l-99 59l18 89l248 52l55 -25l-66 -491h519l54 489h198l-68 -582l4 4q8 16 38 48t77 64t109.5 56t134.5 24q64 0 109 -24t73.5 -66t41.5 -98.5t13 -121.5q0 -48 -16.5 -101.5t-47 -105t-74.5 -98t-99 -81.5t-119.5 -56t-136.5 -21q-76 0 -139.5 30.5 t-106.5 87.5t-62.5 138t-7.5 181l12 114h-522l-70 -528h-200zM1099.5 281.5q2.5 -54.5 18 -97t47 -68.5t83.5 -26q62 0 113 30t87 77t55.5 105t19.5 114q0 36 -3 70.5t-16 62t-40.5 44.5t-76.5 17q-33 0 -73.5 -15t-80.5 -43.5t-75 -68.5t-55 -90q-6 -57 -3.5 -111.5z" />
<glyph unicode="&#x45b;" horiz-adv-x="1241" d="M117 0l165 1269h-139l1 108h152l14 105l-119 43l17 83l272 42l52 -27l-33 -246h218l-1 -108h-231l-47 -357q39 52 85.5 98t99 80t109.5 53.5t116 19.5q52 0 94 -15.5t72 -51t46 -93t16 -142.5q0 -37 -5 -81.5t-12.5 -91.5t-16.5 -94t-17 -89q-13 -77 -26 -159t-19 -159 q-2 -36 3 -55.5t19 -19.5q16 0 39 11t67 44l31 -53q-6 -10 -28 -32.5t-55 -45t-75.5 -39.5t-88.5 -17q-63 0 -97 30t-30 103q2 34 7 74.5t12 83t15 86.5t15 86q8 44 18 95.5t18.5 104.5t14 106t5.5 100q0 54 -9 84.5t-24.5 46t-36 19.5t-43.5 4q-39 0 -83 -19t-88.5 -52 t-88 -78.5t-80.5 -98.5l-100 -755h-200z" />
<glyph unicode="&#x45c;" horiz-adv-x="1113" d="M133 0l130 963l-98 59l18 89l247 52l55 -25l-67 -499h133q37 30 69.5 58t64 58.5t62.5 66t65 79.5q9 10 20.5 36.5t11.5 53.5q0 16 -4.5 28.5t-4.5 32.5q0 25 12.5 45t32 34t44 21.5t49.5 7.5q18 0 35 -4.5t30 -14.5t21 -25.5t8 -37.5q0 -42 -19.5 -85t-52 -85.5 t-75.5 -84t-90 -82t-96 -79.5t-93 -75q24 -31 53 -76t60.5 -94t63.5 -98.5t62.5 -90t59 -68t51.5 -32.5l74 -36l-12 -92h-192q-41 0 -79 40t-74 100t-70 129.5t-68 129.5t-67.5 100t-68.5 40h-29l-72 -539h-200zM581 1312l317 431l144 -138q-9 -17 -33.5 -46.5t-58.5 -65.5 t-74.5 -74t-81.5 -71.5t-79.5 -60t-68.5 -37.5z" />
<glyph unicode="&#x45d;" horiz-adv-x="1210" d="M149 1023l18 89l249 51l48 -24l-69 -550q-6 -45 -11 -84.5t-9.5 -75.5t-7 -71t-2.5 -72q0 -51 10 -84t28.5 -51.5t44.5 -25.5t58 -7q35 0 71 13.5t69.5 35.5t63.5 51t54 60l116 877h199l-125 -964q-10 -76 22 -76q8 0 17 2.5t21.5 10t29 20.5t38.5 33l31 -54 q-7 -11 -29.5 -35t-56 -48.5t-75.5 -43t-88 -18.5q-69 0 -97.5 42t-13.5 113l-1 9q-27 -32 -61 -62t-75 -53t-90 -37t-106 -14t-104.5 13.5t-81.5 45.5t-52.5 84.5t-18.5 130.5q0 33 3 74t8.5 86t11.5 91.5t12 91.5l51 366zM316 1595l155 148l288 -432l-67 -60 q-21 9 -52.5 30t-68 50t-75 63.5t-73 69.5t-63 69t-44.5 62z" />
<glyph unicode="&#x45e;" horiz-adv-x="1072" d="M-126 -478l47 160q7 -3 21 -10t35 -13.5t49.5 -12t64.5 -5.5q32 0 76.5 14.5t92.5 50t96.5 94t89.5 146.5h-96l-172 1017q-5 32 -15 44t-25 12q-6 0 -12.5 -1t-15.5 -4.5t-22 -12t-31 -23.5l-29 60q6 9 26 30t49.5 42t66 37t76.5 16q37 0 61.5 -9.5t39.5 -27.5 t22.5 -43.5t11.5 -56.5q0 -2 4 -34t10 -83.5t14 -116.5t15.5 -133t15.5 -133t14 -116t10 -83t4 -34l20 -272l155 310q32 76 66 146.5t62 142t46 146.5t18 162q0 17 -5.5 32.5t-11.5 31t-11.5 32t-5.5 34.5q0 56 28 80t71 24q68 0 99 -49t31 -142q0 -84 -23 -169 t-57.5 -167.5t-76 -160.5t-77.5 -149q-71 -142 -128.5 -249t-105 -186t-85 -134t-68.5 -92q-20 -29 -52.5 -59t-77.5 -54.5t-103 -40.5t-128 -16q-17 0 -41 2.5t-48.5 7t-47 9t-37.5 9.5zM242 1555q0 20 1 39.5t8 40.5h177q17 0 22.5 -13.5t5.5 -32.5q0 -20 -2.5 -42 t-2.5 -40q0 -27 8 -49.5t28 -38t54.5 -24t87.5 -8.5q55 0 89.5 12.5t55 35t29.5 53.5t14 68q2 15 5 29t8 25t13 18t20 7h147q0 -8 -0.5 -16.5t-1.5 -16.5q-10 -83 -44 -142.5t-85.5 -97.5t-119 -56.5t-143.5 -18.5q-75 0 -143 16t-119.5 49t-81.5 83.5t-30 119.5z" />
<glyph unicode="&#x45f;" horiz-adv-x="1251" d="M149 1023l18 89l249 51l48 -24l-69 -550q-6 -45 -11 -84.5t-9.5 -75.5t-7 -71t-2.5 -72q0 -51 10 -84t28.5 -51.5t44.5 -25.5t58 -7q35 0 71 13.5t69.5 35.5t63.5 51t54 60l116 877h199l-125 -964q-10 -76 22 -76q8 0 17 2.5t21.5 10t29 20.5t38.5 33l31 -54 q-7 -11 -29.5 -35t-56 -48.5t-75.5 -43t-88 -18.5q-69 0 -97.5 42t-13.5 113l-1 9q-27 -32 -61 -62t-75 -53t-90 -37t-106 -14t-104.5 13.5t-81.5 45.5t-52.5 84.5t-18.5 130.5q0 33 3 74t8.5 86t11.5 91.5t12 91.5l51 366zM378 -431q19 7 38.5 13.5t35.5 15.5t26 23t10 37 q0 19 -3.5 34.5t-7.5 31.5t-7.5 35.5t-3.5 47.5q0 36 17.5 65t44 50t56.5 33.5t56 15.5l38 -48q-11 -6 -19 -13t-13.5 -17t-8 -24t-2.5 -34q0 -18 5.5 -34.5l11.5 -34.5t11.5 -39t5.5 -47q0 -40 -20.5 -68t-53.5 -48.5t-75.5 -34t-86.5 -24.5z" />
<glyph unicode="&#x462;" horiz-adv-x="1380" d="M2 984l57 271h456l22 153l-133 28l10 86h513l-11 -86l-172 -33l-22 -148h553l-72 -271h-108l12 152l-399 16l-57 -399q21 3 49 6.5t60 6t65.5 4t63.5 1.5q111 0 193 -24.5t136 -69t81 -107t27 -137.5q0 -112 -42 -196t-118 -140.5t-182 -84.5t-235 -28q-18 0 -54.5 2.5 t-80 5.5t-87 5.5t-74.5 2.5h-260l12 100l148 24l148 1030h-17l-302 -18l-64 -152h-116zM559 112q15 -4 30.5 -7t37 -5.5t51 -4t71.5 -1.5q90 0 158.5 23.5t115 65t70 98.5t23.5 124q0 51 -19 96.5t-55 79t-89 53.5t-120 20q-23 0 -50 -1t-54 -3.5t-51.5 -5t-42.5 -5.5z" />
<glyph unicode="&#x463;" horiz-adv-x="1702" d="M133 0l130 963l-99 59l18 89l248 52l48 -24l-20 -211q40 49 87.5 92t100 75t108 50t111.5 18q52 0 94 -15.5t71.5 -51t45.5 -93t16 -142.5q0 -23 -3.5 -56t-8.5 -71.5t-11.5 -80t-13.5 -81.5q12 20 44 50.5t78.5 59t105.5 48.5t125 20q64 0 109 -24t73.5 -66t41.5 -98.5 t13 -121.5q0 -48 -16.5 -101.5t-47 -105t-74.5 -98t-99 -81.5t-120 -56t-137 -21q-76 0 -140.5 31t-108 88t-62.5 137.5t-4 180.5q6 44 15 100t16.5 115t13 116t5.5 104q0 54 -7.5 84.5t-22 46t-35.5 19.5t-47 4q-38 0 -81.5 -18.5t-88 -51.5t-88 -77.5t-80.5 -96.5 l-103 -759h-200zM1020.5 282q2.5 -54 18.5 -97t48 -69t84 -26q62 0 113 30t87 77t55.5 105t19.5 114q0 36 -3 70.5t-16 62t-40.5 44.5t-76.5 17q-33 0 -73.5 -15t-80.5 -43.5t-75 -68.5t-55 -90q-8 -57 -5.5 -111z" />
<glyph unicode="&#x472;" horiz-adv-x="1383" d="M119 619q-2 132 20.5 252t65.5 222.5t105.5 185.5t140.5 141.5t169 90t192 31.5q127 0 220 -50.5t155 -136.5t93 -200.5t33 -243.5q2 -132 -20 -252.5t-65.5 -224t-106 -187.5t-140 -143.5t-169 -91.5t-192.5 -32q-127 0 -220.5 51.5t-155 139t-92.5 203.5t-33 245z M327 646q2 -120 23 -220.5t61 -173t99 -112.5t138 -40q89 0 167 48.5t137 135.5t97 208t47 267q-20 -23 -43.5 -43.5t-52.5 -36.5t-63 -25t-74 -9q-56 0 -102.5 19.5t-87 42.5t-76.5 42.5t-70 19.5q-31 0 -60.5 -10.5t-55 -26.5t-47 -33.5t-37.5 -32.5v-20zM332 791 q21 23 45.5 44t54 37t63.5 25.5t73 9.5q57 0 102.5 -19.5t85 -42.5t75.5 -42.5t72 -19.5q32 0 61 12t53.5 29t45 35.5t35.5 32.5q-3 119 -24.5 216t-61.5 165.5t-98.5 106t-135.5 37.5q-87 0 -163.5 -45.5t-135 -128t-97 -198t-50.5 -254.5z" />
<glyph unicode="&#x473;" horiz-adv-x="1145" d="M85 439q-2 91 16.5 180t53.5 169.5t86 149t115 118.5t139 78.5t160 28.5q96 0 169.5 -31t124 -90t77.5 -144.5t29 -194.5q1 -91 -17 -180t-53 -169.5t-86 -148.5t-115 -118t-139.5 -78.5t-160.5 -28.5q-96 0 -169.5 31t-123.5 89.5t-77 144t-29 194.5zM298.5 459 q-0.5 -9 0.5 -18q2 -160 57 -249.5t163 -89.5q60 0 108.5 30t85.5 80t63 116t41 138q-26 -22 -59 -34t-72 -12q-40 0 -68 10t-49 25.5t-36.5 33.5t-32 33.5t-36 26t-46.5 11.5q-16 0 -31.5 -7.5t-30.5 -19.5t-29.5 -26.5t-27.5 -29.5q0 -9 -0.5 -18zM317 656q31 30 69 49 t83 19q33 0 58.5 -10.5t46 -26t38 -33.5t35 -33.5t36 -26t41.5 -10.5q25 0 42 9t29 23t22.5 32t22.5 35v19q-2 159 -57.5 248.5t-163.5 89.5q-62 0 -112 -32t-87.5 -85.5t-63 -122.5t-39.5 -144z" />
<glyph unicode="&#x474;" horiz-adv-x="1292" d="M110 1421l12 101h506l-12 -101l-183 -23l198 -972l38 -251l72 250l297 847q25 73 61.5 121.5t77 77.5t81.5 40.5t76 11.5q37 0 65.5 -4t35.5 -8l-17 -138q-11 3 -26 3q-27 0 -63.5 -10t-74 -37.5t-73 -75t-61.5 -121.5l-428 -1147h-156l-304 1413z" />
<glyph unicode="&#x475;" horiz-adv-x="1044" d="M35 1057q5 8 22.5 25.5t43.5 35.5t60 31.5t72 13.5t63 -9t40 -26.5t22.5 -43t10.5 -58.5l69 -667l12 -167l80 167l249 526q33 71 70.5 123t76 86.5t75.5 51t70 16.5q36 0 55 -5t27 -9l-18 -157q-5 1 -9 1h-9q-26 0 -54 -11.5t-59.5 -39.5t-65.5 -75t-70 -118l-393 -764 h-153l-156 979q-5 30 -15.5 43t-24.5 13q-16 0 -30.5 -6t-31.5 -17z" />
<glyph unicode="&#x48a;" horiz-adv-x="1599" d="M28 0l10 87l147 30l161 1281l-133 23l12 101h485l-11 -101l-154 -23l-126 -1002l125 165l699 732l13 105l-133 23l12 101h485l-12 -101l-154 -23l-161 -1281l158 -29l-8 -88q-17 -100 -39 -182.5t-41 -159.5l-125 4l8 94t6.5 91t2 83t-4.5 70h-312l9 87l148 30l126 1001 l-106 -141l-719 -760l-12 -100l157 -29l-8 -88h-505zM546 1933q0 20 1 39.5t8 40.5h178q17 0 22.5 -13.5t5.5 -32.5q0 -20 -2.5 -42t-2.5 -40q0 -32 7.5 -57.5t27.5 -43.5t54.5 -28t88.5 -10q55 0 89.5 14t55 39t29.5 59.5t14 75.5q2 15 5 29t8 25t13 18t20 7h147 q0 -8 -0.5 -16.5t-1.5 -16.5q-10 -87 -44 -150t-85.5 -103.5t-119 -60t-143.5 -19.5t-144 17t-119.5 52t-81.5 89t-30 128z" />
<glyph unicode="&#x48b;" horiz-adv-x="1210" d="M149 1023l18 89l249 51l48 -24l-69 -550q-6 -45 -11 -84.5t-9.5 -75.5t-7 -71t-2.5 -72q0 -51 10 -84t28.5 -51.5t44.5 -25.5t58 -7q35 0 71 13.5t69.5 35.5t63.5 51t54 60l116 877h199l-125 -964q-10 -76 22 -76q8 0 17 2.5t21.5 10t29 20.5t38.5 33l31 -54 q-5 -7 -15.5 -19.5t-26.5 -27.5t-36 -31t-44 -29q-17 -11 -36.5 -21t-35.5 -21.5t-26.5 -26t-10.5 -34.5q0 -18 8 -37t18 -40t18 -44.5t8 -50.5q0 -40 -24 -78t-61.5 -70.5t-84 -56t-90.5 -34.5l-55 64q19 7 40.5 21.5t40 33t31 40t12.5 44.5q0 20 -5.5 35t-11.5 30.5 t-11.5 35t-5.5 47.5q0 43 25.5 78t62.5 62q-32 17 -43.5 53t-0.5 87l-1 9q-27 -32 -61 -62t-75 -53t-90 -37t-106 -14t-104.5 13.5t-81.5 45.5t-52.5 84.5t-18.5 130.5q0 33 3 74t8.5 86t11.5 91.5t12 91.5l51 366zM317 1555q0 20 1 39.5t8 40.5h177q17 0 22.5 -13.5 t5.5 -32.5q0 -20 -2.5 -42t-2.5 -40q0 -27 8 -49.5t28 -38t54.5 -24t87.5 -8.5q55 0 89.5 12.5t55 35t29.5 53.5t14 68q2 15 5 29t8 25t13 18t20 7h147q0 -8 -0.5 -16.5t-1.5 -16.5q-10 -83 -44 -142.5t-85.5 -97.5t-119 -56.5t-143.5 -18.5q-75 0 -143 16t-119.5 49 t-81.5 83.5t-30 119.5z" />
<glyph unicode="&#x48c;" horiz-adv-x="1167" d="M28 0l9 87l148 30l118 941h-151l13 108h152l29 231l-133 24l12 101h490l-11 -101l-154 -23l-30 -232h286l-13 -108h-286l-29 -229l1 1q35 8 93.5 16t127.5 8q220 0 334.5 -91.5t114.5 -257.5q0 -129 -46 -226.5t-125.5 -163t-186 -98.5t-226.5 -33q-18 0 -54.5 2.5 t-80 5.5t-86.5 5.5t-74 2.5h-242zM389 115q30 -8 75.5 -14.5t119.5 -6.5q82 0 148.5 25.5t113.5 74t72.5 119.5t25.5 161q0 64 -22.5 111.5t-63 79t-97 47t-125.5 15.5q-53 0 -97 -4t-74 -11h-1z" />
<glyph unicode="&#x48d;" horiz-adv-x="1057" d="M74 1027l16 108h175l45 347l-119 43l17 83l272 42l52 -27l-64 -488h367l-16 -108h-365l-61 -471l1 2q8 16 38 48t77 64t109.5 56t135.5 24q63 0 108 -24t73.5 -66t41.5 -98.5t13 -120.5q0 -48 -16.5 -101.5t-47 -105t-74.5 -98t-99 -82t-119.5 -56.5t-136.5 -21 q-76 0 -141.5 31t-110.5 88t-66 137.5t-8 180.5l80 613h-177zM366.5 281.5q2.5 -54.5 18 -97t47.5 -68.5t84 -26q62 0 113 30t87 77t55.5 105t19.5 114q0 36 -3 70.5t-16 62t-40.5 44.5t-76.5 17q-33 0 -73.5 -15t-80.5 -43.5t-75 -68.5t-55 -90q-7 -57 -4.5 -111.5z" />
<glyph unicode="&#x48e;" horiz-adv-x="1239" d="M28 0l9 87l148 30l161 1281l-133 23l12 101h255q36 0 70.5 2.5t69.5 6t71.5 6t75.5 2.5q220 0 339 -96t122 -295q1 -91 -17 -168.5t-53 -142t-84.5 -115t-110.5 -87.5l165 -252l-90 -60l-173 265q-59 -23 -123 -34t-132 -11q-67 0 -105 1t-65 3l-51 -430l200 -29l-8 -88 h-553zM455 677q46 -8 87 -11t78 -3q52 0 96 8t81 22l-119 183l90 59l121 -187q65 58 94 153.5t31 229.5q1 70 -11 125t-44 92t-86.5 55.5t-138.5 16.5q-19 0 -42 -2t-48 -4.5t-49 -6.5t-44 -8z" />
<glyph unicode="&#x48f;" horiz-adv-x="1162" d="M37 -520l203 1500l-109 52l18 79l258 52l47 -24l-14 -132q24 30 54.5 58t68 50t80.5 35t92 13q87 0 151 -32.5t106 -90t63 -137t21 -173.5q0 -70 -15.5 -146t-45.5 -151.5t-74.5 -146.5t-101.5 -129l181 -210l-82 -71l-181 210q-68 -49 -148 -77.5t-173 -28.5 q-32 0 -66 4t-67 11l-71 -515h-195zM323 137q29 -20 65.5 -27.5t78.5 -7.5q62 0 112.5 22.5t92.5 61.5l-163 191l81 70l152 -177q31 48 54.5 104.5t38.5 115t22.5 116.5t7.5 111q0 145 -44.5 223.5t-122.5 78.5q-42 0 -82.5 -15.5t-76 -40t-65.5 -54.5t-52 -59z" />
<glyph unicode="&#x490;" horiz-adv-x="1002" d="M-35 0l10 87l212 30l158 1279l-203 28l12 98h800l106 359h140l-79 -498l-576 29l-160 -1294l320 -31l-10 -87h-730z" />
<glyph unicode="&#x491;" horiz-adv-x="792" d="M79 1034l13 102h594l101 326h115l-63 -442h-441l-127 -1020h-185l124 1005z" />
<glyph unicode="&#x492;" horiz-adv-x="1078" d="M4 0l11 87l172 30l70 570h-172l1 109h185l74 602l-184 26l12 98h935l-39 -471h-140l-17 352l-367 9l-76 -616h390l-1 -109h-403l-70 -569l317 -31l-9 -87h-689z" />
<glyph unicode="&#x493;" horiz-adv-x="876" d="M42 428l12 108h163l58 469l-131 29l12 102h767l-62 -345h-100l-10 228l-288 1l-61 -484h267l-12 -108h-269l-53 -428h-185l53 428h-161z" />
<glyph unicode="&#x494;" horiz-adv-x="1179" d="M4 0l11 87l172 30l158 1281l-184 26l12 98h935l-39 -468h-140l-17 349l-367 9l-76 -611q33 14 78 27t90.5 22.5t87 15t66.5 5.5q112 0 185 -26.5t115.5 -74.5t59 -114t16.5 -144q0 -101 -16.5 -203.5t-48 -197.5t-78 -177.5t-106.5 -143.5t-133 -96t-158 -35 q-11 0 -25.5 1t-29 3t-27.5 5t-20 6l14 117q13 -2 34 -2h44q81 0 146 53t110.5 145t69.5 216.5t24 268.5q0 142 -57.5 205t-181.5 63q-46 0 -80 -3.5t-64 -9.5t-60 -14.5t-68 -18.5l-71 -577l238 -30l-9 -87h-610z" />
<glyph unicode="&#x495;" horiz-adv-x="1127" d="M124 1034l13 102h766l-61 -345h-100l-10 228l-289 1l-65 -521q25 28 59.5 54.5t75 47t85 32.5t88.5 12q101 0 168 -26.5t106.5 -74t56 -113t16.5 -143.5q0 -140 -44.5 -265.5t-123.5 -220.5t-187.5 -150.5t-235.5 -55.5q-11 0 -25.5 1t-29 3t-27.5 5t-20 6l14 117 q13 -2 34 -2h44q81 0 154 34t128 100t87 163t32 223q0 71 -10 121.5t-34 83t-65.5 47.5t-104.5 15q-36 0 -73 -11.5t-71 -29t-62.5 -39t-47.5 -41.5l-49 -392h-185l124 1005z" />
<glyph unicode="&#x496;" horiz-adv-x="2018" d="M-30 0l12 87l82 30q21 7 52 35.5t69 71.5t82 97t90.5 110.5t94 112.5t92 104t85.5 83.5t75 51.5l-390 615l-146 24l12 100h464l-12 -100l-151 -25l349 -603h126l76 604l-134 23l12 101h481l-11 -101l-153 -23l-77 -604h146l484 603l-147 24l13 101h462l-13 -100l-149 -26 l-526 -611q38 -19 79.5 -71.5t83.5 -121t83.5 -145.5t81 -144.5t76 -118.5t68.5 -67h102q-9 -57 -21 -121t-25 -126t-25.5 -117.5t-20.5 -94.5h-126q2 48 5 95.5t4.5 91.5t0.5 83.5t-6 71.5h-65q-24 0 -50 29.5t-54 77.5t-57 109.5t-58.5 125.5t-59 125.5t-58 109.5 t-56 77.5t-52.5 29.5h-134l-71 -567l158 -29l-8 -88h-501l9 87l148 30l71 567h-110q-26 0 -60.5 -29.5t-74.5 -77.5t-84.5 -109.5t-89 -125.5t-88.5 -125.5t-83 -109.5t-72 -77.5t-57 -29.5h-253z" />
<glyph unicode="&#x497;" horiz-adv-x="1832" d="M-38 15l70 189l108 -111q36 0 81.5 39t86.5 112.5t69 179.5t28 240q0 89 -12 151.5t-32.5 102.5t-48.5 58t-60 18q-26 0 -47 -5t-41.5 -17t-43 -31.5t-52.5 -48.5l-43 53q14 21 40.5 55t63 66.5t83 56t100.5 23.5q65 0 118.5 -30.5t92 -88.5t60 -141.5t21.5 -189.5 q0 -15 -0.5 -29.5t-1.5 -28.5h214l59 498h200l-59 -498h208q24 103 70.5 195t110 161.5t141.5 110.5t167 41q48 0 78.5 -9t51.5 -26l-70 -189l-109 111q-36 0 -81.5 -39t-86 -112.5t-68.5 -179.5t-28 -240q0 -89 11.5 -151.5t32 -102.5t48.5 -58t61 -18q25 0 46 5t41.5 17 t43.5 31.5t53 48.5l42 -53q-11 -15 -28 -38.5t-40 -48t-51.5 -48.5t-61.5 -40q-28 -17 -47.5 -36t-19.5 -53q0 -18 8 -37t17.5 -40t17.5 -44.5t8 -50.5q0 -40 -24 -78t-61.5 -70.5t-84 -56t-90.5 -34.5l-54 64q19 7 40.5 21.5t40 33t31 40t12.5 44.5q0 20 -5.5 35t-12 30.5 t-12 35t-5.5 47.5q0 39 20.5 72t49.5 59q-51 14 -93 50t-72 92.5t-46 132t-16 167.5q0 27 1.5 54t5.5 54h-203l-64 -539l-199 1l63 538h-214q-20 -111 -65 -212t-110 -178t-147 -122.5t-176 -45.5q-48 0 -78.5 9t-51.5 26z" />
<glyph unicode="&#x498;" horiz-adv-x="1156" d="M10 68l88 331h104v-237q40 -22 109.5 -36t170.5 -14q78 0 144 24.5t114 72.5t75 119t27 165q0 54 -15 97.5t-50.5 73.5t-94.5 46t-147 16l-146 -11l14 128h122q58 0 117 21.5t106.5 67t77.5 115.5t30 168q0 104 -55 155.5t-156 51.5q-95 0 -161 -23t-90 -67l-46 -162 h-120l21 301q31 2 74 12.5t93.5 22.5t105 22t110.5 10q107 0 188.5 -20.5t136 -58.5t82.5 -91.5t28 -120.5q0 -102 -31.5 -178.5t-81 -130t-110.5 -85t-119 -44.5q91 -2 155.5 -26.5t105.5 -65t60.5 -95t19.5 -117.5q0 -101 -36.5 -185t-101.5 -148t-153.5 -107t-192.5 -62 q8 -23 12.5 -53t4.5 -65q0 -89 -22 -154.5t-60 -109t-89.5 -65t-111.5 -21.5q-40 0 -77 8t-54 20l16 151q6 -3 17 -6t23.5 -4.5t25.5 -2.5t25 -1q42 0 76 17.5t57.5 50t36.5 78.5t13 103q0 12 -0.5 22t-1.5 19q-15 -1 -29.5 -1.5t-29.5 -0.5q-74 0 -137.5 8.5t-114.5 20.5 t-89.5 26t-62.5 25z" />
<glyph unicode="&#x499;" horiz-adv-x="1033" d="M23 71l72 191l110 -114q23 -16 44 -26t42.5 -15.5t45 -7.5t50.5 -2q86 0 146 19t98 53.5t55 81t17 102.5q0 40 -11.5 74.5t-41 59.5t-78.5 39.5t-124 14.5l-111 -21l24 133l63 6q78 9 134.5 33.5t92.5 58t53 74t17 80.5q0 32 -10.5 58t-34.5 45t-63.5 29t-98.5 10 q-49 0 -84 -6t-60 -15t-40 -19.5t-24 -19.5l-63 -178h-113l36 297q49 0 87.5 8.5t80.5 19t94.5 19t131.5 8.5q86 0 153.5 -16t114 -47t71 -75t24.5 -101q0 -46 -25 -92.5t-67 -87.5t-96 -73.5t-111 -51.5q70 -3 125 -21.5t93 -49.5t58 -74t20 -95q0 -74 -27.5 -136.5 t-76 -110.5t-116 -81t-148.5 -49q-29 -16 -51.5 -33.5t-22.5 -49.5q0 -18 8 -37.5t18 -40.5t18 -44.5t8 -49.5q0 -40 -24 -78t-61.5 -70.5t-84 -56t-90.5 -34.5l-55 63q19 7 40.5 21.5t40.5 33t31.5 40.5t12.5 45q0 20 -5.5 35t-12 30.5t-12 35t-5.5 47.5q0 38 20.5 69.5 t51.5 57.5q-67 1 -121 10t-97.5 22t-77 27.5t-58.5 27.5z" />
<glyph unicode="&#x49a;" horiz-adv-x="1326" d="M28 0l9 87l148 30l161 1281l-133 23l12 101h488l-11 -101l-155 -23l-76 -604h158l467 599l-155 29l12 100h463l-12 -100l-146 -25l-505 -622q37 -26 75.5 -80t76.5 -121t75.5 -140t72 -136t65 -109t55.5 -59h104q-3 -34 -9.5 -77.5t-15.5 -90.5t-19 -94t-19 -88t-17 -73 t-13 -49h-126q2 48 5 95.5t4.5 91.5t0.5 83.5t-6 71.5h-38q-24 0 -50.5 29.5t-54.5 77.5t-57 109.5t-58.5 125.5t-58.5 125.5t-57.5 109.5t-56 77.5t-52.5 29.5h-122l-71 -567l158 -29l-8 -88h-508z" />
<glyph unicode="&#x49b;" horiz-adv-x="1113" d="M133 0l130 963l-98 59l18 89l247 52l55 -25l-67 -499h133q37 30 69.5 58t64 58.5t62.5 66t65 79.5q9 10 20.5 36.5t11.5 53.5q0 16 -4.5 28.5t-4.5 32.5q0 25 12.5 45t32 34t44 21.5t49.5 7.5q18 0 35 -4.5t30 -14.5t21 -25.5t8 -37.5q0 -42 -19.5 -85t-52 -85.5 t-75.5 -84t-90 -82t-96 -79.5t-93 -75q24 -31 53 -76t60.5 -94t63.5 -98.5t62.5 -90t59 -68t51.5 -32.5l74 -36l-12 -92h-4q-17 -1 -36.5 -6.5t-35.5 -16t-26.5 -25.5t-10.5 -35q0 -18 8 -37t18 -40t18 -44.5t8 -50.5q0 -40 -24 -78t-61.5 -70.5t-84 -56t-90.5 -34.5l-55 64 q19 7 40.5 21.5t40 33t31 40t12.5 44.5q0 20 -5.5 35t-11.5 30.5t-11.5 35t-5.5 47.5q0 25 8.5 46.5t22.5 39t32.5 32t38.5 25.5h-8q-41 0 -79 40t-74 100t-70 129.5t-68 129.5t-67.5 100t-68.5 40h-29l-72 -539h-200z" />
<glyph unicode="&#x49c;" horiz-adv-x="1478" d="M28 0l9 87l148 30l161 1281l-133 23l12 101h488l-11 -101l-155 -23l-76 -604h146l49 342h119l-49 -342h45l466 599l-154 29l12 100h463l-12 -100l-146 -25l-502 -618q29 -18 59 -54t60 -83t60.5 -101.5t59.5 -109.5t57 -107t53 -93.5t47.5 -69t41.5 -34.5l72 -27 l-12 -100h-230q-24 0 -50.5 29.5t-54.5 77.5t-57 109.5t-58.5 125.5t-59 125.5t-58 109.5t-55.5 77.5t-52 29.5h-11l-44 -313h-119l44 313h-144l-71 -567l158 -29l-8 -88h-508z" />
<glyph unicode="&#x49d;" horiz-adv-x="1290" d="M133 0l130 963l-98 59l18 89l247 52l55 -25l-67 -499h111l30 239h133l-30 -239h42q36 32 67 63.5t59.5 65t56 71t56.5 81.5q8 11 19.5 32.5t11.5 48.5q0 15 -4.5 27.5t-4.5 32.5q0 25 12.5 44t32 31t44.5 18t50 6q18 0 34.5 -4.5t29.5 -14.5t21 -25.5t8 -37.5 q0 -63 -37.5 -127.5t-96 -126.5t-128.5 -122t-135 -114q24 -31 52 -76t58.5 -94.5t61.5 -98.5t61 -90t58 -68.5t51 -32.5l74 -36l-12 -92h-193q-36 0 -69 31t-63.5 79.5t-60 108t-58 116.5t-56.5 105.5t-57 74.5l-30 -245h-133l33 269h-112l-72 -539h-200z" />
<glyph unicode="&#x49e;" horiz-adv-x="1326" d="M28 0l9 87l148 30l119 947h-134l1 109h146l29 225l-133 23l12 101h488l-11 -101l-155 -23l-29 -225h160l-1 -109h-172l-34 -270h158l467 599l-155 29l12 100h463l-12 -100l-146 -25l-505 -622q28 -20 57.5 -56.5t59 -84t58.5 -101.5t57.5 -108t55.5 -105t51.5 -91.5 t46.5 -67.5t41 -34l86 -27l-12 -100h-230q-24 0 -50.5 29.5t-54.5 77.5t-57 109.5t-58.5 125.5t-58.5 125.5t-57.5 109.5t-56 77.5t-52.5 29.5h-122l-71 -567l158 -29l-8 -88h-508z" />
<glyph unicode="&#x49f;" horiz-adv-x="1081" d="M84 1202l18 108h171l23 172l-117 43l16 83l272 42l52 -27l-42 -313h200l-18 -108h-196l-160 -1202h-200l156 1202h-175zM399 610l2 1h-2q50 39 95.5 71t86.5 65t79.5 70.5t74.5 86.5q16 22 25.5 42t14.5 38.5t8 36t6 33.5q5 28 19 48.5t33 34t41 20t43 6.5q43 0 74 -27.5 t33 -70.5q1 -26 -7.5 -53.5t-28.5 -56.5q-35 -51 -90 -100.5t-115 -93.5t-117.5 -80t-96.5 -60l259 -403q27 -42 59.5 -68.5t55.5 -26.5q20 0 50 14t62 45l34 -61q-15 -23 -41 -48t-60.5 -45.5t-75 -34t-82.5 -13.5q-43 0 -84.5 25t-73.5 84z" />
<glyph unicode="&#x4a0;" horiz-adv-x="1607" d="M86 1041l79 481h828l-11 -101l-154 -23l-76 -604h157l467 599l-155 29l12 100h463l-12 -100l-146 -25l-502 -618q38 -24 78.5 -79t81 -124.5t79.5 -145t75 -140t67.5 -109.5t56.5 -54l72 -27l-12 -100h-229q-24 0 -50.5 29.5t-54.5 77.5t-57 109.5t-58.5 125.5t-59 125.5 t-58 109.5t-56 77.5t-52.5 29.5h-121l-71 -567l157 -29l-8 -88h-507l9 87l147 30l164 1294l-296 -7l-108 -363h-139z" />
<glyph unicode="&#x4a1;" horiz-adv-x="1332" d="M60 729l59 406h575l-67 -496h131q39 32 74 63.5t67 65t62 71t59 81.5q8 11 20 32.5t12 48.5q0 15 -4.5 27.5t-4.5 32.5q0 25 12.5 44t32 31t44 18t49.5 6q18 0 35 -4.5t30 -14.5t21 -25.5t8 -37.5q0 -42 -19 -85t-51.5 -85t-75 -84t-90 -82t-96 -78.5t-92.5 -74.5 q26 -31 58 -76t66 -94.5t69 -99t68.5 -90.5t63 -68.5t52.5 -32.5l74 -36l-12 -92h-193q-41 0 -81 40t-79 100t-77 129.5t-75 129.5t-72.5 100t-70.5 40h-29l-72 -539h-200l140 1028l-205 -22l-90 -277h-126z" />
<glyph unicode="&#x4a2;" horiz-adv-x="1538" d="M28 0l10 87l147 30l161 1281l-133 23l12 101h491l-11 -101l-154 -23l-70 -554h649l70 554l-151 23l10 101h495l-12 -101l-138 -23l-161 -1280h164q-8 -65 -20 -130t-25 -125.5t-25 -113t-20 -91.5h-126q2 48 5 95.5t4.5 91.5t0.5 83.5t-6 71.5h-327l8 88l164 30l74 596 h-650l-75 -597l158 -29l-8 -88h-511z" />
<glyph unicode="&#x4a3;" horiz-adv-x="1303" d="M133 0l130 963l-99 59l18 89l248 52l55 -25l-66 -491h497l61 489h195l-110 -948q-8 -76 22 -76q13 0 32.5 9t54.5 37l31 -53q-4 -6 -13.5 -17t-24 -24t-34 -27t-41.5 -26q-16 -9 -33 -18t-30.5 -20t-22 -24.5t-8.5 -31.5t8 -37t17.5 -40t17.5 -44.5t8 -50.5 q0 -40 -24 -78t-61.5 -70.5t-84 -56t-90.5 -34.5l-54 64q19 7 40.5 21.5t40 33t31 40t12.5 44.5q0 20 -5.5 35t-12 30.5t-12 35t-5.5 47.5q0 41 23.5 74.5t57.5 59.5q-32 13 -48 42t-9 79l56 416h-498l-70 -528h-200z" />
<glyph unicode="&#x4a4;" horiz-adv-x="1907" d="M28 0l10 87l147 30l161 1281l-133 23l12 101h491l-11 -101l-154 -23l-70 -554h649l70 554l-151 23l10 101h920l-42 -471h-136l-18 352l-376 17l-164 -1302l156 -31l-9 -87h-522l8 88l164 30l74 596h-650l-75 -597l158 -29l-8 -88h-511z" />
<glyph unicode="&#x4a5;" horiz-adv-x="1587" d="M133 0l130 963l-99 59l18 89l248 52l55 -25l-66 -491h497l61 489h637l-61 -406h-125l-2 288l-268 2l-96 -832q-8 -76 22 -76q13 0 32.5 9t54.5 37l31 -53q-6 -10 -26.5 -31t-51.5 -42t-70.5 -37t-81.5 -16q-31 0 -56.5 7.5t-42.5 23t-25 41t-3 61.5l56 416h-498l-70 -528 h-200z" />
<glyph unicode="&#x4a6;" horiz-adv-x="2040" d="M28 0l10 87l146 30l161 1272l-167 33l12 100h1330l-9 -100l-154 -25l-75 -590q33 13 77.5 24.5t89 20.5t84 14t63.5 5q113 0 186 -27t116 -74.5t59.5 -113t16.5 -143.5q0 -109 -17 -219t-50 -212t-80.5 -190.5t-108.5 -154.5t-134.5 -103.5t-158.5 -37.5q-11 0 -25.5 1 t-29 3t-27.5 5t-20 6l14 117q13 -2 34 -2h44q81 0 147.5 57.5t113.5 158t72.5 237t25.5 293.5q0 142 -58.5 205t-183.5 63q-45 0 -78.5 -3t-62.5 -8.5t-57.5 -13t-64.5 -16.5l-74 -583l158 -29l-8 -87h-510l9 87l147 30l162 1281h-604l-161 -1281l159 -30l-8 -87h-511z" />
<glyph unicode="&#x4a7;" horiz-adv-x="1667" d="M133 0l130 963l-98 59l18 89l247 52l48 -24l-20 -212q40 49 87.5 92.5t100 75t108 50t111.5 18.5q52 0 94 -15.5t71.5 -51t45.5 -93t16 -142.5q0 -22 -4 -64t-11 -98.5t-16.5 -125t-20.5 -142.5q-2 -8 -2.5 -14.5t-1.5 -14.5q28 30 63 58t75 49.5t85.5 35t96.5 13.5 q84 0 135.5 -27t79 -72t37 -103t9.5 -119q0 -66 -16.5 -140.5t-47.5 -148t-75.5 -140.5t-99.5 -118t-119.5 -81.5t-136.5 -30.5q-42 0 -66 6l7 92q2 0 4.5 -0.5t4.5 -0.5q78 0 139 46.5t103 120.5t63.5 165.5t21.5 181.5q0 52 -5 95t-19.5 74.5t-40 49t-65.5 17.5 q-31 0 -62 -11t-62.5 -30t-63 -44.5t-63.5 -54.5q-11 -73 -22 -145.5t-22 -139.5h-205q9 45 18.5 97t19 107t18.5 111.5t17 111.5q9 65 17.5 127.5t14.5 117.5t9.5 100.5t3.5 76.5q0 54 -8 84.5t-22.5 46t-35.5 19.5t-47 4q-38 0 -81.5 -18.5t-88 -51.5t-88 -77.5 t-80.5 -96.5l-103 -759h-200z" />
<glyph unicode="&#x4a8;" horiz-adv-x="1660" d="M118 640q0 128 25.5 244.5t72.5 216t114.5 180.5t151.5 138t183 88t210 31q55 0 96 -10t71.5 -25t53 -33t40.5 -34l-56 -75q-7 9 -22.5 19t-42.5 17.5t-68 12.5t-98 5q-80 0 -147.5 -34t-123 -91.5t-98 -134t-71.5 -161t-44 -173t-15 -169.5q0 -112 21.5 -213.5 t69.5 -179t124 -123t185 -45.5q73 0 139 18q-53 39 -97.5 90.5t-76.5 113.5t-49.5 135t-17.5 155q0 119 23.5 219.5t64 180.5t96 140.5t120 101t134.5 61t141 20.5q80 0 147 -27t115 -77.5t75 -123t27 -164.5q0 -109 -32.5 -223.5t-91.5 -222t-141 -202.5t-181 -165 q83 -37 180 -37q5 0 19.5 1.5t31 4t31.5 4.5t20 3l-11 -89q-13 -3 -35 -6.5t-45.5 -6.5t-45 -5.5t-33.5 -2.5q-66 0 -129 13.5t-123 40.5q-68 -31 -138.5 -47.5t-145.5 -16.5q-144 0 -256 51t-189.5 140t-117.5 210.5t-40 261.5zM860 629q0 -143 49.5 -258.5t138.5 -188.5 q76 51 136 125.5t101 163t62.5 186.5t21.5 196t-12.5 165.5t-37 109.5t-60 60.5t-81.5 18.5q-68 0 -126 -38.5t-101 -112.5t-67 -181.5t-24 -245.5z" />
<glyph unicode="&#x4a9;" horiz-adv-x="1321" d="M85 470q0 101 22.5 192t63 168.5t96.5 140t123 106.5t142 67.5t154 23.5q38 0 69 -5.5t55 -14t39.5 -18t23.5 -16.5l-45 -96q-9 7 -20.5 12.5t-27 10t-37.5 7t-52 2.5q-86 0 -158 -38.5t-125 -113t-82.5 -183t-29.5 -248.5q0 -80 15.5 -150t48.5 -122t84.5 -81.5 t123.5 -29.5q23 0 58.5 1.5t72.5 6.5q-72 60 -107 144t-35 188q0 105 32 193t86 152t125.5 100t151.5 36q63 0 116.5 -20.5t92 -59.5t60 -95t21.5 -126q0 -82 -20 -155.5t-57 -138t-89 -118t-115 -94.5q29 -9 64 -14t77 -5q21 0 49 1.5t45 3.5l-12 -93q-8 -2 -20.5 -4 t-28 -3.5t-31.5 -2.5t-30 -1q-77 0 -142 11.5t-119 32.5q-64 -23 -133.5 -35t-142.5 -12q-117 0 -202.5 38.5t-141 105t-82 156.5t-26.5 193zM758 422q0 -39 5 -78t17.5 -75.5t34.5 -68.5t55 -57q42 26 76.5 71t58.5 106t37 137t13 163q0 91 -29 138t-86 47q-35 0 -62 -17.5 t-47.5 -47t-34 -68.5t-22 -81.5t-12.5 -86t-4 -82.5z" />
<glyph unicode="&#x4aa;" horiz-adv-x="1225" d="M92 627q-2 137 23.5 258t74.5 222t118 181t152 135.5t178 85t196 29.5q68 0 123 -5t98.5 -12t76.5 -15t57 -14l38 -11l-66 -368h-122l-24 262q-14 9 -31.5 17.5t-42 14.5t-57.5 9.5t-76 3.5q-95 0 -169.5 -36.5t-130.5 -97t-94.5 -140t-62.5 -165t-34 -172t-9 -161.5 q1 -66 10 -132.5t26 -127t44 -112.5t64 -90.5t85 -60.5t108 -22q34 0 74 5.5t77 18t67.5 32t46.5 47.5l5 14.5t12.5 36t16.5 47t16.5 47.5t12.5 36.5t5 15.5l124 -1l-40 -329q-22 -8 -57 -20t-81 -25t-102.5 -24t-122.5 -16q11 -44 11 -101q0 -89 -22 -154.5t-60 -109 t-89.5 -65t-111.5 -21.5q-40 0 -77 8t-54 20l16 151q6 -3 17 -6t23.5 -4.5t25.5 -2.5t25 -1q42 0 76 17.5t57.5 50t36.5 78.5t13 103v18t-1 16q-88 3 -158.5 30.5t-125 73.5t-93.5 107t-64.5 131.5t-38 147t-13.5 152.5z" />
<glyph unicode="&#x4ab;" horiz-adv-x="882" d="M76 431q0 77 17 161t50.5 165.5t83 155t115.5 129t147.5 88.5t178.5 33q27 0 57 -3.5t59 -9.5t56.5 -15t48.5 -20l-59 -199q-5 5 -11.5 9t-11.5 8q-43 35 -90.5 59t-95.5 24q-74 0 -135 -36.5t-104.5 -107t-67 -174.5t-23.5 -238q0 -89 14.5 -153t41 -105.5t64 -61 t83.5 -19.5q37 0 68.5 6.5t62 20.5t63.5 35.5t74 51.5l40 -82q-17 -21 -47.5 -48.5t-72.5 -53t-96 -45.5t-118 -24q-18 -12 -30 -27.5t-12 -37.5q0 -18 8 -37.5t18 -40.5t18 -44.5t8 -49.5q0 -40 -24 -78t-61.5 -70.5t-84 -56t-90.5 -34.5l-55 63q19 7 40.5 21.5t40.5 33 t31.5 40.5t12.5 45q0 20 -5.5 35t-12 30.5t-12 35t-5.5 47.5q0 41 23.5 75t58.5 60q-125 32 -192 145.5t-67 293.5z" />
<glyph unicode="&#x4ac;" horiz-adv-x="1234" d="M83 1051l77 471h1148l-67 -471h-111l7 342l-321 21l-166 -1297h267q-8 -51 -19.5 -114.5t-23.5 -127t-23 -121t-20 -96.5h-126q2 48 5 95.5t4.5 91.5t0.5 83.5t-5 71.5h-517l9 94l244 23l165 1297l-316 -20l-96 -341z" />
<glyph unicode="&#x4ad;" horiz-adv-x="1885" d="M133 0l130 963l-99 59l18 89l247 52l48 -24l-19 -212q40 49 87.5 92.5t99.5 75t107.5 50t111.5 18.5q48 0 86.5 -13t67 -42t45.5 -76.5t22 -116.5q38 52 84 97t97 78.5t105 53t110 19.5q49 0 91 -17t72.5 -53.5t47.5 -93.5t17 -138q0 -36 -4.5 -79.5t-11.5 -90t-15 -94 t-15 -91.5q-13 -79 -25 -159.5t-17 -158.5q-2 -36 2.5 -55.5t18.5 -19.5q8 0 17.5 2.5t22 9.5t29 20t39.5 33l31 -53q-5 -7 -15.5 -20t-26.5 -28.5t-36.5 -31.5t-44.5 -30q-17 -10 -35 -19.5t-33 -20.5t-24.5 -25t-9.5 -33q0 -18 8 -37t17.5 -40t17.5 -44.5t8 -50.5 q0 -40 -24 -78t-61.5 -70.5t-83.5 -56t-90 -34.5l-55 64q19 7 40.5 21.5t40 33t31 40t12.5 44.5q0 20 -5.5 35t-12 30.5t-12 35t-5.5 47.5q0 42 25 76t60 61q-29 14 -42 42t-11 75q4 74 16 162t26 177q7 42 15 92t15.5 102.5t12.5 104.5t5 99q0 54 -8 84.5t-22 45.5 t-32.5 19t-38.5 4q-36 0 -77 -18.5t-83 -50.5t-83 -75.5t-77 -93.5q-5 -63 -13.5 -130.5t-17.5 -127.5l-64 -505h-203l56 443q7 44 14.5 95.5t13.5 104.5t9.5 106t3.5 100q0 54 -7 84.5t-20.5 46t-34 19.5t-46.5 4q-38 0 -81.5 -18.5t-88 -51.5t-88 -77.5t-80.5 -96.5 l-103 -759h-200z" />
<glyph unicode="&#x4ae;" horiz-adv-x="1178" d="M60 1421l10 101h498l-12 -101l-161 -23l226 -557l36 -127l72 126l341 558l-140 23l11 101h417l-11 -101l-101 -23l-523 -807l-61 -474l196 -29l-8 -88h-607l9 88l215 29l61 474l-363 807z" />
<glyph unicode="&#x4af;" horiz-adv-x="1193" d="M28 1038q6 9 26 30t49.5 42t66 37t76.5 16q37 0 60.5 -10t38 -28t22.5 -43t15 -56l155 -723l20 -128l69 111q29 41 62.5 89t66.5 100t63.5 108t54 114t37.5 117t14 117q0 16 -5 31t-11.5 31t-11.5 32t-5 33q0 55 31 79.5t75 24.5q67 0 98 -48.5t31 -142.5 q0 -84 -34 -176.5t-88.5 -188t-122.5 -191t-136 -185.5q-35 -47 -69 -91t-65 -86l-69 -362q-9 -76 22 -76q8 0 17.5 3t21.5 10.5t28.5 20.5t38.5 33l31 -54q-7 -11 -29.5 -35t-56 -48.5t-75.5 -43t-88 -18.5q-69 0 -95.5 41.5t-16.5 113.5l86 428l-247 897 q-10 31 -17.5 43.5t-22.5 12.5q-6 0 -12.5 -1t-16 -5t-22.5 -12.5t-31 -23.5z" />
<glyph unicode="&#x4b0;" horiz-adv-x="1177" d="M60 1421l10 101h498l-12 -101l-161 -23l226 -557l36 -127l72 126l341 558l-140 23l11 101h417l-11 -101l-101 -23l-504 -777h419l-17 -108h-431l-51 -396l196 -29l-8 -88h-607l9 88l215 29l51 396h-410l17 108h389l-349 777z" />
<glyph unicode="&#x4b1;" horiz-adv-x="1193" d="M28 1038q6 9 26 30t49.5 42t66 37t76.5 16q37 0 60.5 -10t38 -28t22.5 -43t15 -56l155 -723l20 -128l69 111q29 41 62.5 89t66.5 100t63.5 108t54 114t37.5 117t14 117q0 16 -5 31t-11.5 31t-11.5 32t-5 33q0 55 31 79.5t75 24.5q67 0 98 -48.5t31 -142.5 q0 -84 -34 -176.5t-88.5 -188t-122.5 -191t-136 -185.5q-24 -32 -47.5 -62.5t-45.5 -59.5h354l-13 -108h-392l-59 -309q-9 -76 22 -76q8 0 17.5 3t21.5 10.5t28.5 20.5t38.5 33l31 -54q-7 -11 -29.5 -35t-56 -48.5t-75.5 -43t-88 -18.5q-69 0 -95.5 41.5t-16.5 113.5l72 362 h-305l13 108h294l-235 855q-10 31 -17.5 43.5t-22.5 12.5q-6 0 -12.5 -1t-16 -5t-22.5 -12.5t-31 -23.5z" />
<glyph unicode="&#x4b2;" horiz-adv-x="1297" d="M-63 0l11 88l121 28l499 651l-301 628l-138 26l10 101h522l-11 -101l-145 -23l200 -503l338 503l-140 23l12 101h471l-10 -101l-137 -23l-470 -621l332 -660h168q-9 -57 -21 -121t-25 -126t-25.5 -117.5t-20.5 -94.5h-126q2 48 5 95.5t4.5 91.5t0.5 83.5t-6 71.5h-352 l8 88l151 28l-234 526l-360 -525l149 -30l-8 -87h-472z" />
<glyph unicode="&#x4b3;" horiz-adv-x="1009" d="M-25 0l434 590l-184 383q-14 29 -26.5 43t-30.5 14q-19 0 -38.5 -13t-30.5 -29l-38 56q5 9 22 28.5t44 40t62 35.5t76 15q34 0 57.5 -6.5t40 -20t27.5 -33t19 -44.5l111 -346l294 442h216l-446 -599l199 -384q14 -29 25.5 -43.5t25.5 -14.5q7 0 16.5 2.5t21.5 10t28.5 20 t37.5 32.5l36 -56q-4 -7 -15 -20.5t-27.5 -29t-38 -32.5t-46.5 -30q-16 -9 -33 -18t-30.5 -20t-22 -24.5t-8.5 -31.5t8 -37t17.5 -40t17.5 -44.5t8 -50.5q0 -40 -24 -78t-61.5 -70.5t-84 -56t-90.5 -34.5l-54 64q19 7 40.5 21.5t40 33t31 40t12.5 44.5q0 20 -5.5 35 t-12 30.5t-12 35t-5.5 47.5q0 42 25 76.5t60 60.5q-26 13 -39.5 36t-24.5 55l-128 349l-283 -434h-214z" />
<glyph unicode="&#x4b4;" horiz-adv-x="1853" d="M107 1056l86 466h936l-41 -466h-126l-13 340h-198l-156 -1274h710l157 1274l-142 26l12 100h490l-12 -100l-159 -27l-155 -1266l235 -1q-8 -51 -20.5 -116t-25.5 -130.5t-25.5 -125t-21.5 -98.5h-126q2 48 5 95.5t4.5 91.5t1 83.5t-5.5 71.5h-1259l10 87l136 29l159 1280 h-221l-106 -340h-129z" />
<glyph unicode="&#x4b5;" horiz-adv-x="1251" d="M149 1023l18 89l249 51l48 -24l-69 -550q-6 -45 -11 -84.5t-9.5 -75.5t-7 -71t-2.5 -72q0 -51 10 -84t28.5 -51.5t44.5 -25.5t58 -7q35 0 71 13.5t69.5 35.5t63.5 51t54 60l116 877h199l-125 -964q-10 -76 22 -76q8 0 17 2.5t21.5 10t29 20.5t38.5 33l31 -54 q-5 -7 -15.5 -19.5t-26.5 -27.5t-36 -31t-44 -29q-17 -11 -36.5 -21t-35.5 -21.5t-26.5 -26t-10.5 -34.5q0 -18 8 -37t18 -40t18 -44.5t8 -50.5q0 -40 -24 -78t-61.5 -70.5t-84 -56t-90.5 -34.5l-55 64q19 7 40.5 21.5t40 33t31 40t12.5 44.5q0 20 -5.5 35t-11.5 30.5 t-11.5 35t-5.5 47.5q0 43 25.5 78t62.5 62q-32 17 -43.5 53t-0.5 87l-1 9q-27 -32 -61 -62t-75 -53t-90 -37t-106 -14t-104.5 13.5t-81.5 45.5t-52.5 84.5t-18.5 130.5q0 33 3 74t8.5 86t11.5 91.5t12 91.5l51 366zM402 1424l19 152h512l-20 -152h-511z" />
<glyph unicode="&#x4b6;" horiz-adv-x="1283" d="M80 1421l12 101h476l-11 -101l-138 -27l-26 -210q-15 -125 -20.5 -210t13 -137t68.5 -74.5t145 -22.5q34 0 72.5 4.5t75 12t69 17t53.5 20.5l76 604l-154 23l12 101h491l-11 -101l-134 -23l-161 -1280h280q0 -2 -5.5 -23t-13.5 -54.5t-19 -75.5t-22 -85.5t-21.5 -85.5 t-19 -75t-14 -53t-5.5 -21h-128q1 14 3.5 45.5t5 70.5t5 81t4.5 77t3 57.5t1 23.5h-436l10 87l168 30l70 560q-79 -41 -170.5 -59.5t-175.5 -18.5q-88 0 -158.5 17t-116 64.5t-63.5 133t-1 222.5l45 361z" />
<glyph unicode="&#x4b7;" horiz-adv-x="1167" d="M83 1023l17 89l249 51l55 -25l-33 -273q-9 -79 -13.5 -134.5t-1 -93.5t16 -60.5t37 -34t62 -15t90.5 -3.5q68 0 121.5 11t86.5 30l70 571h185l-99 -948q-4 -36 4.5 -56t23.5 -20q13 0 32.5 9t54.5 37l31 -53q-8 -12 -34.5 -37.5t-65.5 -48.5q-17 -11 -36 -20.5t-35 -21 t-26.5 -26t-10.5 -34.5q0 -18 8 -37t17.5 -40t17.5 -44.5t8 -50.5q0 -40 -24 -78t-61.5 -70.5t-84 -56t-90.5 -34.5l-54 64q19 7 40.5 21.5t40 33t31 40t12.5 44.5q0 20 -5.5 35t-12 30.5t-12 35t-5.5 47.5q0 41 23.5 75t58.5 60q-32 13 -47.5 42.5t-9.5 79.5l40 333 q-75 -35 -151.5 -50.5t-160.5 -15.5q-80 0 -138 13t-93 53.5t-46 115t3 197.5l23 198z" />
<glyph unicode="&#x4b8;" horiz-adv-x="1283" d="M80 1421l12 101h476l-11 -101l-138 -27l-26 -210q-15 -118 -20.5 -200.5t9.5 -135t56.5 -78t121.5 -29.5l36 290h106l-36 -287q58 6 114 19.5t89 30.5l76 604l-154 23l12 101h491l-11 -101l-134 -23l-161 -1281l139 -30l-9 -87h-512l10 87l168 30l70 560 q-48 -24 -99 -40.5t-105 -25.5l-30 -240h-105l28 228h-35q-88 0 -158.5 17t-116 64.5t-63.5 133t-1 222.5l45 361z" />
<glyph unicode="&#x4b9;" horiz-adv-x="1171" d="M83 1023l17 89l249 51l55 -25l-31 -241q-14 -107 -17 -176.5t10.5 -111t47.5 -60.5t94 -23l35 285h105l-35 -286q51 4 92.5 14t68.5 26l70 571h185l-99 -948q-4 -36 4.5 -56t23.5 -20q13 0 32.5 9t54.5 37l31 -53q-6 -10 -27 -31t-52.5 -42t-70 -37t-80.5 -16 q-63 0 -99.5 31.5t-27.5 103.5l40 333q-80 -38 -163 -54l-29 -242h-105l28 230h-35q-95 0 -156.5 21t-94 71.5t-39.5 133t8 205.5l19 146z" />
<glyph unicode="&#x4ba;" horiz-adv-x="1321" d="M47 0l11 101l134 23l161 1281l-139 30l9 87h512l-10 -87l-168 -30l-70 -560q79 41 170.5 59.5t175.5 18.5q88 0 158.5 -17t116 -64.5t63.5 -133t1 -222.5l-45 -361l134 -24l-12 -101h-476l11 101l138 27l26 210q15 125 20.5 210t-13 137t-68.5 74.5t-145 22.5 q-34 0 -72.5 -4.5t-75 -12t-69 -17t-53.5 -20.5l-76 -604l154 -23l-12 -101h-491z" />
<glyph unicode="&#x4bb;" horiz-adv-x="1241" d="M117 0l193 1482l-119 43l17 83l272 42l52 -27l-94 -711q39 52 85.5 98t99 80t109.5 53.5t116 19.5q52 0 94 -15.5t72 -51t46 -93t16 -142.5q0 -37 -5 -81.5t-12.5 -91.5t-16.5 -94t-17 -89q-13 -77 -26 -159t-19 -159q-2 -36 3 -55.5t19 -19.5q16 0 39 11t67 44l31 -53 q-6 -10 -28 -32.5t-55 -45t-75.5 -39.5t-88.5 -17q-63 0 -97 30t-30 103q2 34 7 74.5t12 83t15 86.5t15 86q8 44 18 95.5t18.5 104.5t14 106t5.5 100q0 54 -9 84.5t-24.5 46t-36 19.5t-43.5 4q-39 0 -83 -19t-88.5 -52t-88 -78.5t-80.5 -98.5l-100 -755h-200z" />
<glyph unicode="&#x4bc;" horiz-adv-x="1468" d="M12 936q0 19 6.5 47.5t17 56t23.5 50t25 29.5l160 -30q-8 -9 -17 -28t-17.5 -40t-14 -40.5t-5.5 -29.5q0 -17 6.5 -33t22.5 -29.5t43.5 -22.5t70.5 -10q33 153 101 278.5t161 215t206.5 139t236.5 49.5q94 0 168 -33.5t124.5 -98t77 -157.5t26.5 -213q0 -44 -3.5 -86.5 t-9 -81t-12.5 -70t-15 -52.5h-886q-3 -34 -4 -69t-1 -72q0 -131 28.5 -228t77.5 -161t112.5 -95.5t133.5 -31.5q57 0 103 9t82 24.5t63.5 35.5t46.5 42l64 148h110l-47 -292q-39 -2 -81.5 -14.5t-97.5 -26.5t-127.5 -26t-171.5 -12q-117 0 -209 44t-155.5 124t-96.5 193 t-33 251q0 78 9 152q-63 1 -118 12.5t-96 35.5t-64.5 60.5t-23.5 86.5zM520 856h691q12 55 20 108.5t8 105.5q0 60 -14.5 122.5t-46.5 113.5t-82.5 84t-122.5 33q-81 0 -154 -35t-132.5 -105.5t-102.5 -177t-64 -249.5z" />
<glyph unicode="&#x4bd;" horiz-adv-x="1250" d="M32 696q0 20 5 45t13.5 48t18.5 41t19 24l169 -35q-6 -7 -13 -23t-13 -35t-10 -37.5t-4 -30.5q0 -15 5 -31t17.5 -30t34 -25t54.5 -17q24 117 77 221.5t127.5 182.5t168.5 123.5t201 45.5q73 0 126.5 -19t89 -53t53 -79.5t17.5 -98.5q0 -78 -36 -141t-93.5 -113t-130 -87 t-146 -61t-141.5 -37t-116 -14q-5 -49 2.5 -108t32 -110.5t68 -86t111.5 -34.5q77 0 165 33.5t173 112.5l47 -84q-21 -30 -60.5 -65t-93.5 -66t-119.5 -51.5t-139.5 -20.5q-107 0 -183.5 38t-125.5 101t-71.5 144t-20.5 167q0 11 0.5 22.5t1.5 22.5q-60 6 -111.5 22t-89 43 t-58.5 66t-21 90zM530 570q40 2 89 12.5t98.5 30t96.5 47t83.5 63t58.5 79t22 94.5q0 78 -34.5 113.5t-89.5 35.5q-51 0 -93 -23.5t-76.5 -62t-61 -88.5t-46 -103t-31 -104.5t-16.5 -93.5z" />
<glyph unicode="&#x4be;" horiz-adv-x="1468" d="M12 936q0 19 6.5 47.5t17 56t23.5 50t25 29.5l160 -30q-8 -9 -17 -28t-17.5 -40t-14 -40.5t-5.5 -29.5q0 -17 6.5 -33t22.5 -29.5t43.5 -22.5t70.5 -10q33 153 101 278.5t161 215t206.5 139t236.5 49.5q94 0 168 -33.5t124.5 -98t77 -157.5t26.5 -213q0 -44 -3.5 -86.5 t-9 -81t-12.5 -70t-15 -52.5h-886q-3 -34 -4 -69t-1 -72q0 -131 28.5 -228t77.5 -161t112.5 -95.5t133.5 -31.5q57 0 103 9t82 24.5t63.5 35.5t46.5 42l64 148h110l-47 -292q-35 -2 -71.5 -11.5t-81.5 -22t-101.5 -24.5t-131.5 -18q5 -20 7.5 -44.5t2.5 -50.5 q0 -89 -22 -154.5t-60 -109t-89.5 -65t-111.5 -21.5q-40 0 -77 8t-54 20l16 151q6 -3 17 -6t23.5 -4.5t25.5 -2.5t25 -1q42 0 76 17.5t57.5 50t36.5 78.5t13 103v15t-1 14q-112 4 -199.5 49.5t-148 125.5t-92 190.5t-31.5 245.5q0 78 9 152q-63 1 -118 12.5t-96 35.5 t-64.5 60.5t-23.5 86.5zM520 856h691q12 55 20 108.5t8 105.5q0 60 -14.5 122.5t-46.5 113.5t-82.5 84t-122.5 33q-81 0 -154 -35t-132.5 -105.5t-102.5 -177t-64 -249.5z" />
<glyph unicode="&#x4bf;" horiz-adv-x="1250" d="M32 696q0 20 5 45t13.5 48t18.5 41t19 24l169 -35q-6 -7 -13 -23t-13 -35t-10 -37.5t-4 -30.5q0 -15 5 -31t17.5 -30t34 -25t54.5 -17q24 117 77 221.5t127.5 182.5t168.5 123.5t201 45.5q73 0 126.5 -19t89 -53t53 -79.5t17.5 -98.5q0 -78 -36 -141t-93.5 -113t-130 -87 t-146 -61t-141.5 -37t-116 -14q-5 -49 2.5 -108t32 -110.5t68 -86t111.5 -34.5q77 0 165 33.5t173 112.5l47 -84q-18 -25 -48.5 -54t-71 -56t-90 -49t-106.5 -34q-23 -14 -40 -30.5t-17 -42.5q0 -18 8 -37t17.5 -40t17.5 -44.5t8 -50.5q0 -40 -24 -78t-61.5 -70.5t-84 -56 t-90.5 -34.5l-54 64q19 7 40.5 21.5t40 33t31 40t12.5 44.5q0 20 -5.5 35t-12 30.5t-12 35t-5.5 47.5q0 38 20.5 69.5t50.5 57.5q-90 11 -154.5 52.5t-106 102.5t-60.5 136.5t-17 154.5q0 11 0.5 22.5t1.5 22.5q-60 6 -111.5 22t-89 43t-58.5 66t-21 90zM530 570 q40 2 89 12.5t98.5 30t96.5 47t83.5 63t58.5 79t22 94.5q0 78 -34.5 113.5t-89.5 35.5q-51 0 -93 -23.5t-76.5 -62t-61 -88.5t-46 -103t-31 -104.5t-16.5 -93.5z" />
<glyph unicode="&#x4c0;" horiz-adv-x="708" d="M28 0l9 87l148 30l161 1281l-133 23l12 101h490l-11 -101l-153 -23l-162 -1281l158 -29l-8 -88h-511z" />
<glyph unicode="&#x4c1;" horiz-adv-x="2018" d="M-30 0l12 87l82 30q21 7 52 35.5t69 71.5t82 97t90.5 110.5t94 112.5t92 104t85.5 83.5t75 51.5l-390 615l-146 24l12 100h464l-12 -100l-151 -25l349 -603h126l76 604l-134 23l12 101h481l-11 -101l-153 -23l-77 -604h146l484 603l-147 24l13 101h462l-13 -100l-149 -26 l-526 -611q38 -19 79.5 -71.5t83.5 -121t83.5 -145.5t81 -144.5t76 -118.5t68.5 -67l91 -30l-12 -87h-256q-24 0 -50 29.5t-54 77.5t-57 109.5t-58.5 125.5t-59 125.5t-58 109.5t-56 77.5t-52.5 29.5h-134l-71 -567l158 -29l-8 -88h-501l9 87l148 30l71 567h-110 q-26 0 -60.5 -29.5t-74.5 -77.5t-84.5 -109.5t-89 -125.5t-88.5 -125.5t-83 -109.5t-72 -77.5t-57 -29.5h-253zM805 1933q0 20 1 39.5t8 40.5h178q17 0 22.5 -13.5t5.5 -32.5q0 -20 -2.5 -42t-2.5 -40q0 -32 7.5 -57.5t27.5 -43.5t54.5 -28t88.5 -10q55 0 89.5 14t55 39 t29.5 59.5t14 75.5q2 15 5 29t8 25t13 18t20 7h147q0 -8 -0.5 -16.5t-1.5 -16.5q-10 -87 -44 -150t-85.5 -103.5t-119 -60t-143.5 -19.5t-144 17t-119.5 52t-81.5 89t-30 128z" />
<glyph unicode="&#x4c2;" horiz-adv-x="1832" d="M-38 15l70 189l108 -111q36 0 81.5 39t86.5 112.5t69 179.5t28 240q0 89 -12 151.5t-32.5 102.5t-48.5 58t-60 18q-26 0 -47 -5t-41.5 -17t-43 -31.5t-52.5 -48.5l-43 53q14 21 40.5 55t63 66.5t83 56t100.5 23.5q65 0 118.5 -30.5t92 -88.5t60 -141.5t21.5 -189.5 q0 -15 -0.5 -29.5t-1.5 -28.5h214l59 498h200l-59 -498h208q24 103 70.5 195t110 161.5t141.5 110.5t167 41q48 0 78.5 -9t51.5 -26l-70 -189l-109 111q-36 0 -81.5 -39t-86 -112.5t-68.5 -179.5t-28 -240q0 -89 11.5 -151.5t32 -102.5t48.5 -58t61 -18q25 0 46 5t41.5 17 t43.5 31.5t53 48.5l42 -53q-14 -21 -40.5 -55t-63 -66.5t-83 -56t-100.5 -23.5q-65 0 -118.5 30.5t-92 88.5t-60 141.5t-21.5 189.5q0 27 1.5 54t5.5 54h-203l-64 -539l-199 1l63 538h-214q-20 -111 -65 -212t-110 -178t-147 -122.5t-176 -45.5q-48 0 -78.5 9t-51.5 26z M634 1555q0 20 1 39.5t8 40.5h177q17 0 22.5 -13.5t5.5 -32.5q0 -20 -2.5 -42t-2.5 -40q0 -27 8 -49.5t28 -38t54.5 -24t87.5 -8.5q55 0 89.5 12.5t55 35t29.5 53.5t14 68q2 15 5 29t8 25t13 18t20 7h147q0 -8 -0.5 -16.5t-1.5 -16.5q-10 -83 -44 -142.5t-85.5 -97.5 t-119 -56.5t-143.5 -18.5q-75 0 -143 16t-119.5 49t-81.5 83.5t-30 119.5z" />
<glyph unicode="&#x4c3;" horiz-adv-x="1363" d="M28 0l9 87l148 30l161 1281l-133 23l12 101h490l-11 -101l-154 -23l-75 -595q20 9 46 17t53 14t53 10.5t46 6.5l423 542l-155 29l12 100h463l-12 -100l-146 -25l-450 -555q101 -18 179 -68.5t131.5 -131.5t81.5 -191t28 -245t-48 -247t-130.5 -193t-192.5 -125.5 t-235 -44.5q-11 0 -25 1t-28.5 3t-27 5t-19.5 6l14 98q12 -2 33 -2h43q80 0 155.5 30.5t134 90.5t94 149.5t35.5 206.5q0 147 -28.5 249t-81 166t-125.5 93t-163 29q-37 0 -78 -2.5t-93 -21.5l-73 -580l158 -29l-8 -88h-511z" />
<glyph unicode="&#x4c4;" horiz-adv-x="1167" d="M133 0l130 963l-98 59l18 89l247 52l55 -25l-73 -544q25 12 52.5 15.5t53.5 3.5q45 36 84.5 70.5t75.5 71t69 77t65 88.5q8 11 20 32.5t12 48.5q0 15 -4.5 27.5t-4.5 32.5q0 25 12.5 44t32 31t44 18t49.5 6q18 0 35 -4.5t30 -14.5t21 -25.5t8 -37.5q0 -41 -18 -82 t-48.5 -82t-70.5 -81t-85 -79t-92 -77t-91 -73q99 -18 182 -73t143 -132.5t94 -169.5t34 -185q0 -96 -43.5 -178t-119 -142t-176 -94t-214.5 -34q-11 0 -25 1t-28.5 3t-27 5t-19.5 6l14 98q12 -2 33 -2h43q70 0 136 17t117 53t82 92t31 134q0 93 -32.5 183t-90 161.5 t-135.5 115t-169 43.5q-29 0 -48.5 1.5t-42.5 -1.5l-67 -506h-200z" />
<glyph unicode="&#x4c5;" horiz-adv-x="1316" d="M-57 37l45 208q4 -6 16.5 -15.5t30 -18t39.5 -15t46 -6.5q38 0 78 38.5t78.5 109t74.5 168.5t67 218t56 258t41 287l13 121l-217 32l13 100h1084l-12 -100l-181 -25l-160 -1282l153 -28l-2 -4h1q-3 -49 -22.5 -100.5t-51 -102t-72.5 -97t-87.5 -85.5t-97 -68t-99.5 -44 l-46 53q23 14 50 37.5t53.5 53.5t51.5 64t44 69.5t31 70.5t12 66h-292l8 88l162 29l163 1295h-360l-17 -151q-16 -141 -42.5 -290.5t-63 -291.5t-81.5 -268.5t-98.5 -221t-114.5 -150t-128 -55.5q-30 0 -52 3t-41 9.5t-36 16.5t-37 24z" />
<glyph unicode="&#x4c6;" horiz-adv-x="1140" d="M-52 8l50 223q4 -3 21 -8.5t38 -11.5t40.5 -10t27.5 -4q23 0 46 33q20 27 39 74.5t37.5 108.5t35.5 133t31.5 149t27 156t21.5 154l-179 29l13 102h817l-112 -948q-8 -76 22 -76q13 0 32.5 9t54.5 37l31 -53q0 -50 -18.5 -103.5t-50.5 -106.5t-75 -102t-92 -90.5 t-102.5 -72t-105.5 -46.5l-43 52q33 20 72.5 58.5t75.5 86t62.5 99.5t32.5 99q-30 0 -55 7.5t-41.5 23.5t-23.5 41.5t-2 61.5l115 894h-316q-17 -139 -40 -278t-49.5 -258.5t-55 -210t-55.5 -132.5q-20 -30 -41 -56.5t-48.5 -46t-64 -30.5t-86.5 -11q-9 0 -23 2.5t-27.5 6 t-24.5 8t-12 7.5z" />
<glyph unicode="&#x4c7;" horiz-adv-x="1551" d="M28 0l9 87l148 30l161 1281l-133 23l12 101h490l-11 -101l-153 -23l-70 -554h667q14 140 27 279t29 275l-141 23l14 101h490l-11 -101l-155 -22q-18 -166 -35 -322.5t-32 -295.5t-29 -258t-25.5 -210.5t-21.5 -152.5t-18 -85q-32 -102 -88.5 -175.5t-126.5 -123.5 t-148.5 -79t-154.5 -42l-36 89q67 19 127 56.5t107.5 85t79 99.5t42.5 101q32 145 53.5 303t39.5 325h-671l-75 -597l158 -29l-8 -88h-511z" />
<glyph unicode="&#x4c8;" horiz-adv-x="1349" d="M133 0l130 963l-99 59l18 89l248 52l55 -25l-66 -491h550l62 488h184l-116 -933q-38 -306 -160.5 -456t-336.5 -150q-11 0 -26 1t-30 3t-27.5 5t-19.5 7l15 117q12 -2 33.5 -2h42.5q75 0 129 24.5t92.5 85.5t64.5 164t46 259l32 268h-551l-70 -528h-200z" />
<glyph unicode="&#x4c9;" horiz-adv-x="1538" d="M28 0l10 87l147 30l161 1281l-133 23l12 101h491l-11 -101l-154 -23l-70 -554h649l70 554l-151 23l10 101h495l-12 -101l-138 -23l-161 -1280l152 -31l-9 -87h-3q-28 -42 -63 -88.5t-71 -91.5t-69.5 -85.5t-58.5 -70.5l-107 48q15 24 37.5 61t46 77.5t44.5 80t35 69.5 h-309l8 88l164 30l74 596h-650l-75 -597l158 -29l-8 -88h-511z" />
<glyph unicode="&#x4ca;" horiz-adv-x="1303" d="M133 0l130 963l-99 59l18 89l248 52l55 -25l-66 -491h497l61 489h195l-110 -948q-8 -76 22 -76q13 0 32.5 9t54.5 37l31 -53q-1 -52 -19.5 -106.5t-50 -107.5t-73 -101.5t-89 -89.5t-99 -71t-102.5 -45l-44 52q33 20 72.5 58.5t75.5 86t62.5 99.5t32.5 99q-30 0 -55 7.5 t-41.5 23.5t-24 41t-2.5 61l56 416h-498l-70 -528h-200z" />
<glyph unicode="&#x4cb;" horiz-adv-x="1283" d="M80 1421l12 101h476l-11 -101l-138 -27l-26 -210q-15 -125 -20.5 -210t13 -137t68.5 -74.5t145 -22.5q34 0 72.5 4.5t75 12t69 17t53.5 20.5l76 604l-154 23l12 101h491l-11 -101l-134 -23l-161 -1281l139 -30l-9 -87h-345q-10 -26 -23.5 -72t-27 -96.5t-25 -98 t-15.5 -75.5h-133q0 2 2 22.5t5.5 53t8 73.5t9.5 83.5t9.5 83t8 72.5t6 51.5l2.5 19.5h184l70 560q-79 -41 -170.5 -59.5t-175.5 -18.5q-88 0 -158.5 17t-116 64.5t-63.5 133t-1 222.5l45 361z" />
<glyph unicode="&#x4cc;" horiz-adv-x="1167" d="M83 1023l17 89l249 51l55 -25l-33 -273q-9 -79 -13.5 -134.5t-1 -93.5t16 -60.5t37 -34t62 -15t90.5 -3.5q68 0 121.5 11t86.5 30l70 571h185l-99 -948q-4 -36 4.5 -56t23.5 -20q13 0 32.5 9t54.5 37l31 -53q-6 -10 -27 -31t-52.5 -42t-70 -37t-80.5 -16 q-63 0 -99.5 31.5t-27.5 103.5l40 333q-75 -35 -151.5 -50.5t-160.5 -15.5q-80 0 -138 13t-93 53.5t-46 115t3 197.5l23 198zM176 -431q19 7 40.5 21t40 32t30.5 39.5t12 44.5q0 20 -5.5 35t-11.5 30.5t-11.5 35t-5.5 47.5q0 31 14.5 59.5t38 53.5t52 45t56.5 35t52 23.5 t39 10.5l29 -51q-17 -11 -36 -21t-35 -21.5t-26.5 -26t-10.5 -34.5q0 -18 8 -39t17.5 -45t17.5 -49.5t8 -51.5q0 -40 -24 -78t-61.5 -69.5t-83.5 -55t-90 -34.5z" />
<glyph unicode="&#x4cd;" horiz-adv-x="1876" d="M-54 0l10 88l160 29l317 1281l-161 23l12 101h447l164 -1044l15 -167l65 167q52 126 110 257.5t117 264.5t117 264.5t111 257.5h424l-11 -101l-165 -23l-25 -1280l154 -30l-9 -88q-28 -42 -63 -88.5t-71 -91.5t-69.5 -85.5t-58.5 -70.5l-107 48q15 24 37.5 61t46 77.5 t44.5 80t35 69.5h-327l9 88l176 28l37 901l30 403l-137 -355l-471 -1068l-112 -15l-172 1059l-61 377l-72 -387l-212 -914l187 -29l-9 -88h-512z" />
<glyph unicode="&#x4ce;" horiz-adv-x="1623" d="M-70 8l50 223q4 -3 25.5 -8.5t48 -11.5t50.5 -10t32 -4q48 109 83.5 229.5t61 231.5t42.5 203t29 144l-178 29l12 102h454l135 -669l33 -205l76 205l312 669h247l3 -907q1 -18 4 -39t7 -38t10 -28.5t13 -11.5q14 0 33.5 9t53.5 37l32 -54q-12 -51 -38 -104.5t-62 -105.5 t-79.5 -100.5t-91 -89.5t-96.5 -71.5t-95 -47.5l-43 51q33 20 72 58.5t76 86t67 100t44 99.5q-54 2 -81.5 32t-29.5 99l7 578l18 336l-151 -334l-338 -706h-88l-157 702l-68 314l-64 -316q-20 -96 -38 -176.5t-37 -148.5t-39 -125.5t-43 -106.5q-15 -33 -34 -59.5t-45 -45.5 t-62.5 -29t-86.5 -10q-9 0 -23 2.5t-27.5 6t-24 8t-11.5 7.5z" />
<glyph unicode="&#x4cf;" horiz-adv-x="708" d="M28 0l9 87l148 30l161 1281l-133 23l12 101h490l-11 -101l-153 -23l-162 -1281l158 -29l-8 -88h-511z" />
<glyph unicode="&#x4d0;" horiz-adv-x="1342" d="M-120 0l9 87l119 29l707 1406h205l253 -1403l156 -32l-7 -87h-515l5 87l156 29l-50 319h-567l-150 -318l160 -30l-6 -87h-475zM408 557h491l-104 676l-11 121zM458 1933q0 20 1 39.5t8 40.5h178q17 0 22.5 -13.5t5.5 -32.5q0 -20 -2.5 -42t-2.5 -40q0 -32 7.5 -57.5 t27.5 -43.5t54.5 -28t88.5 -10q55 0 89.5 14t55 39t29.5 59.5t14 75.5q2 15 5 29t8 25t13 18t20 7h147q0 -8 -0.5 -16.5t-1.5 -16.5q-10 -87 -44 -150t-85.5 -103.5t-119 -60t-143.5 -19.5t-144 17t-119.5 52t-81.5 89t-30 128z" />
<glyph unicode="&#x4d1;" horiz-adv-x="1175" d="M82 412q0 77 19.5 163t57.5 169.5t93.5 159.5t127.5 133.5t160.5 91.5t191.5 34q50 0 103.5 -10.5t95.5 -24.5l121 34l-131 -973q-5 -41 6 -58.5t24 -17.5q14 0 33.5 9t54.5 37l31 -54q-5 -9 -24.5 -30t-49.5 -42t-69 -37t-82 -16q-30 0 -55 7.5t-42 23.5t-25.5 42 t-6.5 62l7 66q-29 -37 -65.5 -73t-78.5 -64.5t-89 -46t-96 -17.5q-84 0 -143.5 32.5t-97 90t-54.5 136.5t-17 173zM293 435q0 -73 8 -130.5t25.5 -98t44 -62t64.5 -21.5q43 0 87.5 22t85.5 55.5t76 73.5t60 75l86 660q-27 17 -59.5 24t-69.5 7q-71 0 -129 -28t-103 -75 t-78.5 -108t-55 -128.5t-32 -136t-10.5 -129.5zM346 1555q0 20 1 39.5t8 40.5h177q17 0 22.5 -13.5t5.5 -32.5q0 -20 -2.5 -42t-2.5 -40q0 -27 8 -49.5t28 -38t54.5 -24t87.5 -8.5q55 0 89.5 12.5t55 35t29.5 53.5t14 68q2 15 5 29t8 25t13 18t20 7h147q0 -8 -0.5 -16.5 t-1.5 -16.5q-10 -83 -44 -142.5t-85.5 -97.5t-119 -56.5t-143.5 -18.5q-75 0 -143 16t-119.5 49t-81.5 83.5t-30 119.5z" />
<glyph unicode="&#x4d2;" horiz-adv-x="1342" d="M-120 0l9 87l119 29l707 1406h205l253 -1403l156 -32l-7 -87h-515l5 87l156 29l-50 319h-567l-150 -318l160 -30l-6 -87h-475zM408 557h491l-104 676l-11 121zM519 1840q0 30 13 57t33.5 48t46 33t51.5 12q28 0 51 -9t39 -24.5t24.5 -36t8.5 -43.5q0 -30 -12.5 -58 t-33.5 -49t-49 -33.5t-58 -12.5q-23 0 -44 9.5t-36.5 25t-24.5 36.5t-9 45zM938 1844q0 30 13.5 56.5t35 46.5t47.5 31.5t50 11.5q57 0 89.5 -33t32.5 -79q0 -30 -12 -58t-33 -49.5t-49 -34t-59 -12.5q-24 0 -45 9.5t-36.5 26t-24.5 38t-9 46.5z" />
<glyph unicode="&#x4d3;" horiz-adv-x="1175" d="M82 412q0 77 19.5 163t57.5 169.5t93.5 159.5t127.5 133.5t160.5 91.5t191.5 34q50 0 103.5 -10.5t95.5 -24.5l121 34l-131 -973q-5 -41 6 -58.5t24 -17.5q14 0 33.5 9t54.5 37l31 -54q-5 -9 -24.5 -30t-49.5 -42t-69 -37t-82 -16q-30 0 -55 7.5t-42 23.5t-25.5 42 t-6.5 62l7 66q-29 -37 -65.5 -73t-78.5 -64.5t-89 -46t-96 -17.5q-84 0 -143.5 32.5t-97 90t-54.5 136.5t-17 173zM293 435q0 -73 8 -130.5t25.5 -98t44 -62t64.5 -21.5q43 0 87.5 22t85.5 55.5t76 73.5t60 75l86 660q-27 17 -59.5 24t-69.5 7q-71 0 -129 -28t-103 -75 t-78.5 -108t-55 -128.5t-32 -136t-10.5 -129.5zM402 1503q0 30 12 57t32.5 47.5t46.5 33t55 12.5q28 0 51 -9t39 -24t25 -35.5t9 -43.5q0 -30 -12.5 -58t-33.5 -49.5t-49 -34.5t-59 -13q-24 0 -45 9.5t-36.5 25t-25 37t-9.5 45.5zM824 1503q0 30 12 57t32 47.5t46.5 33 t55.5 12.5q57 0 90 -33t33 -79q0 -30 -12 -58t-33 -49.5t-49 -34.5t-59 -13q-24 0 -45.5 9.5t-37 25t-24.5 37t-9 45.5z" />
<glyph unicode="&#x4d4;" horiz-adv-x="1818" d="M-164 0l14 87l154 29l701 1283l-291 22l14 101h1326l-8 -292h-111l-47 169l-397 15l-73 -567l401 24l-15 -167l-397 17l-73 -604l511 24l97 190l107 -31l-65 -300h-989l10 87l121 29l42 358h-474l-182 -357l189 -30l-6 -87h-559zM456 596h427l94 795l-114 5z" />
<glyph unicode="&#x4d5;" horiz-adv-x="1715" d="M82 411q0 77 19.5 163t57.5 169.5t94 159.5t128.5 133.5t161 91.5t191.5 34q50 0 103 -10t95 -24l118 34l-18 -133q68 60 146 95t164 38q73 3 126 -16.5t87.5 -54.5t51 -82t16.5 -100q0 -78 -34.5 -141t-91 -112.5t-127.5 -85.5t-143 -60t-139 -36.5t-114 -13.5 q-4 -63 0 -124t23.5 -109t58 -77t104.5 -29q81 0 174.5 33.5t182.5 112.5l47 -84q-22 -30 -63.5 -65t-97.5 -66t-125 -51.5t-146 -20.5q-81 0 -144 21.5t-108 61.5t-72.5 98t-39.5 131q-27 -56 -65.5 -111.5t-86.5 -100t-104.5 -72.5t-119.5 -28q-79 0 -137 30t-96.5 85.5 t-57.5 135.5t-19 180zM293 435q0 -158 35.5 -234.5t103.5 -76.5q37 0 72.5 15.5t67.5 41t61 58t53 66.5t42.5 66.5t31.5 57.5v1q1 61 12 123l-2 -3l74 451q-28 22 -63.5 30.5t-76.5 8.5q-71 0 -129.5 -28t-104 -75t-79 -108t-55.5 -128.5t-32.5 -136t-10.5 -129.5zM979 570 q39 2 86.5 12.5t96 29.5t94 47t80.5 63.5t56.5 78.5t21.5 94q-1 78 -33 114t-87 36q-49 0 -90 -23.5t-74.5 -62t-59.5 -88.5t-44.5 -103t-30 -104.5t-16.5 -93.5z" />
<glyph unicode="&#x4d6;" horiz-adv-x="1233" d="M25 0l11 87l149 29l160 1282l-133 23l12 101h934l-8 -312h-111l-47 189l-437 15l-72 -559l448 8l-13 -159l-447 17l-83 -604l547 24l119 211l109 -30l-88 -322h-1050zM408 1933q0 20 1 39.5t8 40.5h178q17 0 22.5 -13.5t5.5 -32.5q0 -20 -2.5 -42t-2.5 -40 q0 -32 7.5 -57.5t27.5 -43.5t54.5 -28t88.5 -10q55 0 89.5 14t55 39t29.5 59.5t14 75.5q2 15 5 29t8 25t13 18t20 7h147q0 -8 -0.5 -16.5t-1.5 -16.5q-10 -87 -44 -150t-85.5 -103.5t-119 -60t-143.5 -19.5t-144 17t-119.5 52t-81.5 89t-30 128z" />
<glyph unicode="&#x4d7;" horiz-adv-x="1052" d="M85 430q2 95 24 186t60 172.5t91 150t118 118.5t140.5 78t158.5 28q73 0 126.5 -19t89 -53t53 -79.5t17.5 -98.5q0 -78 -35.5 -141t-93 -113t-130.5 -87t-146.5 -61t-141.5 -37t-116 -14q-3 -32 -1 -70t11 -76t25 -73t41 -62t59 -43t79 -16q77 0 165 34t173 113l47 -84 q-21 -30 -60.5 -65t-93 -66t-119.5 -51.5t-139 -20.5q-107 0 -184 38t-126 101t-71.5 144t-20.5 167zM305 570q40 2 89 12.5t98.5 30t97 47t84 63t58.5 79t22 94.5q-1 78 -35.5 113.5t-89.5 35.5q-51 0 -93 -23.5t-76.5 -62t-61 -88.5t-46 -103t-31 -104.5t-16.5 -93.5z M306 1555q0 20 1 39.5t8 40.5h177q17 0 22.5 -13.5t5.5 -32.5q0 -20 -2.5 -42t-2.5 -40q0 -27 8 -49.5t28 -38t54.5 -24t87.5 -8.5q55 0 89.5 12.5t55 35t29.5 53.5t14 68q2 15 5 29t8 25t13 18t20 7h147q0 -8 -0.5 -16.5t-1.5 -16.5q-10 -83 -44 -142.5t-85.5 -97.5 t-119 -56.5t-143.5 -18.5q-75 0 -143 16t-119.5 49t-81.5 83.5t-30 119.5z" />
<glyph unicode="&#x4d8;" horiz-adv-x="1300" d="M73 479q0 44 3.5 86.5t9 80.5t12.5 69.5t15 53.5h915q2 33 3.5 68t1.5 73q0 130 -28.5 227t-77.5 161.5t-112.5 96t-133.5 31.5q-62 0 -112.5 -9t-90 -24.5t-70 -35.5t-51.5 -42l-63 -148h-110l47 292q41 1 86.5 14t104 27t135 26t181.5 12q117 0 209 -44t155 -124.5 t96 -193t33 -250.5q0 -137 -27 -261t-75 -229.5t-116 -190.5t-149 -144.5t-174 -91.5t-192 -32q-101 0 -180 33.5t-133.5 98t-83 157.5t-28.5 213zM269 445q0 -62 18 -125t55 -113.5t92 -82.5t129 -32q81 0 154 34.5t132.5 104.5t102.5 177t64 251h-719q-12 -55 -20 -108.5 t-8 -105.5z" />
<glyph unicode="&#x4d9;" horiz-adv-x="1019" d="M50 230q0 78 36 141t93.5 113t130 87t146 61t141.5 36.5t116 14.5q4 33 2 70.5t-11 75.5t-25 73t-41 62t-59.5 43t-79.5 16q-77 0 -165 -34t-173 -113l-47 84q21 30 60.5 65t93.5 66t119.5 51.5t139.5 20.5q106 0 183 -38.5t126 -101.5t71.5 -144t20.5 -166 q-2 -95 -24 -186t-60 -172.5t-91 -150t-118 -118.5t-140.5 -78t-158.5 -28q-72 0 -126 19t-89.5 53t-53 79.5t-17.5 98.5zM260 247q0 -78 34.5 -113.5t89.5 -35.5q51 0 93 23.5t76.5 62t61 88.5t46 103t31.5 104.5t17 93.5q-40 -2 -89 -12.5t-99 -30t-97 -47t-83.5 -63 t-58.5 -79t-22 -94.5z" />
<glyph unicode="&#x4da;" horiz-adv-x="1300" d="M73 479q0 44 3.5 86.5t9 80.5t12.5 69.5t15 53.5h915q2 33 3.5 68t1.5 73q0 130 -28.5 227t-77.5 161.5t-112.5 96t-133.5 31.5q-62 0 -112.5 -9t-90 -24.5t-70 -35.5t-51.5 -42l-63 -148h-110l47 292q41 1 86.5 14t104 27t135 26t181.5 12q117 0 209 -44t155 -124.5 t96 -193t33 -250.5q0 -137 -27 -261t-75 -229.5t-116 -190.5t-149 -144.5t-174 -91.5t-192 -32q-101 0 -180 33.5t-133.5 98t-83 157.5t-28.5 213zM269 445q0 -62 18 -125t55 -113.5t92 -82.5t129 -32q81 0 154 34.5t132.5 104.5t102.5 177t64 251h-719q-12 -55 -20 -108.5 t-8 -105.5zM473 1840q0 30 13 57t33.5 48t46 33t51.5 12q28 0 51 -9t39 -24.5t24.5 -36t8.5 -43.5q0 -30 -12.5 -58t-33.5 -49t-49 -33.5t-58 -12.5q-23 0 -44 9.5t-36.5 25t-24.5 36.5t-9 45zM892 1844q0 30 13.5 56.5t35 46.5t47.5 31.5t50 11.5q57 0 89.5 -33t32.5 -79 q0 -30 -12 -58t-33 -49.5t-49 -34t-59 -12.5q-24 0 -45 9.5t-36.5 26t-24.5 38t-9 46.5z" />
<glyph unicode="&#x4db;" horiz-adv-x="1019" d="M50 230q0 78 36 141t93.5 113t130 87t146 61t141.5 36.5t116 14.5q4 33 2 70.5t-11 75.5t-25 73t-41 62t-59.5 43t-79.5 16q-77 0 -165 -34t-173 -113l-47 84q21 30 60.5 65t93.5 66t119.5 51.5t139.5 20.5q106 0 183 -38.5t126 -101.5t71.5 -144t20.5 -166 q-2 -95 -24 -186t-60 -172.5t-91 -150t-118 -118.5t-140.5 -78t-158.5 -28q-72 0 -126 19t-89.5 53t-53 79.5t-17.5 98.5zM241 1503q0 30 12 57t32.5 47.5t46.5 33t55 12.5q28 0 51 -9t39 -24t25 -35.5t9 -43.5q0 -30 -12.5 -58t-33.5 -49.5t-49 -34.5t-59 -13 q-24 0 -45 9.5t-36.5 25t-25 37t-9.5 45.5zM260 247q0 -78 34.5 -113.5t89.5 -35.5q51 0 93 23.5t76.5 62t61 88.5t46 103t31.5 104.5t17 93.5q-40 -2 -89 -12.5t-99 -30t-97 -47t-83.5 -63t-58.5 -79t-22 -94.5zM663 1503q0 30 12 57t32 47.5t46.5 33t55.5 12.5 q57 0 90 -33t33 -79q0 -30 -12 -58t-33 -49.5t-49 -34.5t-59 -13q-24 0 -45.5 9.5t-37 25t-24.5 37t-9 45.5z" />
<glyph unicode="&#x4dc;" horiz-adv-x="2018" d="M-30 0l12 87l82 30q21 7 52 35.5t69 71.5t82 97t90.5 110.5t94 112.5t92 104t85.5 83.5t75 51.5l-390 615l-146 24l12 100h464l-12 -100l-151 -25l349 -603h126l76 604l-134 23l12 101h481l-11 -101l-153 -23l-77 -604h146l484 603l-147 24l13 101h462l-13 -100l-149 -26 l-526 -611q38 -19 79.5 -71.5t83.5 -121t83.5 -145.5t81 -144.5t76 -118.5t68.5 -67l91 -30l-12 -87h-256q-24 0 -50 29.5t-54 77.5t-57 109.5t-58.5 125.5t-59 125.5t-58 109.5t-56 77.5t-52.5 29.5h-134l-71 -567l158 -29l-8 -88h-501l9 87l148 30l71 567h-110 q-26 0 -60.5 -29.5t-74.5 -77.5t-84.5 -109.5t-89 -125.5t-88.5 -125.5t-83 -109.5t-72 -77.5t-57 -29.5h-253zM850 1840q0 30 13 57t33.5 48t46 33t51.5 12q28 0 51 -9t39 -24.5t24.5 -36t8.5 -43.5q0 -30 -12.5 -58t-33.5 -49t-49 -33.5t-58 -12.5q-23 0 -44 9.5t-36.5 25 t-24.5 36.5t-9 45zM1269 1844q0 30 13.5 56.5t35 46.5t47.5 31.5t50 11.5q57 0 89.5 -33t32.5 -79q0 -30 -12 -58t-33 -49.5t-49 -34t-59 -12.5q-24 0 -45 9.5t-36.5 26t-24.5 38t-9 46.5z" />
<glyph unicode="&#x4dd;" horiz-adv-x="1832" d="M-38 15l70 189l108 -111q36 0 81.5 39t86.5 112.5t69 179.5t28 240q0 89 -12 151.5t-32.5 102.5t-48.5 58t-60 18q-26 0 -47 -5t-41.5 -17t-43 -31.5t-52.5 -48.5l-43 53q14 21 40.5 55t63 66.5t83 56t100.5 23.5q65 0 118.5 -30.5t92 -88.5t60 -141.5t21.5 -189.5 q0 -15 -0.5 -29.5t-1.5 -28.5h214l59 498h200l-59 -498h208q24 103 70.5 195t110 161.5t141.5 110.5t167 41q48 0 78.5 -9t51.5 -26l-70 -189l-109 111q-36 0 -81.5 -39t-86 -112.5t-68.5 -179.5t-28 -240q0 -89 11.5 -151.5t32 -102.5t48.5 -58t61 -18q25 0 46 5t41.5 17 t43.5 31.5t53 48.5l42 -53q-14 -21 -40.5 -55t-63 -66.5t-83 -56t-100.5 -23.5q-65 0 -118.5 30.5t-92 88.5t-60 141.5t-21.5 189.5q0 27 1.5 54t5.5 54h-203l-64 -539l-199 1l63 538h-214q-20 -111 -65 -212t-110 -178t-147 -122.5t-176 -45.5q-48 0 -78.5 9t-51.5 26z M679 1503q0 30 12 57t32.5 47.5t46.5 33t55 12.5q28 0 51 -9t39 -24t25 -35.5t9 -43.5q0 -30 -12.5 -58t-33.5 -49.5t-49 -34.5t-59 -13q-24 0 -45 9.5t-36.5 25t-25 37t-9.5 45.5zM1101 1503q0 30 12 57t32 47.5t46.5 33t55.5 12.5q57 0 90 -33t33 -79q0 -30 -12 -58 t-33 -49.5t-49 -34.5t-59 -13q-24 0 -45.5 9.5t-37 25t-24.5 37t-9 45.5z" />
<glyph unicode="&#x4de;" horiz-adv-x="1156" d="M10 68l88 331h104v-237q40 -22 109.5 -36t170.5 -14q78 0 144 24.5t114 72.5t75 119t27 165q0 54 -15 97.5t-50.5 73.5t-94.5 46t-147 16l-146 -11l14 128h122q58 0 117 21.5t106.5 67t77.5 115.5t30 168q0 104 -55 155.5t-156 51.5q-95 0 -161 -23t-90 -67l-46 -162 h-120l21 301q31 2 74 12.5t93.5 22.5t105 22t110.5 10q107 0 188.5 -20.5t136 -58.5t82.5 -91.5t28 -120.5q0 -102 -31.5 -178.5t-81 -130t-110.5 -85t-119 -44.5q91 -2 155.5 -26.5t105.5 -65t60.5 -95t19.5 -117.5q0 -121 -51.5 -217t-140.5 -162.5t-207.5 -102 t-252.5 -35.5q-74 0 -137.5 8.5t-114.5 20.5t-89.5 26t-62.5 25zM364 1840q0 30 13 57t33.5 48t46 33t51.5 12q28 0 51 -9t39 -24.5t24.5 -36t8.5 -43.5q0 -30 -12.5 -58t-33.5 -49t-49 -33.5t-58 -12.5q-23 0 -44 9.5t-36.5 25t-24.5 36.5t-9 45zM783 1844q0 30 13.5 56.5 t35 46.5t47.5 31.5t50 11.5q57 0 89.5 -33t32.5 -79q0 -30 -12 -58t-33 -49.5t-49 -34t-59 -12.5q-24 0 -45 9.5t-36.5 26t-24.5 38t-9 46.5z" />
<glyph unicode="&#x4df;" horiz-adv-x="1033" d="M23 71l72 191l110 -114q23 -16 44 -26t42.5 -15.5t45 -7.5t50.5 -2q86 0 146 19t98 53.5t55 81t17 102.5q0 40 -11.5 74.5t-41 59.5t-78.5 39.5t-124 14.5l-111 -21l24 133l63 6q78 9 134.5 33.5t92.5 58t53 74t17 80.5q0 32 -10.5 58t-34.5 45t-63.5 29t-98.5 10 q-49 0 -84 -6t-60 -15t-40 -19.5t-24 -19.5l-63 -178h-113l36 297q49 0 87.5 8.5t80.5 19t94.5 19t131.5 8.5q86 0 153.5 -16t114 -47t71 -75t24.5 -101q0 -46 -25 -92.5t-67 -87.5t-96 -73.5t-111 -51.5q70 -3 125 -21.5t93 -49.5t58 -74t20 -95q0 -90 -41.5 -163 t-113 -124t-166.5 -78.5t-201 -27.5q-71 0 -129 8.5t-103.5 21.5t-81 28t-61.5 29zM258 1503q0 30 12 57t32.5 47.5t46.5 33t55 12.5q28 0 51 -9t39 -24t25 -35.5t9 -43.5q0 -30 -12.5 -58t-33.5 -49.5t-49 -34.5t-59 -13q-24 0 -45 9.5t-36.5 25t-25 37t-9.5 45.5z M680 1503q0 30 12 57t32 47.5t46.5 33t55.5 12.5q57 0 90 -33t33 -79q0 -30 -12 -58t-33 -49.5t-49 -34.5t-59 -13q-24 0 -45.5 9.5t-37 25t-24.5 37t-9 45.5z" />
<glyph unicode="&#x4e0;" horiz-adv-x="1189" d="M51 66l80 333h107l28 -236q3 -3 14 -11t36 -16.5t67.5 -15.5t109.5 -7q107 0 181.5 34.5t121 89.5t67 123t20.5 136q0 59 -18.5 108t-56 84.5t-94 55.5t-131.5 20q-59 0 -129 -12l-30 37l471 575h-463l-67 -195h-119l27 353h877l-13 -102l-520 -587q30 5 61 7.5t63 2.5 q69 0 134.5 -15t116.5 -52.5t82 -99.5t31 -156q0 -114 -46.5 -211t-132 -168.5t-206.5 -112t-270 -40.5q-70 0 -134.5 11t-117.5 24.5t-91.5 26t-55.5 16.5z" />
<glyph unicode="&#x4e1;" horiz-adv-x="1028" d="M43 -263l16 118q51 -20 97 -31.5t100 -11.5q100 0 178.5 30.5t132.5 84.5t82.5 127t28.5 157q0 45 -11 84.5t-37 68t-68 45t-104 16.5q-20 0 -41.5 -1.5t-44.5 -5.5l-20 64l390 496h-438l-66 -162h-118l45 319h776l27 -100l-445 -540q18 3 35.5 4t33.5 1q76 0 133 -25 t94 -67t55.5 -96.5t18.5 -113.5q0 -70 -22 -135t-62 -121t-95 -102.5t-121 -79.5t-141 -51t-154 -18q-47 0 -84 4.5t-67.5 11.5t-55.5 15t-48 15z" />
<glyph unicode="&#x4e2;" horiz-adv-x="1599" d="M28 0l10 87l147 30l161 1281l-133 23l12 101h485l-11 -101l-154 -23l-126 -1002l125 165l699 732l13 105l-133 23l12 101h485l-12 -101l-154 -23l-161 -1281l158 -29l-8 -88h-505l9 87l148 30l126 1001l-106 -141l-719 -760l-12 -100l157 -29l-8 -88h-505zM684 1755 l19 152h512l-20 -152h-511z" />
<glyph unicode="&#x4e3;" horiz-adv-x="1210" d="M149 1023l18 89l249 51l48 -24l-69 -550q-6 -45 -11 -84.5t-9.5 -75.5t-7 -71t-2.5 -72q0 -51 10 -84t28.5 -51.5t44.5 -25.5t58 -7q35 0 71 13.5t69.5 35.5t63.5 51t54 60l116 877h199l-125 -964q-10 -76 22 -76q8 0 17 2.5t21.5 10t29 20.5t38.5 33l31 -54 q-7 -11 -29.5 -35t-56 -48.5t-75.5 -43t-88 -18.5q-69 0 -97.5 42t-13.5 113l-1 9q-27 -32 -61 -62t-75 -53t-90 -37t-106 -14t-104.5 13.5t-81.5 45.5t-52.5 84.5t-18.5 130.5q0 33 3 74t8.5 86t11.5 91.5t12 91.5l51 366zM420 1424l19 152h512l-20 -152h-511z" />
<glyph unicode="&#x4e4;" horiz-adv-x="1599" d="M28 0l10 87l147 30l161 1281l-133 23l12 101h485l-11 -101l-154 -23l-126 -1002l125 165l699 732l13 105l-133 23l12 101h485l-12 -101l-154 -23l-161 -1281l158 -29l-8 -88h-505l9 87l148 30l126 1001l-106 -141l-719 -760l-12 -100l157 -29l-8 -88h-505zM593 1840 q0 30 13 57t33.5 48t46 33t51.5 12q28 0 51 -9t39 -24.5t24.5 -36t8.5 -43.5q0 -30 -12.5 -58t-33.5 -49t-49 -33.5t-58 -12.5q-23 0 -44 9.5t-36.5 25t-24.5 36.5t-9 45zM1012 1844q0 30 13.5 56.5t35 46.5t47.5 31.5t50 11.5q57 0 89.5 -33t32.5 -79q0 -30 -12 -58 t-33 -49.5t-49 -34t-59 -12.5q-24 0 -45 9.5t-36.5 26t-24.5 38t-9 46.5z" />
<glyph unicode="&#x4e5;" horiz-adv-x="1210" d="M149 1023l18 89l249 51l48 -24l-69 -550q-6 -45 -11 -84.5t-9.5 -75.5t-7 -71t-2.5 -72q0 -51 10 -84t28.5 -51.5t44.5 -25.5t58 -7q35 0 71 13.5t69.5 35.5t63.5 51t54 60l116 877h199l-125 -964q-10 -76 22 -76q8 0 17 2.5t21.5 10t29 20.5t38.5 33l31 -54 q-7 -11 -29.5 -35t-56 -48.5t-75.5 -43t-88 -18.5q-69 0 -97.5 42t-13.5 113l-1 9q-27 -32 -61 -62t-75 -53t-90 -37t-106 -14t-104.5 13.5t-81.5 45.5t-52.5 84.5t-18.5 130.5q0 33 3 74t8.5 86t11.5 91.5t12 91.5l51 366zM354 1503q0 30 12 57t32.5 47.5t46.5 33t55 12.5 q28 0 51 -9t39 -24t25 -35.5t9 -43.5q0 -30 -12.5 -58t-33.5 -49.5t-49 -34.5t-59 -13q-24 0 -45 9.5t-36.5 25t-25 37t-9.5 45.5zM776 1503q0 30 12 57t32 47.5t46.5 33t55.5 12.5q57 0 90 -33t33 -79q0 -30 -12 -58t-33 -49.5t-49 -34.5t-59 -13q-24 0 -45.5 9.5t-37 25 t-24.5 37t-9 45.5z" />
<glyph unicode="&#x4e6;" horiz-adv-x="1383" d="M119 619q-2 132 20.5 252t65.5 222.5t105.5 185.5t140.5 141.5t169 90t192 31.5q127 0 220 -50.5t155 -136.5t93 -200.5t33 -243.5q2 -132 -20 -252.5t-65.5 -224t-106 -187.5t-140 -143.5t-169 -91.5t-192.5 -32q-127 0 -220.5 51.5t-155 139t-92.5 203.5t-33 245z M327 646q2 -120 23 -220.5t61 -173t99 -112.5t138 -40q98 0 182 58.5t144.5 162t94 246.5t30.5 312q-2 122 -23 221t-61 169.5t-99.5 109t-137.5 38.5q-98 0 -182 -57t-145 -159.5t-94 -244t-30 -310.5zM522 1840q0 30 13 57t33.5 48t46 33t51.5 12q28 0 51 -9t39 -24.5 t24.5 -36t8.5 -43.5q0 -30 -12.5 -58t-33.5 -49t-49 -33.5t-58 -12.5q-23 0 -44 9.5t-36.5 25t-24.5 36.5t-9 45zM941 1844q0 30 13.5 56.5t35 46.5t47.5 31.5t50 11.5q57 0 89.5 -33t32.5 -79q0 -30 -12 -58t-33 -49.5t-49 -34t-59 -12.5q-24 0 -45 9.5t-36.5 26t-24.5 38 t-9 46.5z" />
<glyph unicode="&#x4e7;" horiz-adv-x="1145" d="M85 439q-2 91 16.5 180t53.5 169.5t86 149t115 118.5t139 78.5t160 28.5q96 0 169.5 -31t124 -90t77.5 -144.5t29 -194.5q1 -91 -17 -180t-53 -169.5t-86 -148.5t-115 -118t-139.5 -78.5t-160.5 -28.5q-96 0 -169.5 31t-123.5 89.5t-77 144t-29 194.5zM299 441 q2 -160 57 -249.5t163 -89.5q57 0 103 26.5t82 72t62.5 105.5t43 126.5t24 136t6.5 133.5q-2 159 -57.5 248.5t-163.5 89.5q-57 0 -103 -26.5t-82 -71.5t-62 -105t-43 -126.5t-24.5 -136t-5.5 -133.5zM341 1503q0 30 12 57t32.5 47.5t46.5 33t55 12.5q28 0 51 -9t39 -24 t25 -35.5t9 -43.5q0 -30 -12.5 -58t-33.5 -49.5t-49 -34.5t-59 -13q-24 0 -45 9.5t-36.5 25t-25 37t-9.5 45.5zM763 1503q0 30 12 57t32 47.5t46.5 33t55.5 12.5q57 0 90 -33t33 -79q0 -30 -12 -58t-33 -49.5t-49 -34.5t-59 -13q-24 0 -45.5 9.5t-37 25t-24.5 37t-9 45.5z " />
<glyph unicode="&#x4e8;" horiz-adv-x="1383" d="M119 619q-2 132 20.5 252t65.5 222.5t105.5 185.5t140.5 141.5t169 90t192 31.5q127 0 220 -50.5t155 -136.5t93 -200.5t33 -243.5q2 -132 -20 -252.5t-65.5 -224t-106 -187.5t-140 -143.5t-169 -91.5t-192.5 -32q-127 0 -220.5 51.5t-155 139t-92.5 203.5t-33 245z M326.5 679q-0.5 -16 0.5 -33q2 -120 23 -220.5t61 -173t99 -112.5t138 -40q85 0 160 44.5t133.5 125.5t97.5 193.5t53 248.5h-765q0 -17 -0.5 -33zM335 820h763q1 14 1 29v30q-2 122 -23 221t-61 169.5t-99.5 109t-137.5 38.5q-85 0 -159.5 -43t-133 -122t-97.5 -189 t-53 -243z" />
<glyph unicode="&#x4e9;" horiz-adv-x="1145" d="M85 439q-2 91 16.5 180t53.5 169.5t86 149t115 118.5t139 78.5t160 28.5q96 0 169.5 -31t124 -90t77.5 -144.5t29 -194.5q1 -91 -17 -180t-53 -169.5t-86 -148.5t-115 -118t-139.5 -78.5t-160.5 -28.5q-96 0 -169.5 31t-123.5 89.5t-77 144t-29 194.5zM299 441 q2 -160 57 -249.5t163 -89.5q68 0 120.5 37.5t91 98.5t63 139.5t36.5 160.5h-528q-5 -50 -3 -97zM315 646h524q1 14 1 28v28q-2 159 -57.5 248.5t-163.5 89.5q-63 0 -113.5 -33t-88.5 -88t-63.5 -126t-38.5 -147z" />
<glyph unicode="&#x4ea;" horiz-adv-x="1383" d="M119 619q-2 132 20.5 252t65.5 222.5t105.5 185.5t140.5 141.5t169 90t192 31.5q127 0 220 -50.5t155 -136.5t93 -200.5t33 -243.5q2 -132 -20 -252.5t-65.5 -224t-106 -187.5t-140 -143.5t-169 -91.5t-192.5 -32q-127 0 -220.5 51.5t-155 139t-92.5 203.5t-33 245z M326.5 679q-0.5 -16 0.5 -33q2 -120 23 -220.5t61 -173t99 -112.5t138 -40q85 0 160 44.5t133.5 125.5t97.5 193.5t53 248.5h-765q0 -17 -0.5 -33zM335 820h763q1 14 1 29v30q-2 122 -23 221t-61 169.5t-99.5 109t-137.5 38.5q-85 0 -159.5 -43t-133 -122t-97.5 -189 t-53 -243zM522 1840q0 30 13 57t33.5 48t46 33t51.5 12q28 0 51 -9t39 -24.5t24.5 -36t8.5 -43.5q0 -30 -12.5 -58t-33.5 -49t-49 -33.5t-58 -12.5q-23 0 -44 9.5t-36.5 25t-24.5 36.5t-9 45zM941 1844q0 30 13.5 56.5t35 46.5t47.5 31.5t50 11.5q57 0 89.5 -33t32.5 -79 q0 -30 -12 -58t-33 -49.5t-49 -34t-59 -12.5q-24 0 -45 9.5t-36.5 26t-24.5 38t-9 46.5z" />
<glyph unicode="&#x4eb;" horiz-adv-x="1145" d="M85 439q-2 91 16.5 180t53.5 169.5t86 149t115 118.5t139 78.5t160 28.5q96 0 169.5 -31t124 -90t77.5 -144.5t29 -194.5q1 -91 -17 -180t-53 -169.5t-86 -148.5t-115 -118t-139.5 -78.5t-160.5 -28.5q-96 0 -169.5 31t-123.5 89.5t-77 144t-29 194.5zM299 441 q2 -160 57 -249.5t163 -89.5q68 0 120.5 37.5t91 98.5t63 139.5t36.5 160.5h-528q-5 -50 -3 -97zM315 646h524q1 14 1 28v28q-2 159 -57.5 248.5t-163.5 89.5q-63 0 -113.5 -33t-88.5 -88t-63.5 -126t-38.5 -147zM341 1503q0 30 12 57t32.5 47.5t46.5 33t55 12.5q28 0 51 -9 t39 -24t25 -35.5t9 -43.5q0 -30 -12.5 -58t-33.5 -49.5t-49 -34.5t-59 -13q-24 0 -45 9.5t-36.5 25t-25 37t-9.5 45.5zM763 1503q0 30 12 57t32 47.5t46.5 33t55.5 12.5q57 0 90 -33t33 -79q0 -30 -12 -58t-33 -49.5t-49 -34.5t-59 -13q-24 0 -45.5 9.5t-37 25t-24.5 37 t-9 45.5z" />
<glyph unicode="&#x4ec;" horiz-adv-x="1222" d="M45 346l124 11l60 -166q12 -15 31.5 -32.5t51.5 -32.5t78 -24.5t110 -9.5q90 0 174 43t151.5 125.5t114 202t63.5 271.5q-74 -11 -160 -18t-168 -11.5t-151.5 -7.5t-110.5 -5l-34 171l631 -20q1 11 1 20.5v20.5q0 108 -20.5 206t-65.5 172.5t-116 118.5t-173 44 q-54 0 -96 -9t-74 -24t-55.5 -35t-42.5 -42l-63 -165h-133l50 309q39 2 77 14.5t87 27t115 26t161 11.5q136 0 243 -47t180.5 -132t112.5 -205t39 -265q0 -132 -29 -251t-81 -220.5t-125 -183t-161 -138.5t-188.5 -88t-208.5 -31q-79 0 -134 12t-97.5 27t-77.5 27t-73 12z M432 1840q0 30 13 57t33.5 48t46 33t51.5 12q28 0 51 -9t39 -24.5t24.5 -36t8.5 -43.5q0 -30 -12.5 -58t-33.5 -49t-49 -33.5t-58 -12.5q-23 0 -44 9.5t-36.5 25t-24.5 36.5t-9 45zM851 1844q0 30 13.5 56.5t35 46.5t47.5 31.5t50 11.5q57 0 89.5 -33t32.5 -79 q0 -30 -12 -58t-33 -49.5t-49 -34t-59 -12.5q-24 0 -45 9.5t-36.5 26t-24.5 38t-9 46.5z" />
<glyph unicode="&#x4ed;" horiz-adv-x="1011" d="M24 91l27 202h111q1 -1 3 -26t4 -55t4 -54.5t3 -25.5q41 -16 93 -27t113 -11q88 0 152 38t108 99.5t70 140t38 160.5q-66 -6 -133 -10.5t-128.5 -8t-112.5 -5.5t-84 -4l-34 151h502q1 8 1 14.5v14.5q0 97 -21.5 168.5t-58.5 117.5t-86.5 68.5t-105.5 22.5 q-68 0 -111.5 -13t-78.5 -39l-67 -146h-103l32 260q23 11 63.5 20t88.5 16t100 10.5t99 3.5q104 0 188.5 -30.5t144.5 -91.5t93 -152t33 -212q0 -165 -49.5 -296.5t-132 -223.5t-190 -141t-222.5 -49q-65 0 -119 9t-97.5 24.5t-77.5 36.5t-59 44zM262 1503q0 30 12 57 t32.5 47.5t46.5 33t55 12.5q28 0 51 -9t39 -24t25 -35.5t9 -43.5q0 -30 -12.5 -58t-33.5 -49.5t-49 -34.5t-59 -13q-24 0 -45 9.5t-36.5 25t-25 37t-9.5 45.5zM684 1503q0 30 12 57t32 47.5t46.5 33t55.5 12.5q57 0 90 -33t33 -79q0 -30 -12 -58t-33 -49.5t-49 -34.5 t-59 -13q-24 0 -45.5 9.5t-37 25t-24.5 37t-9 45.5z" />
<glyph unicode="&#x4ee;" horiz-adv-x="1218" d="M106 1421l12 101h494l-10 -100l-166 -25l210 -732l37 -183l67 185l333 730l-153 24l12 101h412l-12 -100l-104 -25l-523 -1058q-16 -33 -35 -72t-42.5 -79.5t-52 -78.5t-64 -67t-78.5 -47t-96 -18q-51 0 -93.5 10.5t-71.5 27.5l18 157h146q43 0 76.5 5t60.5 20t47.5 42 t36.5 72l-339 1086zM533 1728l19 152h512l-20 -152h-511z" />
<glyph unicode="&#x4ef;" horiz-adv-x="1072" d="M-126 -478l47 160q7 -3 21 -10t35 -13.5t49.5 -12t64.5 -5.5q32 0 76.5 14.5t92.5 50t96.5 94t89.5 146.5h-96l-172 1017q-5 32 -15 44t-25 12q-6 0 -12.5 -1t-15.5 -4.5t-22 -12t-31 -23.5l-29 60q6 9 26 30t49.5 42t66 37t76.5 16q37 0 61.5 -9.5t39.5 -27.5 t22.5 -43.5t11.5 -56.5q0 -2 4 -34t10 -83.5t14 -116.5t15.5 -133t15.5 -133t14 -116t10 -83t4 -34l20 -272l155 310q32 76 66 146.5t62 142t46 146.5t18 162q0 17 -5.5 32.5t-11.5 31t-11.5 32t-5.5 34.5q0 56 28 80t71 24q68 0 99 -49t31 -142q0 -84 -23 -169 t-57.5 -167.5t-76 -160.5t-77.5 -149q-71 -142 -128.5 -249t-105 -186t-85 -134t-68.5 -92q-20 -29 -52.5 -59t-77.5 -54.5t-103 -40.5t-128 -16q-17 0 -41 2.5t-48.5 7t-47 9t-37.5 9.5zM346 1424l19 152h512l-20 -152h-511z" />
<glyph unicode="&#x4f0;" horiz-adv-x="1218" d="M106 1421l12 101h494l-10 -100l-166 -25l210 -732l37 -183l67 185l333 730l-153 24l12 101h412l-12 -100l-104 -25l-523 -1058q-16 -33 -35 -72t-42.5 -79.5t-52 -78.5t-64 -67t-78.5 -47t-96 -18q-51 0 -93.5 10.5t-71.5 27.5l18 157h146q43 0 76.5 5t60.5 20t47.5 42 t36.5 72l-339 1086zM452 1840q0 30 13 57t33.5 48t46 33t51.5 12q28 0 51 -9t39 -24.5t24.5 -36t8.5 -43.5q0 -30 -12.5 -58t-33.5 -49t-49 -33.5t-58 -12.5q-23 0 -44 9.5t-36.5 25t-24.5 36.5t-9 45zM871 1844q0 30 13.5 56.5t35 46.5t47.5 31.5t50 11.5q57 0 89.5 -33 t32.5 -79q0 -30 -12 -58t-33 -49.5t-49 -34t-59 -12.5q-24 0 -45 9.5t-36.5 26t-24.5 38t-9 46.5z" />
<glyph unicode="&#x4f1;" horiz-adv-x="1072" d="M-126 -478l47 160q7 -3 21 -10t35 -13.5t49.5 -12t64.5 -5.5q32 0 76.5 14.5t92.5 50t96.5 94t89.5 146.5h-96l-172 1017q-5 32 -15 44t-25 12q-6 0 -12.5 -1t-15.5 -4.5t-22 -12t-31 -23.5l-29 60q6 9 26 30t49.5 42t66 37t76.5 16q37 0 61.5 -9.5t39.5 -27.5 t22.5 -43.5t11.5 -56.5q0 -2 4 -34t10 -83.5t14 -116.5t15.5 -133t15.5 -133t14 -116t10 -83t4 -34l20 -272l155 310q32 76 66 146.5t62 142t46 146.5t18 162q0 17 -5.5 32.5t-11.5 31t-11.5 32t-5.5 34.5q0 56 28 80t71 24q68 0 99 -49t31 -142q0 -84 -23 -169 t-57.5 -167.5t-76 -160.5t-77.5 -149q-71 -142 -128.5 -249t-105 -186t-85 -134t-68.5 -92q-20 -29 -52.5 -59t-77.5 -54.5t-103 -40.5t-128 -16q-17 0 -41 2.5t-48.5 7t-47 9t-37.5 9.5zM294 1503q0 30 12 57t32.5 47.5t46.5 33t55 12.5q28 0 51 -9t39 -24t25 -35.5 t9 -43.5q0 -30 -12.5 -58t-33.5 -49.5t-49 -34.5t-59 -13q-24 0 -45 9.5t-36.5 25t-25 37t-9.5 45.5zM716 1503q0 30 12 57t32 47.5t46.5 33t55.5 12.5q57 0 90 -33t33 -79q0 -30 -12 -58t-33 -49.5t-49 -34.5t-59 -13q-24 0 -45.5 9.5t-37 25t-24.5 37t-9 45.5z" />
<glyph unicode="&#x4f2;" horiz-adv-x="1218" d="M106 1421l12 101h494l-10 -100l-166 -25l210 -732l37 -183l67 185l333 730l-153 24l12 101h412l-12 -100l-104 -25l-523 -1058q-16 -33 -35 -72t-42.5 -79.5t-52 -78.5t-64 -67t-78.5 -47t-96 -18q-51 0 -93.5 10.5t-71.5 27.5l18 157h146q43 0 76.5 5t60.5 20t47.5 42 t36.5 72l-339 1086zM448 1677l276 324l134 -119q-13 -29 -36 -58t-52 -56t-61.5 -51.5t-64.5 -45t-61 -36t-50 -24.5zM885 1677l276 324l136 -120q-26 -44 -65.5 -86t-84 -78t-89 -64t-79.5 -42z" />
<glyph unicode="&#x4f3;" horiz-adv-x="1072" d="M-126 -478l47 160q7 -3 21 -10t35 -13.5t49.5 -12t64.5 -5.5q32 0 76.5 14.5t92.5 50t96.5 94t89.5 146.5h-96l-172 1017q-5 32 -15 44t-25 12q-6 0 -12.5 -1t-15.5 -4.5t-22 -12t-31 -23.5l-29 60q6 9 26 30t49.5 42t66 37t76.5 16q37 0 61.5 -9.5t39.5 -27.5 t22.5 -43.5t11.5 -56.5q0 -2 4 -34t10 -83.5t14 -116.5t15.5 -133t15.5 -133t14 -116t10 -83t4 -34l20 -272l155 310q32 76 66 146.5t62 142t46 146.5t18 162q0 17 -5.5 32.5t-11.5 31t-11.5 32t-5.5 34.5q0 56 28 80t71 24q68 0 99 -49t31 -142q0 -84 -23 -169 t-57.5 -167.5t-76 -160.5t-77.5 -149q-71 -142 -128.5 -249t-105 -186t-85 -134t-68.5 -92q-20 -29 -52.5 -59t-77.5 -54.5t-103 -40.5t-128 -16q-17 0 -41 2.5t-48.5 7t-47 9t-37.5 9.5zM276 1296l238 417l146 -107q-8 -25 -27.5 -57.5t-45.5 -67t-56.5 -70t-61 -66.5 t-59 -56t-49.5 -38zM694 1306l257 407l150 -108q-9 -26 -30.5 -59t-50 -68.5t-62 -70t-66 -64t-61.5 -51.5t-48 -31z" />
<glyph unicode="&#x4f4;" horiz-adv-x="1283" d="M80 1421l12 101h476l-11 -101l-138 -27l-26 -210q-15 -125 -20.5 -210t13 -137t68.5 -74.5t145 -22.5q34 0 72.5 4.5t75 12t69 17t53.5 20.5l76 604l-154 23l12 101h491l-11 -101l-134 -23l-161 -1281l139 -30l-9 -87h-512l10 87l168 30l70 560q-79 -41 -170.5 -59.5 t-175.5 -18.5q-88 0 -158.5 17t-116 64.5t-63.5 133t-1 222.5l45 361zM411 1779q0 30 13 57t33.5 48t46 33t51.5 12q28 0 51 -9t39 -24.5t24.5 -36t8.5 -43.5q0 -30 -12.5 -58t-33.5 -49t-49 -33.5t-58 -12.5q-23 0 -44 9.5t-36.5 25t-24.5 36.5t-9 45zM830 1783 q0 30 13.5 56.5t35 46.5t47.5 31.5t50 11.5q57 0 89.5 -33t32.5 -79q0 -30 -12 -58t-33 -49.5t-49 -34t-59 -12.5q-24 0 -45 9.5t-36.5 26t-24.5 38t-9 46.5z" />
<glyph unicode="&#x4f5;" horiz-adv-x="1167" d="M83 1023l17 89l249 51l55 -25l-33 -273q-9 -79 -13.5 -134.5t-1 -93.5t16 -60.5t37 -34t62 -15t90.5 -3.5q68 0 121.5 11t86.5 30l70 571h185l-99 -948q-4 -36 4.5 -56t23.5 -20q13 0 32.5 9t54.5 37l31 -53q-6 -10 -27 -31t-52.5 -42t-70 -37t-80.5 -16 q-63 0 -99.5 31.5t-27.5 103.5l40 333q-75 -35 -151.5 -50.5t-160.5 -15.5q-80 0 -138 13t-93 53.5t-46 115t3 197.5l23 198zM285 1503q0 30 12 57t32.5 47.5t46.5 33t55 12.5q28 0 51 -9t39 -24t25 -35.5t9 -43.5q0 -30 -12.5 -58t-33.5 -49.5t-49 -34.5t-59 -13 q-24 0 -45 9.5t-36.5 25t-25 37t-9.5 45.5zM707 1503q0 30 12 57t32 47.5t46.5 33t55.5 12.5q57 0 90 -33t33 -79q0 -30 -12 -58t-33 -49.5t-49 -34.5t-59 -13q-24 0 -45.5 9.5t-37 25t-24.5 37t-9 45.5z" />
<glyph unicode="&#x4f6;" horiz-adv-x="1135" d="M-37 0l12 87l212 29l159 1279l-206 29l12 98h1014l-39 -471h-140l-18 352l-424 9l-160 -1295h344l-117 -472h-128q1 14 3.5 45.5t5 70.5t5 81t4.5 77t3 57.5t1 23.5h-543z" />
<glyph unicode="&#x4f7;" horiz-adv-x="841" d="M40 245q0 77 28 134t74 103t105 84.5t122 79.5q54 36 91.5 68.5t60.5 65.5t33 67.5t10 72.5q0 21 -7 41.5t-20.5 36t-34.5 25t-48 9.5q-47 0 -90.5 -9.5t-77.5 -22t-57 -25t-29 -18.5l-22 99q17 13 46 31.5t69 35t90.5 28.5t110.5 12q63 0 116.5 -15.5t92.5 -44 t60.5 -70.5t21.5 -94q0 -83 -34 -144.5t-85 -110.5t-110.5 -87.5t-110.5 -74.5q-45 -32 -81.5 -60t-62 -56.5t-39.5 -60.5t-14 -73q0 -30 8.5 -58t28 -49.5t51 -34.5t77.5 -13q45 0 78 7.5t60 20.5t52 30t55 37l31 -97q-35 -39 -90 -68.5t-118 -46.5q-26 -14 -46.5 -33.5 t-20.5 -49.5q0 -18 8 -37t18 -40t18 -44.5t8 -50.5q0 -40 -24 -78t-61.5 -70.5t-84 -56t-90.5 -34.5l-55 64q19 7 40.5 21.5t40.5 33t31.5 40t12.5 44.5q0 20 -5.5 35t-12 30.5t-12 35t-5.5 47.5q0 37 20 68t49 57q-59 5 -108.5 28t-85.5 58.5t-56 81t-20 95.5z" />
<glyph unicode="&#x4f8;" horiz-adv-x="1829" d="M28 0l9 87l148 30l161 1280l-133 24l12 101h490l-11 -101l-154 -23l-72 -569l1 1q35 8 93.5 16t127.5 8q220 0 334.5 -91.5t114.5 -257.5q0 -129 -46 -226.5t-125.5 -163t-186 -98.5t-226.5 -33q-18 0 -54.5 2.5t-80 5.5t-86.5 5.5t-74 2.5h-242zM389 115 q30 -8 75.5 -14.5t119.5 -6.5q82 0 148.5 25.5t113.5 74t72.5 119.5t25.5 161q0 64 -22.5 111.5t-63 79t-97 47t-125.5 15.5q-53 0 -97 -4t-74 -11h-1zM764 1840q0 30 13 57t33.5 48t46 33t51.5 12q28 0 51 -9t39 -24.5t24.5 -36t8.5 -43.5q0 -30 -12.5 -58t-33.5 -49 t-49 -33.5t-58 -12.5q-23 0 -44 9.5t-36.5 25t-24.5 36.5t-9 45zM1172 0l9 87l148 30l161 1281l-133 23l12 101h490l-11 -101l-153 -23l-162 -1281l158 -29l-8 -88h-511zM1183 1844q0 30 13.5 56.5t35 46.5t47.5 31.5t50 11.5q57 0 89.5 -33t32.5 -79q0 -30 -12 -58 t-33 -49.5t-49 -34t-59 -12.5q-24 0 -45 9.5t-36.5 26t-24.5 38t-9 46.5z" />
<glyph unicode="&#x4f9;" horiz-adv-x="1504" d="M113.5 262q-10.5 96 15.5 225l95 476l-98 59l18 89l248 52l54 -25l-100 -560q16 21 46.5 50.5t74 56.5t98.5 46t119 19q127 0 186.5 -78t59.5 -222q0 -51 -17 -106t-49 -107.5t-77 -99.5t-101 -82.5t-121.5 -56.5t-137.5 -21q-87 0 -154.5 31t-108 94.5t-51 159.5z M304.5 267.5q3.5 -53.5 21 -93t48 -62t72.5 -22.5q62 0 113 30t87 77t55.5 105t19.5 114q0 36 -3 70.5t-16 62t-40.5 44.5t-76.5 17q-32 0 -70 -14.5t-75.5 -41.5t-70.5 -65.5t-54 -86.5l-3 -19q-11 -62 -7.5 -115.5zM479 1503q0 30 12 57t32.5 47.5t46.5 33t55 12.5 q28 0 51 -9t39 -24t25 -35.5t9 -43.5q0 -30 -12.5 -58t-33.5 -49.5t-49 -34.5t-59 -13q-24 0 -45 9.5t-36.5 25t-25 37t-9.5 45.5zM901 1503q0 30 12 57t32 47.5t46.5 33t55.5 12.5q57 0 90 -33t33 -79q0 -30 -12 -58t-33 -49.5t-49 -34.5t-59 -13q-24 0 -45.5 9.5t-37 25 t-24.5 37t-9 45.5zM1046 138l128 1017h199l-126 -964q-10 -76 23 -76q8 0 17 2.5t21.5 10t29 20.5t38.5 33l31 -54q-7 -11 -29.5 -35t-56.5 -48.5t-76 -43t-87 -18.5q-70 0 -95.5 42t-16.5 114z" />
<glyph unicode="&#x2000;" horiz-adv-x="1006" />
<glyph unicode="&#x2001;" horiz-adv-x="2013" />
<glyph unicode="&#x2002;" horiz-adv-x="1006" />
<glyph unicode="&#x2003;" horiz-adv-x="2013" />
<glyph unicode="&#x2004;" horiz-adv-x="671" />
<glyph unicode="&#x2005;" horiz-adv-x="503" />
<glyph unicode="&#x2006;" horiz-adv-x="335" />
<glyph unicode="&#x2007;" horiz-adv-x="335" />
<glyph unicode="&#x2008;" horiz-adv-x="251" />
<glyph unicode="&#x2009;" horiz-adv-x="402" />
<glyph unicode="&#x200a;" horiz-adv-x="111" />
<glyph unicode="&#x2010;" horiz-adv-x="1127" d="M223 692l18 160h717l-18 -160h-717z" />
<glyph unicode="&#x2011;" horiz-adv-x="1127" d="M223 692l18 160h717l-18 -160h-717z" />
<glyph unicode="&#x2012;" horiz-adv-x="1127" d="M223 692l18 160h717l-18 -160h-717z" />
<glyph unicode="&#x2013;" horiz-adv-x="1519" d="M223 693l30 159h1097l-30 -159h-1097z" />
<glyph unicode="&#x2014;" horiz-adv-x="2012" d="M223 693l29 159h1591l-30 -159h-1590z" />
<glyph unicode="&#x2018;" horiz-adv-x="683" d="M216 1213q0 68 16.5 127t45 109t66.5 92t81.5 76t90 60t91.5 45l42 -71l-2 -22q-39 -13 -77 -46.5t-68 -78.5t-48 -98.5t-18 -105.5q0 -32 8.5 -62t23 -53t34.5 -38t44 -18l-5 -41l-147 -152q-50 13 -84 43t-55 68.5t-30 81.5t-9 84z" />
<glyph unicode="&#x2019;" horiz-adv-x="683" d="M212 1006l2 22q39 13 77 46.5t68 78.5t48 98.5t18 105.5q0 32 -8.5 62t-23 53t-34.5 38t-44 18l5 41l147 152q50 -13 84 -43t55 -68.5t30 -81.5t9 -84q0 -68 -16.5 -127t-45 -109t-66.5 -92t-81.5 -76t-90 -60t-91.5 -45z" />
<glyph unicode="&#x201a;" horiz-adv-x="682" d="M29 -433l2 22q39 13 77 46.5t68 78.5t48 98.5t18 105.5q0 32 -8.5 62t-23 53t-34.5 38t-44 18l5 41l147 152q50 -13 84 -43t55 -68.5t30 -81.5t9 -84q0 -68 -16.5 -127t-45 -109t-66.5 -92t-81.5 -76t-90 -60t-91.5 -45z" />
<glyph unicode="&#x201c;" horiz-adv-x="1162" d="M216 1213q0 68 16.5 127t45 109t66.5 92t81.5 76t90 60t91.5 45l42 -71l-2 -22q-39 -13 -77 -46.5t-68 -78.5t-48 -98.5t-18 -105.5q0 -32 8.5 -62t23 -53t34.5 -38t44 -18l-5 -41l-147 -152q-50 13 -84 43t-55 68.5t-30 81.5t-9 84zM695 1213q0 68 16.5 127t45 109 t66.5 92t81.5 76t90 60t91.5 45l42 -71l-2 -22q-39 -13 -77 -46.5t-68 -78.5t-48 -98.5t-18 -105.5q0 -32 8.5 -62t23 -53t34.5 -38t44 -18l-5 -41l-147 -152q-50 13 -84 43t-55 68.5t-30 81.5t-9 84z" />
<glyph unicode="&#x201d;" horiz-adv-x="1162" d="M213 1006l2 22q39 13 77 46.5t68 78.5t48 98.5t18 105.5q0 32 -8.5 62t-23 53t-34.5 38t-44 18l5 41l147 152q50 -13 84 -43t55 -68.5t30 -81.5t9 -84q0 -68 -16.5 -127t-45 -109t-66.5 -92t-81.5 -76t-90 -60t-91.5 -45zM693 1006l2 22q39 13 77 46.5t68 78.5t48 98.5 t18 105.5q0 32 -8.5 62t-23 53t-34.5 38t-44 18l5 41l147 152q50 -13 84 -43t55 -68.5t30 -81.5t9 -84q0 -68 -16.5 -127t-45 -109t-66.5 -92t-81.5 -76t-90 -60t-91.5 -45z" />
<glyph unicode="&#x201e;" horiz-adv-x="1162" d="M29 -433l2 22q39 13 77 46.5t68 78.5t48 98.5t18 105.5q0 32 -8.5 62t-23 53t-34.5 38t-44 18l5 41l147 152q50 -13 84 -43t55 -68.5t30 -81.5t9 -84q0 -68 -16.5 -127t-45 -109t-66.5 -92t-81.5 -76t-90 -60t-91.5 -45zM508 -433l2 22q39 13 77 46.5t68 78.5t48 98.5 t18 105.5q0 32 -8.5 62t-23 53t-34.5 38t-44 18l5 41l147 152q50 -13 84 -43t55 -68.5t30 -81.5t9 -84q0 -68 -16.5 -127t-45 -109t-66.5 -92t-81.5 -76t-90 -60t-91.5 -45z" />
<glyph unicode="&#x2020;" horiz-adv-x="816" d="M135 1126l22 152h291l2 191l24 177h193l-31 -177l-61 -191h292l-21 -152h-270l1 -118l-178 -857h-119l91 857l34 118h-270z" />
<glyph unicode="&#x2021;" horiz-adv-x="816" d="M113 628l25 152h209l24 228l35 118h-272l24 152h290l2 191l24 177h192l-31 -177l-59 -191h291l-22 -152h-269l1 -118l-48 -228h210l-22 -152h-215q1 -29 -1 -60t-6 -60l-127 -559h-121l56 559l27 120h-217z" />
<glyph unicode="&#x2022;" horiz-adv-x="858" d="M231 701q0 52 19.5 97.5t53 79t79.5 52.5t100 19q38 0 70.5 -14.5t56.5 -39.5t37.5 -58.5t13.5 -70.5q0 -53 -19 -98.5t-52.5 -80t-80 -54t-100.5 -19.5q-38 0 -70.5 15.5t-56.5 41.5t-37.5 59.5t-13.5 70.5z" />
<glyph unicode="&#x2026;" horiz-adv-x="1578" d="M85 105q4 31 19 58.5t36.5 47.5t48.5 31.5t55 11.5q36 0 60.5 -10t39 -27.5t19.5 -40.5t2 -49q-4 -34 -19.5 -61.5t-39 -47t-52 -30t-58.5 -10.5q-27 0 -49 8.5t-37 25t-22 40t-3 53.5zM611 105q4 31 19 58.5t36.5 47.5t48.5 31.5t55 11.5q36 0 60.5 -10t39 -27.5 t19.5 -40.5t2 -49q-4 -34 -19.5 -61.5t-39 -47t-52 -30t-58.5 -10.5q-27 0 -49 8.5t-37 25t-22 40t-3 53.5zM1137 105q4 31 19 58.5t36.5 47.5t48.5 31.5t55 11.5q36 0 60.5 -10t39 -27.5t19.5 -40.5t2 -49q-4 -34 -19.5 -61.5t-39 -47t-52 -30t-58.5 -10.5q-27 0 -49 8.5 t-37 25t-22 40t-3 53.5z" />
<glyph unicode="&#x202f;" horiz-adv-x="402" />
<glyph unicode="&#x2030;" horiz-adv-x="2708" d="M198 1055q0 79 31 155.5t86.5 136.5t131 96.5t165.5 36.5q75 0 127.5 -22t86.5 -61t49.5 -93.5t15.5 -118.5q0 -82 -29 -161t-83 -141t-130.5 -100t-170.5 -38q-69 0 -121.5 23.5t-87.5 65.5t-53 98.5t-18 122.5zM372 1057q0 -47 8 -85t24.5 -66t42 -43t60.5 -15 q55 0 93.5 34t62.5 84.5t34.5 107.5t10.5 103q0 93 -29.5 147t-94.5 54q-56 0 -96 -32.5t-66 -81t-38 -104.5t-12 -103zM394 0l947 1530h161l-947 -1530h-161zM1035 374q0 53 14 105t40 99.5t63 88t83 70t100 46.5t114 17q75 0 127.5 -22t86.5 -61.5t49.5 -94t15.5 -118.5 q0 -82 -29 -161t-83 -141t-130.5 -100t-171.5 -38q-69 0 -121 23.5t-87 65.5t-53 98.5t-18 122.5zM1209 376q0 -47 8 -85t24.5 -66t41.5 -43t60 -15q55 0 93.5 34t62.5 84.5t35 107.5t11 103q0 93 -29.5 147t-94.5 54q-56 0 -96.5 -32.5t-66 -81t-37.5 -104.5t-12 -103z M1824 374q0 79 31 155.5t86 136.5t130.5 97t165.5 37q75 0 127.5 -22t86.5 -61.5t49.5 -94t15.5 -118.5q0 -82 -29 -161t-83 -141t-130.5 -100t-170.5 -38q-69 0 -121 23.5t-87.5 65.5t-53 98.5t-17.5 122.5zM1997 376q0 -47 8 -85t24.5 -66t42 -43t60.5 -15q55 0 93.5 34 t62.5 84.5t35 107.5t11 103q0 93 -30 147t-95 54q-56 0 -96 -32.5t-66 -81t-38 -104.5t-12 -103z" />
<glyph unicode="&#x2039;" horiz-adv-x="1190" d="M241 530l22 160l693 396l39 -117l-508 -354l413 -350l-72 -113z" />
<glyph unicode="&#x203a;" horiz-adv-x="1190" d="M126 269l508 354l-413 350l72 113l587 -378l-22 -160l-693 -396z" />
<glyph unicode="&#x2044;" horiz-adv-x="1026" d="M93 0l681 1530h160l-681 -1530h-160z" />
<glyph unicode="&#x205f;" horiz-adv-x="503" />
<glyph unicode="&#x20ac;" horiz-adv-x="1388" d="M26 563l15 132h182q4 104 24 199h-158l19 131h175q42 120 109.5 215.5t152 161.5t183 101t203.5 35q58 0 104.5 -5t84 -13t68 -17.5t57.5 -18.5q18 -5 39.5 -11t34.5 -9l-54 -223h-109l-28 107q-13 14 -33 27t-50 22.5t-71 15.5t-96 6q-74 0 -136.5 -27t-112.5 -77.5 t-88 -123.5t-63 -166h567l-20 -131h-575q-8 -47 -12.5 -96.5t-6.5 -102.5h547l-13 -132h-535q3 -106 22 -191t55 -145t90 -92t128 -32q40 0 82 6t80.5 18.5t69.5 32t50 46.5l68 137l121 -1l-46 -272q-29 -2 -61 -9t-69 -17q-29 -9 -64 -19.5t-76 -19.5t-87.5 -15t-98.5 -6 q-78 0 -141.5 22.5t-113.5 62.5t-87.5 95t-63.5 119t-41.5 135.5t-20.5 144.5h-200z" />
<glyph unicode="&#x2122;" horiz-adv-x="2124" d="M133 1293l52 237h688l-32 -235l-64 -5l-8 134l-166 12l-82 -590l130 -16l-11 -78h-428l11 78l126 15l83 589l-173 -11l-60 -129zM854 752l11 78l107 15l112 591l-99 9l12 85h339l97 -428l30 -132l256 560h328l-12 -85l-97 -9l-21 -590l96 -16l-11 -78h-349l11 78l96 16 l20 370l19 223l-31 -70l-298 -625h-108l-138 548l-35 150l-26 -157l-80 -440l93 -15l-11 -78h-311z" />
<glyph unicode="&#x2202;" horiz-adv-x="1364" d="M183 420q4 90 30 170t69 147t100 120t121.5 89.5t133.5 56t138 19.5q39 0 76 -7t70 -19t62 -28t52 -33q1 80 -6.5 157.5t-26.5 146.5t-52 127.5t-83 101t-118.5 66.5t-159.5 24q-49 0 -106 -15t-129 -61l-81 69q42 34 90.5 59t99.5 41t102.5 23.5t98.5 7.5q109 0 192 -33 t144.5 -88.5t103 -128t66.5 -151.5t36 -159.5t11 -151.5q0 -106 -11 -220.5t-39 -225t-74.5 -210t-117.5 -174.5t-169 -119.5t-228 -44.5q-92 0 -166.5 39t-126.5 102t-78.5 142.5t-23.5 160.5zM372 477q-3 -60 11 -126t46 -121t83.5 -91t123.5 -36q66 0 117 22.5t90 61 t67 91t47.5 112.5t32 125t21.5 129q3 22 6 45t5 46q-23 31 -54 59.5t-70.5 50.5t-89.5 34.5t-110 12.5q-42 0 -96.5 -24t-104 -74.5t-85 -129t-40.5 -187.5z" />
<glyph unicode="&#x2206;" horiz-adv-x="1407" d="M-34 22l764 1487h34l569 -1482l-17 -27h-1338zM158 124h912l-388 1059z" />
<glyph unicode="&#x220f;" horiz-adv-x="1554" d="M154 -87l169 31v1457l-166 22v99h1350v-99l-166 -22v-1457l169 -31v-85h-542v85l173 31v1458h-618v-1458l171 -31v-85h-540v85z" />
<glyph unicode="&#x2211;" horiz-adv-x="1591" d="M226 -115l545 789l-544 764l29 84h1069l28 -288h-125l-61 164l-707 18l528 -721l-529 -755l706 20l104 207l111 -25l-49 -314l-1080 1z" />
<glyph unicode="&#x221a;" horiz-adv-x="1587" d="M81 578l191 133h177l233 -880l776 2086h207l-920 -2271h-191l-277 895q-34 -17 -70.5 -37t-66.5 -36z" />
<glyph unicode="&#x221e;" horiz-adv-x="1900" d="M173 597q0 85 31 158.5t85 127.5t128.5 85t161.5 31q65 0 120 -22.5t102 -59t88.5 -82.5t80.5 -94q33 49 76 95.5t93.5 82t107 57.5t115.5 23q97 1 167 -29t115 -81t66.5 -116.5t21.5 -134.5q0 -86 -28 -159.5t-80.5 -127.5t-127.5 -85t-169 -31q-65 0 -120 22.5 t-102 58.5t-88.5 82t-80.5 94q-31 -50 -71 -96t-87.5 -81.5t-101.5 -57t-113 -22.5q-97 -1 -170 29.5t-122 81.5t-73.5 116.5t-24.5 134.5zM353 634q0 -53 17 -102.5t47.5 -88.5t73.5 -62.5t96 -23.5q41 0 79 19t73 50t67 70.5t62 81.5q-32 44 -66 95.5t-73 96t-84 74 t-98 29.5q-50 0 -86.5 -20.5t-60.5 -54t-35.5 -76.5t-11.5 -88zM1039 654q32 -45 69.5 -98t80 -98.5t90 -76t100.5 -30.5q50 0 83.5 21t53.5 56t28.5 80t8.5 93q0 51 -14 99t-41 85.5t-67 60t-93 22.5q-41 0 -81.5 -18.5t-78.5 -48.5t-73 -68.5t-66 -78.5z" />
<glyph unicode="&#x222b;" horiz-adv-x="1073" d="M42 -369l128 93q7 -18 23 -39t39 -38.5t51 -29t60 -11.5q66 0 107 19.5t64.5 60t31.5 103t8 149.5q0 102 -17 205.5t-42.5 208t-55 209.5t-55 209.5t-42.5 208t-17 205.5q0 105 29 198.5t83 164t131 112t174 41.5q25 0 63 -5t77.5 -20.5t75 -44.5t56.5 -77l-130 -93 q-2 16 -16 36.5t-37 39t-53 31t-65 12.5q-66 0 -107.5 -19.5t-64.5 -60t-31 -103.5t-8 -149q0 -102 17 -205.5t42.5 -208t55 -210t55 -210t42.5 -208t17 -205.5q0 -105 -29 -199t-83.5 -164.5t-132 -111.5t-173.5 -41q-26 0 -64 5t-77 20.5t-74 44.5t-56 77z" />
<glyph unicode="&#x2248;" horiz-adv-x="1026" d="M44 415q12 36 41 73.5t70.5 67.5t92.5 49.5t108 19.5q39 0 71.5 -12.5t61 -31.5t54.5 -41.5t51 -41.5t51 -31.5t54 -12.5q67 0 117 32t85 85l72 -75q-11 -41 -40 -79t-70.5 -67t-93 -47t-108.5 -18q-39 0 -71.5 12.5t-61 31.5t-54 41.5t-51 41.5t-51.5 31.5t-55 12.5 q-66 0 -116 -31.5t-85 -84.5zM94 860q12 36 41 73.5t70.5 67.5t92.5 49.5t108 19.5q39 0 71.5 -12.5t61 -31.5t54.5 -41.5t51 -41.5t51 -31.5t54 -12.5q67 0 117 32t85 85l72 -75q-11 -41 -40 -79t-70.5 -67t-93 -47t-108.5 -18q-39 0 -71.5 12.5t-61 31.5t-54 41.5 t-51 41.5t-51.5 31.5t-55 12.5q-66 0 -116 -31.5t-85 -84.5z" />
<glyph unicode="&#x2260;" horiz-adv-x="1026" d="M80 338l18 158h267l162 352h-377l18 158h431l147 318h161l-147 -318h223l-18 -158h-277l-162 -352h387l-18 -158h-442l-155 -338h-161l155 338h-212z" />
<glyph unicode="&#x2264;" horiz-adv-x="1364" d="M140 -2l18 151h948l-18 -151h-948zM198 689l9 78l998 437l-21 -185l-726 -293l657 -296l-21 -184z" />
<glyph unicode="&#x2265;" horiz-adv-x="1364" d="M141 -2l20 151h948l-20 -151h-948zM197 246l24 184l731 296l-654 293l25 185l889 -437l-10 -78z" />
<glyph unicode="&#x25ca;" horiz-adv-x="1364" d="M162 691v54l426 691h187l426 -691v-54l-426 -691h-187zM351 718l330 -564l330 564l-330 564z" />
<glyph unicode="&#x25fc;" horiz-adv-x="1165" d="M0 0v1165h1165v-1165h-1165z" />
<glyph unicode="&#xfb01;" horiz-adv-x="1347" d="M-209 -500l53 169q5 -2 24.5 -8.5t44.5 -13t51 -11.5t45 -5q24 0 43.5 18.5t34 51t24.5 76.5t17 95l138 1139h-138l15 76l149 62l12 71q15 93 55 174.5t96.5 143t123.5 97t136 35.5q38 0 75.5 -4.5t73.5 -21.5l-59 -168q-9 7 -21.5 15.5t-28.5 16t-37 12t-46 4.5 q-36 0 -64 -20.5t-48.5 -57t-34.5 -88t-21 -113.5l-12 -90h233l-17 -144h-234l-133 -1064q-13 -102 -47 -186t-84.5 -145t-115 -94.5t-138.5 -34.5q-52 -1 -97 3t-68 10zM844 1031l18 81l306 51l49 -24l-139 -950q-11 -76 23 -76q16 0 40 13t66 53l32 -54q-7 -11 -29.5 -35 t-55.5 -48.5t-74.5 -43t-87.5 -18.5q-63 0 -97 30t-29 103q4 60 16.5 149t29.5 200.5t37.5 242t40.5 274.5zM1020 1503q0 30 13 57t34 48t47 33t52 12q28 0 51 -9t39.5 -24t25 -35.5t8.5 -43.5q0 -30 -12.5 -58t-33.5 -49.5t-48.5 -34.5t-58.5 -13q-24 0 -45.5 9.5t-37 25 t-25 37t-9.5 45.5z" />
<glyph unicode="&#xfb02;" horiz-adv-x="1312" d="M-209 -500l53 169q5 -2 24.5 -8.5t44.5 -13t51 -11.5t45 -5q24 0 43.5 18.5t34 51t24.5 76.5t17 95l138 1139h-138l15 76l149 62l12 71q15 93 55 174.5t96.5 143t123.5 97t136 35.5q38 0 75.5 -4.5t73.5 -21.5l-59 -168q-9 7 -21.5 15.5t-28.5 16t-37 12t-46 4.5 q-36 0 -64 -20.5t-48.5 -57t-34.5 -88t-21 -113.5l-12 -90h233l-17 -144h-234l-133 -1064q-13 -102 -47 -186t-84.5 -145t-115 -94.5t-138.5 -34.5q-52 -1 -97 3t-68 10zM845 115q0 14 1.5 36t4.5 41l183 1290l-123 43l21 83l268 42l48 -27l-201 -1434q-5 -36 1 -56t20 -20 q7 0 16.5 2.5t22.5 9t29.5 19.5t38.5 34l31 -53q-6 -11 -28 -35t-54 -48.5t-73.5 -43t-86.5 -18.5q-61 0 -90 31t-29 104z" />
</font>
</defs>
</svg>
