<?xml version="1.0" standalone="no"?>
<!DOCTYPE svg PUBLIC "-//W3C//DTD SVG 1.1//EN" "http://www.w3.org/Graphics/SVG/1.1/DTD/svg11.dtd" >
<svg xmlns="http://www.w3.org/2000/svg">
<metadata></metadata>
<defs>
<font id="merriweather_lightregular" horiz-adv-x="0" >
<font-face units-per-em="2048" ascent="1638" descent="-410" />
<missing-glyph horiz-adv-x="670" />
<glyph />
<glyph unicode="&#xd;" />
<glyph unicode="&#x9;" />
<glyph unicode="&#xa;" />
<glyph />
<glyph />
<glyph />
<glyph />
<glyph />
<glyph />
<glyph />
<glyph unicode=" "  horiz-adv-x="670" />
<glyph unicode="&#x09;" horiz-adv-x="670" />
<glyph unicode="&#xa0;" horiz-adv-x="670" />
<glyph unicode="!" horiz-adv-x="728" d="M244 82q0 25 11 47.5t29 39t40.5 26t45.5 9.5q56 0 81 -31.5t25 -73.5q0 -27 -10.5 -49.5t-28 -38.5t-40 -24.5t-46.5 -8.5q-21 0 -40.5 7t-34 20.5t-23.5 33t-9 43.5zM266 1780h169l-36 -1324h-92z" />
<glyph unicode="&#x22;" horiz-adv-x="1263" d="M295 1684h163l-34 -718h-96zM806 1684h163l-34 -718h-96z" />
<glyph unicode="#" horiz-adv-x="1523" d="M176 365v93h239l43 474h-248v93h257l30 348h122l-30 -348h389l31 348h122l-31 -348h247v-93h-256l-41 -474h253v-93h-264l-32 -365h-122l31 365h-391l-33 -365h-124l35 365h-227zM536 458h387l46 474h-388z" />
<glyph unicode="$" horiz-adv-x="1370" d="M211 69l14 343h91l38 -258q48 -37 129.5 -60t188.5 -23q165 0 253.5 70t88.5 213q0 69 -34 120.5t-90 94t-127 79.5t-146 76q-89 47 -159 92.5t-119.5 98.5t-75.5 118.5t-26 152.5q0 79 32 140.5t86.5 105t126.5 69.5t152 34v227h120v-226q61 -3 112 -12t92 -20.5 t71.5 -23t50.5 -19.5l-10 -325h-87l-45 247q-35 26 -94.5 45t-151.5 19q-63 0 -120.5 -13.5t-101 -42.5t-69.5 -76.5t-26 -115.5q0 -70 28.5 -120.5t74.5 -90t105 -71.5t119 -65q103 -59 187 -106.5t144 -100t92.5 -116t32.5 -153.5q0 -84 -30 -154t-87 -121.5t-138 -83 t-183 -38.5l-2 -237h-120l2 237q-65 4 -126.5 15t-113 24.5t-90.5 27.5t-59 23z" />
<glyph unicode="%" horiz-adv-x="2084" d="M120 1073q0 102 31.5 181t85 133t123 82t145.5 28q91 0 157.5 -32t109.5 -88t64 -131t21 -161q0 -102 -32.5 -180t-86.5 -131.5t-123.5 -81t-143.5 -27.5q-81 0 -146 32.5t-110.5 88.5t-70 130t-24.5 157zM259 1081q0 -68 15 -127.5t44 -103t70 -68.5t94 -25 q52 0 95 21.5t74.5 62.5t49 100.5t17.5 136.5q0 73 -14.5 133t-42.5 103t-69.5 67t-96.5 24q-53 0 -96 -22t-74.5 -63.5t-48.5 -102t-17 -136.5zM654 0l656 1538h122l-656 -1538h-122zM1227 459q0 102 31.5 181t85 133t123 82t145.5 28q91 0 157.5 -32t109.5 -88t64 -131 t21 -161q0 -102 -32.5 -180t-86.5 -131.5t-123.5 -81t-143.5 -27.5q-81 0 -146 32.5t-110.5 88.5t-70 130t-24.5 157zM1366 467q0 -68 15 -127.5t44 -103t70 -68.5t94 -25q52 0 95 21.5t74.5 62.5t49 100.5t17.5 136.5q0 73 -14.5 133t-42.5 103t-69.5 66.5t-96.5 23.5 q-53 0 -96 -22t-74.5 -63t-48.5 -101.5t-17 -136.5z" />
<glyph unicode="&#x26;" horiz-adv-x="1537" d="M143 371q0 70 29.5 127t75 104.5t101 86t108.5 71.5q-36 45 -69 97.5t-58.5 109t-40.5 115t-15 115.5q0 68 28.5 130t79.5 109t120.5 75t151.5 28q87 0 152 -25.5t107.5 -65t63.5 -89t21 -97.5q0 -65 -15 -117.5t-40.5 -96t-60.5 -80t-75 -70t-83 -65.5t-86 -66 q36 -44 86 -101.5t103.5 -116t104.5 -112.5t89 -92l64 -62q37 45 61 100.5t37 113t16 113.5t-3 103l-165 19v91h467v-91l-181 -19q2 -73 -8.5 -144t-31.5 -135.5t-52.5 -120t-71.5 -97.5q35 -33 66.5 -59t63.5 -44.5t67 -28.5t78 -12v-66q-9 -5 -24 -8.5t-32 -5.5t-33 -3 t-27 -1q-35 0 -65.5 9t-61.5 26t-63.5 43t-69.5 59q-45 -41 -96.5 -68t-103 -43.5t-100 -23t-87.5 -6.5q-117 0 -213 25.5t-164.5 74.5t-106.5 121.5t-38 165.5zM289 384q0 -63 24 -118.5t71.5 -97t119 -65.5t166.5 -24q39 0 80.5 7t82.5 20.5t79 34t70 47.5 q-51 48 -114 113.5t-127 135.5t-124.5 138t-106.5 122q-41 -30 -81 -63.5t-71 -72t-50 -82.5t-19 -95zM416 1206q0 -64 16.5 -119t41 -101.5t54 -85t56.5 -69.5q70 54 123 98.5t88 91t52.5 101t17.5 129.5q0 31 -9 67.5t-33 68.5t-66 53.5t-108 21.5q-49 0 -91.5 -20.5 t-74 -55.5t-49.5 -81.5t-18 -98.5z" />
<glyph unicode="'" horiz-adv-x="752" d="M295 1684h163l-34 -718h-96z" />
<glyph unicode="(" horiz-adv-x="862" d="M153 684q0 145 29 272t74.5 234t101.5 193t110.5 149t101 103t73.5 55l68 -41q-21 -14 -59.5 -50t-83 -93.5t-91 -136t-85 -177.5t-64 -218t-28.5 -257q-3 -157 20.5 -290.5t62.5 -243t87.5 -196t96 -150t88.5 -103t65 -56.5l-77 -48q-23 14 -68.5 50.5t-100 97.5 t-111.5 147.5t-103.5 199t-76.5 252t-30 307.5z" />
<glyph unicode=")" horiz-adv-x="862" d="M142 1642l77 48q23 -14 68.5 -50.5t100 -97.5t111.5 -147.5t103.5 -199t76.5 -252t30 -307.5q0 -145 -29 -272t-74.5 -234t-101.5 -193t-110.5 -149t-101 -103t-73.5 -55l-68 41q21 14 59.5 50t83 93.5t91 136t85 177.5t64 218t28.5 257q3 157 -20.5 290.5t-62.5 243 t-87.5 196t-96 150t-88.5 103t-65 56.5z" />
<glyph unicode="*" horiz-adv-x="1294" d="M172 1342l71 126l250 -170l135 -112l-34 172l-25 302h146l-20 -301l-31 -172l131 115l251 172l72 -124l-269 -135l-166 -60l166 -56l273 -129l-74 -129l-247 170l-137 112l34 -173l27 -302l-147 -1l19 303l30 174l-130 -117l-250 -172l-73 125l271 136l165 59l-165 56z " />
<glyph unicode="+" horiz-adv-x="1353" d="M220 552v119h225l177 -10l-5 185v228h119v-228l-7 -185l153 10h251v-119h-251l-153 5l7 -182v-240h-119v240l5 182l-177 -5h-225z" />
<glyph unicode="," horiz-adv-x="685" d="M224 -383q17 15 39 39.5t41.5 60.5t33 84.5t13.5 111.5q0 40 -7 68.5t-17 49.5t-22 37t-22 33.5t-17 38t-7 50.5q0 44 26.5 66t62.5 22h8q57 0 89 -64.5t32 -182.5q0 -90 -18 -165.5t-47 -134.5t-65.5 -100.5t-73.5 -62.5h-2l-47 32v17z" />
<glyph unicode="-" horiz-adv-x="1345" d="M230 560v112h885v-112h-885z" />
<glyph unicode="." horiz-adv-x="706" d="M242 85q0 26 10 48.5t27 39.5t38 27t44 10q27 0 46 -9t31 -23.5t17.5 -34t5.5 -40.5q0 -28 -10 -51t-26.5 -39.5t-38 -25.5t-44.5 -9q-42 0 -71 29t-29 78z" />
<glyph unicode="/" horiz-adv-x="882" d="M85 -363l573 1962h139l-573 -1962h-139z" />
<glyph unicode="0" horiz-adv-x="1300" d="M136 659q2 142 45 258.5t115 199.5t167.5 129t202.5 46q98 0 173 -24t130.5 -67t93 -103.5t60.5 -132.5t32.5 -154t8.5 -169q-1 -139 -40.5 -259t-109 -208.5t-165 -139.5t-208.5 -51q-95 0 -170 26.5t-131.5 73.5t-95.5 111.5t-63.5 139.5t-35 157.5t-9.5 166.5z M293 665q0 -73 8 -145t25.5 -138.5t45 -123.5t67 -98.5t91.5 -65.5t118 -24q95 0 163 41.5t111.5 116.5t64 179t20.5 228q0 115 -17 219t-57.5 182t-108 124t-168.5 46q-94 0 -162.5 -39.5t-113 -110.5t-66 -171t-21.5 -220z" />
<glyph unicode="1" horiz-adv-x="875" d="M81 1110q52 12 104 31t101 44t93.5 53.5t81.5 59.5h1l87 -19v-1183l248 -14v-82h-662v82l270 14v1017q-20 -10 -56.5 -23.5t-79.5 -26.5t-87.5 -23.5t-80.5 -15.5z" />
<glyph unicode="2" horiz-adv-x="1216" d="M109 63q96 52 188 116.5t174 136t151 148t119.5 153.5t78.5 152t28 144q0 59 -18 109.5t-54 87t-90 57.5t-126 21q-71 0 -130.5 -18t-107.5 -44.5t-85 -57.5t-62 -57l-54 73q31 34 78 71.5t107 69.5t132.5 53t154.5 21q110 0 189.5 -32t131 -84.5t76 -120t24.5 -137.5 q0 -75 -27 -152t-75.5 -153t-114.5 -150t-144 -142.5t-165 -130.5t-177 -114l686 40l64 188l82 -18l-48 -293h-963z" />
<glyph unicode="3" horiz-adv-x="1136" d="M133 1136q23 22 65 50.5t97 54t121 42.5t137 17q82 0 154 -18t126 -58t85.5 -102.5t31.5 -150.5q0 -75 -34.5 -144t-89.5 -126.5t-124 -100.5t-138 -67q107 10 192 -14t144.5 -71t91 -112t32.5 -138q1 -116 -50.5 -213t-146.5 -167.5t-229 -110t-297 -39.5q-35 0 -80 4 t-83 12v85q15 -4 34 -7t38 -4.5t37 -2t31 -0.5q141 0 249 34.5t181.5 92t111.5 132.5t38 156q0 72 -22.5 130t-70 98.5t-120 62.5t-172.5 22q-7 -3 -27 -8.5t-42.5 -11.5t-42 -11t-26.5 -6l-26 91q41 6 81.5 17.5t79.5 27.5q65 27 123 65t101.5 84.5t69 100t25.5 111.5 q1 69 -21 117t-59.5 77t-87.5 42t-105 13q-49 0 -97.5 -10t-92.5 -27t-82.5 -39t-68.5 -47z" />
<glyph unicode="4" horiz-adv-x="1293" d="M93 73q49 92 103.5 200t111 223.5t114 235t112 235t104 222.5t90.5 199h46l101 -54l-578 -1136l-76 -116l600 27v422l128 11v-427l306 14v-129h-306v-376h-128v376h-690z" />
<glyph unicode="5" horiz-adv-x="1190" d="M198 550l102 728h549l20 39h110l-29 -162h-539l-99 -543q21 14 55.5 28t77.5 24.5t90.5 17t95.5 6.5q90 0 166 -26t130.5 -80t85 -137t30.5 -197q0 -71 -21.5 -143.5t-63.5 -139t-102.5 -124t-138 -100t-172 -67t-202.5 -24.5q-34 0 -71 3t-72 11l1 69q29 -4 62 -5.5 t61 -1.5q116 0 217.5 38t176.5 105.5t118.5 159t43.5 198.5q0 100 -23.5 169.5t-66.5 113t-104 63.5t-135 20q-35 0 -76 -6t-83 -16.5t-81 -24t-70 -28.5z" />
<glyph unicode="6" horiz-adv-x="1350" d="M171 592q0 134 33.5 256t92 228.5t138.5 196t172 158t193 114t202 65.5l37 -70q-134 -41 -246 -112t-199 -163.5t-146.5 -201.5t-87.5 -226q23 31 59.5 62t84.5 55.5t107.5 39.5t130.5 15q112 0 196 -33.5t139 -95.5t82.5 -150t27.5 -197q0 -108 -33.5 -208t-98 -177 t-158.5 -123t-215 -46q-125 0 -220.5 49.5t-160 133.5t-97.5 195t-33 235zM336 658q-2 -73 4 -145t21.5 -138t42.5 -123t67.5 -99t95 -66t126.5 -24q87 0 150.5 39.5t105 101.5t61 139t19.5 152q0 114 -24 193t-66.5 127.5t-101 70.5t-128.5 22q-74 0 -136.5 -20.5 t-110 -50.5t-79.5 -65t-44 -63q-3 -26 -3 -51z" />
<glyph unicode="7" horiz-adv-x="1195" d="M112 911l39 367h897l32 -40l-569 -1584l-160 44q74 166 148.5 347t149 368t148.5 376t147 371l-677 -5l-68 -263z" />
<glyph unicode="8" horiz-adv-x="1278" d="M147 385q0 60 20 118.5t60.5 112.5t102.5 102t147 87q-54 32 -102 69.5t-84 84t-57 103.5t-21 128q0 93 38 164t100 118.5t141.5 72t162.5 24.5q90 0 167 -23.5t134 -67t89.5 -106.5t32.5 -141q0 -63 -20.5 -123t-58.5 -114t-91.5 -101.5t-118.5 -85.5q68 -36 131.5 -76 t112 -88.5t77.5 -107.5t29 -134q0 -96 -43.5 -173t-114 -131.5t-160 -83.5t-181.5 -29q-86 0 -173.5 22t-158.5 70t-116 124.5t-45 184.5zM290 418q0 -83 27 -147.5t75 -109.5t115.5 -68.5t148.5 -23.5q61 0 121 21.5t108 61t77.5 94.5t29.5 123q0 50 -17.5 91t-48.5 75.5 t-72.5 64t-90 56t-101 52t-104.5 52.5q-56 -25 -105 -60.5t-85 -79.5t-57 -95t-21 -107zM340 1223q0 -66 30.5 -118.5t81 -96.5t115.5 -81.5t135 -73.5q53 25 98 60.5t78 78t52 92t19 103.5q0 72 -22.5 128t-62.5 94.5t-95.5 59t-121.5 20.5q-62 0 -118 -18t-98 -52.5 t-66.5 -84t-24.5 -111.5z" />
<glyph unicode="9" horiz-adv-x="1350" d="M177 764q0 105 35 201.5t101 171t161 118.5t216 44q131 0 226.5 -47.5t158 -128t93 -187.5t30.5 -227q0 -140 -30.5 -267.5t-85 -238t-128.5 -202.5t-162 -163t-186 -118.5t-199 -67.5l-38 73q133 43 240.5 116t188.5 168t134.5 208t78.5 235q-24 -34 -61 -66.5 t-84 -58.5t-102 -42t-115 -16q-113 0 -200.5 35t-148 100t-92 156t-31.5 204zM335 796q0 -118 24.5 -200t68 -133t103.5 -74t130 -23q73 0 135.5 22.5t110 55.5t79.5 71.5t44 70.5l3 57q2 70 -3 139.5t-20 132.5t-41 118t-66 95t-95.5 63t-128.5 23q-87 0 -152 -38 t-107.5 -98t-63.5 -134.5t-21 -147.5z" />
<glyph unicode=":" horiz-adv-x="706" d="M242 85q0 26 10 48.5t27 39.5t38 27t44 10q27 0 46 -9t31 -23.5t17.5 -34t5.5 -40.5q0 -28 -10 -51t-26.5 -39.5t-38 -25.5t-44.5 -9q-42 0 -71 29t-29 78zM242 938q0 26 10 48.5t27 39.5t38 27t44 10q27 0 46 -9t31 -23.5t17.5 -34t5.5 -40.5q0 -28 -10 -51t-26.5 -39.5 t-38 -25.5t-44.5 -9q-42 0 -71 29t-29 78z" />
<glyph unicode=";" horiz-adv-x="706" d="M224 -383q17 15 39 39.5t41.5 60.5t33 84.5t13.5 111.5q0 40 -7 68.5t-17 49.5t-22 37t-22 33.5t-17 38t-7 50.5q0 44 26.5 66t62.5 22h8q57 0 89 -64.5t32 -182.5q0 -90 -18 -165.5t-47 -134.5t-65.5 -100.5t-73.5 -62.5h-2l-47 32v17zM245 938q0 26 10 48.5t27 39.5 t38 27t44 10q27 0 46 -9t31 -23.5t17.5 -34t5.5 -40.5q0 -28 -10 -51t-26.5 -39.5t-38 -25.5t-44.5 -9q-42 0 -71 29t-29 78z" />
<glyph unicode="&#x3c;" horiz-adv-x="1370" d="M168 565v102l968 511v-139l-840 -423l840 -421v-140z" />
<glyph unicode="=" horiz-adv-x="1337" d="M210 272v112h917v-112h-917zM210 847v112h917v-112h-917z" />
<glyph unicode="&#x3e;" horiz-adv-x="1370" d="M234 55l968 510v102l-968 511v-139l840 -423l-840 -421v-140z" />
<glyph unicode="?" horiz-adv-x="968" d="M112 1803q7 6 29.5 12.5t52.5 11.5t63 8t60 3q158 0 266 -45.5t174 -119t95 -165t29 -184.5q0 -76 -30 -135t-77 -106.5t-103.5 -86t-109.5 -74t-95 -69.5t-59 -73q-1 -11 0 -25t3 -27q2 -36 5.5 -65t8 -55.5t10.5 -51t13 -50.5l-102 -28q-17 19 -33 56t-29 79t-21.5 83 t-9.5 68q0 42 20 76.5t52.5 64t75.5 55t88.5 49.5t90.5 48t83.5 51t66 58t37.5 69q0 8 0.5 16.5t0.5 17.5q0 53 -14 107.5t-41 105t-67.5 95t-93.5 77.5t-119.5 52t-144.5 19q-20 0 -42 -1.5t-42.5 -3.5t-38 -5t-28.5 -6zM349 71q-2 24 6 45t22 37.5t33.5 26.5t39.5 12 q49 4 76 -20t32 -62q3 -26 -5 -47t-22 -37t-33.5 -25.5t-40.5 -11.5q-18 -2 -36.5 2.5t-33.5 15t-25.5 27t-12.5 37.5z" />
<glyph unicode="@" horiz-adv-x="2200" d="M212 375q0 177 39.5 332t110 284.5t168 231t214.5 171.5t248.5 107t269.5 37q153 0 282.5 -46t224 -139t148 -233t53.5 -329q0 -137 -30 -251t-78.5 -205t-109.5 -158.5t-123.5 -112.5t-120.5 -67.5t-100 -22.5q-53 0 -90.5 46.5t-42.5 132.5q-4 52 3 125t26 177 q-33 -89 -77.5 -175t-96.5 -154t-108.5 -110t-114.5 -42q-50 0 -99 27.5t-88 80t-63 127.5t-24 170q0 68 15.5 143.5t46 149t74.5 140t101 117t126 80.5t149 30q28 0 60 -4t64 -12t63.5 -19t57.5 -26q3 9 7 18.5t8.5 17.5t10 12.5t13.5 2.5q23 -8 43.5 -15.5t46.5 -15.5 q-7 -31 -16 -78.5t-19.5 -105.5t-21.5 -123t-20.5 -129.5t-17 -126.5t-11.5 -113q-9 -107 5.5 -169t42.5 -62q36 0 80.5 20.5t89.5 59.5t87 96.5t74.5 131.5t52.5 163.5t20 193.5q0 181 -53.5 308.5t-143.5 208.5t-208 118.5t-247 37.5q-115 0 -224.5 -32t-207.5 -93 t-180 -150t-141.5 -203.5t-92.5 -253t-33 -298.5q0 -196 49 -344.5t136 -248t208 -149.5t265 -50q56 0 117.5 8t119.5 22.5t106.5 33.5t79.5 41l30 -64q-38 -31 -90 -58t-114 -46.5t-132 -30.5t-143 -11q-181 0 -321.5 61t-236.5 174.5t-146 275t-50 362.5zM777 413 q0 -53 8.5 -107.5t27.5 -99t49 -72.5t73 -28q39 0 86 40.5t94.5 109.5t92.5 160.5t81 194.5q21 63 38.5 125t27.5 122q-16 15 -45.5 28t-64.5 22.5t-71 15t-65 5.5q-75 0 -136.5 -46.5t-105 -120.5t-67 -166t-23.5 -183z" />
<glyph unicode="A" horiz-adv-x="1401" d="M-26 0v82l133 14l519 1442h146l510 -1442l135 -14v-82h-483v82l188 14l-114 338h-653l-116 -338l185 -14v-82h-450zM389 533h585l-232 688l-61 206l-60 -215z" />
<glyph unicode="B" horiz-adv-x="1370" d="M106 0v82l177 14v1324l-173 21v81h248q91 0 168 8t152 8q137 0 232.5 -23.5t155 -68t86.5 -108.5t27 -144q0 -68 -19 -131t-57 -114t-94.5 -87.5t-131.5 -51.5q14 1 27 1q82 1 148 -21q76 -24 129 -72t80 -115.5t27 -148.5q0 -90 -30 -174t-101 -149t-189.5 -104 t-296.5 -39q-37 0 -70 2t-69.5 4t-80.5 4t-102 2h-243zM430 95q22 -5 53 -8t64.5 -5t66.5 -3t60 -1q125 0 211.5 24.5t140.5 69.5t78 109t24 143q0 82 -22 142t-68 99t-118.5 57.5t-172.5 18.5h-73h-90t-88 -0.5t-66 -1.5v-644zM430 843q24 -2 61.5 -2.5t77 -0.5h75h56.5 q160 0 246 83.5t86 235.5q0 72 -18.5 127t-62 92t-115.5 56t-178 19q-78 0 -135.5 -7t-92.5 -8v-595z" />
<glyph unicode="C" horiz-adv-x="1327" d="M76 769q0 111 26 211t73 185.5t113 154.5t146.5 117.5t173 74.5t192.5 26q69 0 135 -8t123 -19t102 -21.5t71 -16.5l-17 -326h-92l-39 237q-29 24 -112.5 43t-210.5 19q-108 0 -200.5 -45.5t-160.5 -130.5t-107 -208t-39 -277q0 -142 30.5 -271.5t94 -228.5t162 -158 t234.5 -59q67 0 115 6t83 16t60.5 24t47.5 29l78 190l90 -12l-52 -265q-40 -2 -77 -14.5t-83.5 -27t-109.5 -26t-154 -11.5q-167 0 -296.5 57t-218.5 160.5t-135 249.5t-46 325z" />
<glyph unicode="D" horiz-adv-x="1558" d="M105 0v82l178 15v1323l-166 21v81h240q95 0 184.5 8t177.5 8q200 0 343 -53t234.5 -149.5t134 -231.5t42.5 -299q0 -188 -57.5 -341.5t-161 -261.5t-246.5 -165q-134 -53 -292 -53h-22q-74 2 -158 9t-176 7h-255zM430 92q81 -11 150 -15q46 -3 93 -3q24 0 48 1 q128 2 237 48.5t188.5 134.5t124.5 217.5t45 298.5q0 674 -645 674q-72 0 -132.5 -6t-108.5 -8v-1342z" />
<glyph unicode="E" horiz-adv-x="1326" d="M106 0v82l177 15v1323l-173 21v81h1004l29 -296h-85l-53 201l-575 7v-606l395 5l24 173h92v-448h-92l-24 176l-395 5v-644l654 17l101 257l86 -29l-65 -340h-1100z" />
<glyph unicode="F" horiz-adv-x="1262" d="M103 1441v81h1063l22 -333h-99l-52 238l-607 7v-615l430 7l32 169h83v-450h-83l-32 175l-430 8v-632l328 -14v-82h-644v82l169 13v1325z" />
<glyph unicode="G" horiz-adv-x="1507" d="M101 734q0 124 28 232t78.5 197t120.5 159t155 118t181.5 73t199.5 25q79 0 150.5 -7.5t131 -18t105 -21.5t71.5 -17l-15 -335h-91l-41 237q-12 8 -37.5 20t-66 23.5t-96.5 19.5t-130 8q-122 0 -227 -42.5t-182.5 -126t-122 -207.5t-44.5 -287q0 -91 14.5 -179.5t44 -168 t74.5 -147t105.5 -116.5t136.5 -76.5t169 -27.5q58 0 113 7.5t103.5 21t89 31t69.5 38.5v478l-300 18v102h578v-102l-130 -20v-561q-41 -2 -91 -18.5t-114.5 -36t-145.5 -35t-184 -15.5q-165 0 -295 57.5t-220 159t-137.5 240t-47.5 300.5z" />
<glyph unicode="H" horiz-adv-x="1688" d="M116 0v82l176 15v1323l-170 21v81h498v-81l-181 -21v-588h810v588l-173 21v81h491v-81l-171 -21v-1324l171 -14v-82h-494v82l176 14v635h-810v-635l183 -14v-82h-506z" />
<glyph unicode="I" horiz-adv-x="813" d="M127 0v82l205 14v1324l-205 21v81h558v-81l-204 -20v-1325l204 -14v-82h-558z" />
<glyph unicode="J" horiz-adv-x="766" d="M-3 -284q48 12 92 35t80.5 55.5t65 75t44.5 93.5q15 45 23 92.5t12.5 110.5t5.5 147.5t1 202.5v891l-207 22v81h556v-81l-201 -22v-857v-161.5t-1.5 -138.5t-6 -118.5t-13.5 -102.5q-17 -88 -58 -155.5t-97 -116.5t-121.5 -78.5t-131.5 -40.5z" />
<glyph unicode="K" horiz-adv-x="1463" d="M115 0v82l177 14v1324l-173 21v81h502v-81l-182 -21v-759l665 760l-175 20v81h463v-81l-147 -20l-488 -540q40 -35 83 -86.5t87.5 -112.5t89.5 -127.5t87.5 -130.5t81 -122.5t72 -103t59 -72t42.5 -29.5l98 -20v-77h-226q-28 0 -66 44t-83.5 114.5t-96.5 158.5t-104 175 t-106.5 164t-103.5 127l-232 -261v-426l195 -17v-79h-519z" />
<glyph unicode="L" horiz-adv-x="1292" d="M115 0v82l177 14v1324l-173 21v81h528v-81l-208 -21v-1324l609 14l114 319l84 -14l-77 -415h-1054z" />
<glyph unicode="M" horiz-adv-x="2027" d="M8 0v82l179 15l174 1324l-236 20v81h459l357 -1043l74 -288l75 288l345 1043h437v-81l-224 -21l186 -1324l188 -14v-82h-529v82l190 14l-116 944l-55 415l-90 -290l-392 -1181h-57l-381 1068l-132 401l-41 -412l-109 -945l204 -14v-82h-506z" />
<glyph unicode="N" horiz-adv-x="1632" d="M123 0v82l161 14v1323l-161 22v81h308l741 -1075l121 -210v1182l-180 22v81h453v-81l-166 -21v-1420h-89l-745 1073l-174 275v-1252l187 -14v-82h-456z" />
<glyph unicode="O" horiz-adv-x="1470" d="M78 749q0 121 24 226.5t68.5 193t106 156t137 116t162 72.5t180.5 25q153 0 271.5 -55t199.5 -155t123 -240.5t42 -312.5q0 -181 -52.5 -327.5t-143.5 -250t-213.5 -160.5t-262.5 -60h-15q-143 0 -257 53q-120 56 -202 158.5t-125 245.5t-43 315zM241 750 q0 -146 32.5 -271t95 -217t154 -144.5t210.5 -52.5q108 0 199 45t157 134.5t102.5 222t36.5 307.5q0 147 -32.5 271t-94.5 214.5t-153 141t-209 50.5q-110 0 -201.5 -44t-157.5 -131.5t-102.5 -219t-36.5 -306.5z" />
<glyph unicode="P" horiz-adv-x="1311" d="M115 0v82l177 14v1324l-165 21v81h240q51 0 88 2.5t75.5 5t84 5t113.5 2.5q150 0 250.5 -29.5t161 -85t86.5 -135t26 -180.5q0 -123 -46 -220t-124.5 -164t-184.5 -102.5t-226 -35.5q-31 0 -68.5 1t-71 2t-59.5 2.5t-33 3.5v-498l290 -14v-82h-614zM439 691q29 -5 93 -7 t142 -2q82 0 158 20.5t134.5 69.5t94 131t35.5 204q0 93 -25 157.5t-77 104t-130.5 57t-185.5 17.5q-75 0 -134.5 -6.5t-104.5 -6.5v-739z" />
<glyph unicode="Q" horiz-adv-x="1470" d="M78 749q0 121 24 226.5t68.5 193t106 156t137 116t162 72.5t180.5 25q153 0 271.5 -55t199.5 -155t123 -240.5t42 -312.5q0 -152 -37.5 -279.5t-104 -226.5t-158 -166.5t-199.5 -99.5q31 -62 79.5 -102.5t108.5 -64.5t129 -33.5t140 -9.5h11q41 1 74 6.5t55 18.5v-123 q-17 -14 -61 -28t-123 -15h-4q-79 0 -157.5 20.5t-145.5 62t-117.5 104t-72.5 146.5q-22 -4 -44 -5.5t-45 -2.5h-15q-144 0 -257 53q-120 56 -202 158.5t-125 245.5t-43 315zM241 750q0 -146 32.5 -271t95 -217t154 -144.5t210.5 -52.5q108 0 199 45t157 134.5t102.5 222 t36.5 307.5q0 147 -32.5 271t-94.5 214.5t-153 141t-209 50.5q-110 0 -201.5 -44t-157.5 -131.5t-102.5 -219t-36.5 -306.5z" />
<glyph unicode="R" horiz-adv-x="1416" d="M106 0v82l177 13v1330l-166 20v77h243q82 0 160 8t152 8q150 0 253.5 -25.5t168 -75.5t93.5 -125.5t29 -174.5q0 -74 -23 -143t-65.5 -127t-102.5 -101t-134 -64q37 -27 76.5 -80.5t79.5 -118.5t78.5 -134.5t74.5 -127.5t67 -98t56 -46l87 -20v-77h-216q-19 0 -42.5 25.5 t-50 67.5t-55.5 97t-60 114t-62.5 118.5t-62.5 110t-62 88.5t-60 55h-39.5h-56.5t-64 0.5t-63 1t-53 0.5t-33 1v-584l215 -13v-82h-539zM430 777q31 -2 74 -2.5t86 -1.5t80 -0.5t57 0.5q69 0 129.5 21.5t104.5 65t69.5 109t25.5 154.5q0 70 -18.5 129t-63.5 101.5t-121.5 66 t-192.5 23.5q-81 0 -135 -6.5t-95 -6.5v-653z" />
<glyph unicode="S" horiz-adv-x="1200" d="M135 71l17 365h94l26 -276q19 -17 51 -33t74 -28.5t92 -20.5t106 -8q88 0 155 21t112.5 60t68.5 94t23 122q0 70 -29.5 120.5t-80.5 89.5t-119.5 70.5t-146.5 64.5q-43 18 -90.5 39.5t-94.5 48.5t-90 61t-76 77t-52.5 96t-19.5 119q0 87 36 158.5t99.5 121.5t151.5 77.5 t192 27.5q69 0 128.5 -10t108 -23t85 -24.5t59.5 -15.5l-13 -336h-90l-34 260q-11 9 -35 19.5t-57.5 19t-75 14.5t-86.5 6q-158 0 -242 -63.5t-84 -195.5q0 -68 27 -116t75.5 -85.5t115.5 -70t147 -69.5q77 -36 157 -75t144.5 -89.5t105.5 -117.5t41 -160q0 -80 -36 -156.5 t-103.5 -137.5t-165.5 -98t-222 -37q-86 0 -158 14t-129 31t-97.5 32t-64.5 17z" />
<glyph unicode="T" horiz-adv-x="1385" d="M38 1008l34 514h1241l23 -514h-98l-54 420l-418 11v-1343l297 -14v-82h-723v82l272 13v1344l-412 -11l-62 -420h-100z" />
<glyph unicode="U" horiz-adv-x="1511" d="M59 1441v81h484v-81l-180 -22v-782q0 -164 31.5 -272t88 -172.5t135 -91t172.5 -26.5q204 0 305.5 137.5t101.5 407.5v799l-173 22v81h448v-81l-160 -22v-791q0 -167 -40 -288.5t-111.5 -200.5t-170 -117t-215.5 -38q-147 0 -253 41t-175 124t-101.5 209t-32.5 296v765z " />
<glyph unicode="V" horiz-adv-x="1346" d="M-29 1441v81h475v-81l-192 -20l355 -1002l93 -293l84 299l340 995l-167 21v81h420v-81l-131 -21l-510 -1437h-117l-523 1437z" />
<glyph unicode="W" horiz-adv-x="2021" d="M-41 1441v81h501v-81l-200 -21l287 -980l74 -344l86 343l259 813l-54 168l-154 21v81h518v-81l-205 -21l294 -980l85 -368l74 368l274 980l-219 21v81h480v-81l-140 -21l-419 -1432h-139l-345 1103l-344 -1103h-131l-438 1432z" />
<glyph unicode="X" horiz-adv-x="1442" d="M16 0v82l178 14l453 669l-433 654l-160 22v81h563v-81l-226 -22l360 -566l357 567l-188 21v81h482v-81l-161 -22l-436 -627l464 -697l166 -13v-82h-557v82l211 14l-387 604l-371 -604l219 -14v-82h-534z" />
<glyph unicode="Y" horiz-adv-x="1306" d="M-16 1441v81h471v-81l-180 -21l320 -590l80 -174l84 174l304 590l-173 21v81h435v-81l-134 -22l-452 -834v-488l235 -15v-82h-614v82l231 14v486l-480 837z" />
<glyph unicode="Z" horiz-adv-x="1334" d="M81 73l836 1215l118 153l-680 -22l-97 -268l-82 10l43 367h957l42 -69l-820 -1202l-139 -170l778 37l97 328l87 -21l-47 -431h-1049z" />
<glyph unicode="[" horiz-adv-x="872" d="M205 -102v1571q0 56 7.5 90.5t25 54t47 26.5t73.5 7t88.5 -3t85.5 -8t77 -11t65 -12v-66h-337v-1726h337v-67q-32 -7 -70 -13.5t-79 -11t-83.5 -7.5t-83.5 -3q-44 0 -73 6.5t-47 26t-25.5 54.5t-7.5 92z" />
<glyph unicode="\" horiz-adv-x="882" d="M80 1599l573 -1962h139l-573 1962h-139z" />
<glyph unicode="]" horiz-adv-x="872" d="M198 -179v-67q32 -7 70 -13.5t79 -11t83.5 -7.5t83.5 -3q44 0 73 6.5t47 26t25.5 54.5t7.5 92v1571q0 56 -7.5 90.5t-25 54t-47 26.5t-73.5 7t-88.5 -3t-85.5 -8t-77 -11t-65 -12v-66h337v-1726h-337z" />
<glyph unicode="^" horiz-adv-x="1363" d="M185 413l415 1118h158l420 -1118h-120l-378 965l-377 -965h-118z" />
<glyph unicode="_" horiz-adv-x="1711" d="M-20 -295h1751v-105h-1751v105z" />
<glyph unicode="`" horiz-adv-x="681" d="M-1 1694l116 100h1l316 -391l-51 -50h-1q-18 8 -49.5 31t-69.5 54.5t-78.5 68t-77 71.5t-65 65.5t-41.5 50.5z" />
<glyph unicode="a" horiz-adv-x="1141" d="M104 299q0 71 27.5 126.5t76 97t114.5 71t143.5 48t162.5 27.5t171 11v66q0 79 -12 135.5t-41.5 93t-79 53.5t-125.5 17q-61 0 -120 -14t-110 -33.5t-91 -40.5t-64 -36h-1l-44 83q8 8 31 22.5t58 32t78.5 35.5t92 32.5t99.5 24t101 9.5q103 0 174 -21.5t115 -69 t63 -122.5t19 -183v-682h130v-70q-16 -4 -39 -9.5t-48 -10t-50.5 -7.5t-46.5 -3q-20 0 -34 2t-24 10t-14.5 24.5t-4.5 45.5v88q-21 -18 -56.5 -47.5t-82.5 -58t-104.5 -49t-122.5 -20.5q-68 0 -130 19t-109 58.5t-74.5 100t-27.5 144.5zM264 315q0 -64 18 -107t49.5 -69.5 t74 -38t90.5 -11.5q34 0 73 12t79.5 32t79 45t71.5 51v358q-130 -1 -230 -20.5t-167.5 -54.5t-102.5 -85t-35 -112z" />
<glyph unicode="b" horiz-adv-x="1229" d="M-6 1577v67l286 32h4l34 -27v-625q28 26 64.5 51.5t82 46t99 33.5t115.5 13q85 0 166 -32t143.5 -100t100.5 -173.5t38 -252.5q0 -131 -40.5 -246t-116.5 -201t-183.5 -136t-242.5 -50q-67 0 -129.5 8.5t-112.5 20.5t-84 25.5t-44 24.5v1501zM318 154q9 -18 33 -32 t57.5 -23.5t73.5 -14.5t79 -5q87 0 161 29.5t129 91.5t86 157t33 226v9q0 120 -27 206q-28 89 -76 145t-112.5 82t-134.5 26q-51 0 -98 -15t-86 -36.5t-69.5 -47t-48.5 -46.5v-752z" />
<glyph unicode="c" horiz-adv-x="1044" d="M103 554v9q-1 75 15 148q16 77 49 145t81 125.5t111 99t140.5 64.5t169.5 23q42 0 84 -6.5t79.5 -15.5t67.5 -20t50 -20l-8 -275h-91l-39 190q-25 25 -72 41t-113 16q-81 0 -149 -32.5t-117 -93t-76.5 -146t-27.5 -191.5v-9q0 -128 28 -224q29 -100 80 -166t121 -98.5 t151 -32.5q47 0 93 8.5t86.5 22t74 30t56.5 32.5l29 -56q-29 -29 -71 -55.5t-91.5 -46.5t-103 -31.5t-104.5 -11.5q-123 0 -216.5 45t-157 123t-96 183.5t-33.5 225.5z" />
<glyph unicode="d" horiz-adv-x="1266" d="M102 540q0 130 40.5 244.5t116.5 200t183.5 134.5t242.5 49q64 0 122.5 -8.5t105.5 -19.5v417l-219 20v67l324 32h5l34 -27v-1567h128v-70q-38 -9 -84 -19.5t-104 -10.5q-20 0 -34.5 2.5t-24.5 10.5t-14.5 24.5t-4.5 45.5v82q-28 -32 -65.5 -62.5t-84 -54.5t-101.5 -38.5 t-118 -14.5q-86 0 -167 34t-143.5 103.5t-100 175.5t-37.5 250zM259 567v-16q1 -115 27 -199q28 -88 76.5 -144.5t112.5 -82t134 -25.5q51 0 98 14t86.5 35.5t70.5 47.5t49 51v747q-9 14 -33.5 27t-58.5 22.5t-74 15.5t-79 6q-87 0 -161.5 -29t-129 -89.5t-86 -155 t-32.5 -225.5z" />
<glyph unicode="e" horiz-adv-x="1107" d="M102 575q0 130 39.5 239t109.5 188t165.5 122.5t206.5 43.5q89 0 159.5 -26.5t120 -77.5t77 -127t30.5 -175q0 -57 -1.5 -99t-9.5 -74h-742v-17t1 -17q3 -120 34.5 -209t82.5 -148.5t118 -88.5t143 -29q44 0 90.5 9t89.5 24t80 34.5t61 41.5l30 -68q-30 -30 -74 -56.5 t-96.5 -46t-110.5 -30.5t-115 -11q-119 0 -210.5 44t-153.5 123.5t-93.5 189t-31.5 241.5zM260 677h587q2 23 3.5 46.5t1.5 46.5q0 65 -15.5 119.5t-48.5 93.5t-83.5 61t-121.5 22q-65 0 -121 -20.5t-98.5 -67t-69.5 -120.5t-34 -181z" />
<glyph unicode="f" horiz-adv-x="797" d="M57 1021v77l213 37v102q0 93 36 174.5t96 142t137 96t160 35.5q45 0 69.5 -4.5t42.5 -10.5v-148q-13 8 -55.5 18t-98.5 10q-57 0 -101.5 -13.5t-76 -44.5t-48 -81.5t-16.5 -124.5v-151h305v-114h-305v-925l238 -15v-81h-567v81l184 15v925h-213z" />
<glyph unicode="g" horiz-adv-x="1236" d="M97 -225q0 51 14.5 96.5t38 83t53.5 66.5t61 48q-33 26 -51 63t-18 86q0 77 36.5 138.5t99.5 106.5q-86 45 -137 125t-51 189q0 94 39.5 167t103.5 122.5t144.5 75.5t162.5 26h1q86 0 162.5 -20.5t134.5 -63.5q12 10 34 23t52 24.5t66.5 19.5t75.5 8h76v-138h-239 q29 -40 46 -90t17 -113q0 -93 -36.5 -168.5t-98 -129.5t-143 -83t-172.5 -29h-1q-80 0 -147 19q-45 -30 -71 -69.5t-26 -93.5q0 -41 15.5 -67.5t45.5 -42t74 -22t102 -6.5h270q96 0 161.5 -20.5t105 -57t56.5 -88t17 -113.5q0 -80 -39 -152.5t-112 -127.5t-177 -87t-233 -32 h-1q-122 0 -217.5 23t-161 66t-99.5 103t-34 135zM241 -187q0 -62 22.5 -111.5t69 -84.5t117.5 -54t167 -19h2q93 0 170 18t132 51.5t85 82t30 108.5q0 44 -8.5 80t-36 61t-79 38.5t-136.5 13.5h-228q-63 0 -117.5 8t-98.5 25q-37 -35 -64 -89.5t-27 -127.5zM294 797 q0 -62 17 -115.5t53 -92.5t91 -61.5t131 -22.5h1q140 0 210 73.5t70 218.5q0 144 -75 209.5t-209 65.5h-1q-58 0 -110 -13t-91.5 -45t-63 -85t-23.5 -132z" />
<glyph unicode="h" horiz-adv-x="1323" d="M17 1577v67l290 32h5l35 -24v-493l-4 -167q25 21 70.5 50.5t103 56.5t122.5 46t129 19q97 0 161 -28t101.5 -86.5t52.5 -150t15 -218.5v-586l151 -13v-82h-443v82l148 13v586q0 93 -9 161.5t-35 113.5t-74.5 67t-127.5 22q-46 0 -95.5 -14t-97.5 -35.5t-91.5 -48.5 t-76.5 -53v-799l155 -13v-82h-428v82l129 13v1463z" />
<glyph unicode="i" horiz-adv-x="683" d="M95 0v82l185 13v921l-169 33v81l273 30h5l35 -30v-1035l185 -13v-82h-514zM222 1487q0 24 6.5 46.5t20 40.5t34.5 28.5t49 10.5h1q24 0 42 -9.5t30.5 -25t18.5 -35t6 -39.5q0 -26 -7 -48.5t-20.5 -39.5t-35 -27t-49.5 -10h-1q-23 0 -40.5 8.5t-29.5 23.5t-18.5 34.5 t-6.5 41.5z" />
<glyph unicode="j" horiz-adv-x="651" d="M12 -413q8 -1 21 0.5t28 4t30.5 6t28.5 6.5q48 13 79.5 52.5t50 98t25.5 133.5t7 161l-2 960l-170 33v88l276 30h5l35 -30v-1094q0 -255 -75.5 -385.5t-220.5 -144.5q-8 -1 -25 -1h-34.5t-32 1.5t-18.5 3.5zM223 1487q0 24 6.5 46.5t20 40.5t34.5 28.5t49 10.5h1 q24 0 42 -9.5t30.5 -25t18.5 -35t6 -39.5q0 -26 -7 -48.5t-20.5 -39.5t-35 -27t-49.5 -10h-1q-23 0 -40.5 8.5t-29.5 23.5t-18.5 34.5t-6.5 41.5z" />
<glyph unicode="k" horiz-adv-x="1254" d="M30 1577v67l281 32h1l34 -24v-1023l-4 -129l530 535l-155 25v75h458v-75l-161 -26l-346 -336l422 -603l137 -13v-82h-459v82l152 14l-338 519l-239 -226l3 -106v-188l162 -13v-82h-442v82l137 14v1462z" />
<glyph unicode="l" horiz-adv-x="688" d="M94 0v82l186 14v1462l-180 19v67l288 33h1l35 -25v-1556l199 -14v-82h-529z" />
<glyph unicode="m" horiz-adv-x="2040" d="M80 1049v81l251 30h5l36 -30v-95l-2 -53q33 29 83 61t108 59t118.5 44.5t116.5 17.5q109 0 175.5 -37t101.5 -115q27 22 73.5 49t103 49.5t117.5 38t117 15.5q97 0 161 -28t102 -87t53 -149.5t15 -215.5v-588l157 -14v-82h-444v82l143 14v582q0 90 -9.5 159t-36.5 115.5 t-77 70.5t-131 24q-44 0 -89 -11t-87 -28.5t-78.5 -38.5t-62.5 -41q11 -51 16 -112t5 -135v-585l158 -14v-82h-454v82l152 13v586q0 92 -7 160.5t-31.5 113.5t-70.5 67.5t-124 22.5q-45 0 -94 -14t-96.5 -36t-90 -49t-75.5 -52v-798l148 -14v-82h-424v82l133 14v920z" />
<glyph unicode="n" horiz-adv-x="1361" d="M80 1049v81l251 30h5l36 -30v-95l-2 -53q33 29 84 61t110 59t123 44.5t123 17.5q100 0 163.5 -30t99.5 -90t49.5 -151t13.5 -212v-586l156 -13v-82h-444v82l144 13v586q0 92 -8.5 160.5t-34.5 113.5t-73.5 67.5t-125.5 22.5q-46 0 -96 -14t-98 -36t-91.5 -49t-76.5 -52 v-798l152 -14v-82h-435v82l140 14v920z" />
<glyph unicode="o" horiz-adv-x="1227" d="M102 577q0 138 45 247.5t118.5 186t166.5 117t190 40.5q139 0 235 -49t155.5 -132t86 -191.5t26.5 -227.5q0 -138 -45 -247.5t-118.5 -186t-167 -117t-190.5 -40.5q-139 0 -234.5 49t-155 132t-86 191.5t-26.5 227.5zM265 586q0 -102 18.5 -193.5t60 -161t107.5 -110 t161 -40.5q81 0 146 30t110 90t69.5 149.5t24.5 208.5q0 100 -18.5 191.5t-60 161.5t-107.5 111t-162 41q-81 0 -145.5 -30.5t-109.5 -90.5t-69.5 -149.5t-24.5 -207.5z" />
<glyph unicode="p" horiz-adv-x="1271" d="M52 1049v81l251 30h5l34 -30v-128q27 28 64.5 57.5t85.5 53.5t105.5 39.5t123.5 15.5q85 0 165.5 -32t143.5 -100t101 -173.5t38 -252.5q0 -132 -41 -247t-116 -201t-181.5 -135.5t-237.5 -49.5q-29 0 -61 2.5t-63.5 7t-61 11.5t-51.5 15l4 -175v-228l235 -20v-86h-537 v86l159 19v1407zM360 141q7 -12 29.5 -25t55 -23.5t73 -17t85.5 -6.5q87 0 161.5 31t129.5 95t86 160.5t33 227.5v9q0 119 -27 205q-28 89 -76.5 145.5t-113 82.5t-135.5 26q-51 0 -97.5 -12.5t-85.5 -31.5t-69 -41.5t-49 -43.5v-781z" />
<glyph unicode="q" horiz-adv-x="1241" d="M102 547q0 130 40.5 243.5t115.5 197.5t182.5 132t242.5 48q70 0 136 -11t117 -26l85 30h1l31 -31v-1530l146 -19v-77h-524v77l235 18v353l6 183q-28 -27 -65 -55t-82.5 -51t-100 -37.5t-117.5 -14.5q-85 0 -165.5 34t-143.5 104t-101.5 177.5t-38.5 254.5zM258 574v-9 q0 -119 27 -208q28 -92 76.5 -152.5t113.5 -90t137 -29.5q53 0 99.5 13.5t84.5 34t67 43t46 40.5v794q-6 13 -28.5 26.5t-56 24.5t-75 18t-83.5 7q-87 0 -161 -31t-128.5 -94t-86 -159.5t-32.5 -227.5z" />
<glyph unicode="r" horiz-adv-x="915" d="M104 0v77l166 13v926l-165 33v81l250 30h5l36 -30v-74l-1 -111h1q6 5 23 23.5t43.5 43t62.5 52.5t80 51t95.5 38t109.5 15q20 0 34.5 -2.5t25.5 -6.5v-155q-6 4 -31 10t-54 6q-71 0 -128.5 -14t-103 -35t-80.5 -44.5t-59 -42.5v-794l274 -13v-77h-584z" />
<glyph unicode="s" horiz-adv-x="1029" d="M138 64v254h98l28 -161q11 -16 36 -32t59 -29t75 -21t83 -8q71 0 121.5 13.5t83 38.5t48 61t15.5 81q0 47 -19.5 82t-58.5 63.5t-97 53.5t-135 52q-80 28 -140.5 62t-101 77.5t-61 98t-20.5 124.5q0 67 32.5 120.5t86.5 90.5t124.5 56.5t147.5 19.5q60 0 110.5 -7.5 t90 -18t67 -21t41.5 -16.5v-240h-89l-32 154q-8 13 -28 24.5t-48 19.5t-61.5 12.5t-68.5 4.5h-8q-43 -1 -83 -11q-44 -12 -77 -33t-52.5 -53t-19.5 -72q0 -60 24 -100.5t63 -69t89 -48.5t102 -41q68 -27 132 -55.5t113.5 -67t79 -92t29.5 -129.5q0 -77 -31 -137.5t-87 -102 t-133 -63t-169 -21.5q-45 0 -97.5 8t-102.5 21t-92.5 28.5t-66.5 29.5z" />
<glyph unicode="t" horiz-adv-x="830" d="M71 1021v78q13 2 31.5 5.5t36.5 7t32.5 8t20.5 8.5q16 8 25 22.5t17 37.5q6 18 14.5 49t17.5 63.5t16 61t9 41.5h82v-268h375v-114h-375v-683q0 -85 4.5 -134t18.5 -73.5t40 -30.5t69 -6h1q32 0 68.5 5t71.5 13.5t65 18.5t48 19h1l23 -70q-21 -17 -62 -35t-89 -33 t-98.5 -25t-90.5 -10h-2q-48 0 -87 10t-66.5 35.5t-43 69t-15.5 110.5v819h-158z" />
<glyph unicode="u" horiz-adv-x="1310" d="M76 1067v68l233 24h1l34 -22v-684q0 -94 9 -162t35 -111.5t73 -64.5t122 -21q52 0 101 14t92.5 35t79 46t61.5 48v796l-162 34v68l260 24h2l44 -22v-1055h130l-1 -71q-34 -9 -72 -19t-90 -10q-45 0 -70.5 15t-25.5 65v92q-31 -29 -74.5 -60.5t-94.5 -57.5t-108 -42.5 t-115 -16.5q-95 0 -160 26t-105 81t-57.5 139t-17.5 200v611z" />
<glyph unicode="v" horiz-adv-x="1155" d="M6 1058v77h407v-77l-150 -22l228 -626l106 -295l89 283l230 637l-146 23v77h382v-77l-106 -24l-408 -1052h-120l-417 1054z" />
<glyph unicode="w" horiz-adv-x="1746" d="M7 1058v77h424v-77l-164 -22l180 -653l75 -294l69 296l222 750h158l201 -749l70 -302l77 299l188 651l-159 24v77h385v-77l-109 -23l-323 -1053h-149l-220 774l-62 272l-57 -272l-232 -774h-143l-324 1053z" />
<glyph unicode="x" horiz-adv-x="1208" d="M16 0v82l142 15l373 473l-359 467l-122 21v77h454v-77l-149 -21l211 -303l62 -90l58 90l226 303l-163 21v77h418v-77l-129 -21l-359 -446l375 -496l126 -13v-82h-473v82l152 15l-214 314l-65 92l-55 -88l-232 -317l187 -16v-82h-464z" />
<glyph unicode="y" horiz-adv-x="1165" d="M6 1058v77h433v-77l-166 -21l225 -632l112 -345l109 347l192 629l-147 22v77h386v-77l-110 -22q-65 -197 -114 -347.5t-86 -262.5t-62.5 -190t-43.5 -130.5t-30 -84.5t-20 -51q-48 -119 -89 -209t-89.5 -150t-110.5 -90.5t-152 -30.5q-13 0 -27 1t-27 3t-23.5 4.5 t-16.5 5.5v142q6 -3 17.5 -5.5t25 -4t28 -2t26.5 -0.5q44 0 86 12t84 50.5t83.5 110.5t85.5 193h-79l-403 1035z" />
<glyph unicode="z" horiz-adv-x="1119" d="M55 71l673 847l130 118l-602 -18l-27 -190h-100v307h857l33 -71l-669 -851l-134 -115l654 18l61 227l93 -12l-30 -331h-905z" />
<glyph unicode="{" horiz-adv-x="1026" d="M140 626v137q89 0 146.5 8.5t91 26t46.5 44t13 62.5q0 58 -20 114.5t-44.5 116t-44.5 123t-20 135.5q0 62 14 109.5t49.5 79.5t95 48.5t150.5 16.5q66 0 125 -9t114 -25v-75q-7 3 -33.5 4.5t-57.5 3t-57.5 2t-33.5 0.5q-52 0 -92.5 -8.5t-69 -29t-43.5 -55.5t-15 -89 q0 -51 17 -110.5t37 -121.5t37 -123.5t17 -116.5q0 -48 -17 -83.5t-47.5 -60t-72 -39.5t-89.5 -22q48 -6 89.5 -22.5t72 -43t47.5 -63.5t17 -85q0 -56 -17 -117t-37 -122.5t-37 -121t-17 -111.5q0 -55 14.5 -90t43 -55.5t69 -28.5t93.5 -8q9 0 36 0.5t57 2t56 3.5t33 4v-75 q-55 -16 -114 -25t-125 -9q-91 0 -150.5 16.5t-95 48.5t-49.5 79.5t-14 109.5q0 72 20 135.5t44.5 123t44.5 116t20 114.5q0 36 -13 66t-46.5 51t-91 32.5t-146.5 11.5z" />
<glyph unicode="|" horiz-adv-x="865" d="M367 -186v1966h131v-1966h-131z" />
<glyph unicode="}" horiz-adv-x="1026" d="M170 -169v-75q55 -16 114 -25t125 -9q91 0 150.5 16.5t95 48.5t49.5 79.5t14 109.5q0 72 -20 135.5t-44.5 123t-44.5 116t-20 114.5q0 36 13 66t46.5 51t91 32.5t146.5 11.5v137q-89 0 -146.5 8.5t-91 26t-46.5 44t-13 62.5q0 58 20 114.5t44.5 116t44.5 123t20 135.5 q0 62 -14 109.5t-49.5 79.5t-95 48.5t-150.5 16.5q-66 0 -125 -9t-114 -25v-75q7 3 33.5 4.5t57.5 3t57.5 2t33.5 0.5q52 0 92.5 -8.5t69 -29t43.5 -55.5t15 -89q0 -51 -17 -110.5t-37 -121.5t-37 -123.5t-17 -116.5q0 -48 17 -83.5t47.5 -60t72 -39.5t89.5 -22 q-48 -6 -89.5 -22.5t-72 -43t-47.5 -63.5t-17 -85q0 -56 17 -117t37 -122.5t37 -121t17 -111.5q0 -55 -14.5 -90t-43 -55.5t-69 -28.5t-93.5 -8q-9 0 -36 0.5t-57 2t-56 3.5t-33 4z" />
<glyph unicode="~" horiz-adv-x="1410" d="M229 587q18 31 47 62.5t68 56.5t86 40.5t100 15.5q44 0 79 -12.5t65.5 -31.5t57 -41.5t53 -41.5t55 -31.5t61.5 -12.5q37 0 69.5 11t59.5 29t48.5 40t37.5 44l64 -68q-18 -33 -48 -64.5t-68.5 -56t-85 -39.5t-98.5 -15q-44 0 -78.5 12.5t-64 31.5t-56 41.5t-53 41.5 t-55.5 31.5t-64 12.5q-38 0 -71 -11.5t-60 -29.5t-48 -40t-37 -43z" />
<glyph unicode="&#xa2;" horiz-adv-x="1196" d="M156 554q-1 111 30.5 214.5t93 186t152.5 138t209 70.5l12 212h105l-12 -208q39 -2 77.5 -8.5t72 -15.5t61.5 -19t46 -18l-8 -275h-91l-39 190q-25 25 -72 41t-113 16q-81 0 -149 -32.5t-117 -93t-76.5 -146t-27.5 -191.5q-1 -134 28 -233.5t80 -165.5t121 -98.5 t151 -32.5q47 0 93 8.5t86.5 22t74 30t56.5 32.5l29 -56q-29 -29 -71 -55.5t-91.5 -46.5t-103 -31.5t-104.5 -11.5h-2l-12 -220h-106l13 230q-97 19 -170.5 70t-123.5 126t-75.5 169.5t-26.5 201.5z" />
<glyph unicode="&#xa3;" horiz-adv-x="1494" d="M153 67q0 25 17.5 50.5t47.5 45.5t71 31t88 8q12 20 24.5 58t22.5 84.5t16 97.5t6 97v245h-215v93h215v144q0 119 38 215t103.5 163t152 103t183.5 36q90 0 170 -24t135 -73l-84 -118q-8 13 -32 32.5t-61 37t-84.5 30t-102.5 12.5q-46 0 -93 -15.5t-85.5 -58 t-62.5 -117.5t-24 -193v-174h332v-93h-332v-218q0 -65 -11 -121t-29 -103t-41.5 -85t-47.5 -67q72 -4 140.5 -17t136 -27.5t134.5 -25.5t135 -11q64 0 107 14.5t69.5 41.5t38 66t11.5 89q0 28 -3 56t-8.5 51.5t-13.5 42t-18 27.5h161q14 -17 25 -52.5t11 -96.5 q0 -64 -30 -129t-82 -117t-122 -84.5t-151 -32.5q-88 0 -162.5 19.5t-144.5 43t-140 43.5t-149 21q-17 -21 -37.5 -41t-43.5 -36t-48.5 -25.5t-52.5 -9.5q-12 0 -26 2.5t-26 10t-20 20.5t-8 34z" />
<glyph unicode="&#xa5;" horiz-adv-x="1560" d="M124 1452v70h468v-70l-183 -20l289 -443l89 -131l92 136l280 437l-179 21v70h435v-70l-140 -21l-385 -578h427v-90h-474v-298h474v-91h-474v-283l240 -21v-70h-605v70l237 22v282h-472v91h472v298h-472v90h414l-406 579z" />
<glyph unicode="&#xa7;" horiz-adv-x="1362" d="M189 -109l27 355h94l26 -266q19 -17 52.5 -32t76 -27t92.5 -19t103 -7q93 0 160 16t110.5 44t64.5 66t21 82q0 62 -36 108.5t-94.5 83t-133.5 65.5t-153 57q-69 24 -141.5 61t-131.5 90t-96.5 124.5t-37.5 165.5q0 90 38.5 150.5t110.5 110.5q-51 47 -83 105t-32 131 q0 74 34.5 134.5t98 103.5t154 66.5t201.5 23.5q70 0 130.5 -10t109.5 -23t86 -24.5t60 -15.5l-13 -326h-89l-47 250q-8 7 -28 16.5t-51.5 17t-72.5 13t-90 5.5q-162 0 -251.5 -49.5t-89.5 -149.5q0 -71 31 -119.5t83.5 -84.5t121 -63.5t143.5 -56.5q43 -17 92 -38.5t97 -49 t91.5 -61.5t77 -75.5t53.5 -92t20 -110.5q0 -84 -40 -151t-110 -123q59 -45 96.5 -99t37.5 -119q0 -64 -29.5 -126.5t-92 -111.5t-159 -79t-231.5 -30q-87 0 -161 14t-132.5 31t-101 32t-66.5 17zM325 891q0 -70 27 -123.5t75 -95.5t114 -75t144 -63q54 -20 120.5 -48 t131.5 -65q43 37 68 81t25 103q0 64 -28 114.5t-77 91t-117 73t-147 61.5q-55 20 -118 48t-122 66q-22 -17 -40 -35t-30.5 -38t-19 -43.5t-6.5 -51.5z" />
<glyph unicode="&#xa8;" horiz-adv-x="1022" d="M188 1487q0 24 6.5 46.5t20 40.5t34.5 28.5t49 10.5h1q24 0 42 -9.5t30.5 -25t18.5 -35t6 -39.5q0 -26 -7 -48.5t-20.5 -39.5t-35 -27t-49.5 -10h-1q-23 0 -40.5 8.5t-29.5 23.5t-18.5 34.5t-6.5 41.5zM630 1487q0 24 6.5 46.5t20 40.5t34 28.5t48.5 10.5h1 q24 0 42.5 -9.5t31 -25t18.5 -35t6 -39.5q0 -26 -7 -48.5t-21 -39.5t-35 -27t-50 -10h-1q-22 0 -39.5 8.5t-29.5 23.5t-18.5 34.5t-6.5 41.5z" />
<glyph unicode="&#xa9;" horiz-adv-x="2129" d="M194 1003q0 121 30.5 233.5t87 210t135.5 177.5t175.5 137t208 88t233.5 31t233.5 -31t208.5 -88t176 -137t135 -177.5t87 -210t31 -233.5q0 -122 -31 -234.5t-87 -210.5t-135 -178.5t-176 -137.5t-209 -88.5t-233 -31.5t-233 31.5t-208.5 88.5t-175.5 137.5 t-135.5 178.5t-87 210.5t-30.5 234.5zM295 1003q0 -107 27 -207.5t76 -188t118.5 -160t155 -125t184.5 -81t208 -28.5t208 28.5t184.5 81t155 125t118.5 160t76 188t27 207.5t-27 207.5t-76 188t-118.5 160t-155 124.5t-184.5 80.5t-208 28.5t-208 -28.5t-184.5 -80.5 t-155 -125t-118.5 -160.5t-76 -187.5t-27 -207zM623 994q0 104 38.5 195.5t106 159t160 106.5t201.5 39q33 0 71.5 -4t74 -11.5t65 -18.5t44.5 -26v-210h-88l-38 128q-24 17 -66 27.5t-120 10.5q-70 0 -125.5 -25.5t-94 -72.5t-59 -115t-20.5 -153q0 -89 24.5 -160 t69.5 -120.5t110 -76t146 -26.5q72 0 130.5 26.5t102.5 71.5l38 -70q-21 -27 -54.5 -54.5t-75.5 -49t-91.5 -35t-102.5 -13.5q-111 0 -194.5 35.5t-139.5 99t-84.5 151t-28.5 191.5z" />
<glyph unicode="&#xaa;" horiz-adv-x="1028" d="M134 919q0 151 149.5 225.5t444.5 79.5v30q0 73 -11 119.5t-37 73.5t-69.5 37.5t-108.5 10.5q-44 0 -87 -8.5t-83 -21t-75 -28t-61 -28.5l-46 83q28 18 73.5 38t97.5 36t107 26.5t103 10.5q87 0 150 -17t104 -56t61 -102t20 -155v-513h117v-64q-32 -8 -74.5 -16t-84.5 -8 q-21 0 -37 1.5t-27 8t-17 19.5t-6 36v74q-24 -22 -57 -47t-74.5 -46t-90.5 -35t-104 -14q-60 0 -110.5 18t-87.5 51t-58 79t-21 102zM284 930q0 -35 12 -64.5t36 -51t58.5 -33.5t79.5 -12q38 0 79 13t77 32t63 38.5t39 33.5v254q-120 -3 -204 -16t-137.5 -38.5t-78 -64 t-24.5 -91.5z" />
<glyph unicode="&#xab;" horiz-adv-x="1897" d="M245 549v127l659 443l44 -79l-530 -424l536 -416l-50 -82zM975 549v127l659 443l44 -79l-530 -424l536 -416l-50 -82z" />
<glyph unicode="&#xac;" horiz-adv-x="1410" d="M210 591v97h990v-529h-125v432h-865z" />
<glyph unicode="&#xad;" horiz-adv-x="1345" d="M230 560v112h885v-112h-885z" />
<glyph unicode="&#xae;" horiz-adv-x="2129" d="M194 1003q0 121 30.5 233.5t87 210t135.5 177.5t175.5 137t208 88t233.5 31t233.5 -31t208.5 -88t176 -137t135 -177.5t87 -210t31 -233.5q0 -122 -31 -234.5t-87 -210.5t-135 -178.5t-176 -137.5t-209 -88.5t-233 -31.5t-233 31.5t-208.5 88.5t-175.5 137.5 t-135.5 178.5t-87 210.5t-30.5 234.5zM295 1003q0 -107 27 -207.5t76 -188t118.5 -160t155 -125t184.5 -81t208 -28.5t208 28.5t184.5 81t155 125t118.5 160t76 188t27 207.5t-27 207.5t-76 188t-118.5 160t-155 124.5t-184.5 80.5t-208 28.5t-208 -28.5t-184.5 -80.5 t-155 -125t-118.5 -160.5t-76 -187.5t-27 -207zM672 519v71l98 21v773l-98 17v80h150q45 0 81 1t66.5 1.5t57.5 1.5t54 1q183 0 273 -65.5t90 -180.5q0 -60 -17 -110t-47.5 -88.5t-72 -64t-90.5 -36.5q46 -23 74 -56t46 -69.5t32 -73t32 -66t45.5 -49t74.5 -22.5v-86h-123 q-50 0 -78.5 24t-46.5 62t-30 84t-30 90t-47 81t-80 56q-6 0 -34.5 0.5t-61.5 0.5t-61.5 0.5t-35.5 0.5v-311l115 -17v-71h-336zM893 1019q11 -2 37.5 -3.5t57 -2t59.5 -0.5h45q42 0 79.5 15.5t66 42.5t45 64t16.5 80q0 50 -16.5 84.5t-48 55.5t-76.5 30.5t-103 9.5 q-33 0 -72.5 -1.5t-89.5 -8.5v-366z" />
<glyph unicode="&#xb0;" horiz-adv-x="916" d="M117 1293q0 73 27 135t73.5 107.5t108 71t131.5 25.5q75 0 138 -27t108.5 -73t71 -108t25.5 -131q0 -74 -27 -136t-73.5 -107.5t-109 -71t-133.5 -25.5q-70 0 -131.5 27t-108 73.5t-73.5 108t-27 131.5zM223 1293q0 -49 19 -92t51 -75.5t75 -51t91 -18.5q51 0 93.5 17.5 t74 48.5t49 74.5t17.5 96.5q0 49 -18 92t-50 75t-75.5 51t-93.5 19t-92.5 -18t-74 -49.5t-49 -75t-17.5 -94.5z" />
<glyph unicode="&#xb1;" horiz-adv-x="1353" d="M220 613v119h225l177 -10l-5 185v228h119v-228l-7 -185l153 10h251v-119h-251l-153 5l7 -182v-240h-119v240l5 182l-177 -5h-225zM233 0v111h885v-111h-885z" />
<glyph unicode="&#xb4;" horiz-adv-x="681" d="M242 1403l317 391h1l115 -100q-13 -20 -40.5 -49.5t-63 -63.5t-75.5 -69.5t-78 -66.5t-70.5 -55.5t-53.5 -36.5h-2z" />
<glyph unicode="&#xb5;" horiz-adv-x="1398" d="M143 1077v54l241 25l34 -22v-752q0 -20 4.5 -49t15.5 -61t29.5 -63t46.5 -56t66.5 -40.5t90.5 -15.5q66 0 117 16.5t90 40.5t67 51.5t48 50.5v782l-153 39v55l274 24l22 -21v-1054h130l-1 -74q-14 -6 -35 -12t-45 -10.5t-49.5 -7.5t-48.5 -3q-38 0 -59 16t-21 53v125 q-75 -94 -160 -141.5t-187 -47.5q-53 0 -93.5 11t-70.5 29.5t-52 42.5t-37 49v-484h-132v826v8v577z" />
<glyph unicode="&#xb6;" horiz-adv-x="1410" d="M91 1279q0 93 34.5 172t103 136.5t171 90.5t238.5 33q65 0 117 -3t102 -7t104.5 -7t124.5 -3h197v-82l-185 -18v-1495l161 -14v-82h-301v1584q-18 1 -45.5 4t-60.5 5t-69.5 4t-73.5 2q-11 0 -20 -0.5t-17 -1.5v-1597h-341v82l200 14v738q-221 0 -330.5 116t-109.5 329z " />
<glyph unicode="&#xb7;" horiz-adv-x="700" d="M242 660q0 26 10 48.5t27 39.5t38 27t44 10q27 0 46 -9t31 -23.5t17.5 -34t5.5 -40.5q0 -28 -10 -51t-26.5 -39.5t-38 -25.5t-44.5 -9q-42 0 -71 29t-29 78z" />
<glyph unicode="&#xb8;" horiz-adv-x="615" d="M-2 -450l1 108q22 -8 51 -12.5t46 -4.5h1q39 0 69 5.5t51 21.5t31.5 45t10.5 76q0 34 -10 67.5t-23.5 62t-27.5 50t-21 31.5l42 11l35 -11q16 -15 39.5 -44t45 -68t36.5 -85t13 -94q-2 -52 -19 -87.5t-48.5 -57.5t-76.5 -31.5t-102 -9.5h-1q-17 0 -36.5 2t-39 5.5 t-37 8.5t-30.5 11z" />
<glyph unicode="&#xba;" horiz-adv-x="1038" d="M111 1146q1 119 40.5 204.5t100 141t134.5 81.5t144 26q93 0 167 -30.5t125.5 -89t78.5 -145t26 -198.5q-1 -124 -40 -211t-98.5 -142t-131 -80.5t-138.5 -25.5q-84 0 -158.5 28t-130.5 86t-88 146.5t-31 208.5zM258 1153q0 -95 21 -167.5t56.5 -122.5t82.5 -75.5 t99 -25.5q55 0 103.5 16t83.5 57t55.5 111.5t20.5 180.5q0 93 -18 165t-51.5 122t-81.5 75.5t-107 25.5q-54 0 -102 -21t-84 -64.5t-57 -112t-21 -164.5z" />
<glyph unicode="&#xbb;" horiz-adv-x="1897" d="M235 200l50 -82l659 431v127l-659 443l-44 -79l530 -424zM946 200l50 -82l659 431v127l-659 443l-44 -79l530 -424z" />
<glyph unicode="&#xf7;" horiz-adv-x="1365" d="M220 558v113h925v-113h-925zM567 190q0 25 11 47.5t29 39t40.5 26t45.5 9.5q55 0 80.5 -31t25.5 -73q0 -27 -11 -49.5t-28.5 -38.5t-40 -25t-46.5 -9q-21 0 -40 7t-33.5 20.5t-23.5 33t-9 43.5zM587 1021q0 26 11 48.5t29 39t40 26t45 9.5q55 0 81 -31t26 -74 q0 -27 -11 -49.5t-28.5 -38t-40 -24.5t-46.5 -9q-21 0 -40 7t-34 20.5t-23.5 32.5t-8.5 43z" />
<glyph unicode="&#x192;" horiz-adv-x="1068" d="M235 1021l5 69l212 45l10 80q10 114 50 202t99.5 147.5t132 90t147.5 30.5q61 0 96 -6t46 -11l-18 -129q-13 8 -51.5 18t-110.5 10q-48 0 -89 -13.5t-72 -47.5t-51 -91.5t-27 -144.5l-16 -135h322l-10 -114h-322l-116 -1377h-146l117 1377h-208z" />
<glyph unicode="&#x2c6;" horiz-adv-x="1063" d="M174 1373l284 401h145l275 -400l-66 -37l-282 322l-296 -322z" />
<glyph unicode="&#x2da;" horiz-adv-x="1020" d="M190 1599q1 64 30 113t76 83t106 51.5t119 17.5h1q75 0 132.5 -20.5t96.5 -57t59 -86t20 -106.5q-1 -67 -27.5 -118.5t-71 -86.5t-102.5 -53t-121 -18h-1q-81 0 -140.5 22t-99 60t-59 89t-18.5 110zM304 1600q0 -41 12 -78.5t37.5 -66t65 -46t94.5 -17.5h1q99 0 151 50 t52 144q0 40 -11.5 77t-35.5 64.5t-62 44t-92 16.5h-1q-48 0 -87 -13t-66.5 -37t-42.5 -59t-15 -79z" />
<glyph unicode="&#x2dc;" horiz-adv-x="1022" d="M91 1440q8 33 31.5 69t59.5 66t81.5 49.5t98.5 19.5q41 0 73 -13t58.5 -32.5t49.5 -42.5t45.5 -42.5t47 -32.5t54.5 -13q37 0 64.5 15t47.5 36.5t32 44.5t18 39l79 -41q-11 -39 -33.5 -76t-54.5 -65.5t-73.5 -46t-90.5 -17.5q-41 0 -72.5 13t-58.5 33t-51 42.5t-48 42.5 t-50.5 33t-58.5 13q-37 0 -65.5 -15t-49.5 -36.5t-34.5 -44.5t-20.5 -39z" />
<glyph unicode="&#x3a9;" horiz-adv-x="1933" d="M130 390h96l61 -268l433 -8q-45 24 -95 69t-99.5 104.5t-94.5 131.5t-78.5 150t-53.5 159.5t-19 161.5q2 117 29.5 211.5t75 167t112.5 125t142 86.5t162.5 50t174.5 16q154 0 277.5 -42t209 -124t130.5 -202.5t43 -276.5q-1 -73 -19 -151t-48 -155t-70.5 -149.5 t-87 -135t-96 -113t-98.5 -82.5l422 7l70 268h99l-56 -390h-665v109q78 46 150 126.5t127.5 183.5t89 222.5t33.5 243.5q0 143 -35.5 249t-101.5 176.5t-161 105t-214 34.5q-121 0 -222 -32t-173.5 -102.5t-112.5 -182.5t-40 -272q0 -82 19.5 -163t52.5 -157.5t76 -145 t90 -124.5t95.5 -98t91.5 -64v-109h-682z" />
<glyph unicode="&#x3c0;" horiz-adv-x="1592" d="M149 828q-6 69 17 125.5t65.5 97t101.5 62.5t125 22h679q45 0 76.5 1t53 8t34.5 22t21 44h95q-6 -60 -15 -102t-38 -68.5t-86 -38.5t-158 -12h-36l-29 -710q-4 -88 20.5 -129t66.5 -41q56 0 98.5 30.5t78.5 100.5l71 -49q-18 -40 -41.5 -77.5t-56 -66t-76 -46 t-100.5 -17.5q-103 0 -149 70t-37 198l55 737h-346l-49 -559q-8 -85 -20.5 -143.5t-31.5 -101t-44.5 -74t-60.5 -61.5q-32 -28 -72.5 -41t-96.5 -26l-80 91q6 1 20.5 5t33 11t40.5 17t43 25q44 30 70.5 67t42 80t23.5 91.5t15 102.5l67 516h-108q-44 0 -78 -13.5t-58 -36.5 t-38.5 -54.5t-20.5 -67.5z" />
<glyph unicode="&#x400;" horiz-adv-x="1326" d="M106 0v82l177 15v1323l-173 21v81h1004l29 -296h-85l-53 201l-575 7v-606l395 5l24 173h92v-448h-92l-24 176l-395 5v-644l654 17l101 257l86 -29l-65 -340h-1100zM413 1908l102 99h1l341 -308l-48 -48h-1q-24 11 -57.5 28.5t-71.5 39t-77.5 45.5t-75.5 49t-65.5 49.5 t-47.5 45.5z" />
<glyph unicode="&#x401;" horiz-adv-x="1326" d="M106 0v82l177 15v1323l-173 21v81h1004l29 -296h-85l-53 201l-575 7v-606l395 5l24 173h92v-448h-92l-24 176l-395 5v-644l654 17l101 257l86 -29l-65 -340h-1100zM353 1825q0 23 6.5 45.5t20 40.5t34 29t48.5 11h1q24 0 42.5 -10t30.5 -25.5t18.5 -35.5t6.5 -39 q0 -25 -7 -47.5t-21 -40t-35 -27.5t-50 -10h-1q-22 0 -39.5 8.5t-29.5 23.5t-18.5 35t-6.5 42zM835 1825q0 23 7 45.5t20.5 40.5t34 29t48.5 11h1q24 0 42.5 -10t30.5 -25.5t18.5 -35.5t6.5 -39q0 -25 -7 -47.5t-21 -40t-35 -27.5t-50 -10h-1q-23 0 -40.5 8.5t-29.5 23.5 t-18.5 35t-6.5 42z" />
<glyph unicode="&#x402;" horiz-adv-x="1684" d="M72 1044l25 478h1329l-9 -478h-98l-31 376l-499 20v-640l1 1q31 14 78.5 26.5t98 22.5t97.5 15.5t77 5.5q142 0 228.5 -40.5t133.5 -110.5t62.5 -164.5t15.5 -201.5q0 -158 -29 -296t-86 -240.5t-142.5 -162t-197.5 -59.5q-11 0 -26 1t-30.5 3t-29 5t-20.5 6v90 q15 -3 39 -4.5t47 -1.5q87 0 149 43t101.5 125.5t58 204t18.5 278.5q0 107 -16 186.5t-54 132.5t-101 79.5t-157 26.5q-48 0 -89.5 -4t-79 -11t-73.5 -16.5t-73 -20.5h-1v-622l251 -15v-82h-677v82l274 14v1344l-412 -20l-52 -376h-101z" />
<glyph unicode="&#x403;" horiz-adv-x="1152" d="M65 0v77l227 22v1321l-218 20v82h1035l10 -505h-100l-52 412l-525 10v-1340l382 -22v-77h-759zM396 1699l341 308h1l102 -99q-18 -21 -47.5 -45.5t-66 -49.5t-76 -49t-77.5 -45.5t-71.5 -39t-56.5 -28.5h-1z" />
<glyph unicode="&#x404;" horiz-adv-x="1328" d="M78 763q0 169 54 311t149.5 245t224.5 161t279 58q73 0 138.5 -9t121.5 -20.5t100.5 -22.5t74.5 -16l-10 -327h-92l-47 237q-20 12 -45 23t-60.5 19.5t-84.5 13.5t-116 5q-105 0 -195 -41.5t-158 -120t-109.5 -192t-47.5 -257.5q38 35 89 58.5t111 23.5q62 0 114.5 -20 t99.5 -44.5t91 -44.5t88 -20q34 0 62.5 8.5t52 22t43 30t36.5 31.5l61 -61q-21 -29 -49 -57t-63.5 -49.5t-77 -35t-89.5 -13.5q-60 0 -112 20t-99 44t-92 44t-90 20q-30 0 -55.5 -8.5t-47 -21t-39 -28t-32.5 -30.5q9 -128 46 -241.5t102 -199t157 -135.5t211 -50 q62 0 106.5 5t77.5 14.5t58 22.5t48 28l84 206l94 -5l-56 -288q-40 -2 -77 -15t-83 -27t-106.5 -25.5t-147.5 -11.5q-160 0 -288.5 56.5t-218.5 160t-138 248.5t-48 321z" />
<glyph unicode="&#x405;" horiz-adv-x="1200" d="M135 71l17 365h94l26 -276q19 -17 51 -33t74 -28.5t92 -20.5t106 -8q88 0 155 21t112.5 60t68.5 94t23 122q0 70 -29.5 120.5t-80.5 89.5t-119.5 70.5t-146.5 64.5q-43 18 -90.5 39.5t-94.5 48.5t-90 61t-76 77t-52.5 96t-19.5 119q0 87 36 158.5t99.5 121.5t151.5 77.5 t192 27.5q69 0 128.5 -10t108 -23t85 -24.5t59.5 -15.5l-13 -336h-90l-34 260q-11 9 -35 19.5t-57.5 19t-75 14.5t-86.5 6q-158 0 -242 -63.5t-84 -195.5q0 -68 27 -116t75.5 -85.5t115.5 -70t147 -69.5q77 -36 157 -75t144.5 -89.5t105.5 -117.5t41 -160q0 -80 -36 -156.5 t-103.5 -137.5t-165.5 -98t-222 -37q-86 0 -158 14t-129 31t-97.5 32t-64.5 17z" />
<glyph unicode="&#x406;" horiz-adv-x="813" d="M127 0v82l205 14v1324l-205 21v81h558v-81l-204 -20v-1325l204 -14v-82h-558z" />
<glyph unicode="&#x407;" horiz-adv-x="813" d="M67 1825q0 23 6.5 45.5t20 40.5t34 29t48.5 11h1q24 0 42.5 -10t30.5 -25.5t18.5 -35.5t6.5 -39q0 -25 -7 -47.5t-21 -40t-35 -27.5t-50 -10h-1q-22 0 -39.5 8.5t-29.5 23.5t-18.5 35t-6.5 42zM127 0v82l205 14v1324l-205 21v81h558v-81l-204 -20v-1325l204 -14v-82h-558 zM549 1825q0 23 7 45.5t20.5 40.5t34 29t48.5 11h1q24 0 42.5 -10t30.5 -25.5t18.5 -35.5t6.5 -39q0 -25 -7 -47.5t-21 -40t-35 -27.5t-50 -10h-1q-23 0 -40.5 8.5t-29.5 23.5t-18.5 35t-6.5 42z" />
<glyph unicode="&#x408;" horiz-adv-x="766" d="M-3 -284q48 12 92 35t80.5 55.5t65 75t44.5 93.5q15 45 23 92.5t12.5 110.5t5.5 147.5t1 202.5v891l-207 22v81h556v-81l-201 -22v-857v-161.5t-1.5 -138.5t-6 -118.5t-13.5 -102.5q-17 -88 -58 -155.5t-97 -116.5t-121.5 -78.5t-131.5 -40.5z" />
<glyph unicode="&#x409;" horiz-adv-x="2037" d="M20 28l30 157q6 -6 17.5 -14.5t28.5 -16.5t39.5 -13.5t49.5 -5.5q44 0 83.5 39t72.5 110.5t59 171t44 220.5t27.5 260t9.5 289v194l-189 21v82h1078v-82l-194 -20v-575q17 4 48 8t69 7.5t79.5 6t79.5 2.5q126 0 222 -28.5t161 -82t98 -131t33 -176.5q0 -116 -39.5 -203 t-111.5 -146t-171.5 -88.5t-219.5 -29.5q-18 0 -54.5 2.5t-80 5.5t-88.5 5.5t-78 2.5h-310v82l221 14l12 1324h-453v-204q0 -184 -11 -346.5t-33 -299.5t-56 -245.5t-80 -184.5t-104 -116t-129 -40q-53 0 -89 11t-71 33zM1176 87q24 -3 47 -6t50 -5.5t61 -4t80 -1.5 q92 0 166 23t125.5 69.5t79 115.5t27.5 161q0 82 -27 143t-78.5 101.5t-125 60t-166.5 19.5q-35 0 -70.5 -1.5t-68 -4t-59 -6t-41.5 -6.5v-658z" />
<glyph unicode="&#x40a;" horiz-adv-x="2191" d="M108 0v82l184 14v1324l-170 20v82h496v-82l-181 -20v-588h748v588l-177 20v82h505v-82l-183 -20v-571q17 4 48 7.5t69 6.5t79.5 4.5t79.5 1.5q126 0 222 -28.5t161 -82t98 -131t33 -176.5q0 -124 -38.5 -213t-108.5 -146.5t-168.5 -85t-218.5 -27.5q-29 0 -78 3.5t-102 7 t-103.5 7t-82.5 3.5l1 1l-3 -1h-199v82l166 14v635h-748v-635l202 -14v-82h-531zM1330 102q49 -4 107 -13.5t131 -9.5q92 0 166 22t125.5 66.5t79 112t27.5 159.5q0 82 -27 143t-78.5 100.5t-125.5 59t-167 19.5q-34 0 -70 -1.5t-68 -4t-58.5 -5.5t-41.5 -6v-642z" />
<glyph unicode="&#x40b;" horiz-adv-x="1724" d="M80 1044l27 478h1325l-4 -479h-99l-34 377l-495 18v-657q34 15 82.5 31t101.5 29t105 21.5t93 8.5q108 0 181.5 -23.5t117.5 -77t63 -140t19 -212.5v-323l168 -13v-82h-472v82l160 14v266q0 102 -10 177t-38 124.5t-78.5 73.5t-131.5 24q-62 0 -110.5 -7t-90 -17.5 t-80 -23t-80.5 -24.5v-593l230 -14v-82h-656v82l274 14v1342l-412 -18l-55 -376h-101z" />
<glyph unicode="&#x40c;" horiz-adv-x="1415" d="M120 0v84l172 13v1322l-172 21v82h493v-82l-180 -20v-626h198l462 625l-189 21v82h468v-82l-154 -20l-482 -636q47 -20 100 -76.5t108 -130.5t109 -155t103 -151t90 -118t70 -56l78 -15v-82h-191q-26 0 -58.5 30.5t-70 80.5t-79 114t-84 131t-85 131t-83 114t-77.5 80.5 t-68 30.5h-165v-615l183 -15v-82h-496zM647 1699l341 308h1l102 -99q-18 -21 -47.5 -45.5t-66 -49.5t-76 -49t-77.5 -45.5t-71.5 -39t-56.5 -28.5h-1z" />
<glyph unicode="&#x40d;" horiz-adv-x="1718" d="M113 0v82l179 14v1324l-171 20v82h530v-82l-217 -20v-1102l218 306l631 734v62l-195 20v82h511v-82l-173 -21v-1323l185 -14v-82h-519v82l191 14v1124l-196 -285l-653 -754v-85l207 -14v-82h-528zM572 1908l102 99h1l341 -308l-48 -48h-1q-24 11 -57.5 28.5t-71.5 39 t-77.5 45.5t-75.5 49t-65.5 49.5t-47.5 45.5z" />
<glyph unicode="&#x40e;" horiz-adv-x="1268" d="M-10 1440v82h487v-82l-187 -20l329 -761l71 -201l74 203l274 759l-161 20v82h421v-82l-136 -20l-436 -1079q-12 -33 -25 -72.5t-30.5 -80t-40.5 -78.5t-53.5 -67.5t-71 -47.5t-92.5 -18q-48 0 -89.5 9.5t-72.5 23.5v118q4 -1 24 -2t44 -1.5t46 -1t30 -0.5q47 0 81.5 12.5 t61 38.5t47 65t39.5 93l-492 1088zM287 1980q0 8 0.5 17t1.5 16h107q19 0 24 -19t5 -45q0 -41 9.5 -78t35 -65t71.5 -44.5t118 -16.5t117.5 16.5t71 44.5t35 65t9.5 78q0 26 5 45t23 19h109q1 -7 1.5 -16t0.5 -17q0 -158 -95 -234.5t-278 -76.5q-181 0 -276 77t-95 234z" />
<glyph unicode="&#x40f;" horiz-adv-x="1615" d="M108 0v82l184 15v1322l-174 21v82h514v-82l-197 -20v-1324h745v1324l-172 20v82h479v-82l-164 -21v-1323l185 -14v-82h-602l-29 -368h-108l-29 368h-632z" />
<glyph unicode="&#x410;" horiz-adv-x="1401" d="M-26 0v82l133 14l519 1442h146l510 -1442l135 -14v-82h-483v82l188 14l-114 338h-653l-116 -338l185 -14v-82h-450zM389 533h585l-232 688l-61 206l-60 -215z" />
<glyph unicode="&#x411;" horiz-adv-x="1306" d="M73 0v82l219 14v1323l-216 21v82h1060l21 -367h-106l-60 271l-554 14v-536q17 4 48 8t69 7.5t79.5 6t79.5 2.5q126 0 222 -30.5t161 -88t98 -140.5t33 -188q0 -123 -39.5 -216.5t-111.5 -155.5t-171.5 -93.5t-219.5 -31.5q-18 0 -57.5 2.5t-86 5.5t-92.5 5.5t-78 2.5 h-298zM437 97q24 -3 47 -6t50 -6t61 -4.5t80 -1.5q93 0 166.5 23.5t125 71.5t79 121.5t27.5 172.5q0 90 -27 157t-78.5 110.5t-125 65t-166.5 21.5q-35 0 -70.5 -1.5t-68 -4t-59 -5.5t-41.5 -6v-708z" />
<glyph unicode="&#x412;" horiz-adv-x="1370" d="M106 0v82l177 14v1324l-173 21v81h248q91 0 168 8t152 8q137 0 232.5 -23.5t155 -68t86.5 -108.5t27 -144q0 -68 -19 -131t-57 -114t-94.5 -87.5t-131.5 -51.5q99 4 175.5 -20.5t129 -72t79.5 -115t27 -148.5q0 -90 -30 -174t-101 -149t-189.5 -104t-296.5 -39 q-37 0 -70 2t-69.5 4t-80.5 4t-102 2h-243zM430 95q22 -5 53 -8t64.5 -5t66.5 -3t60 -1q125 0 211.5 24.5t140.5 69.5t78 109t24 143q0 82 -22 142t-68 99t-118.5 57.5t-172.5 18.5h-73h-90t-88 -0.5t-66 -1.5v-644zM430 843q24 -2 61.5 -2.5t77 -0.5h75h56.5 q160 0 246 83.5t86 235.5q0 72 -18.5 127t-62 92t-115.5 56t-178 19q-78 0 -135.5 -7t-92.5 -8v-595z" />
<glyph unicode="&#x413;" horiz-adv-x="1158" d="M65 0v77l227 22v1321l-218 20v82h1035l10 -505h-100l-52 412l-525 10v-1340l382 -22v-77h-759z" />
<glyph unicode="&#x414;" horiz-adv-x="1461" d="M35 -368l25 466h151q14 16 40 57.5t56.5 110t61.5 164t56.5 220t41.5 279t16 340.5v151l-210 20v82h1099v-82l-195 -20v-1322h179l-49 -466h-99q0 7 -1 26.5t-2 47t-2.5 59.5t-2.5 65q-4 77 -7 170h-985q-19 -93 -34 -170q-6 -33 -12.5 -65t-12 -59.5t-10 -47t-5.5 -26.5 h-99zM353 98h682l1 1329h-453v-170q1 -245 -25.5 -445t-64 -348t-77 -241t-63.5 -125z" />
<glyph unicode="&#x415;" horiz-adv-x="1326" d="M106 0v82l177 15v1323l-173 21v81h1004l29 -296h-85l-53 201l-575 7v-606l395 5l24 173h92v-448h-92l-24 176l-395 5v-644l654 17l101 257l86 -29l-65 -340h-1100z" />
<glyph unicode="&#x416;" horiz-adv-x="2109" d="M22 0v82l78 15q21 6 50 35t62.5 73.5t71.5 100.5t78.5 115t82 117.5t82 108t79 86t73.5 51.5l-477 636l-156 20v82h463v-82l-175 -20l451 -626h199v625l-173 21v82h494v-82l-180 -20v-626h198l451 626l-173 20v82h462v-82l-158 -20l-475 -636q35 -16 74 -52.5t79.5 -86 t82 -108t81.5 -117.5t78 -114.5t71.5 -100t62.5 -73.5t50 -35l78 -15v-82h-192q-26 0 -58.5 30.5t-70 80.5t-79 114t-84 131t-85 131t-83 114t-77.5 80.5t-68 30.5h-165v-616l183 -14v-82h-497v82l173 14v616h-165q-31 0 -68 -30.5t-77.5 -80.5t-83 -114t-85 -131t-84 -131 t-79 -114t-70 -80.5t-58.5 -30.5h-192z" />
<glyph unicode="&#x417;" horiz-adv-x="1223" d="M111 63l28 334h73l45 -257q45 -21 119.5 -36.5t189.5 -15.5q195 0 300 81t105 258q0 70 -23 127.5t-73 98t-128.5 62.5t-190.5 22h-147v90h122q68 0 132.5 21.5t114.5 64t80 106.5t30 148q0 75 -21 128t-61 86t-97.5 48t-131.5 15q-50 0 -93 -7t-77 -19t-58.5 -27 t-37.5 -31l-31 -190h-97l-16 301q32 2 75 12.5t93 22.5t105.5 22t113.5 10q240 0 365.5 -83.5t125.5 -260.5q0 -88 -28.5 -156t-75 -116.5t-107.5 -78.5t-125 -42q106 -2 186.5 -31t135 -77.5t82 -113t27.5 -137.5q0 -106 -36 -190t-111.5 -142.5t-192 -90t-277.5 -31.5 q-74 0 -138 7.5t-116 19t-91.5 24.5t-66.5 24z" />
<glyph unicode="&#x418;" horiz-adv-x="1718" d="M113 0v82l179 14v1324l-171 20v82h530v-82l-217 -20v-1102l218 306l631 734v62l-195 20v82h511v-82l-173 -21v-1323l185 -14v-82h-519v82l191 14v1124l-196 -285l-653 -754v-85l207 -14v-82h-528z" />
<glyph unicode="&#x419;" horiz-adv-x="1718" d="M113 0v82l179 14v1324l-171 20v82h530v-82l-217 -20v-1102l218 306l631 734v62l-195 20v82h511v-82l-173 -21v-1323l185 -14v-82h-519v82l191 14v1124l-196 -285l-653 -754v-85l207 -14v-82h-528zM497 1980q0 8 0.5 17t1.5 16h107q19 0 24 -19t5 -45q0 -41 9.5 -78 t35 -65t71.5 -44.5t118 -16.5t117.5 16.5t71 44.5t35 65t9.5 78q0 26 5 45t23 19h109q1 -7 1.5 -16t0.5 -17q0 -158 -95 -234.5t-278 -76.5q-181 0 -276 77t-95 234z" />
<glyph unicode="&#x41a;" horiz-adv-x="1414" d="M118 0v84l172 13v1322l-172 21v82h493v-82l-180 -20v-626h198l462 625l-189 21v82h468v-82l-154 -20l-482 -636q47 -20 100 -76.5t108 -130.5t109 -155t103 -151t90 -118t70 -56l78 -15v-82h-191q-26 0 -58.5 30.5t-70 80.5t-79 114t-84 131t-85 131t-83 114t-77.5 80.5 t-68 30.5h-165v-615l183 -15v-82h-496z" />
<glyph unicode="&#x41b;" horiz-adv-x="1469" d="M20 28l30 157q7 -6 19 -14.5t30 -16.5t41 -13.5t52 -5.5q46 0 85.5 39t72 110.5t57 171t41 220.5t25 260t8.5 289v195l-223 20v82h1112v-82l-194 -20v-1323l201 -15v-82h-551v82l208 14l1 1328h-452v-208q0 -157 -9 -309t-28.5 -289t-50.5 -253t-75 -200.5t-101.5 -132.5 t-130.5 -48q-56 0 -94 11t-74 33z" />
<glyph unicode="&#x41c;" horiz-adv-x="2027" d="M8 0v82l179 15l174 1324l-236 20v81h459l357 -1043l74 -288l75 288l345 1043h437v-81l-224 -21l186 -1324l188 -14v-82h-529v82l190 14l-116 944l-55 415l-90 -290l-392 -1181h-57l-381 1068l-132 401l-41 -412l-109 -945l204 -14v-82h-506z" />
<glyph unicode="&#x41d;" horiz-adv-x="1688" d="M116 0v82l176 15v1323l-170 21v81h498v-81l-181 -21v-588h810v588l-173 21v81h491v-81l-171 -21v-1324l171 -14v-82h-494v82l176 14v635h-810v-635l183 -14v-82h-506z" />
<glyph unicode="&#x41e;" horiz-adv-x="1470" d="M78 749q0 121 24 226.5t68.5 193t106 156t137 116t162 72.5t180.5 25q153 0 271.5 -55t199.5 -155t123 -240.5t42 -312.5q0 -181 -52.5 -327.5t-143.5 -250t-213.5 -160.5t-262.5 -60q-153 -3 -272.5 53t-201.5 158.5t-125 245.5t-43 315zM241 750q0 -146 32.5 -271 t95 -217t154 -144.5t210.5 -52.5q108 0 199 45t157 134.5t102.5 222t36.5 307.5q0 147 -32.5 271t-94.5 214.5t-153 141t-209 50.5q-110 0 -201.5 -44t-157.5 -131.5t-102.5 -219t-36.5 -306.5z" />
<glyph unicode="&#x41f;" horiz-adv-x="1614" d="M111 1440v82h1392v-82l-182 -26v-1318l201 -14v-82h-527v82l183 14v1324h-741v-1324l203 -14v-82h-519v82l171 14v1324z" />
<glyph unicode="&#x420;" horiz-adv-x="1311" d="M115 0v82l177 14v1324l-165 21v81h240q51 0 88 2.5t75.5 5t84 5t113.5 2.5q150 0 250.5 -29.5t161 -85t86.5 -135t26 -180.5q0 -123 -46 -220t-124.5 -164t-184.5 -102.5t-226 -35.5q-31 0 -68.5 1t-71 2t-59.5 2.5t-33 3.5v-498l290 -14v-82h-614zM439 691q29 -5 93 -7 t142 -2q82 0 158 20.5t134.5 69.5t94 131t35.5 204q0 93 -25 157.5t-77 104t-130.5 57t-185.5 17.5q-75 0 -134.5 -6.5t-104.5 -6.5v-739z" />
<glyph unicode="&#x421;" horiz-adv-x="1327" d="M76 769q0 111 26 211t73 185.5t113 154.5t146.5 117.5t173 74.5t192.5 26q69 0 135 -8t123 -19t102 -21.5t71 -16.5l-17 -326h-92l-39 237q-29 24 -112.5 43t-210.5 19q-108 0 -200.5 -45.5t-160.5 -130.5t-107 -208t-39 -277q0 -142 30.5 -271.5t94 -228.5t162 -158 t234.5 -59q67 0 115 6t83 16t60.5 24t47.5 29l78 190l90 -12l-52 -265q-40 -2 -77 -14.5t-83.5 -27t-109.5 -26t-154 -11.5q-167 0 -296.5 57t-218.5 160.5t-135 249.5t-46 325z" />
<glyph unicode="&#x422;" horiz-adv-x="1450" d="M71 1008l34 514h1241l23 -514h-98l-54 420l-418 11v-1343l297 -14v-82h-723v82l272 13v1344l-412 -11l-62 -420h-100z" />
<glyph unicode="&#x423;" horiz-adv-x="1268" d="M-10 1440v82h487v-82l-187 -20l329 -761l71 -201l74 203l274 759l-161 20v82h421v-82l-136 -20l-436 -1079q-12 -33 -25 -72.5t-30.5 -80t-40.5 -78.5t-53.5 -67.5t-71 -47.5t-92.5 -18q-48 0 -89.5 9.5t-72.5 23.5v118q4 -1 24 -2t44 -1.5t46 -1t30 -0.5q47 0 81.5 12.5 t61 38.5t47 65t39.5 93l-492 1088z" />
<glyph unicode="&#x424;" horiz-adv-x="1470" d="M37 783q0 86 43.5 154.5t125 117.5t197 78t259.5 37v265l-206 21v82h556v-82l-205 -21v-264q130 -5 226.5 -21.5t166.5 -43t115 -62t71 -77.5t36.5 -89.5t10.5 -98.5q0 -97 -44 -172.5t-125.5 -129.5t-197 -86t-259.5 -41v-269l205 -25v-79h-556v82l206 22v267 q-192 7 -314 44t-191 95.5t-94.5 134t-25.5 161.5zM190 793q0 -69 19 -133t71 -114t144 -83t238 -41v680q-135 -6 -226 -31t-145.5 -65.5t-77.5 -94.5t-23 -118zM807 423q134 7 225 35t146 73t78.5 107t23.5 138q0 61 -19 117t-71.5 100.5t-144.5 73.5t-238 35v-679z" />
<glyph unicode="&#x425;" horiz-adv-x="1442" d="M16 0v82l178 14l453 669l-433 654l-160 22v81h563v-81l-226 -22l360 -566l357 567l-188 21v81h482v-81l-161 -22l-436 -627l464 -697l166 -13v-82h-557v82l211 14l-387 604l-371 -604l219 -14v-82h-534z" />
<glyph unicode="&#x426;" horiz-adv-x="1612" d="M90 0v77l202 22v1321l-179 20v82h533v-82l-211 -20v-1323h723v1323l-160 20v82h476v-82l-172 -20v-1322h243l-51 -466h-99q0 7 -1 26.5t-2 47t-2 59.5t-2 65q-3 77 -6 170h-1292z" />
<glyph unicode="&#x427;" horiz-adv-x="1365" d="M4 1440v82h466v-82l-189 -21v-299q0 -95 5.5 -162t19 -113t36.5 -73t57.5 -41.5t81.5 -18.5t110 -4q42 0 91.5 6t96 15.5t86.5 22t63 26.5v641l-194 21v82h529v-81l-190 -22v-1323l192 -14v-82h-556v82l219 14v591q-38 -21 -90 -37t-108 -27.5t-112.5 -17t-103.5 -5.5 q-103 0 -174.5 24.5t-116.5 79.5t-65 144t-20 217v355z" />
<glyph unicode="&#x428;" horiz-adv-x="2181" d="M86 0v82l206 14v1324l-176 20v82h515v-82l-196 -22v-1322h591v1323l-163 21v82h469v-82l-167 -20v-1324h581v1324l-160 20v82h478v-82l-175 -20v-1323l204 -15v-82h-2007z" />
<glyph unicode="&#x429;" horiz-adv-x="2199" d="M86 0v82l206 13v1324l-176 21v82h515v-82l-196 -20v-1324h591v1323l-163 21v82h469v-82l-167 -20v-1324h581v1323l-160 21v82h478v-82l-175 -20v-1324h248l-53 -464h-99q0 7 -1 26.5t-1.5 47t-1.5 59.5t-2 65q-3 77 -5 170h-1888z" />
<glyph unicode="&#x42a;" horiz-adv-x="1650" d="M80 1044l25 478h875v-81l-191 -21v-516q17 4 48 8t69 7.5t79.5 6t79.5 2.5q126 0 222 -30.5t161 -88t98 -140.5t33 -188q0 -123 -39.5 -216.5t-111.5 -155.5t-171.5 -93.5t-219.5 -31.5q-18 0 -58 2.5t-86.5 5.5t-93 5.5t-78.5 2.5h-350v77l267 21v1342l-399 -20 l-53 -376h-106zM789 86q24 -3 47 -5.5t50.5 -5t61.5 -4t79 -1.5q93 0 166.5 25t125 74.5t79 124.5t27.5 174q0 90 -27 158.5t-78.5 114t-125.5 68.5t-167 23q-34 0 -70 -1.5t-68 -4.5t-58.5 -6t-41.5 -6v-728z" />
<glyph unicode="&#x42b;" horiz-adv-x="1962" d="M112 0v82l179 14l1 1324l-175 20v82h515v-82l-196 -20v-518l1 2q17 4 48 8t69 7.5t79.5 6t79.5 2.5q126 0 222 -30.5t161 -88t98 -140.5t33 -188q0 -123 -39.5 -216.5t-111.5 -155.5t-171.5 -93.5t-219.5 -31.5q-18 0 -57.5 2.5t-86 5.5t-92.5 5.5t-78 2.5l2 3l-3 -3 h-258zM436 92q24 -3 47.5 -6t50.5 -5.5t61 -4.5t80 -2q93 0 166.5 24.5t125 73.5t79 123t27.5 173q0 90 -27 157.5t-78.5 112.5t-125 67t-166.5 22q-35 0 -70.5 -1.5t-68 -4t-59 -5.5t-41.5 -6h-1v-718zM1316 0v82l205 14v1324l-205 21v81h558v-81l-204 -20v-1325l204 -14 v-82h-558z" />
<glyph unicode="&#x42c;" horiz-adv-x="1298" d="M112 0v82l179 14l1 1324l-175 20v82h515v-82l-196 -20v-518l1 2q17 4 48 8t69 7.5t79.5 6t79.5 2.5q126 0 222 -30.5t161 -88t98 -140.5t33 -188q0 -123 -39.5 -216.5t-111.5 -155.5t-171.5 -93.5t-219.5 -31.5q-18 0 -57.5 2.5t-86 5.5t-92.5 5.5t-78 2.5l2 3l-3 -3 h-258zM436 92q24 -3 47.5 -6t50.5 -5.5t61 -4.5t80 -2q93 0 166.5 24.5t125 73.5t79 123t27.5 173q0 90 -27 157.5t-78.5 112.5t-125 67t-166.5 22q-35 0 -70.5 -1.5t-68 -4t-59 -5.5t-41.5 -6h-1v-718z" />
<glyph unicode="&#x42d;" horiz-adv-x="1338" d="M95 323l94 25l83 -180q20 -12 45 -28.5t61.5 -30.5t87 -24t120.5 -10q105 0 197 44.5t160 128.5t107 205.5t39 276.5q0 4 -0.5 8t-0.5 8q-39 -37 -91 -62t-115 -25q-61 0 -113.5 20t-100.5 44.5t-92 44.5t-87 20q-35 0 -63 -9t-51.5 -22.5t-43 -29.5t-36.5 -31l-61 61 q21 29 49 57t63.5 49.5t77.5 35t90 13.5q60 0 111.5 -21.5t98.5 -47.5t91.5 -47.5t91.5 -21.5q30 0 55 9.5t46.5 24.5t39 32t32.5 32q-14 118 -52 221.5t-101.5 181t-152 122.5t-202.5 45q-66 0 -111.5 -10t-78.5 -25t-56.5 -33t-45.5 -34l-48 -187h-109l12 306q27 1 52.5 7 t53 15t59.5 19t72.5 18.5t91.5 14t117 5.5q163 0 290 -58t213 -163t131 -250.5t45 -320.5q0 -170 -52.5 -311.5t-146 -243t-223.5 -158t-285 -56.5q-82 0 -141 12t-105 27t-83.5 27t-76.5 12z" />
<glyph unicode="&#x42e;" horiz-adv-x="2160" d="M116 0v82l176 14v1324l-170 20v82h488v-82l-175 -20v-588h366q15 168 75.5 299.5t151.5 222t203.5 137.5t232.5 47q145 0 260.5 -57t195.5 -158.5t122 -241t39 -304.5q-3 -189 -56 -336.5t-141.5 -249.5t-204.5 -155.5t-246 -53.5q-150 0 -269.5 55t-202 155t-125 240 t-40.5 309h-359v-645l183 -14v-82h-504zM955 745q0 -137 31.5 -258t93.5 -211.5t153.5 -143.5t211.5 -53q108 0 196 43t150.5 129.5t96.5 217.5t34 307q0 139 -30.5 260t-90 211t-147.5 142t-202 52q-106 0 -197 -41t-157.5 -126.5t-104.5 -216.5t-38 -312z" />
<glyph unicode="&#x42f;" horiz-adv-x="1417" d="M-10 0v77l81 20q24 4 55.5 43t67 96t74 125.5t76.5 132.5t75 116t70 77q-68 19 -123.5 55.5t-94.5 88t-60.5 118.5t-21.5 148q0 99 37 180.5t108 139.5t175 89.5t239 31.5q73 0 141 -8t143 -8h273v-82l-180 -20v-1322l202 -21v-77h-555v77l208 20v578q-11 0 -37.5 -0.5 t-61.5 -1t-74 -0.5t-74.5 -0.5t-63.5 -0.5h-40q-28 -20 -56.5 -60t-57.5 -91t-58 -109.5t-57 -116.5t-55 -111t-52 -94t-48 -65.5t-43 -24.5h-212zM339 1120q0 -84 25 -149t72.5 -110t116 -68t156.5 -23q63 0 107.5 0.5t75.5 1.5t51.5 2.5t36.5 2.5v649q-30 1 -55.5 3.5 t-54.5 5.5t-65.5 5t-88.5 2q-195 0 -286 -83.5t-91 -238.5z" />
<glyph unicode="&#x430;" horiz-adv-x="1141" d="M104 299q0 71 27.5 126.5t76 97t114.5 71t143.5 48t162.5 27.5t171 11v66q0 79 -12 135.5t-41.5 93t-79 53.5t-125.5 17q-61 0 -120 -14t-110 -33.5t-91 -40.5t-64 -36h-1l-44 83q8 8 31 22.5t58 32t78.5 35.5t92 32.5t99.5 24t101 9.5q103 0 174 -21.5t115 -69 t63 -122.5t19 -183v-682h130v-70q-16 -4 -39 -9.5t-48 -10t-50.5 -7.5t-46.5 -3q-20 0 -34 2t-24 10t-14.5 24.5t-4.5 45.5v88q-21 -18 -56.5 -47.5t-82.5 -58t-104.5 -49t-122.5 -20.5q-68 0 -130 19t-109 58.5t-74.5 100t-27.5 144.5zM264 315q0 -64 18 -107t49.5 -69.5 t74 -38t90.5 -11.5q34 0 73 12t79.5 32t79 45t71.5 51v358q-130 -1 -230 -20.5t-167.5 -54.5t-102.5 -85t-35 -112z" />
<glyph unicode="&#x431;" horiz-adv-x="1160" d="M89 689q0 174 30 306.5t79 230.5t113.5 165.5t133.5 112t137.5 69t127.5 37.5q42 9 71.5 16t49 13.5t30 13.5t14.5 18l40 94h80v-188q0 -22 -6 -35.5t-21 -21.5t-41 -12.5t-65 -7.5q-62 -2 -131.5 -17t-138.5 -47.5t-133.5 -85t-117.5 -130t-90 -181.5t-50 -240 q25 66 65.5 125.5t96 104.5t125 71t153.5 26q117 0 200.5 -43t136.5 -117.5t78 -175.5t25 -217q0 -129 -38.5 -237t-106 -186.5t-160 -122t-202.5 -43.5q-82 0 -150 28t-121.5 77t-94 116.5t-67 145.5t-39.5 164.5t-13 173.5zM240 590q0 -110 23.5 -204.5t67.5 -165 t107.5 -110.5t144.5 -40t144 31.5t106.5 91.5t66.5 145.5t23 193.5q0 105 -19.5 194.5t-60 154.5t-101.5 101.5t-144 36.5q-76 0 -141.5 -42t-113.5 -106t-75.5 -139t-27.5 -142z" />
<glyph unicode="&#x432;" horiz-adv-x="1268" d="M115 0v82l148 22v916l-144 33v82h207q25 0 60 2.5t75.5 6t83.5 6t83 2.5q128 0 214 -17t138 -50t74 -81.5t22 -112.5q0 -48 -17.5 -90.5t-48.5 -77.5t-73 -62.5t-91 -44.5q75 -7 135 -30t102 -58.5t64 -82t22 -98.5q0 -173 -130.5 -268.5t-392.5 -95.5q-35 0 -85.5 2.5 t-101 6t-93.5 6t-63 2.5h-188zM404 107q13 -4 43.5 -8.5t66.5 -8t70.5 -6t54.5 -2.5q99 0 170.5 14.5t117.5 44.5t68 75t22 106q0 121 -80.5 178t-249.5 57h-283v-450zM404 648h241q75 0 128.5 18.5t87 51t49.5 75.5t16 92q0 41 -14.5 72.5t-49.5 52.5t-93.5 31.5 t-147.5 10.5q-25 0 -54.5 -1.5l-59 -3t-56.5 -2.5t-47 -1v-396z" />
<glyph unicode="&#x433;" horiz-adv-x="1008" d="M94 0v82l169 14v924l-165 33v82h845l10 -406h-92l-46 302h-411v-935l291 -14v-82h-601z" />
<glyph unicode="&#x434;" horiz-adv-x="1232" d="M6 -368l16 464h117q18 6 41.5 27.5t48 64t48 108t42 160t30 221.5t11.5 292v52l-187 32v82h981v-82l-187 -32v-925h180l-53 -464h-99q0 7 -1 26.5t-1.5 47t-1.5 59.5t-2 65q-3 77 -5 170h-813q-16 -93 -29 -170q-6 -33 -11.5 -65t-10.5 -59.5t-9 -47t-5 -26.5h-100z M289 96h538v935h-377v-146q0 -143 -15 -271.5t-39 -232.5t-52.5 -177.5t-54.5 -107.5z" />
<glyph unicode="&#x435;" horiz-adv-x="1107" d="M102 575q0 130 39.5 239t109.5 188t165.5 122.5t206.5 43.5q89 0 159.5 -26.5t120 -77.5t77 -127t30.5 -175q0 -57 -1.5 -99t-9.5 -74h-742v-17t1 -17q3 -120 34.5 -209t82.5 -148.5t118 -88.5t143 -29q44 0 90.5 9t89.5 24t80 34.5t61 41.5l30 -68q-30 -30 -74 -56.5 t-96.5 -46t-110.5 -30.5t-115 -11q-119 0 -210.5 44t-153.5 123.5t-93.5 189t-31.5 241.5zM260 677h587q2 23 3.5 46.5t1.5 46.5q0 65 -15.5 119.5t-48.5 93.5t-83.5 61t-121.5 22q-65 0 -121 -20.5t-98.5 -67t-69.5 -120.5t-34 -181z" />
<glyph unicode="&#x436;" horiz-adv-x="1857" d="M8 0v82l69 14q26 10 58 46t68.5 86t77 107.5t84.5 111.5t90.5 97.5t95.5 65.5l-353 411l-142 32v82h435v-82l-167 -32l320 -393h216v393l-165 32v82h492v-82l-190 -33v-392h214l322 393l-167 32v82h434v-82l-143 -33l-352 -410q49 -22 96.5 -67t92 -99.5t85.5 -112.5 t77.5 -108t67 -85t55.5 -42l69 -14v-82h-141q-41 0 -84 40.5t-87 102t-89.5 132.5t-90.5 132.5t-90 102t-89 40.5h-180v-454l190 -14v-82h-496v82l169 15v453h-181q-33 0 -66.5 -23.5t-67 -62.5t-67.5 -88t-68 -101t-67.5 -101t-66 -88t-64 -62.5t-62.5 -23.5h-142z" />
<glyph unicode="&#x437;" horiz-adv-x="1105" d="M121 60l18 224h87l25 -141q18 -15 48 -27t67 -19.5t77.5 -11.5t78.5 -4q174 0 257 62t83 172q0 54 -17 98t-55 74.5t-98 46.5t-145 13l-119 -14l-1 105l92 11q140 16 214 76t74 150q0 45 -14 80t-46.5 59t-84 36.5t-126.5 12.5q-56 0 -102.5 -7t-82 -16t-60 -19 t-37.5 -16l-31 -196h-89v297q51 0 94 8.5t90 19t104.5 19t137.5 8.5q95 0 169.5 -18.5t126.5 -54t79 -86.5t27 -116q0 -44 -18 -85t-50 -76t-76 -63t-97 -46q70 -6 126.5 -28t96 -57.5t61 -82.5t22.5 -102q1 -83 -29.5 -150t-91 -114t-152 -72.5t-212.5 -25.5q-73 0 -137 7 t-117 17.5t-95.5 24t-71.5 27.5z" />
<glyph unicode="&#x438;" horiz-adv-x="1456" d="M95 0v82l168 15v923l-164 33v82h487v-82l-182 -32v-847l138 223l544 738h271v-82l-164 -32v-925l169 -14v-82h-486v82l176 14v858l-166 -269l-508 -678l-2 -7h-281z" />
<glyph unicode="&#x439;" horiz-adv-x="1456" d="M95 0v82l168 15v923l-164 33v82h487v-82l-182 -32v-847l138 223l544 738h271v-82l-164 -32v-925l169 -14v-82h-486v82l176 14v858l-166 -269l-508 -678l-2 -7h-281zM348 1702q0 8 0.5 16.5t1.5 16.5h107q19 0 24 -19.5t5 -45.5q0 -41 11.5 -84t38.5 -78t72 -57t112 -22 t110.5 22t69.5 57t36.5 78t10.5 84q0 26 5 45.5t23 19.5h108q1 -8 1.5 -16.5t0.5 -16.5q0 -79 -23 -146t-69 -115.5t-114.5 -75.5t-159.5 -27q-90 0 -159.5 27.5t-116.5 76t-71 115t-24 145.5z" />
<glyph unicode="&#x43a;" horiz-adv-x="1260" d="M95 0v82l168 15v924l-164 32v82h487v-82l-186 -33v-392h216l321 392l-167 33v82h434v-82l-143 -33l-353 -411q49 -23 95.5 -67.5t90.5 -99t84 -112t75.5 -107t66 -84t54.5 -41.5l72 -16v-82h-139q-31 0 -62.5 23.5t-64.5 62.5t-66.5 88t-67 101t-67.5 101t-68 88 t-67 62.5t-66 23.5h-178v-454l196 -14v-82h-501z" />
<glyph unicode="&#x43b;" horiz-adv-x="1256" d="M24 8l17 165q5 -3 20.5 -8t34.5 -10.5t38 -9t32 -3.5q43 0 78.5 54.5t61 164t40 274.5t14.5 386l-187 32v82h997v-82l-178 -32v-926l173 -13v-82h-480v82l167 14v935h-397v-107q0 -168 -10 -298.5t-25.5 -227.5t-34.5 -164t-38 -109q-14 -30 -32 -56t-45 -45t-64.5 -29.5 t-88.5 -10.5q-12 0 -26.5 2.5t-28 6t-24 7.5t-14.5 8z" />
<glyph unicode="&#x43c;" horiz-adv-x="1737" d="M36 0v82l164 13l145 926l-196 32v82h400l232 -672l93 -276l80 276l230 672h403v-82l-209 -32l163 -925l164 -14v-82h-473v82l165 14l-96 593l-49 357l-117 -355l-249 -706h-67l-258 705l-127 348l-37 -349l-88 -594l177 -13v-82h-450z" />
<glyph unicode="&#x43d;" horiz-adv-x="1446" d="M95 0v82l168 14v925l-164 32v82h497v-82l-192 -32v-379h638v378l-191 33v82h490v-82l-158 -33v-924l169 -14v-82h-508v82l198 14v445h-638v-445l200 -14v-82h-509z" />
<glyph unicode="&#x43e;" horiz-adv-x="1191" d="M86 577q0 138 45 247.5t118.5 186t166.5 117t190 40.5q139 0 235 -49t155.5 -132t86 -191.5t26.5 -227.5q0 -138 -45 -247.5t-118.5 -186t-167 -117t-190.5 -40.5q-139 0 -234.5 49t-155 132t-86 191.5t-26.5 227.5zM249 586q0 -102 18.5 -193.5t60 -161t107.5 -110 t161 -40.5q81 0 146 30t110 90t69.5 149.5t24.5 208.5q0 100 -18.5 191.5t-60 161.5t-107.5 111t-162 41q-81 0 -145.5 -30.5t-109.5 -90.5t-69.5 -149.5t-24.5 -207.5z" />
<glyph unicode="&#x43f;" horiz-adv-x="1385" d="M107 0v82l156 14v924l-152 33v82h1157v-82l-146 -32v-926l157 -13v-82h-457v82l159 13v936h-577v-935l165 -13v-82z" />
<glyph unicode="&#x440;" horiz-adv-x="1271" d="M52 1049v81l251 30h5l34 -30v-128q27 28 64.5 57.5t85.5 53.5t105.5 39.5t123.5 15.5q85 0 165.5 -32t143.5 -100t101 -173.5t38 -252.5q0 -132 -41 -247t-116 -201t-181.5 -135.5t-237.5 -49.5q-29 0 -61 2.5t-63.5 7t-61 11.5t-51.5 15l4 -175v-228l235 -20v-86h-537 v86l159 19v1407zM360 141q7 -12 29.5 -25t55 -23.5t73 -17t85.5 -6.5q87 0 161.5 31t129.5 95t86 160.5t33 227.5q1 125 -27 214t-76.5 145.5t-113 82.5t-135.5 26q-51 0 -97.5 -12.5t-85.5 -31.5t-69 -41.5t-49 -43.5v-781z" />
<glyph unicode="&#x441;" horiz-adv-x="1044" d="M103 554q-1 80 15.5 157t49 145t80.5 125.5t111 99t140.5 64.5t169.5 23q42 0 84 -6.5t79.5 -15.5t67.5 -20t50 -20l-8 -275h-91l-39 190q-25 25 -72 41t-113 16q-81 0 -149 -32.5t-117 -93t-76.5 -146t-27.5 -191.5q-1 -134 28 -233.5t80 -165.5t121 -98.5t151 -32.5 q47 0 93 8.5t86.5 22t74 30t56.5 32.5l29 -56q-29 -29 -71 -55.5t-91.5 -46.5t-103 -31.5t-104.5 -11.5q-123 0 -216.5 45t-157 123t-96 183.5t-33.5 225.5z" />
<glyph unicode="&#x442;" horiz-adv-x="1250" d="M80 729l10 406h1070l10 -406h-98l-47 302h-329v-935l291 -14v-82h-724v82l291 14v935h-329l-47 -302h-98z" />
<glyph unicode="&#x443;" horiz-adv-x="1159" d="M5 1058v77h433v-77l-166 -21l225 -632l112 -345l109 347l192 629l-147 22v77h386v-77l-110 -22q-65 -197 -114 -347.5t-86 -262.5t-62.5 -190t-43.5 -130.5t-30 -84.5t-20 -51q-48 -119 -89 -209t-89.5 -150t-110.5 -90.5t-152 -30.5q-13 0 -27 1t-27 3t-23.5 4.5 t-16.5 5.5v142q6 -3 17.5 -5.5t25 -4t28 -2t26.5 -0.5q44 0 86 12t84 50.5t83.5 110.5t85.5 193h-79l-403 1035z" />
<glyph unicode="&#x444;" horiz-adv-x="1786" d="M102 543q0 130 37.5 244t105.5 199t164.5 133.5t213.5 48.5q32 0 62 -5t56 -12.5t47.5 -16.5t36.5 -17l-5 175v266l-180 19v67l289 33h1l34 -25v-360l-6 -218q20 18 46.5 35t62 30t81 21t103.5 8q78 0 155.5 -30.5t139 -98t100 -175.5t38.5 -262q0 -131 -37.5 -244.5 t-106 -198.5t-165 -133.5t-213.5 -48.5q-32 0 -62 5t-56 12.5t-48 16.5t-37 17l5 -178v-245l189 -22v-82h-513v82l181 23v244l5 219q-20 -18 -46.5 -34.5t-61.5 -29t-80.5 -20.5t-103.5 -8q-78 0 -155.5 30.5t-139 98t-99.5 175t-38 262.5zM259 569q0 -133 27.5 -225.5 t74 -150t107 -83t125.5 -25.5q42 0 77.5 6.5t65 16t51 20.5t34.5 21v857q-8 9 -26 22.5t-44.5 26t-60.5 21.5t-75 9q-75 0 -140 -31.5t-113 -95.5t-75.5 -161t-27.5 -228zM964 139q8 -9 26 -22.5t44.5 -26t61 -21.5t75.5 -9q75 0 140 31.5t113 95.5t75.5 161t27.5 228 q0 133 -28 225.5t-74.5 150t-107 83t-125.5 25.5q-41 0 -77 -6.5t-65.5 -16t-51 -20.5t-34.5 -21v-857z" />
<glyph unicode="&#x445;" horiz-adv-x="1208" d="M16 0v82l142 15l373 473l-359 467l-122 21v77h454v-77l-149 -21l211 -303l62 -90l58 90l226 303l-163 21v77h418v-77l-129 -21l-359 -446l375 -496l126 -13v-82h-473v82l152 15l-214 314l-65 92l-55 -88l-232 -317l187 -16v-82h-464z" />
<glyph unicode="&#x446;" horiz-adv-x="1391" d="M107 0v83l156 14v925l-152 31v82h477v-82l-184 -31v-925h576v925l-185 31v82h483v-82l-157 -31v-925h242l-52 -465h-100q0 7 -1 26.5t-1.5 47t-1.5 59.5t-2 65q-3 77 -5 170h-1093z" />
<glyph unicode="&#x447;" horiz-adv-x="1306" d="M16 1053v82h437v-82l-160 -32v-128q0 -117 11 -193.5t42.5 -122t87.5 -63.5t146 -18q40 0 87 4.5t92 12t83 17.5t60 21v469l-191 33v82h477v-82l-145 -32v-925l156 -14v-82h-491v82l194 14v359q-37 -16 -84 -28.5t-97 -21t-99.5 -13t-91.5 -4.5q-100 0 -172 23.5 t-118.5 75.5t-68.5 135t-22 201v198z" />
<glyph unicode="&#x448;" horiz-adv-x="1955" d="M65 0v82l197 14v924l-190 33v82h526v-82l-193 -33v-924h499l2 924l-197 33v82h520v-82l-184 -33v-924h504v923l-196 34v82h521v-82l-183 -33v-924l192 -14v-82h-1818z" />
<glyph unicode="&#x449;" horiz-adv-x="1955" d="M66 0v82l197 14v925l-190 32v82h526v-82l-193 -33v-924h499v925l-195 32v82h520v-82l-184 -32v-925h504v925l-196 32v82h521v-82l-183 -32v-925h190l-53 -464h-99q0 7 -1 26.5t-1.5 47t-1.5 59.5t-2 65q-3 77 -5 170h-1653z" />
<glyph unicode="&#x44a;" horiz-adv-x="1394" d="M80 1135h619v-480q15 4 40 8t56 7.5t66.5 6t72.5 2.5q216 0 320 -91t104 -257q0 -93 -30 -160t-87 -110t-138.5 -63.5t-183.5 -20.5q-30 0 -75.5 3.5t-94 8t-93.5 8t-75 3.5h-275v82l252 14v935h-348l-34 -342h-90zM699 97q15 -2 40.5 -5.5t55 -8t61 -7.5t60.5 -3 q64 0 117 12t90.5 40.5t58.5 75.5t21 117q0 73 -20.5 122.5t-59.5 79.5t-96 43t-131 13q-62 0 -115.5 -7t-81.5 -14v-458z" />
<glyph unicode="&#x44b;" horiz-adv-x="1694" d="M65 0v82l198 14v924l-183 33v82h546v-90l-222 -24v-366q14 4 38 8t54 7.5t65 6t71 2.5q216 0 320 -86t104 -252q0 -88 -30 -155.5t-85.5 -114t-135.5 -70.5t-180 -24q-32 0 -79 3.5t-95.5 8t-91.5 8t-68 3.5h-226zM404 90q29 -5 84 -11t134 -6q66 0 118 15t88 46t55 79 t19 115q0 73 -20 121t-59 77t-96.5 41t-132.5 12q-30 0 -58.5 -2t-53.5 -5t-45 -7t-33 -8v-467zM1122 1053v82h467v-82l-158 -33v-924l169 -14v-82h-468v82l158 14v924z" />
<glyph unicode="&#x44c;" horiz-adv-x="1106" d="M65 0v82l198 14v924l-183 33v82h546v-82l-222 -32v-366q14 4 38 8t54 7.5t65 6t71 2.5q216 0 320 -86t104 -252q0 -88 -30 -155.5t-85.5 -114t-135.5 -70.5t-180 -24q-32 0 -79 3.5t-95.5 8t-91.5 8t-68 3.5h-226zM404 90q29 -5 84 -11t134 -6q66 0 118 15t88 46t55 79 t19 115q0 73 -20 121t-59 77t-96.5 41t-132.5 12q-30 0 -58.5 -2t-53.5 -5t-45 -7t-33 -8v-467z" />
<glyph unicode="&#x44d;" horiz-adv-x="1083" d="M90 92l1 198h88l41 -158q42 -24 101.5 -45t143.5 -21q73 0 140.5 25.5t120 82.5t84.5 148t35 221q-35 -31 -82 -51t-106 -20q-47 0 -90.5 19.5t-83.5 43.5t-76.5 43.5t-69.5 19.5q-57 0 -94.5 -17t-65.5 -49l-36 47q35 54 98.5 86t143.5 32q46 0 89 -19.5t83 -43 t76.5 -43t71.5 -19.5q45 0 79 19t60 45q-8 115 -42 198t-86.5 137t-119.5 80t-142 26q-78 0 -138 -13t-93 -37l-40 -164h-79v259q23 11 63 20.5t89 16t102 10t102 3.5q121 0 221.5 -38.5t173.5 -115.5t113 -191.5t39 -266.5q-1 -137 -44.5 -245.5t-117 -183.5t-170 -115 t-201.5 -40q-68 0 -125 9t-104.5 25t-85.5 37t-67 45z" />
<glyph unicode="&#x44e;" horiz-adv-x="1834" d="M84 0v82l179 14v924l-174 33v82h494v-82l-179 -33v-387h325q9 125 57 224.5t119.5 168.5t160.5 105.5t181 36.5q139 0 235 -49t155.5 -132t86 -191.5t26.5 -227.5q0 -138 -45 -247.5t-118.5 -186t-167 -117t-190.5 -40.5q-132 0 -225.5 44.5t-153 120.5t-89 177 t-33.5 213h-324v-436l188 -14v-82h-508zM894 590q-1 -101 17 -192.5t58.5 -160.5t105.5 -110t159 -42q80 -1 144.5 28.5t109.5 88t70 147t26 206.5q1 100 -17 191t-58.5 160.5t-106 111t-159.5 42.5q-80 1 -144.5 -28.5t-109.5 -88t-69.5 -147t-25.5 -206.5z" />
<glyph unicode="&#x44f;" horiz-adv-x="1302" d="M68 0v82l81 15q36 9 64.5 35.5t52.5 62.5t45.5 77.5t42.5 81t43.5 72.5t48.5 53q-72 17 -123 51.5t-82.5 80.5t-46 101t-14.5 115q0 83 35.5 143.5t101 100.5t157.5 59t205 19q96 0 171.5 -7t128.5 -7h200v-82l-140 -33v-924l161 -14v-82h-483v82l181 14v368h-304 q-35 -15 -62.5 -55.5t-51 -92t-45 -107.5t-44 -102.5t-48 -76.5t-56.5 -30h-219zM334 822q0 -60 19 -108.5t59 -83t101.5 -53t147.5 -18.5h63.5h72t63.5 0.5t38 2.5v477q-28 2 -79 8.5t-136 6.5q-80 0 -144.5 -12t-110 -39t-70 -71.5t-24.5 -109.5z" />
<glyph unicode="&#x450;" horiz-adv-x="1107" d="M102 575q0 130 39.5 239t109.5 188t165.5 122.5t206.5 43.5q89 0 159.5 -26.5t120 -77.5t77 -127t30.5 -175q0 -57 -1.5 -99t-9.5 -74h-742v-17t1 -17q3 -120 34.5 -209t82.5 -148.5t118 -88.5t143 -29q44 0 90.5 9t89.5 24t80 34.5t61 41.5l30 -68q-30 -30 -74 -56.5 t-96.5 -46t-110.5 -30.5t-115 -11q-119 0 -210.5 44t-153.5 123.5t-93.5 189t-31.5 241.5zM236 1694l116 100h1l316 -391l-51 -50h-1q-18 8 -49.5 31t-69.5 54.5t-78.5 68t-77 71.5t-65 65.5t-41.5 50.5zM260 677h587q2 23 3.5 46.5t1.5 46.5q0 65 -15.5 119.5t-48.5 93.5 t-83.5 61t-121.5 22q-65 0 -121 -20.5t-98.5 -67t-69.5 -120.5t-34 -181z" />
<glyph unicode="&#x451;" horiz-adv-x="1107" d="M102 575q0 130 39.5 239t109.5 188t165.5 122.5t206.5 43.5q89 0 159.5 -26.5t120 -77.5t77 -127t30.5 -175q0 -57 -1.5 -99t-9.5 -74h-742v-17t1 -17q3 -120 34.5 -209t82.5 -148.5t118 -88.5t143 -29q44 0 90.5 9t89.5 24t80 34.5t61 41.5l30 -68q-30 -30 -74 -56.5 t-96.5 -46t-110.5 -30.5t-115 -11q-119 0 -210.5 44t-153.5 123.5t-93.5 189t-31.5 241.5zM260 677h587q2 23 3.5 46.5t1.5 46.5q0 65 -15.5 119.5t-48.5 93.5t-83.5 61t-121.5 22q-65 0 -121 -20.5t-98.5 -67t-69.5 -120.5t-34 -181zM267 1487q0 24 6.5 46.5t20 40.5 t34.5 28.5t49 10.5h1q24 0 42 -9.5t30.5 -25t18.5 -35t6 -39.5q0 -26 -7 -48.5t-20.5 -39.5t-35 -27t-49.5 -10h-1q-23 0 -40.5 8.5t-29.5 23.5t-18.5 34.5t-6.5 41.5zM709 1487q0 24 6.5 46.5t20 40.5t34 28.5t48.5 10.5h1q24 0 42.5 -9.5t31 -25t18.5 -35t6 -39.5 q0 -26 -7 -48.5t-21 -39.5t-35 -27t-50 -10h-1q-22 0 -39.5 8.5t-29.5 23.5t-18.5 34.5t-6.5 41.5z" />
<glyph unicode="&#x452;" horiz-adv-x="1293" d="M0 1296v93h203v169l-186 19v66l290 33h5l35 -24v-263h280v-93h-280v-103l-4 -201q25 21 70.5 50.5t103 56.5t122.5 46t129 19q97 0 161 -28t101.5 -86.5t52.5 -149.5t15 -218v-660q0 -128 -22.5 -223t-64 -159.5t-99.5 -98.5t-129 -39h-22t-33.5 1t-33 2.5t-19.5 4.5 l-8 79q8 -2 21 -1t28 2.5t30 4.5t27 6q47 12 81.5 49.5t56.5 96t32.5 134.5t10.5 165v636q0 93 -9 161.5t-35.5 113t-74.5 66.5t-127 22q-46 0 -95.5 -14t-97.5 -35.5t-91.5 -48.5t-76.5 -52v-799l155 -14v-82h-428v82l129 14v1200h-203z" />
<glyph unicode="&#x453;" horiz-adv-x="1006" d="M100 0v82l169 14v924l-165 33v82h845l10 -406h-92l-46 302h-411v-935l291 -14v-82h-601zM365 1403l317 391h1l115 -100q-13 -20 -40.5 -49.5t-63 -63.5t-75.5 -69.5t-78 -66.5t-70.5 -55.5t-53.5 -36.5h-2z" />
<glyph unicode="&#x454;" horiz-adv-x="1083" d="M78 587q-1 129 44 237t123 185.5t183.5 120.5t226.5 43q49 0 99 -3.5t95.5 -10t82.5 -16t60 -20.5v-260h-91l-44 174q-35 26 -91 39t-128 12q-76 0 -145 -26t-123 -81.5t-89 -141.5t-42 -205q37 32 84.5 53.5t103.5 21.5q46 0 89 -19.5t83 -43t77 -43t72 -19.5 q54 0 91.5 16.5t66.5 48.5l37 -46q-29 -54 -90.5 -86.5t-151.5 -32.5q-47 0 -90.5 19.5t-83.5 43.5t-76.5 43.5t-68.5 19.5q-50 0 -84.5 -20.5t-60.5 -47.5q4 -121 36 -210t84.5 -147t122.5 -86t151 -28q84 0 136.5 12.5t93.5 37.5l42 169h89l1 -197q-29 -24 -67 -45 t-85.5 -37t-104.5 -25t-125 -9q-135 0 -235 44t-166 124t-98.5 192.5t-33.5 249.5z" />
<glyph unicode="&#x455;" horiz-adv-x="1029" d="M138 64v254h98l28 -161q11 -16 36 -32t59 -29t75 -21t83 -8q71 0 121.5 13.5t83 38.5t48 61t15.5 81q0 47 -19.5 82t-58.5 63.5t-97 53.5t-135 52q-80 28 -140.5 62t-101 77.5t-61 98t-20.5 124.5q0 67 32.5 120.5t86.5 90.5t124.5 56.5t147.5 19.5q60 0 110.5 -7.5 t90 -18t67 -21t41.5 -16.5v-240h-89l-32 154q-8 13 -28 24.5t-48 19.5t-61.5 12.5t-68.5 4.5q-48 1 -91.5 -10.5t-76.5 -33t-52.5 -53.5t-19.5 -72q0 -60 24 -100.5t63 -69t89 -48.5t102 -41q68 -27 132 -55.5t113.5 -67t79 -92t29.5 -129.5q0 -77 -31 -137.5t-87 -102 t-133 -63t-169 -21.5q-45 0 -97.5 8t-102.5 21t-92.5 28.5t-66.5 29.5z" />
<glyph unicode="&#x456;" horiz-adv-x="672" d="M89 0v82l185 13v921l-169 33v81l273 30h5l35 -30v-1035l185 -13v-82h-514zM215 1487q0 24 6.5 46.5t20 40.5t34.5 28.5t49 10.5h1q24 0 42 -9.5t30.5 -25t18.5 -35t6 -39.5q0 -26 -7 -48.5t-20.5 -39.5t-35 -27t-49.5 -10h-1q-23 0 -40.5 8.5t-29.5 23.5t-18.5 34.5 t-6.5 41.5z" />
<glyph unicode="&#x457;" horiz-adv-x="672" d="M4 1487q0 24 6.5 46.5t20 40.5t34.5 28.5t49 10.5h1q24 0 42 -9.5t30.5 -25t18.5 -35t6 -39.5q0 -26 -7 -48.5t-20.5 -39.5t-35 -27t-49.5 -10h-1q-23 0 -40.5 8.5t-29.5 23.5t-18.5 34.5t-6.5 41.5zM89 0v82l185 13v921l-169 33v81l273 30h5l35 -30v-1035l185 -13v-82 h-514zM446 1487q0 24 6.5 46.5t20 40.5t34 28.5t48.5 10.5h1q24 0 42.5 -9.5t31 -25t18.5 -35t6 -39.5q0 -26 -7 -48.5t-21 -39.5t-35 -27t-50 -10h-1q-22 0 -39.5 8.5t-29.5 23.5t-18.5 34.5t-6.5 41.5z" />
<glyph unicode="&#x458;" horiz-adv-x="654" d="M10 -413q8 -1 21 0.5t28 4t30.5 6t28.5 6.5q48 13 79.5 52.5t50 98t25.5 133.5t7 161l-2 960l-170 33v88l276 30h5l35 -30v-1094q0 -255 -75.5 -385.5t-220.5 -144.5q-8 -1 -25 -1h-34.5t-32 1.5t-18.5 3.5zM220 1487q0 24 6.5 46.5t20 40.5t34.5 28.5t49 10.5h1 q24 0 42 -9.5t30.5 -25t18.5 -35t6 -39.5q0 -26 -7 -48.5t-20.5 -39.5t-35 -27t-49.5 -10h-1q-23 0 -40.5 8.5t-29.5 23.5t-18.5 34.5t-6.5 41.5z" />
<glyph unicode="&#x459;" horiz-adv-x="1679" d="M24 8l17 165q5 -3 20.5 -8t34.5 -10.5t38 -9t32 -3.5q43 0 78.5 54t61 163.5t39.5 274.5t15 387l-187 32v82h997v-82l-178 -32v-366q15 4 39 8t54 7.5t64.5 6t70.5 2.5q216 0 320 -86t104 -252q0 -175 -100.5 -269.5t-302.5 -94.5q-29 0 -71.5 3.5t-88.5 7.5t-90 7.5 t-75 4.5h-231v82l167 14v935h-397v-107q0 -168 -10 -298.5t-25.5 -227.5t-34.5 -164t-38 -109q-14 -30 -32 -56t-45 -45t-64.5 -29.5t-88.5 -10.5q-12 0 -26.5 2.5t-28 6t-24 7.5t-14.5 8zM992 90q31 -3 84 -10t134 -7q63 0 114 13.5t88 44t57 79t20 118.5q0 73 -20.5 121.5 t-59.5 77t-96 40.5t-130 12q-60 0 -112 -7t-79 -15v-467z" />
<glyph unicode="&#x45a;" horiz-adv-x="1872" d="M95 0v82l168 14v925l-164 32v82h497v-82l-192 -33v-388h638v389l-191 32v82h490v-82l-158 -32v-373q13 4 37 9t54 9t65.5 7t71.5 3q115 0 195.5 -22.5t131.5 -66.5t74 -108.5t23 -147.5q0 -88 -30 -154t-85.5 -110.5t-135.5 -67t-180 -22.5q-30 0 -76.5 3.5t-95.5 8 t-94 8t-72 3.5h-222v77l198 14v450h-638v-445l200 -14v-82h-509zM1183 91q14 -2 33 -5.5t45 -6.5t60.5 -5t79.5 -2q65 0 117 13t88 42t55.5 76t19.5 115q0 73 -20.5 122.5t-59.5 79.5t-96.5 43t-131.5 13q-29 0 -57.5 -2.5t-54 -6.5t-46 -8.5t-32.5 -8.5v-459z" />
<glyph unicode="&#x45b;" horiz-adv-x="1353" d="M0 1296v93h196v169l-186 19v67l290 32h5l35 -24v-263h287v-93h-287v-137l-4 -167q25 21 70.5 50.5t103 56.5t122.5 46t129 19q97 0 161 -28t101.5 -86.5t52.5 -150t15 -218.5v-586l151 -13v-82h-443v82l148 13v586q0 93 -9 161.5t-35 113.5t-74.5 67t-127.5 22 q-46 0 -95.5 -14t-97.5 -35.5t-91.5 -48.5t-76.5 -53v-799l155 -13v-82h-428v82l129 13v1201h-196z" />
<glyph unicode="&#x45c;" horiz-adv-x="1260" d="M95 0v82l168 15v924l-164 32v82h487v-82l-186 -33v-392h216l321 392l-167 33v82h434v-82l-143 -33l-353 -411q49 -23 95.5 -67.5t90.5 -99t84 -112t75.5 -107t66 -84t54.5 -41.5l72 -16v-82h-139q-31 0 -62.5 23.5t-64.5 62.5t-66.5 88t-67 101t-67.5 101t-68 88 t-67 62.5t-66 23.5h-178v-454l196 -14v-82h-501zM530 1403l317 391h1l115 -100q-13 -20 -40.5 -49.5t-63 -63.5t-75.5 -69.5t-78 -66.5t-70.5 -55.5t-53.5 -36.5h-2z" />
<glyph unicode="&#x45d;" horiz-adv-x="1456" d="M95 0v82l168 15v923l-164 33v82h487v-82l-182 -32v-847l138 223l544 738h271v-82l-164 -32v-925l169 -14v-82h-486v82l176 14v858l-166 -269l-508 -678l-2 -7h-281zM394 1694l116 100h1l316 -391l-51 -50h-1q-18 8 -49.5 31t-69.5 54.5t-78.5 68t-77 71.5t-65 65.5 t-41.5 50.5z" />
<glyph unicode="&#x45e;" horiz-adv-x="1159" d="M5 1058v77h433v-77l-166 -21l225 -632l112 -345l109 347l192 629l-147 22v77h386v-77l-110 -22q-65 -197 -114 -347.5t-86 -262.5t-62.5 -190t-43.5 -130.5t-30 -84.5t-20 -51q-48 -119 -89 -209t-89.5 -150t-110.5 -90.5t-152 -30.5q-13 0 -27 1t-27 3t-23.5 4.5 t-16.5 5.5v142q6 -3 17.5 -5.5t25 -4t28 -2t26.5 -0.5q44 0 86 12t84 50.5t83.5 110.5t85.5 193h-79l-403 1035zM214 1702q0 8 0.5 16.5t1.5 16.5h107q19 0 24 -19.5t5 -45.5q0 -41 11.5 -84t38.5 -78t72 -57t112 -22t110.5 22t69.5 57t36.5 78t10.5 84q0 26 5 45.5t23 19.5 h108q1 -8 1.5 -16.5t0.5 -16.5q0 -79 -23 -146t-69 -115.5t-114.5 -75.5t-159.5 -27q-90 0 -159.5 27.5t-116.5 76t-71 115t-24 145.5z" />
<glyph unicode="&#x45f;" horiz-adv-x="1381" d="M113 1053v82h455v-82l-164 -32v-925h573v925l-162 32v82h445v-82l-142 -33v-924l151 -14v-82h-484l-23 -350h-93l-36 350h-518v82l148 14v924z" />
<glyph unicode="&#x462;" horiz-adv-x="1482" d="M-5 893l25 272h478v319l-191 26v71h527v-71l-192 -26v-319h587l21 -272h-108l-39 174l-461 21v-366q17 4 46 8t64.5 8t73.5 6.5t74 2.5q138 0 235 -23.5t158.5 -68.5t90 -110.5t28.5 -148.5q0 -104 -39.5 -181.5t-111 -129.5t-170.5 -77.5t-218 -25.5q-22 0 -59.5 3 t-80 6l-85 6t-74.5 3h-274v82l198 14v992l-348 -21l-43 -174h-112zM642 92q19 -3 40 -6.5t47 -7t59 -5.5t75 -2q90 0 163 18t124.5 56.5t79.5 97.5t28 140q0 75 -28 126t-79.5 82.5t-124 45.5t-162.5 14q-32 0 -65 -1.5t-62.5 -4t-54.5 -6t-40 -6.5v-541z" />
<glyph unicode="&#x463;" horiz-adv-x="1368" d="M80 789l10 346h442v428l-168 11v70l273 33h1l36 -25v-517h479l10 -346h-99l-48 268l-342 1v-417q14 4 41 8.5t60.5 8t71.5 6t75 2.5q108 0 185.5 -22t127.5 -64.5t73.5 -105t23.5 -142.5q0 -177 -101 -266t-302 -89q-30 0 -76 3.5t-95 8t-94 8t-75 3.5h-244v66l187 25 v967l-305 -1l-49 -268h-98zM674 90q32 -4 87.5 -11t136.5 -7q66 0 118 13t88 42t55 76.5t19 115.5q0 70 -18 117t-54.5 76t-91.5 41.5t-129 12.5q-32 0 -64.5 -2.5t-61 -5.5t-51 -7t-34.5 -7v-454z" />
<glyph unicode="&#x472;" horiz-adv-x="1470" d="M78 749q0 121 24 226.5t68.5 193t106 156t137 116t162 72.5t180.5 25q153 0 271.5 -55t199.5 -155t123 -240.5t42 -312.5q0 -181 -52.5 -327.5t-143.5 -250t-213.5 -160.5t-262.5 -60q-153 -3 -272.5 53t-201.5 158.5t-125 245.5t-43 315zM241 764q23 27 52 53t64.5 46.5 t78 33.5t93.5 13q41 0 80 -11t77 -27t73.5 -35t70.5 -35t68 -27t65 -11q43 0 82 14.5t72 35t60 43.5t45 40q-13 123 -50.5 224.5t-98.5 175t-145 114t-189 40.5q-109 0 -199.5 -43t-156.5 -129t-103.5 -214.5t-38.5 -300.5zM244 654q10 -128 47 -236t99 -186.5t148 -122.5 t195 -44q108 0 199 45t157 134.5t102.5 222t36.5 307.5q0 4 -0.5 7t-0.5 7q-24 -27 -53.5 -53t-66 -47t-80 -34t-94.5 -13q-63 0 -122 22.5t-114 50t-104.5 50t-92.5 22.5q-44 0 -82.5 -14t-70.5 -34.5t-58 -43.5t-45 -40z" />
<glyph unicode="&#x473;" horiz-adv-x="1227" d="M102 577q0 138 45 247.5t118.5 186t166.5 117t190 40.5q139 0 235 -49t155.5 -132t86 -191.5t26.5 -227.5q0 -138 -45 -247.5t-118.5 -186t-167 -117t-190.5 -40.5q-139 0 -234.5 49t-155 132t-86 191.5t-26.5 227.5zM265 610q38 34 88.5 56.5t109.5 22.5q43 0 77 -13.5 t61.5 -33.5t51.5 -43.5t48 -43.5t49.5 -33.5t57.5 -13.5q29 0 52.5 9t42.5 23t33.5 31t24.5 34q-4 93 -25 176.5t-62.5 146t-105.5 99.5t-154 37q-79 0 -142.5 -29t-108.5 -86t-70 -142t-28 -197zM272 463q10 -81 34 -151t65.5 -121t101 -80.5t139.5 -29.5q71 0 130 23.5 t103 70t72.5 116t38.5 161.5q-32 -26 -71.5 -40.5t-87.5 -14.5q-42 0 -75.5 13.5t-61.5 33.5t-53 43.5t-50.5 43.5t-53.5 33.5t-62 13.5q-33 0 -60 -11t-48 -28.5t-36 -37.5t-25 -38z" />
<glyph unicode="&#x474;" horiz-adv-x="1338" d="M-30 1440v82h458v-82l-178 -20l346 -987l88 -297l76 295l280 841q19 73 51.5 121t71.5 76.5t79.5 40.5t74.5 12q36 0 54.5 -3.5t26.5 -7.5v-113q-3 3 -23 3q-30 0 -64 -7.5t-66 -31.5t-61 -70t-49 -122l-404 -1187h-118l-522 1437z" />
<glyph unicode="&#x475;" horiz-adv-x="1158" d="M6 1053v82h407v-82l-144 -32l224 -610l106 -297l107 333l156 441q24 70 52.5 117.5t59 76.5t63 41t63.5 12q35 0 53.5 -3.5t26.5 -7.5v-113q-15 1 -31 0t-37 -6q-20 -6 -39 -20t-38.5 -40t-39.5 -65.5t-41 -96.5l-314 -801h-122l-411 1039z" />
<glyph unicode="&#x48a;" horiz-adv-x="1718" d="M113 0v82l179 14v1324l-171 20v82h530v-82l-217 -20v-1102l218 306l631 734v62l-195 20v82h511v-82l-173 -21v-1323h5h185v-96l-127 -368h-106l100 368h-391v82l191 14v1124l-196 -285l-653 -754v-85l207 -14v-82h-528zM494 1980q0 8 0.5 17t1.5 16h107q19 0 24 -19 t5 -45q0 -41 9.5 -78t35 -65t71.5 -44.5t118 -16.5t117.5 16.5t71 44.5t35 65t9.5 78q0 26 5 45t23 19h109q1 -7 1.5 -16t0.5 -17q0 -158 -95 -234.5t-278 -76.5q-181 0 -276 77t-95 234z" />
<glyph unicode="&#x48b;" horiz-adv-x="1456" d="M95 0v82l168 15v933l-164 23v82h487v-82l-182 -22v-857l138 223l544 738h271v-82l-164 -23v-934h170v-96l-112 -368h-107l84 368h-352v82l176 14v858l-166 -269l-508 -678l-2 -7h-281zM352 1702q0 8 0.5 16.5t1.5 16.5h107q19 0 24 -19.5t5 -45.5q0 -41 11.5 -84 t38.5 -78t72 -57t112 -22t110.5 22t69.5 57t36.5 78t10.5 84q0 26 5 45.5t23 19.5h108q1 -8 1.5 -16.5t0.5 -16.5q0 -79 -23 -146t-69 -115.5t-114.5 -75.5t-159.5 -27q-90 0 -159.5 27.5t-116.5 76t-71 115t-24 145.5z" />
<glyph unicode="&#x48c;" horiz-adv-x="1298" d="M51 1109v92h240l1 219l-175 20v82h515v-82l-196 -20v-219h275v-92h-275v-207l1 2q17 4 48 8t69 7.5t79.5 6t79.5 2.5q126 0 222 -30.5t161 -88t98 -140.5t33 -188q0 -123 -39.5 -216.5t-111.5 -155.5t-171.5 -93.5t-219.5 -31.5q-18 0 -57.5 2.5t-86 5.5t-92.5 5.5 t-78 2.5l2 3l-3 -3h-258v82l179 14v1013h-240zM436 92q24 -3 47.5 -6t50.5 -5.5t61 -4.5t80 -2q93 0 166.5 24.5t125 73.5t79 123t27.5 173q0 90 -27 157.5t-78.5 112.5t-125 67t-166.5 22q-35 0 -70.5 -1.5t-68 -4t-59 -5.5t-41.5 -6h-1v-718z" />
<glyph unicode="&#x48d;" horiz-adv-x="1051" d="M-1 1043v92h204v423l-186 19v67l290 32h5l35 -24v-517h263v-92h-263v-388q14 4 38 8t54 7.5t64.5 6t69.5 2.5q216 0 320 -86t104 -252q0 -175 -100.5 -269.5t-302.5 -94.5q-30 0 -74.5 3.5t-91.5 8t-92 8t-75 3.5h-187v82l129 12v949h-204zM347 90q30 -3 82.5 -10 t133.5 -7q62 0 113.5 13.5t88 44t57 79t20.5 118.5q0 73 -20.5 121.5t-59.5 77t-96 40.5t-131 12q-29 0 -57 -2t-53 -5t-45 -7t-33 -8v-467z" />
<glyph unicode="&#x48e;" horiz-adv-x="1311" d="M115 0v82l177 14v1324l-165 21v81h240q51 0 88 2.5t75.5 5t84 5t113.5 2.5q150 0 250.5 -29.5t161 -85t86.5 -135t26 -180.5q0 -82 -20.5 -152t-58 -128t-89.5 -102.5t-116 -75.5l171 -261l-80 -57l-184 282q-94 -28 -204 -28q-31 0 -68.5 1t-71 2t-59.5 2.5t-33 3.5 v-498l290 -14v-82h-614zM439 691q29 -5 93 -7t142 -2q38 0 74 4t71 13l-120 185l80 56l133 -205q40 22 74 55t58.5 79t38 105t13.5 133q0 93 -25 157.5t-77 104t-130.5 57t-185.5 17.5q-75 0 -134.5 -6.5t-104.5 -6.5v-739z" />
<glyph unicode="&#x48f;" horiz-adv-x="1271" d="M52 1049v81l251 30h5l34 -30v-128q27 28 64.5 57.5t85.5 53.5t105.5 39.5t123.5 15.5q85 0 165.5 -32t143.5 -100t101 -173.5t38 -252.5q0 -138 -44 -256.5t-125 -205.5l187 -217l-63 -55l-186 216q-69 -55 -155.5 -85t-189.5 -30q-29 0 -61 2.5t-63.5 7t-61 11.5 t-51.5 15l4 -175v-228l235 -20v-86h-537v86l159 19v1407zM360 141q7 -12 29.5 -25t55 -23.5t73 -17t85.5 -6.5q79 0 146.5 25t121.5 77l-176 206l62 54l167 -195q42 63 64.5 149t24.5 198q1 125 -27 214t-76.5 145.5t-113 82.5t-135.5 26q-51 0 -97.5 -12.5t-85.5 -31.5 t-69 -41.5t-49 -43.5v-781z" />
<glyph unicode="&#x490;" horiz-adv-x="1112" d="M59 0v77l233 22v1321l-230 20v82h867l52 359h109l-20 -450l-628 6v-1338l376 -22v-77h-759z" />
<glyph unicode="&#x491;" horiz-adv-x="971" d="M101 0v82l170 14v925l-166 24v90h680l30 327h91l9 -431h-504v-935l291 -14v-82h-601z" />
<glyph unicode="&#x492;" horiz-adv-x="1174" d="M65 0v77l227 22v598h-201v94h201v629l-218 20v82h1035l10 -505h-100l-52 412l-525 10v-648h419v-94h-419v-598l382 -22v-77h-759z" />
<glyph unicode="&#x493;" horiz-adv-x="1006" d="M57 443v93h610v-93h-610zM100 0v82l169 14v924l-165 33v82h845l10 -406h-92l-46 302h-411v-935l291 -14v-82h-601z" />
<glyph unicode="&#x494;" horiz-adv-x="1369" d="M65 0v82l227 14v1323l-218 22v81h1035l10 -394h-100l-52 292l-525 19v-638q31 14 81 26.5t103.5 22.5t103 15.5t79.5 5.5q95 0 164.5 -18.5t118.5 -52t79.5 -80.5t48 -104.5t24 -124t6.5 -137.5q0 -158 -29 -296t-86.5 -240.5t-143 -162t-197.5 -59.5q-11 0 -26 1 t-30.5 3t-29 5t-20.5 6v90q15 -3 39 -4.5t47 -1.5q87 0 149 43t101.5 125.5t58 204t18.5 278.5q0 107 -16 185t-54 129t-101 76t-156 25q-96 0 -176.5 -14.5t-155.5 -36.5v-614l382 -14v-82h-759z" />
<glyph unicode="&#x495;" horiz-adv-x="1180" d="M101 0v82l170 14v924l-166 25v90h844l10 -404h-90l-47 300h-411v-503q21 14 51.5 24.5t64 18t68.5 11.5t65 4q135 0 220.5 -33.5t134 -92.5t67 -139.5t18.5 -174.5q0 -148 -29 -266.5t-86 -201t-142.5 -126.5t-197.5 -44q-11 0 -26 1t-30.5 3t-29 5t-20.5 6v87 q14 -3 39 -4.5t47 -1.5q178 0 257.5 133t79.5 401q0 91 -19 156.5t-58.5 107.5t-100.5 61.5t-146 19.5q-58 0 -118 -12.5t-109 -33.5v-341l261 -14v-82h-571z" />
<glyph unicode="&#x496;" horiz-adv-x="2109" d="M22 0v82l78 15q21 6 50 35t62.5 73.5t71.5 100.5t78.5 115t82 117.5t82 108t79 86t73.5 51.5l-477 636l-156 20v82h463v-82l-175 -20l451 -626h199v625l-173 21v82h494v-82l-180 -20v-626h198l451 626l-173 20v82h462v-82l-158 -20l-475 -636q35 -16 73.5 -52t79 -85 t81.5 -106.5t81 -116t77.5 -114t71 -100.5t62 -75t50.5 -37h90l-9 -80v-18h-2l-40 -366h-100q0 7 -0.5 26.5t-1.5 46.5t-2 59t-2 65q-3 77 -6 169h-38q-26 0 -58.5 30.5t-70 80.5t-79 114t-84 131t-85 131t-83 114t-77.5 80.5t-68 30.5h-165v-616l183 -14v-82h-497v82 l173 14v616h-165q-31 0 -68 -30.5t-77.5 -80.5t-83 -114t-85 -131t-84 -131t-79 -114t-70 -80.5t-58.5 -30.5h-192z" />
<glyph unicode="&#x497;" horiz-adv-x="1857" d="M8 0v82l69 14q26 10 58 46t68.5 86t77 107.5t84.5 111.5t90.5 97.5t95.5 65.5l-353 411l-142 32v82h435v-82l-167 -32l320 -393h216v393l-165 32v82h492v-82l-190 -33v-392h214l322 393l-167 32v82h434v-82l-143 -33l-352 -410q49 -22 96.5 -67t92 -99.5t85.5 -112.5 t77.5 -108t67 -85t55.5 -42h82l-53 -464h-99q0 7 -1 26.5t-1.5 47t-1.5 59.5t-2 65q-3 77 -5 170q-40 5 -82.5 47.5t-86 103.5t-88 131t-89 129.5t-88.5 99t-87 39.5h-180v-454l190 -14v-82h-496v82l169 15v453h-181q-33 0 -66.5 -23.5t-67 -62.5t-67.5 -88t-68 -101 t-67.5 -101t-66 -88t-64 -62.5t-62.5 -23.5h-142z" />
<glyph unicode="&#x498;" horiz-adv-x="1223" d="M111 63l28 334h73l45 -257q45 -21 119.5 -36.5t189.5 -15.5q195 0 300 81t105 258q0 70 -23 127.5t-73 98t-128.5 62.5t-190.5 22h-147v90h122q68 0 132.5 21.5t114.5 64t80 106.5t30 148q0 75 -21 128t-61 86t-97.5 48t-131.5 15q-50 0 -93 -7t-77 -19t-58.5 -27 t-37.5 -31l-31 -190h-97l-16 301q32 2 75 12.5t93 22.5t105.5 22t113.5 10q240 0 365.5 -83.5t125.5 -260.5q0 -88 -28.5 -156t-75 -116.5t-107.5 -78.5t-125 -42q106 -2 186.5 -31t135 -77.5t82 -113t27.5 -137.5q0 -96 -29 -173.5t-90 -135t-155 -93.5t-224 -47 q17 -17 39.5 -46.5t42.5 -67t33 -81.5t12 -89q-2 -52 -19 -87.5t-48.5 -57.5t-76.5 -31.5t-102 -9.5h-1q-17 0 -36.5 2t-39 5.5t-37 8.5t-30.5 11l1 108q22 -8 51 -12.5t46 -4.5h1q39 0 69 5.5t51 21.5t31.5 45t10.5 76q0 30 -8 60t-20 56.5t-24.5 48t-21.5 35.5 q-11 0 -21.5 -0.5t-21.5 -0.5q-74 0 -138 7.5t-116 19t-91.5 24.5t-66.5 24z" />
<glyph unicode="&#x499;" horiz-adv-x="1105" d="M121 60l18 224h87l25 -141q18 -15 48 -27t67 -19.5t77.5 -11.5t78.5 -4q174 0 257 62t83 172q0 54 -17 98t-55 74.5t-98 46.5t-145 13l-119 -14l-1 105l92 11q140 16 214 76t74 150q0 45 -14 80t-46.5 59t-84 36.5t-126.5 12.5q-56 0 -102.5 -7t-82 -16t-60 -19 t-37.5 -16l-31 -196h-89v297q51 0 94 8.5t90 19t104.5 19t137.5 8.5q95 0 169.5 -18.5t126.5 -54t79 -86.5t27 -116q0 -44 -18 -85t-50 -76t-76 -63t-97 -46q70 -6 126.5 -28t96 -57.5t61 -82.5t22.5 -102q1 -78 -25.5 -142t-80 -110.5t-133.5 -74t-186 -33.5 q17 -18 38.5 -47.5t40 -66t30.5 -78.5t11 -85q-2 -52 -19 -87.5t-48.5 -57.5t-76.5 -31.5t-102 -9.5h-1q-17 0 -36.5 2t-39 5.5t-37 8.5t-30.5 11l1 108q22 -8 51 -12.5t46 -4.5h1q39 0 69 5.5t51 21.5t31.5 45t10.5 76q0 29 -7.5 58t-18.5 54.5t-23.5 47t-21.5 35.5 q-139 2 -241.5 26t-159.5 50z" />
<glyph unicode="&#x49a;" horiz-adv-x="1415" d="M120 0v84l172 13v1322l-172 21v82h493v-82l-180 -20v-626h198l462 625l-189 21v82h468v-82l-154 -20l-482 -636q35 -15 73.5 -51t78.5 -84.5t81 -106.5t81 -116.5t78 -114.5t72 -101t62.5 -75t50.5 -37h109l-52 -466h-99q0 7 -1 26.5t-1.5 47t-1.5 59.5t-2 65 q-3 77 -6 170h-56q-26 0 -58.5 30.5t-70 80.5t-79 114t-84 131t-85 131t-83 114t-77.5 80.5t-68 30.5h-165v-615l183 -15v-82h-496z" />
<glyph unicode="&#x49b;" horiz-adv-x="1260" d="M95 0v82l168 15v924l-164 32v82h487v-82l-186 -33v-392h216l321 392l-167 33v82h434v-82l-143 -33l-353 -411q49 -23 95.5 -67.5t90.5 -99t84 -112t75.5 -107t66 -84t54.5 -41.5l9 -2h89l-53 -464h-100q0 7 -1 26.5t-1.5 47t-1.5 59.5t-2 65q-3 77 -5 170h-1 q-31 0 -62.5 23.5t-64.5 62.5t-66.5 88t-67 101t-67.5 101t-68 88t-67 62.5t-66 23.5h-178v-454l196 -14v-82h-501z" />
<glyph unicode="&#x49c;" horiz-adv-x="1491" d="M119 0v84l173 12v1323l-173 21v82h494v-82l-181 -20v-606h148v321h100v-321h55l429 605l-182 21v82h464v-82l-154 -20l-447 -630q36 -23 75 -63.5t79.5 -91.5t82 -109t81 -116t77 -112t71 -97t61 -70.5t48.5 -33.5l78 -15v-82h-191q-26 0 -58.5 30.5t-70 80.5t-78.5 114 t-83.5 131t-85 131t-83 114t-78 80.5t-68.5 30.5h-22v-341h-100v341h-148v-616l184 -14v-82h-497z" />
<glyph unicode="&#x49d;" horiz-adv-x="1315" d="M95 0v77l168 15v943l-164 23v77h511v-77l-210 -23v-407h121v248h103v-248h53l322 408l-166 22v77h434v-77l-142 -22l-355 -426q48 -22 92.5 -67.5t86 -100.5t80 -114t73 -108.5t66.5 -84t60 -39.5l88 -19v-77h-173q-41 0 -81.5 40.5t-81 102t-82 132.5t-83 132.5 t-84.5 102t-87 40.5h-20v-278h-103v278h-121v-459l199 -14v-77h-504z" />
<glyph unicode="&#x49e;" horiz-adv-x="1415" d="M120 0v84l172 13v978h-171v101h171v243l-172 21v82h493v-82l-180 -20v-244h183v-101h-183v-281h198l462 625l-189 21v82h468v-82l-154 -20l-482 -636q47 -20 100 -76.5t108 -130.5t109 -155t103 -151t90 -118t70 -56l78 -15v-82h-191q-26 0 -58.5 30.5t-70 80.5t-79 114 t-84 131t-85 131t-83 114t-77.5 80.5t-68 30.5h-165v-615l183 -15v-82h-496z" />
<glyph unicode="&#x49f;" horiz-adv-x="1254" d="M20 1304v93h183v161l-173 19v67l281 32h1l34 -24v-255h281v-93h-281v-675l-4 -129l530 535l-155 25v75h458v-75l-161 -26l-346 -336l422 -603l137 -13v-82h-459v82l152 14l-338 519l-239 -226l3 -106v-188l162 -13v-82h-442v82l137 14v1208h-183z" />
<glyph unicode="&#x4a0;" horiz-adv-x="1703" d="M82 1044l21 478h836v-82l-201 -21v-605h197l448 606l-171 20v82h465v-82l-158 -21l-473 -629q36 -22 75 -62.5t79.5 -91.5t82 -109.5t81 -116.5t77 -112t71 -97t61 -70.5t48.5 -33.5l78 -15v-82h-191q-26 0 -58.5 30.5t-70 80.5t-78.5 114t-83.5 131t-85 131t-83 114 t-78 80.5t-68.5 30.5h-165v-616l193 -14v-82h-521v82l187 14v1344l-355 -20l-51 -376h-109z" />
<glyph unicode="&#x4a1;" horiz-adv-x="1554" d="M80 729l10 406h791v-82l-189 -33v-392h209l311 392l-155 33v82h434v-82l-155 -32l-341 -410q48 -22 93.5 -66.5t88 -100t81 -114.5t73.5 -109t66 -84.5t58 -40.5l88 -19v-77h-172q-41 0 -81.5 40.5t-81.5 102t-82 132.5t-83 132.5t-85 102t-87 40.5h-179v-454l197 -14 v-82h-504v82l169 13v936h-329l-47 -302h-98z" />
<glyph unicode="&#x4a2;" horiz-adv-x="1688" d="M116 0v82l176 15v1323l-170 21v81h498v-81l-181 -21v-588h810v588l-173 21v81h491v-81l-171 -21v-1324h186l-51 -464h-100q0 7 -0.5 26.5t-1.5 47t-2 59.5t-2 65q-3 77 -6 170h-346v82l176 14v635h-810v-635l183 -14v-82h-506z" />
<glyph unicode="&#x4a3;" horiz-adv-x="1446" d="M95 0v82l168 14v925l-164 32v82h497v-82l-192 -32v-379h638v378l-191 33v82h490v-82l-158 -33v-924h184l-49 -464h-100q0 7 -1 26.5t-2 47t-2 59.5t-2 65q-3 77 -7 170h-360v82l198 14v445h-638v-445l200 -14v-82h-509z" />
<glyph unicode="&#x4a4;" horiz-adv-x="2035" d="M107 0v82l185 14v1323l-177 21v82h523v-82l-201 -21v-587h814v588l-192 20v82h875l21 -478h-109l-53 365l-397 31v-1344l177 -14v-82h-512v82l190 14v635h-814v-635l201 -14v-82h-531z" />
<glyph unicode="&#x4a5;" horiz-adv-x="1702" d="M95 0v82l168 15v923l-164 33v82h497v-82l-192 -33v-378h638v378l-191 33v82h795l10 -406h-105l-43 308h-325v-941l169 -14v-82h-508v82l198 14v445h-638v-444l200 -15v-82h-509z" />
<glyph unicode="&#x4a6;" horiz-adv-x="2174" d="M111 1440v82h1392v-82l-182 -26v-610q30 13 74 25.5t90 21.5t88 14.5t69 5.5q142 0 228.5 -40.5t133.5 -110.5t62.5 -164.5t15.5 -201.5q0 -158 -29 -296t-86 -240.5t-142.5 -162t-197.5 -59.5q-11 0 -26 1t-30.5 3t-29 5t-20.5 6v100q14 -3 38.5 -4.5t47.5 -1.5 q87 0 149 41t101 122t57.5 201t18.5 277q0 106 -16 184.5t-53.5 129.5t-100.5 76t-156 25q-44 0 -81.5 -3.5t-71.5 -10.5t-66.5 -16t-66.5 -19v-616l201 -14v-82h-527v82l183 14v1324h-741v-1324l203 -14v-82h-519v82l171 14v1324z" />
<glyph unicode="&#x4a7;" horiz-adv-x="1861" d="M107 0v82l156 14v924l-152 33v82h1157v-82l-146 -32v-926l157 -13v-82h-457v82l159 13v936h-577v-935l165 -13v-82zM1066 539l55 66q21 14 51.5 26.5t64 21.5t67.5 14.5t64 5.5q129 0 209 -33.5t124.5 -92t60 -139t15.5 -174.5q0 -186 -27 -323t-82 -226.5t-138.5 -133 t-195.5 -43.5q-11 0 -26 1t-30.5 3t-29 5t-20.5 6v97q14 -3 39 -4.5t47 -1.5q90 0 151 29.5t98.5 100.5t53.5 188.5t16 293.5q0 91 -15 156.5t-49 107.5t-89 61.5t-134 19.5q-29 0 -58.5 -5t-58.5 -12.5t-56 -17.5t-51 -20q-1 0 -9.5 3t-19.5 8q-12 5 -27 12z" />
<glyph unicode="&#x4a8;" horiz-adv-x="1474" d="M78 759q0 186 54.5 331t147 244.5t215.5 151.5t261 52q69 0 133.5 -7.5t119 -18t96 -21.5t64.5 -17l-17 -305h-94l-40 216q-10 8 -32.5 18t-57.5 18.5t-82.5 14.5t-108.5 6q-102 0 -192 -41.5t-157 -124t-105.5 -205t-38.5 -285.5q0 -125 29 -243t87 -213.5t144.5 -161.5 t201.5 -87q-29 81 -44 167t-15 174q0 118 26.5 222t79 181t130 122t179.5 45q88 0 152.5 -28.5t107 -79.5t63.5 -122.5t21 -158.5q0 -104 -31.5 -206t-94.5 -187t-157 -145t-220 -79q28 -50 64 -92.5t80 -74t95.5 -49.5t111.5 -18q17 0 32 1.5t26 3.5v-79q-55 -11 -101 -11 q-78 0 -146.5 23t-126 64.5t-104.5 98.5t-82 125q-156 8 -281 72t-212.5 169t-134 244t-46.5 296zM778 449q0 -38 4.5 -83t14.5 -93.5t25 -98.5t36 -99q94 10 170.5 52t130.5 108.5t83 154t29 188.5q0 75 -11.5 134t-38 100t-69 62.5t-103.5 21.5q-63 0 -113 -35t-85.5 -96 t-54 -142t-18.5 -174z" />
<glyph unicode="&#x4a9;" horiz-adv-x="1356" d="M84 577q0 130 43 239t116.5 187t172 121.5t209.5 43.5q51 0 87.5 -6t61 -14t39.5 -17.5t24 -16.5l-31 -82q-11 7 -24 13.5t-32.5 11.5t-46 8.5t-63.5 3.5q-88 0 -161 -32t-125 -93.5t-80.5 -151t-28.5 -205.5q0 -107 34 -201.5t93 -165t138.5 -111t171.5 -40.5 q25 0 43.5 0.5t33 1t27.5 2t27 4.5q-112 75 -167 191.5t-55 258.5q0 87 24.5 156.5t70.5 119t111 76t146 26.5q72 0 133 -28.5t105.5 -79.5t70 -120t25.5 -150q0 -151 -50 -266t-157 -187q29 -5 59.5 -7.5t65.5 -1.5q12 0 26.5 0.5t29.5 1.5t27.5 2.5t20.5 2.5v-81 q-8 -2 -22.5 -4t-32 -3.5t-35 -2.5t-32.5 -1q-66 0 -124 8.5t-109 25.5q-55 -18 -120 -27.5t-140 -9.5q-137 0 -248 48.5t-189 131t-120.5 191.5t-42.5 229zM740 515q0 -59 9.5 -117t33 -110.5t62 -96.5t97.5 -74q44 19 79.5 49.5t60 78.5t38 117t13.5 164q0 64 -14.5 118 t-41 93t-63 60.5t-80.5 21.5q-55 0 -92.5 -25t-60 -67t-32 -97t-9.5 -115z" />
<glyph unicode="&#x4aa;" horiz-adv-x="1344" d="M92 769q0 111 26 211t73 185.5t113 154.5t146.5 117.5t173 74.5t192.5 26q69 0 135 -8t123 -19t102 -21.5t71 -16.5l-17 -326h-92l-39 237q-29 24 -112.5 43t-210.5 19q-108 0 -200.5 -45.5t-160.5 -130.5t-107 -208t-39 -277q0 -142 30.5 -271.5t94 -228.5t162 -158 t234.5 -59q67 0 115 6t83 16t60.5 24t47.5 29l78 190l90 -12l-52 -265q-38 -2 -73 -13.5t-77.5 -25t-98.5 -25t-135 -14.5q18 -20 38 -49t37.5 -64t28 -75t9.5 -81q-2 -52 -19 -87.5t-48.5 -57.5t-76.5 -31.5t-102 -9.5h-1q-17 0 -36.5 2t-39 5.5t-37 8.5t-30.5 11l1 108 q22 -8 51 -12.5t46 -4.5h1q39 0 69 5.5t51 21.5t31.5 45t10.5 76q0 28 -7 55t-17 52t-21.5 46t-21.5 36q-157 7 -278.5 67t-205 163t-126.5 245.5t-43 315.5z" />
<glyph unicode="&#x4ab;" horiz-adv-x="1004" d="M104 554q-1 80 15.5 157t49 145t80.5 125.5t111 99t140.5 64.5t169.5 23q42 0 84 -6.5t79.5 -15.5t67.5 -20t50 -20l-8 -275h-91l-39 190q-25 25 -72 41t-113 16q-81 0 -149 -32.5t-117 -93t-76.5 -146t-27.5 -191.5q-1 -134 28 -233.5t80 -165.5t121 -98.5t151 -32.5 q47 0 93 8.5t86.5 22t74 30t56.5 32.5l29 -56q-26 -26 -62 -49.5t-78.5 -42.5t-89.5 -32t-93 -18q17 -20 37.5 -49t38 -64.5t28.5 -75.5t10 -82q-2 -52 -19 -87.5t-48.5 -57.5t-76.5 -31.5t-102 -9.5h-1q-17 0 -36.5 2t-39 5.5t-37 8.5t-30.5 11l1 108q22 -8 51 -12.5 t46 -4.5h1q39 0 69 5.5t51 21.5t31.5 45t10.5 76q0 28 -7 55t-17 52t-21.5 46t-21.5 36q-114 7 -201.5 54t-146.5 124.5t-89 179.5t-31 218z" />
<glyph unicode="&#x4ac;" horiz-adv-x="1448" d="M71 1008l34 514h1241l23 -514h-98l-54 420l-418 11v-1343h311l-54 -464h-99q0 7 -0.5 26.5t-1.5 47t-1.5 59.5t-1.5 65q-2 77 -5 170h-574v82l272 13v1344l-412 -11l-62 -420h-100z" />
<glyph unicode="&#x4ad;" horiz-adv-x="1250" d="M80 729l10 406h1070l10 -406h-98l-47 302h-329v-935h322l-53 -464h-99q0 7 -1 26.5t-1.5 47t-1.5 59.5t-2 65q-3 77 -5 170h-592v82l291 14v935h-329l-47 -302h-98z" />
<glyph unicode="&#x4ae;" horiz-adv-x="1298" d="M-19 1441v81h471v-81l-180 -21l320 -590l80 -174l84 174l304 590l-173 21v81h435v-81l-134 -22l-452 -834v-488l235 -15v-82h-614v82l231 14v486l-480 837z" />
<glyph unicode="&#x4af;" horiz-adv-x="1249" d="M14 1053v82h481v-82l-175 -33l312 -806l24 -69l26 71l292 805l-176 32v82h446v-82l-146 -32l-378 -949v-462l239 -22v-82h-622v82l237 22v446l-421 964z" />
<glyph unicode="&#x4b0;" horiz-adv-x="1298" d="M-20 1441v81h471v-81l-180 -21l320 -590l80 -174l84 174l304 590l-173 21v81h435v-81l-134 -22l-441 -813h416v-93h-427v-416l235 -15v-82h-614v82l231 14v417h-461v93h447l-466 813z" />
<glyph unicode="&#x4b1;" horiz-adv-x="1249" d="M14 1053v82h481v-82l-175 -33l312 -806l24 -69l26 71l292 805l-176 32v82h446v-82l-146 -32l-372 -934h410v-87h-416v-390l239 -22v-82h-622v82l237 22v390h-424v87h410l-407 933z" />
<glyph unicode="&#x4b2;" horiz-adv-x="1442" d="M16 0v82l178 14l453 669l-433 654l-160 22v81h563v-81l-226 -22l360 -566l357 567l-188 21v81h482v-81l-161 -22l-436 -627l464 -696h182l-53 -451h-100q0 7 -0.5 26t-1.5 45.5t-1.5 57.5t-1.5 63q-3 74 -5 163h-410v82l211 14l-387 604l-371 -604l219 -14v-82h-534z" />
<glyph unicode="&#x4b3;" horiz-adv-x="1208" d="M16 0v82l142 15l373 473l-359 467l-122 21v77h454v-77l-149 -21l211 -303l62 -90l58 90l226 303l-163 21v77h418v-77l-129 -21l-359 -446l372 -493h153l-46 -466h-99q0 7 -1 26.5t-2.5 47t-3 59.5t-2.5 65q-4 77 -9 170h-334v82l152 15l-214 314l-65 92l-55 -88 l-232 -317l187 -16v-82h-464z" />
<glyph unicode="&#x4b4;" horiz-adv-x="1914" d="M72 1044l25 478h979l21 -478h-99l-51 377l-289 17v-1342h802v1324l-167 20v82h481v-82l-170 -20v-1324h252l-53 -451h-99q0 7 -1 26t-1.5 45.5t-1.5 57.5t-2 63q-3 74 -5 163h-1340v82l161 15v1341l-289 -17l-52 -377h-101z" />
<glyph unicode="&#x4b5;" horiz-adv-x="1787" d="M70 698l25 437h942l21 -437h-98l-51 333h-266v-935h737v925l-178 32v82h495v-82l-173 -32v-925h241l-48 -464h-100q0 7 -1 26.5t-2 47t-2.5 59.5t-2.5 65q-4 77 -7 170h-1329v82l226 12v937h-277l-51 -333h-101z" />
<glyph unicode="&#x4b6;" horiz-adv-x="1368" d="M6 1440v82h466v-82l-189 -21v-299q0 -95 5.5 -162t19 -113t36.5 -73t57.5 -41.5t81.5 -18.5t110 -4q42 0 91.5 6t96 15.5t86.5 22t63 26.5v641l-194 21v82h529v-81l-190 -22v-1323h208l-51 -464h-99q0 7 -1 26.5t-2 47t-2 59.5t-2 65q-3 77 -6 170h-409v82l219 14v591 q-38 -21 -90 -37t-108 -27.5t-112.5 -17t-103.5 -5.5q-103 0 -174.5 24.5t-116.5 79.5t-65 144t-20 217v355z" />
<glyph unicode="&#x4b7;" horiz-adv-x="1318" d="M28 1053v82h437v-82l-160 -32v-128q0 -117 11 -193.5t42.5 -122t87.5 -63.5t146 -18q40 0 87 4.5t92 12t83 17.5t60 21v470l-191 32v82h477v-82l-145 -33v-924h172l-54 -464h-99q0 7 -0.5 26.5t-1.5 47t-1.5 59.5t-1.5 65q-2 77 -5 170h-344v82l194 16v362 q-36 -17 -81 -30.5t-93 -22.5t-96.5 -14t-91.5 -5q-100 0 -173.5 23.5t-122 75.5t-72 135t-23.5 201v198z" />
<glyph unicode="&#x4b8;" horiz-adv-x="1368" d="M7 1441v81h466v-81l-189 -22v-299q0 -91 6.5 -156.5t20.5 -111t36 -73.5t53.5 -43.5t72.5 -21t94 -6.5v323h93v-320q39 4 79 10.5t76 15.5t66 19.5t49 21.5v642l-193 20v82h529v-82l-190 -20v-1324l192 -14v-82h-556v82l218 14v581q-50 -28 -122.5 -45t-147.5 -25v-236 h-93v230q-14 -1 -26.5 -1h-23.5q-103 0 -174.5 24.5t-116.5 79.5t-65 144t-20 217v354z" />
<glyph unicode="&#x4b9;" horiz-adv-x="1355" d="M28 1053v82h437v-82l-160 -32v-108q0 -117 12 -192t43 -119.5t84.5 -63t135.5 -21.5v294h103v-294q37 2 77 7t76 12.5t66 16t48 18.5v450l-173 32v82h460v-82l-145 -32v-926l156 -13v-82h-491v82l193 14v384q-53 -26 -124 -42t-143 -24v-233h-103v227h-1 q-111 0 -190 19.5t-130 69t-74.5 133.5t-23.5 213v178z" />
<glyph unicode="&#x4ba;" horiz-adv-x="1368" d="M70 1440v82h556v-82l-219 -14v-591q38 21 90 37t108 27.5t112.5 17t103.5 5.5q103 0 174.5 -24.5t116.5 -79.5t65 -144t20 -217v-355l134 -20v-82h-466v82l189 21v299q0 95 -5.5 162t-19 113t-36.5 73t-57.5 41.5t-81.5 18.5t-110 4q-42 0 -91.5 -6t-96 -15.5t-86.5 -22 t-63 -26.5v-641l194 -21v-82h-529v81l190 22v1323z" />
<glyph unicode="&#x4bb;" horiz-adv-x="1309" d="M101 1053v82h495v-82l-192 -32v-336q15 7 51.5 21.5t88.5 29t115.5 25.5t133.5 11q100 0 166.5 -28t106.5 -82.5t56.5 -135t16.5 -184.5v-246l141 -14v-82h-451v82l166 14v192q0 117 -11.5 190.5t-43 115t-87.5 56.5t-146 15q-39 0 -83.5 -6.5t-86 -16.5t-77 -22.5 t-56.5 -23.5v-500l199 -14v-82h-495v82l155 14v925z" />
<glyph unicode="&#x4bc;" horiz-adv-x="1580" d="M-7 962q0 20 5 45t13 48t17.5 40.5t17.5 22.5l129 -23q-7 -7 -14.5 -23.5t-14 -36.5t-10.5 -40t-4 -34q0 -26 12 -49t37.5 -40.5t64.5 -28.5t92 -12q12 158 65.5 288t139.5 223t199 144.5t245 51.5q115 0 209 -41t161 -118.5t103.5 -190t36.5 -256.5q0 -63 -1.5 -107 t-9.5 -79h-1003v-10.5t1 -10.5q3 -162 43.5 -284t106.5 -204t151.5 -123t180.5 -41q75 0 132.5 8.5t101 21.5t75 29.5t54.5 33.5l38 180h106l-12 -290q-43 -2 -90.5 -14.5t-108.5 -27t-140.5 -26t-186.5 -11.5q-138 0 -249 56t-189 157t-120 241.5t-42 310.5q-69 1 -131 14 t-109 40t-74.5 68t-27.5 98zM483 831h852q9 55 9 119q-1 90 -25 178t-72.5 157t-123.5 112t-178 43q-81 0 -161 -32.5t-145 -105t-107.5 -188.5t-48.5 -283z" />
<glyph unicode="&#x4bd;" horiz-adv-x="1344" d="M-1 792q0 20 5.5 45t13.5 48t17 40.5t17 22.5l129 -23q-7 -8 -14.5 -25t-14 -37t-10.5 -39.5t-4 -32.5q0 -25 10.5 -45.5t34.5 -35.5t63.5 -24t97.5 -9q15 110 60 200.5t112.5 155t155 100t187.5 35.5q179 0 280 -103.5t108 -302.5q0 -57 -2 -99t-9 -74h-742v-17t1 -17 q3 -120 34 -209t82 -148.5t118 -88.5t143 -29q45 0 91.5 9t89.5 24t79.5 34.5t60.5 41.5l31 -68q-30 -30 -74 -56.5t-96.5 -46t-111 -30.5t-115.5 -11q-119 0 -210 44t-153 123.5t-94 189t-32 241.5v14q-69 1 -130.5 11.5t-108 34t-73.5 62t-27 95.5zM496 677h587 q2 23 3.5 46.5t1.5 46.5q0 65 -15.5 122t-48 99t-83.5 66t-122 24q-65 0 -121 -22.5t-98.5 -71.5t-69.5 -125.5t-34 -184.5z" />
<glyph unicode="&#x4be;" horiz-adv-x="1580" d="M-7 962q0 20 5 45t13 48t17.5 40.5t17.5 22.5l129 -23q-7 -7 -14.5 -23.5t-14 -36.5t-10.5 -40t-4 -34q0 -26 12 -49t37.5 -40.5t64.5 -28.5t92 -12q12 158 65.5 288t139.5 223t199 144.5t245 51.5q115 0 209 -41t161 -118.5t103.5 -190t36.5 -256.5q0 -63 -1.5 -107 t-9.5 -79h-1003v-10.5t1 -10.5q3 -162 43.5 -284t106.5 -204t151.5 -123t180.5 -41q75 0 132.5 8.5t101 21.5t75 29.5t54.5 33.5l38 180h106l-12 -290q-39 -2 -81.5 -12.5t-95.5 -23.5t-119.5 -25t-154.5 -16q18 -20 38.5 -49t37.5 -64.5t28 -75t10 -81.5q-2 -52 -19 -87.5 t-48.5 -57.5t-76.5 -31.5t-102 -9.5h-1q-17 0 -36.5 2t-39 5.5t-37 8.5t-30.5 11l1 108q22 -8 51 -12.5t46 -4.5h1q39 0 69 5.5t51 21.5t31.5 45t10.5 76q0 27 -7 54.5t-17 52t-21.5 45.5t-21.5 36q-137 1 -246.5 58t-186.5 158t-118.5 241t-41.5 308q-69 1 -131 14t-109 40 t-74.5 68t-27.5 98zM483 831h852q9 55 9 119q-1 90 -25 178t-72.5 157t-123.5 112t-178 43q-81 0 -161 -32.5t-145 -105t-107.5 -188.5t-48.5 -283z" />
<glyph unicode="&#x4bf;" horiz-adv-x="1344" d="M-1 792q0 20 5.5 45t13.5 48t17 40.5t17 22.5l129 -23q-7 -8 -14.5 -25t-14 -37t-10.5 -39.5t-4 -32.5q0 -25 10.5 -45.5t34.5 -35.5t63.5 -24t97.5 -9q15 110 60 200.5t112.5 155t155 100t187.5 35.5q179 0 280 -103.5t108 -302.5q0 -57 -2 -99t-9 -74h-742v-17t1 -17 q3 -120 34 -209t82 -148.5t118 -88.5t143 -29q45 0 91.5 9t89.5 24t79.5 34.5t60.5 41.5l31 -68q-28 -29 -69.5 -54t-90.5 -44t-103.5 -31t-109.5 -14q18 -20 38 -49t37.5 -64t28 -75t9.5 -81q-2 -52 -19 -87.5t-48.5 -57.5t-76.5 -31.5t-102 -9.5h-1q-17 0 -36.5 2t-39 5.5 t-37 8.5t-30.5 11l1 108q22 -8 51 -12.5t46 -4.5h1q39 0 69 5.5t51 21.5t31.5 45t10.5 76q0 28 -7 56t-17.5 53t-22.5 46t-22 36q-104 11 -184 59t-134 126t-82 182.5t-28 227.5v14q-69 1 -130.5 11.5t-108 34t-73.5 62t-27 95.5zM496 677h587q2 23 3.5 46.5t1.5 46.5 q0 65 -15.5 122t-48 99t-83.5 66t-122 24q-65 0 -121 -22.5t-98.5 -71.5t-69.5 -125.5t-34 -184.5z" />
<glyph unicode="&#x4c0;" horiz-adv-x="813" d="M127 0v82l205 14v1324l-205 21v81h558v-81l-204 -20v-1325l204 -14v-82h-558z" />
<glyph unicode="&#x4c1;" horiz-adv-x="2109" d="M22 0v82l78 15q21 6 50 35t62.5 73.5t71.5 100.5t78.5 115t82 117.5t82 108t79 86t73.5 51.5l-477 636l-156 20v82h463v-82l-175 -20l451 -626h199v625l-173 21v82h494v-82l-180 -20v-626h198l451 626l-173 20v82h462v-82l-158 -20l-475 -636q35 -16 74 -52.5t79.5 -86 t82 -108t81.5 -117.5t78 -114.5t71.5 -100t62.5 -73.5t50 -35l78 -15v-82h-192q-26 0 -58.5 30.5t-70 80.5t-79 114t-84 131t-85 131t-83 114t-77.5 80.5t-68 30.5h-165v-616l183 -14v-82h-497v82l173 14v616h-165q-31 0 -68 -30.5t-77.5 -80.5t-83 -114t-85 -131t-84 -131 t-79 -114t-70 -80.5t-58.5 -30.5h-192zM686 1980q0 8 0.5 17t1.5 16h107q19 0 24 -19t5 -45q0 -41 9.5 -78t35 -65t71.5 -44.5t118 -16.5t117.5 16.5t71 44.5t35 65t9.5 78q0 26 5 45t23 19h109q1 -7 1.5 -16t0.5 -17q0 -158 -95 -234.5t-278 -76.5q-181 0 -276 77t-95 234z " />
<glyph unicode="&#x4c2;" horiz-adv-x="1857" d="M8 0v82l69 14q26 10 58 46t68.5 86t77 107.5t84.5 111.5t90.5 97.5t95.5 65.5l-353 411l-142 32v82h435v-82l-167 -32l320 -393h216v393l-165 32v82h492v-82l-190 -33v-392h214l322 393l-167 32v82h434v-82l-143 -33l-352 -410q49 -22 96.5 -67t92 -99.5t85.5 -112.5 t77.5 -108t67 -85t55.5 -42l69 -14v-82h-141q-41 0 -84 40.5t-87 102t-89.5 132.5t-90.5 132.5t-90 102t-89 40.5h-180v-454l190 -14v-82h-496v82l169 15v453h-181q-33 0 -66.5 -23.5t-67 -62.5t-67.5 -88t-68 -101t-67.5 -101t-66 -88t-64 -62.5t-62.5 -23.5h-142z M545 1702q0 8 0.5 16.5t1.5 16.5h107q19 0 24 -19.5t5 -45.5q0 -41 11.5 -84t38.5 -78t72 -57t112 -22t110.5 22t69.5 57t36.5 78t10.5 84q0 26 5 45.5t23 19.5h108q1 -8 1.5 -16.5t0.5 -16.5q0 -79 -23 -146t-69 -115.5t-114.5 -75.5t-159.5 -27q-90 0 -159.5 27.5 t-116.5 76t-71 115t-24 145.5z" />
<glyph unicode="&#x4c3;" horiz-adv-x="1420" d="M119 0v84l173 12v1323l-173 21v82h494v-82l-181 -20v-624l1 1q23 9 52.5 18t61.5 17t65.5 15t65.5 12l412 561l-182 20v82h465v-82l-157 -20l-406 -550q91 -2 157.5 -21.5t113.5 -53t77 -80.5t46.5 -104t22.5 -122t6 -135q0 -158 -29 -296t-86 -240.5t-142.5 -162 t-197.5 -59.5q-11 0 -26 1t-30.5 3t-29 5t-20.5 6v100q13 -3 37 -4.5t47 -1.5q174 0 251.5 162t77.5 479q0 107 -16.5 185t-54.5 129t-100.5 76t-155.5 25q-49 0 -89.5 -4.5t-79 -12t-76 -17.5t-80.5 -21h-1v-610l184 -14v-82h-497z" />
<glyph unicode="&#x4c4;" horiz-adv-x="1233" d="M95 0v82l168 15v924l-164 32v82h487v-82l-186 -33v-397q14 9 45 17t67.5 13.5t72.5 8.5t60 4l280 355l-154 32v82h434v-82l-155 -32l-301 -358q106 -10 177 -43.5t114 -87.5t61.5 -126t18.5 -158q0 -168 -28.5 -304.5t-85.5 -233.5t-142 -149.5t-197 -52.5q-11 0 -26 1 t-30.5 3t-29 5t-20.5 6v97q13 -3 38.5 -4.5t47.5 -1.5q90 0 152 39t101 117t56 195.5t17 274.5q0 91 -21.5 153.5t-63.5 100.5t-104 54.5t-143 16.5q-17 0 -50 -2.5t-69 -6.5t-69.5 -10.5t-52.5 -13.5v-436l196 -14v-82h-501z" />
<glyph unicode="&#x4c5;" horiz-adv-x="1469" d="M20 28l30 157q6 -6 17.5 -14.5t28.5 -16.5t39.5 -13.5t49.5 -5.5q45 0 84.5 39t72.5 110.5t58.5 171t43.5 220.5t27.5 260t9.5 289v195l-223 20v82h1112v-82l-194 -20v-1324h209v-96l-113 -368h-105l84 368h-438v82l221 14l2 1324h-443v-204q0 -174 -11 -332.5 t-33 -295.5t-56 -248.5t-80 -190.5t-104 -122t-129 -43q-53 0 -89 11t-71 33z" />
<glyph unicode="&#x4c6;" horiz-adv-x="1256" d="M24 8l17 165q5 -3 20.5 -8t34.5 -10.5t38 -9t32 -3.5q43 0 78.5 55t61 165.5t40 277.5t14.5 391l-187 22v82h997v-82l-178 -32v-925h177v-96l-121 -368h-105l92 368h-350v82l167 14v935h-397v-107q0 -168 -9.5 -298t-25 -227t-35 -164t-38.5 -110q-14 -30 -32 -56 t-45 -45t-64.5 -29.5t-88.5 -10.5q-12 0 -26.5 2.5t-28 6t-24 7.5t-14.5 8z" />
<glyph unicode="&#x4c7;" horiz-adv-x="1684" d="M116 0v82l176 14v1323l-170 22v81h498v-81l-181 -22v-587h811v587l-174 22v81h503v-81l-183 -21v-895v-172.5t-1.5 -148t-6 -127t-13.5 -110.5q-17 -71 -61 -126.5t-102 -95t-122.5 -63t-122.5 -32.5l-38 76q96 18 167.5 70.5t109.5 124.5q10 20 17 41.5t12 51t7.5 69.5 t3.5 96.5t1.5 133t1.5 178.5l1 240h-811v-635l183 -14v-82h-506z" />
<glyph unicode="&#x4c8;" horiz-adv-x="1443" d="M95 0v82l168 14v925l-164 32v82h497v-82l-192 -33v-378h638v378l-191 33v82h490v-82l-158 -32v-836q0 -154 -23 -265t-73 -183t-129.5 -106.5t-191.5 -34.5q-11 0 -26 1t-30.5 3t-29 5t-20.5 6v99q14 -2 37.5 -3.5t48.5 -1.5q87 0 144 26.5t90.5 89t47.5 166.5t14 260 v294h-638v-445l200 -14v-82h-509z" />
<glyph unicode="&#x4c9;" horiz-adv-x="1688" d="M116 0v77l176 23v1324l-170 21v77h498v-77l-181 -21v-592h810v592l-173 21v77h491v-77l-171 -21v-1335h8l167 7v-96l-119 -368h-107l92 368h-364v77l176 22v632h-810v-632l183 -22v-77h-506z" />
<glyph unicode="&#x4ca;" horiz-adv-x="1446" d="M95 0v82l168 14v935l-164 22v82h497v-82l-192 -23v-388h638v389l-191 22v82h490v-82l-158 -23v-934h170v-96l-120 -368h-106l91 368h-374v82l198 14v445h-638v-445l200 -14v-82h-509z" />
<glyph unicode="&#x4cb;" horiz-adv-x="1368" d="M6 1440v82h466v-82l-189 -21v-299q0 -95 5.5 -162t19 -113t36.5 -73t57.5 -41.5t81.5 -18.5t110 -4q42 0 91.5 6t96 15.5t86.5 22t63 26.5v641l-194 21v82h529v-81l-190 -22v-1323l192 -14v-82h-408q-18 -93 -33 -170q-6 -33 -12.5 -65t-11.5 -59.5t-9 -47t-5 -26.5h-100 l22 464h216h4v591q-38 -21 -90 -37t-108 -27.5t-112.5 -17t-103.5 -5.5q-103 0 -174.5 24.5t-116.5 79.5t-65 144t-20 217v355z" />
<glyph unicode="&#x4cc;" horiz-adv-x="1318" d="M28 1053v82h437v-82l-160 -33v-127q0 -117 11 -193.5t42.5 -122t87.5 -63.5t146 -18q40 0 87 4.5t92 12t83 17.5t60 21v470l-191 32v82h477v-82l-145 -33v-924l156 -14v-82h-379q-18 -93 -33 -170q-6 -33 -12.5 -65t-12 -59.5t-10 -47t-5.5 -26.5h-100l24 464h231v364 q-36 -17 -82.5 -30.5t-96.5 -22.5t-100 -14t-93 -5q-100 0 -172 23.5t-118.5 75.5t-68.5 135t-22 201v198z" />
<glyph unicode="&#x4cd;" horiz-adv-x="2027" d="M9 0v82l178 14l169 1324l-228 20v82h451l362 -1043l75 -288l74 288l342 1043h413v-82l-200 -20l189 -1324h191v-96l-114 -368h-105l85 368h-396v82l189 14l-119 944l-55 415l-75 -275l-394 -1196h-67l-386 1068l-133 405l-41 -416l-95 -945l196 -14v-82h-506zM1835 87 l2 -9h4z" />
<glyph unicode="&#x4ce;" horiz-adv-x="1738" d="M36 0v83l165 12l145 926l-196 32v82h400l232 -672l92 -278l81 278l230 672h403v-82l-209 -32l162 -925h169v-96l-114 -368h-105l86 368h-344v82l165 14l-96 593l-49 357l-118 -355l-249 -706h-66l-258 705l-127 348l-38 -349l-88 -594l177 -13v-82h-450z" />
<glyph unicode="&#x4cf;" horiz-adv-x="813" d="M127 0v82l205 14v1324l-205 21v81h558v-81l-204 -20v-1325l204 -14v-82h-558z" />
<glyph unicode="&#x4d0;" horiz-adv-x="1401" d="M-26 0v82l133 14l519 1442h146l510 -1442l135 -14v-82h-483v82l188 14l-114 338h-653l-116 -338l185 -14v-82h-450zM324 1980q0 8 0.5 17t1.5 16h107q19 0 24 -19t5 -45q0 -41 9.5 -78t35 -65t71.5 -44.5t118 -16.5t117.5 16.5t71 44.5t35 65t9.5 78q0 26 5 45t23 19h109 q1 -7 1.5 -16t0.5 -17q0 -158 -95 -234.5t-278 -76.5q-181 0 -276 77t-95 234zM389 533h585l-232 688l-61 206l-60 -215z" />
<glyph unicode="&#x4d1;" horiz-adv-x="1141" d="M104 299q0 71 27.5 126.5t76 97t114.5 71t143.5 48t162.5 27.5t171 11v66q0 79 -12 135.5t-41.5 93t-79 53.5t-125.5 17q-61 0 -120 -14t-110 -33.5t-91 -40.5t-64 -36h-1l-44 83q8 8 31 22.5t58 32t78.5 35.5t92 32.5t99.5 24t101 9.5q103 0 174 -21.5t115 -69 t63 -122.5t19 -183v-682h130v-70q-16 -4 -39 -9.5t-48 -10t-50.5 -7.5t-46.5 -3q-20 0 -34 2t-24 10t-14.5 24.5t-4.5 45.5v88q-21 -18 -56.5 -47.5t-82.5 -58t-104.5 -49t-122.5 -20.5q-68 0 -130 19t-109 58.5t-74.5 100t-27.5 144.5zM156 1702q0 8 0.5 16.5t1.5 16.5h107 q19 0 24 -19.5t5 -45.5q0 -41 11.5 -84t38.5 -78t72 -57t112 -22t110.5 22t69.5 57t36.5 78t10.5 84q0 26 5 45.5t23 19.5h108q1 -8 1.5 -16.5t0.5 -16.5q0 -79 -23 -146t-69 -115.5t-114.5 -75.5t-159.5 -27q-90 0 -159.5 27.5t-116.5 76t-71 115t-24 145.5zM264 315 q0 -64 18 -107t49.5 -69.5t74 -38t90.5 -11.5q34 0 73 12t79.5 32t79 45t71.5 51v358q-130 -1 -230 -20.5t-167.5 -54.5t-102.5 -85t-35 -112z" />
<glyph unicode="&#x4d2;" horiz-adv-x="1401" d="M-26 0v82l133 14l519 1442h146l510 -1442l135 -14v-82h-483v82l188 14l-114 338h-653l-116 -338l185 -14v-82h-450zM356 1825q0 23 6.5 45.5t20 40.5t34 29t48.5 11h1q24 0 42.5 -10t30.5 -25.5t18.5 -35.5t6.5 -39q0 -25 -7 -47.5t-21 -40t-35 -27.5t-50 -10h-1 q-22 0 -39.5 8.5t-29.5 23.5t-18.5 35t-6.5 42zM389 533h585l-232 688l-61 206l-60 -215zM838 1825q0 23 7 45.5t20.5 40.5t34 29t48.5 11h1q24 0 42.5 -10t30.5 -25.5t18.5 -35.5t6.5 -39q0 -25 -7 -47.5t-21 -40t-35 -27.5t-50 -10h-1q-23 0 -40.5 8.5t-29.5 23.5 t-18.5 35t-6.5 42z" />
<glyph unicode="&#x4d3;" horiz-adv-x="1141" d="M104 299q0 71 27.5 126.5t76 97t114.5 71t143.5 48t162.5 27.5t171 11v66q0 79 -12 135.5t-41.5 93t-79 53.5t-125.5 17q-61 0 -120 -14t-110 -33.5t-91 -40.5t-64 -36h-1l-44 83q8 8 31 22.5t58 32t78.5 35.5t92 32.5t99.5 24t101 9.5q103 0 174 -21.5t115 -69 t63 -122.5t19 -183v-682h130v-70q-16 -4 -39 -9.5t-48 -10t-50.5 -7.5t-46.5 -3q-20 0 -34 2t-24 10t-14.5 24.5t-4.5 45.5v88q-21 -18 -56.5 -47.5t-82.5 -58t-104.5 -49t-122.5 -20.5q-68 0 -130 19t-109 58.5t-74.5 100t-27.5 144.5zM222 1487q0 24 6.5 46.5t20 40.5 t34.5 28.5t49 10.5h1q24 0 42 -9.5t30.5 -25t18.5 -35t6 -39.5q0 -26 -7 -48.5t-20.5 -39.5t-35 -27t-49.5 -10h-1q-23 0 -40.5 8.5t-29.5 23.5t-18.5 34.5t-6.5 41.5zM264 315q0 -64 18 -107t49.5 -69.5t74 -38t90.5 -11.5q34 0 73 12t79.5 32t79 45t71.5 51v358 q-130 -1 -230 -20.5t-167.5 -54.5t-102.5 -85t-35 -112zM664 1487q0 24 6.5 46.5t20 40.5t34 28.5t48.5 10.5h1q24 0 42.5 -9.5t31 -25t18.5 -35t6 -39.5q0 -26 -7 -48.5t-21 -39.5t-35 -27t-50 -10h-1q-22 0 -39.5 8.5t-29.5 23.5t-18.5 34.5t-6.5 41.5z" />
<glyph unicode="&#x4d4;" horiz-adv-x="1859" d="M-191 0v82l151 14l602 1330l-283 19v77h1368l39 -306h-86l-62 215l-567 8v-609l387 5l24 171h92v-448h-92l-24 178l-387 5v-649l653 20l114 257l86 -21l-78 -348h-1107v82l187 14v360h-569l-154 -360l166 -14v-82h-460zM300 557h526v877h-151l-115 -267z" />
<glyph unicode="&#x4d5;" horiz-adv-x="1786" d="M104 298q0 71 27.5 126.5t75.5 97.5t113 71.5t140 48.5t157.5 28t164.5 11v73q0 80 -9.5 135.5t-35.5 90t-73 50t-123 15.5q-61 0 -118.5 -13.5t-108 -32.5t-91 -40.5t-68.5 -37.5l-44 83q17 15 65.5 41t113.5 51.5t139 44.5t142 19q144 0 225.5 -43.5t116.5 -135.5 q71 88 170.5 137.5t218.5 49.5q89 0 159.5 -26.5t120 -77.5t77 -127t30.5 -175q0 -57 -2 -99t-9 -74h-742v-17t1 -17q3 -120 34.5 -209t82.5 -148.5t118 -88.5t143 -29q44 0 90.5 9t89.5 24t80 34.5t61 41.5l30 -68q-30 -30 -74 -56.5t-96.5 -46t-110.5 -30.5t-115 -11 q-143 0 -244.5 61t-161.5 169q-23 -33 -60.5 -73.5t-89.5 -75t-119 -58t-149 -23.5q-68 0 -130 19t-109 58t-75 99.5t-28 144.5zM264 315q0 -64 18 -107.5t49.5 -69.5t73.5 -37.5t91 -11.5q58 0 110 18.5t95 47.5t75.5 63.5t51.5 67.5q-47 127 -47 289v24 q-127 -1 -223.5 -22.5t-162 -59t-98.5 -89.5t-33 -113zM939 677h586q6 46 6 93q0 65 -15.5 119.5t-48.5 93.5t-83.5 61t-121.5 22q-65 0 -121 -20.5t-98.5 -67t-69.5 -120.5t-34 -181z" />
<glyph unicode="&#x4d6;" horiz-adv-x="1326" d="M106 0v82l177 15v1323l-173 21v81h1004l29 -296h-85l-53 201l-575 7v-606l395 5l24 173h92v-448h-92l-24 176l-395 5v-644l654 17l101 257l86 -29l-65 -340h-1100zM307 1980q0 8 0.5 17t1.5 16h107q19 0 24 -19t5 -45q0 -41 9.5 -78t35 -65t71.5 -44.5t118 -16.5 t117.5 16.5t71 44.5t35 65t9.5 78q0 26 5 45t23 19h109q1 -7 1.5 -16t0.5 -17q0 -158 -95 -234.5t-278 -76.5q-181 0 -276 77t-95 234z" />
<glyph unicode="&#x4d7;" horiz-adv-x="1107" d="M102 575q0 130 39.5 239t109.5 188t165.5 122.5t206.5 43.5q89 0 159.5 -26.5t120 -77.5t77 -127t30.5 -175q0 -57 -1.5 -99t-9.5 -74h-742v-17t1 -17q3 -120 34.5 -209t82.5 -148.5t118 -88.5t143 -29q44 0 90.5 9t89.5 24t80 34.5t61 41.5l30 -68q-30 -30 -74 -56.5 t-96.5 -46t-110.5 -30.5t-115 -11q-119 0 -210.5 44t-153.5 123.5t-93.5 189t-31.5 241.5zM188 1702q0 8 0.5 16.5t1.5 16.5h107q19 0 24 -19.5t5 -45.5q0 -41 11.5 -84t38.5 -78t72 -57t112 -22t110.5 22t69.5 57t36.5 78t10.5 84q0 26 5 45.5t23 19.5h108q1 -8 1.5 -16.5 t0.5 -16.5q0 -79 -23 -146t-69 -115.5t-114.5 -75.5t-159.5 -27q-90 0 -159.5 27.5t-116.5 76t-71 115t-24 145.5zM260 677h587q2 23 3.5 46.5t1.5 46.5q0 65 -15.5 119.5t-48.5 93.5t-83.5 61t-121.5 22q-65 0 -121 -20.5t-98.5 -67t-69.5 -120.5t-34 -181z" />
<glyph unicode="&#x4d8;" horiz-adv-x="1321" d="M84 583q0 63 1.5 112t9.5 84h1001v11q-7 162 -47.5 284t-105.5 204t-149.5 123t-179.5 41q-75 0 -132 -10t-100.5 -25t-75.5 -33.5t-55 -34.5l-36 -170h-97l12 290q43 2 89 14.5t105 27t137 26t185 11.5q139 0 250 -56.5t189 -158t119.5 -242.5t41.5 -311 q0 -176 -49.5 -321.5t-136.5 -250.5t-206.5 -163t-259.5 -58q-115 0 -207.5 41t-158.5 118.5t-103 190t-41 256.5zM236 575q0 -88 24 -175.5t73.5 -157.5t124.5 -113.5t177 -43.5q94 0 176 34.5t144.5 107.5t100 186.5t41.5 270.5h-851q-5 -26 -7.5 -53t-2.5 -56z" />
<glyph unicode="&#x4d9;" horiz-adv-x="1092" d="M98 383q-2 57 1.5 99t8.5 74h729v34q-3 120 -34 209t-82 148.5t-118 88.5t-142 29q-42 0 -87 -9t-86.5 -24t-77 -34.5t-59.5 -41.5l-30 68q29 30 72 56.5t94.5 46t108 30.5t112.5 11q117 0 207 -44t151 -123.5t92.5 -189t31.5 -241.5q0 -131 -39 -239.5t-107.5 -187.5 t-162 -122.5t-203.5 -43.5q-175 0 -273 103.5t-107 302.5zM255 379q1 -64 15 -121.5t45 -100.5t81 -68t123 -25q63 0 117.5 22.5t96 71.5t68 125.5t34.5 184.5h-576q-2 -23 -3 -45t-1 -44z" />
<glyph unicode="&#x4da;" horiz-adv-x="1321" d="M84 583q0 63 1.5 112t9.5 84h1001v11q-7 162 -47.5 284t-105.5 204t-149.5 123t-179.5 41q-75 0 -132 -10t-100.5 -25t-75.5 -33.5t-55 -34.5l-36 -170h-97l12 290q43 2 89 14.5t105 27t137 26t185 11.5q139 0 250 -56.5t189 -158t119.5 -242.5t41.5 -311 q0 -176 -49.5 -321.5t-136.5 -250.5t-206.5 -163t-259.5 -58q-115 0 -207.5 41t-158.5 118.5t-103 190t-41 256.5zM236 575q0 -88 24 -175.5t73.5 -157.5t124.5 -113.5t177 -43.5q94 0 176 34.5t144.5 107.5t100 186.5t41.5 270.5h-851q-5 -26 -7.5 -53t-2.5 -56zM322 1825 q0 23 6.5 45.5t20 40.5t34 29t48.5 11h1q24 0 42.5 -10t30.5 -25.5t18.5 -35.5t6.5 -39q0 -25 -7 -47.5t-21 -40t-35 -27.5t-50 -10h-1q-22 0 -39.5 8.5t-29.5 23.5t-18.5 35t-6.5 42zM804 1825q0 23 7 45.5t20.5 40.5t34 29t48.5 11h1q24 0 42.5 -10t30.5 -25.5t18.5 -35.5 t6.5 -39q0 -25 -7 -47.5t-21 -40t-35 -27.5t-50 -10h-1q-23 0 -40.5 8.5t-29.5 23.5t-18.5 35t-6.5 42z" />
<glyph unicode="&#x4db;" horiz-adv-x="1092" d="M98 383q-2 57 1.5 99t8.5 74h729v34q-3 120 -34 209t-82 148.5t-118 88.5t-142 29q-42 0 -87 -9t-86.5 -24t-77 -34.5t-59.5 -41.5l-30 68q29 30 72 56.5t94.5 46t108 30.5t112.5 11q117 0 207 -44t151 -123.5t92.5 -189t31.5 -241.5q0 -131 -39 -239.5t-107.5 -187.5 t-162 -122.5t-203.5 -43.5q-175 0 -273 103.5t-107 302.5zM218 1487q0 24 6.5 46.5t20 40.5t34.5 28.5t49 10.5h1q24 0 42 -9.5t30.5 -25t18.5 -35t6 -39.5q0 -26 -7 -48.5t-20.5 -39.5t-35 -27t-49.5 -10h-1q-23 0 -40.5 8.5t-29.5 23.5t-18.5 34.5t-6.5 41.5zM255 379 q1 -64 15 -121.5t45 -100.5t81 -68t123 -25q63 0 117.5 22.5t96 71.5t68 125.5t34.5 184.5h-576q-2 -23 -3 -45t-1 -44zM660 1487q0 24 6.5 46.5t20 40.5t34 28.5t48.5 10.5h1q24 0 42.5 -9.5t31 -25t18.5 -35t6 -39.5q0 -26 -7 -48.5t-21 -39.5t-35 -27t-50 -10h-1 q-22 0 -39.5 8.5t-29.5 23.5t-18.5 34.5t-6.5 41.5z" />
<glyph unicode="&#x4dc;" horiz-adv-x="2109" d="M22 0v82l78 15q21 6 50 35t62.5 73.5t71.5 100.5t78.5 115t82 117.5t82 108t79 86t73.5 51.5l-477 636l-156 20v82h463v-82l-175 -20l451 -626h199v625l-173 21v82h494v-82l-180 -20v-626h198l451 626l-173 20v82h462v-82l-158 -20l-475 -636q35 -16 74 -52.5t79.5 -86 t82 -108t81.5 -117.5t78 -114.5t71.5 -100t62.5 -73.5t50 -35l78 -15v-82h-192q-26 0 -58.5 30.5t-70 80.5t-79 114t-84 131t-85 131t-83 114t-77.5 80.5t-68 30.5h-165v-616l183 -14v-82h-497v82l173 14v616h-165q-31 0 -68 -30.5t-77.5 -80.5t-83 -114t-85 -131t-84 -131 t-79 -114t-70 -80.5t-58.5 -30.5h-192zM713 1825q0 23 6.5 45.5t20 40.5t34 29t48.5 11h1q24 0 42.5 -10t30.5 -25.5t18.5 -35.5t6.5 -39q0 -25 -7 -47.5t-21 -40t-35 -27.5t-50 -10h-1q-22 0 -39.5 8.5t-29.5 23.5t-18.5 35t-6.5 42zM1195 1825q0 23 7 45.5t20.5 40.5 t34 29t48.5 11h1q24 0 42.5 -10t30.5 -25.5t18.5 -35.5t6.5 -39q0 -25 -7 -47.5t-21 -40t-35 -27.5t-50 -10h-1q-23 0 -40.5 8.5t-29.5 23.5t-18.5 35t-6.5 42z" />
<glyph unicode="&#x4dd;" horiz-adv-x="1857" d="M8 0v82l69 14q26 10 58 46t68.5 86t77 107.5t84.5 111.5t90.5 97.5t95.5 65.5l-353 411l-142 32v82h435v-82l-167 -32l320 -393h216v393l-165 32v82h492v-82l-190 -33v-392h214l322 393l-167 32v82h434v-82l-143 -33l-352 -410q49 -22 96.5 -67t92 -99.5t85.5 -112.5 t77.5 -108t67 -85t55.5 -42l69 -14v-82h-141q-41 0 -84 40.5t-87 102t-89.5 132.5t-90.5 132.5t-90 102t-89 40.5h-180v-454l190 -14v-82h-496v82l169 15v453h-181q-33 0 -66.5 -23.5t-67 -62.5t-67.5 -88t-68 -101t-67.5 -101t-66 -88t-64 -62.5t-62.5 -23.5h-142z M605 1487q0 24 6.5 46.5t20 40.5t34.5 28.5t49 10.5h1q24 0 42 -9.5t30.5 -25t18.5 -35t6 -39.5q0 -26 -7 -48.5t-20.5 -39.5t-35 -27t-49.5 -10h-1q-23 0 -40.5 8.5t-29.5 23.5t-18.5 34.5t-6.5 41.5zM1047 1487q0 24 6.5 46.5t20 40.5t34 28.5t48.5 10.5h1q24 0 42.5 -9.5 t31 -25t18.5 -35t6 -39.5q0 -26 -7 -48.5t-21 -39.5t-35 -27t-50 -10h-1q-22 0 -39.5 8.5t-29.5 23.5t-18.5 34.5t-6.5 41.5z" />
<glyph unicode="&#x4de;" horiz-adv-x="1223" d="M111 63l28 334h73l45 -257q45 -21 119.5 -36.5t189.5 -15.5q195 0 300 81t105 258q0 70 -23 127.5t-73 98t-128.5 62.5t-190.5 22h-147v90h122q68 0 132.5 21.5t114.5 64t80 106.5t30 148q0 75 -21 128t-61 86t-97.5 48t-131.5 15q-50 0 -93 -7t-77 -19t-58.5 -27 t-37.5 -31l-31 -190h-97l-16 301q32 2 75 12.5t93 22.5t105.5 22t113.5 10q240 0 365.5 -83.5t125.5 -260.5q0 -88 -28.5 -156t-75 -116.5t-107.5 -78.5t-125 -42q106 -2 186.5 -31t135 -77.5t82 -113t27.5 -137.5q0 -106 -36 -190t-111.5 -142.5t-192 -90t-277.5 -31.5 q-74 0 -138 7.5t-116 19t-91.5 24.5t-66.5 24zM246 1825q0 23 6.5 45.5t20 40.5t34 29t48.5 11h1q24 0 42.5 -10t30.5 -25.5t18.5 -35.5t6.5 -39q0 -25 -7 -47.5t-21 -40t-35 -27.5t-50 -10h-1q-22 0 -39.5 8.5t-29.5 23.5t-18.5 35t-6.5 42zM728 1825q0 23 7 45.5 t20.5 40.5t34 29t48.5 11h1q24 0 42.5 -10t30.5 -25.5t18.5 -35.5t6.5 -39q0 -25 -7 -47.5t-21 -40t-35 -27.5t-50 -10h-1q-23 0 -40.5 8.5t-29.5 23.5t-18.5 35t-6.5 42z" />
<glyph unicode="&#x4df;" horiz-adv-x="1105" d="M121 60l18 224h87l25 -141q18 -15 48 -27t67 -19.5t77.5 -11.5t78.5 -4q174 0 257 62t83 172q0 54 -17 98t-55 74.5t-98 46.5t-145 13l-119 -14l-1 105l92 11q140 16 214 76t74 150q0 45 -14 80t-46.5 59t-84 36.5t-126.5 12.5q-56 0 -102.5 -7t-82 -16t-60 -19 t-37.5 -16l-31 -196h-89v297q51 0 94 8.5t90 19t104.5 19t137.5 8.5q95 0 169.5 -18.5t126.5 -54t79 -86.5t27 -116q0 -44 -18 -85t-50 -76t-76 -63t-97 -46q70 -6 126.5 -28t96 -57.5t61 -82.5t22.5 -102q1 -83 -29.5 -150t-91 -114t-152 -72.5t-212.5 -25.5q-73 0 -137 7 t-117 17.5t-95.5 24t-71.5 27.5zM213 1487q0 24 6.5 46.5t20 40.5t34.5 28.5t49 10.5h1q24 0 42 -9.5t30.5 -25t18.5 -35t6 -39.5q0 -26 -7 -48.5t-20.5 -39.5t-35 -27t-49.5 -10h-1q-23 0 -40.5 8.5t-29.5 23.5t-18.5 34.5t-6.5 41.5zM655 1487q0 24 6.5 46.5t20 40.5 t34 28.5t48.5 10.5h1q24 0 42.5 -9.5t31 -25t18.5 -35t6 -39.5q0 -26 -7 -48.5t-21 -39.5t-35 -27t-50 -10h-1q-22 0 -39.5 8.5t-29.5 23.5t-18.5 34.5t-6.5 41.5z" />
<glyph unicode="&#x4e0;" horiz-adv-x="1136" d="M77 55l37 318h85l37 -236q8 -3 24 -10.5t44 -15t70.5 -13t104.5 -5.5q114 0 198 29t139.5 78t82.5 114t27 138q0 80 -23 141t-75 103t-136.5 65t-206.5 27q-41 1 -85 0l-24 72q4 4 26.5 30t57 65t76.5 87.5t86 98.5q102 117 230 263l-595 -4l-25 -215h-92l-24 337h922 v-78l-515 -581q33 3 63 5t59 2q106 0 189 -24.5t141 -74t88.5 -123.5t30.5 -173q0 -114 -48 -204t-133.5 -153t-202 -96.5t-252.5 -33.5q-82 0 -144.5 9t-109 20.5t-77.5 22.5t-50 15z" />
<glyph unicode="&#x4e1;" horiz-adv-x="1092" d="M122 -90q9 -7 29 -19t46.5 -24.5t56.5 -25.5t59.5 -23.5t55.5 -17t44 -6.5q100 0 178.5 26.5t133 74.5t83.5 113.5t29 143.5q0 67 -21 123.5t-69 94.5t-125.5 52.5t-190.5 -2.5l-29 80l382 545h-482l-49 -282h-107l-1 372h817l19 -78l-447 -546q112 16 199 -6.5t147 -72 t91 -121.5t31 -154q0 -97 -39 -182t-111 -148t-174.5 -99.5t-229.5 -36.5q-66 0 -119.5 8.5t-94.5 19.5t-69 23t-43 20v148z" />
<glyph unicode="&#x4e2;" horiz-adv-x="1718" d="M113 0v82l179 14v1324l-171 20v82h530v-82l-217 -20v-1102l218 306l631 734v62l-195 20v82h511v-82l-173 -21v-1323l185 -14v-82h-519v82l191 14v1124l-196 -285l-653 -754v-85l207 -14v-82h-528zM631 1763v113h531v-113h-531z" />
<glyph unicode="&#x4e3;" horiz-adv-x="1456" d="M95 0v82l168 15v923l-164 33v82h487v-82l-182 -32v-847l138 223l544 738h271v-82l-164 -32v-925l169 -14v-82h-486v82l176 14v858l-166 -269l-508 -678l-2 -7h-281zM461 1432v113h531v-113h-531z" />
<glyph unicode="&#x4e4;" horiz-adv-x="1718" d="M113 0v82l179 14v1324l-171 20v82h530v-82l-217 -20v-1102l218 306l631 734v62l-195 20v82h511v-82l-173 -21v-1323l185 -14v-82h-519v82l191 14v1124l-196 -285l-653 -754v-85l207 -14v-82h-528zM547 1825q0 23 6.5 45.5t20 40.5t34 29t48.5 11h1q24 0 42.5 -10 t30.5 -25.5t18.5 -35.5t6.5 -39q0 -25 -7 -47.5t-21 -40t-35 -27.5t-50 -10h-1q-22 0 -39.5 8.5t-29.5 23.5t-18.5 35t-6.5 42zM1029 1825q0 23 7 45.5t20.5 40.5t34 29t48.5 11h1q24 0 42.5 -10t30.5 -25.5t18.5 -35.5t6.5 -39q0 -25 -7 -47.5t-21 -40t-35 -27.5t-50 -10 h-1q-23 0 -40.5 8.5t-29.5 23.5t-18.5 35t-6.5 42z" />
<glyph unicode="&#x4e5;" horiz-adv-x="1456" d="M95 0v82l168 15v923l-164 33v82h487v-82l-182 -32v-847l138 223l544 738h271v-82l-164 -32v-925l169 -14v-82h-486v82l176 14v858l-166 -269l-508 -678l-2 -7h-281zM393 1487q0 24 6.5 46.5t20 40.5t34.5 28.5t49 10.5h1q24 0 42 -9.5t30.5 -25t18.5 -35t6 -39.5 q0 -26 -7 -48.5t-20.5 -39.5t-35 -27t-49.5 -10h-1q-23 0 -40.5 8.5t-29.5 23.5t-18.5 34.5t-6.5 41.5zM835 1487q0 24 6.5 46.5t20 40.5t34 28.5t48.5 10.5h1q24 0 42.5 -9.5t31 -25t18.5 -35t6 -39.5q0 -26 -7 -48.5t-21 -39.5t-35 -27t-50 -10h-1q-22 0 -39.5 8.5 t-29.5 23.5t-18.5 34.5t-6.5 41.5z" />
<glyph unicode="&#x4e6;" horiz-adv-x="1500" d="M92 749q0 121 24 226.5t68.5 193t106 156t137 116t162 72.5t180.5 25q153 0 271.5 -55t199.5 -155t123 -240.5t42 -312.5q0 -181 -52.5 -327.5t-143.5 -250t-213.5 -160.5t-262.5 -60q-153 -3 -272.5 53t-201.5 158.5t-125 245.5t-43 315zM255 750q0 -146 32.5 -271 t95 -217t154 -144.5t210.5 -52.5q108 0 199 45t157 134.5t102.5 222t36.5 307.5q0 147 -32.5 271t-94.5 214.5t-153 141t-209 50.5q-110 0 -201.5 -44t-157.5 -131.5t-102.5 -219t-36.5 -306.5zM410 1825q0 23 6.5 45.5t20 40.5t34 29t48.5 11h1q24 0 42.5 -10t30.5 -25.5 t18.5 -35.5t6.5 -39q0 -25 -7 -47.5t-21 -40t-35 -27.5t-50 -10h-1q-22 0 -39.5 8.5t-29.5 23.5t-18.5 35t-6.5 42zM892 1825q0 23 7 45.5t20.5 40.5t34 29t48.5 11h1q24 0 42.5 -10t30.5 -25.5t18.5 -35.5t6.5 -39q0 -25 -7 -47.5t-21 -40t-35 -27.5t-50 -10h-1 q-23 0 -40.5 8.5t-29.5 23.5t-18.5 35t-6.5 42z" />
<glyph unicode="&#x4e7;" horiz-adv-x="1227" d="M102 577q0 138 45 247.5t118.5 186t166.5 117t190 40.5q139 0 235 -49t155.5 -132t86 -191.5t26.5 -227.5q0 -138 -45 -247.5t-118.5 -186t-167 -117t-190.5 -40.5q-139 0 -234.5 49t-155 132t-86 191.5t-26.5 227.5zM265 586q0 -102 18.5 -193.5t60 -161t107.5 -110 t161 -40.5q81 0 146 30t110 90t69.5 149.5t24.5 208.5q0 100 -18.5 191.5t-60 161.5t-107.5 111t-162 41q-81 0 -145.5 -30.5t-109.5 -90.5t-69.5 -149.5t-24.5 -207.5zM299 1487q0 24 6.5 46.5t20 40.5t34.5 28.5t49 10.5h1q24 0 42 -9.5t30.5 -25t18.5 -35t6 -39.5 q0 -26 -7 -48.5t-20.5 -39.5t-35 -27t-49.5 -10h-1q-23 0 -40.5 8.5t-29.5 23.5t-18.5 34.5t-6.5 41.5zM741 1487q0 24 6.5 46.5t20 40.5t34 28.5t48.5 10.5h1q24 0 42.5 -9.5t31 -25t18.5 -35t6 -39.5q0 -26 -7 -48.5t-21 -39.5t-35 -27t-50 -10h-1q-22 0 -39.5 8.5 t-29.5 23.5t-18.5 34.5t-6.5 41.5z" />
<glyph unicode="&#x4e8;" horiz-adv-x="1470" d="M78 749q0 121 24 226.5t68.5 193t106 156t137 116t162 72.5t180.5 25q153 0 271.5 -55t199.5 -155t123 -240.5t42 -312.5q0 -181 -52.5 -327.5t-143.5 -250t-213.5 -160.5t-262.5 -60q-153 -3 -272.5 53t-201.5 158.5t-125 245.5t-43 315zM241 716q4 -140 38 -259 t96.5 -206t152.5 -136.5t205 -49.5q104 0 191.5 41.5t153 123t104.5 203.5t45 283h-986zM242 810h985q-4 140 -38 257.5t-96 203t-151 133t-203 47.5q-105 0 -193.5 -40t-153.5 -120.5t-104.5 -200.5t-45.5 -280z" />
<glyph unicode="&#x4e9;" horiz-adv-x="1227" d="M102 577q0 138 45 247.5t118.5 186t166.5 117t190 40.5q139 0 235 -49t155.5 -132t86 -191.5t26.5 -227.5q0 -138 -45 -247.5t-118.5 -186t-167 -117t-190.5 -40.5q-139 0 -234.5 49t-155 132t-86 191.5t-26.5 227.5zM265 551q3 -96 23.5 -181.5t62 -149.5t106 -101.5 t155.5 -37.5q80 0 144.5 29.5t109.5 88.5t70 147t26 205h-697zM266 635h693q-6 88 -28.5 166t-64 136.5t-104 92.5t-148.5 34q-77 0 -139 -27t-107 -81t-71 -134.5t-31 -186.5z" />
<glyph unicode="&#x4ea;" horiz-adv-x="1470" d="M78 749q0 121 24 226.5t68.5 193t106 156t137 116t162 72.5t180.5 25q153 0 271.5 -55t199.5 -155t123 -240.5t42 -312.5q0 -181 -52.5 -327.5t-143.5 -250t-213.5 -160.5t-262.5 -60q-153 -3 -272.5 53t-201.5 158.5t-125 245.5t-43 315zM241 716q4 -140 38 -259 t96.5 -206t152.5 -136.5t205 -49.5q104 0 191.5 41.5t153 123t104.5 203.5t45 283h-986zM242 810h985q-4 140 -38 257.5t-96 203t-151 133t-203 47.5q-105 0 -193.5 -40t-153.5 -120.5t-104.5 -200.5t-45.5 -280zM416 1825q0 23 6.5 45.5t20 40.5t34 29t48.5 11h1 q24 0 42.5 -10t30.5 -25.5t18.5 -35.5t6.5 -39q0 -25 -7 -47.5t-21 -40t-35 -27.5t-50 -10h-1q-22 0 -39.5 8.5t-29.5 23.5t-18.5 35t-6.5 42zM898 1825q0 23 7 45.5t20.5 40.5t34 29t48.5 11h1q24 0 42.5 -10t30.5 -25.5t18.5 -35.5t6.5 -39q0 -25 -7 -47.5t-21 -40 t-35 -27.5t-50 -10h-1q-23 0 -40.5 8.5t-29.5 23.5t-18.5 35t-6.5 42z" />
<glyph unicode="&#x4eb;" horiz-adv-x="1227" d="M102 577q0 138 45 247.5t118.5 186t166.5 117t190 40.5q139 0 235 -49t155.5 -132t86 -191.5t26.5 -227.5q0 -138 -45 -247.5t-118.5 -186t-167 -117t-190.5 -40.5q-139 0 -234.5 49t-155 132t-86 191.5t-26.5 227.5zM265 551q3 -96 23.5 -181.5t62 -149.5t106 -101.5 t155.5 -37.5q80 0 144.5 29.5t109.5 88.5t70 147t26 205h-697zM266 635h693q-6 88 -28.5 166t-64 136.5t-104 92.5t-148.5 34q-77 0 -139 -27t-107 -81t-71 -134.5t-31 -186.5zM299 1487q0 24 6.5 46.5t20 40.5t34.5 28.5t49 10.5h1q24 0 42 -9.5t30.5 -25t18.5 -35t6 -39.5 q0 -26 -7 -48.5t-20.5 -39.5t-35 -27t-49.5 -10h-1q-23 0 -40.5 8.5t-29.5 23.5t-18.5 34.5t-6.5 41.5zM741 1487q0 24 6.5 46.5t20 40.5t34 28.5t48.5 10.5h1q24 0 42.5 -9.5t31 -25t18.5 -35t6 -39.5q0 -26 -7 -48.5t-21 -39.5t-35 -27t-50 -10h-1q-22 0 -39.5 8.5 t-29.5 23.5t-18.5 34.5t-6.5 41.5z" />
<glyph unicode="&#x4ec;" horiz-adv-x="1329" d="M88 323l94 25l83 -180q20 -12 45 -28.5t61.5 -30.5t87 -24t120.5 -10q105 0 197 44.5t160 128.5t107 205.5t39 276.5q0 4 -0.5 8t-0.5 8q-39 -37 -91 -62t-115 -25q-61 0 -113.5 20t-100.5 44.5t-92 44.5t-87 20q-35 0 -63 -9t-51.5 -22.5t-43 -29.5t-36.5 -31l-61 61 q21 29 49 57t63.5 49.5t77.5 35t90 13.5q60 0 111.5 -21.5t98.5 -47.5t91.5 -47.5t91.5 -21.5q30 0 55 9.5t46.5 24.5t39 32t32.5 32q-14 118 -52 221.5t-101.5 181t-152 122.5t-202.5 45q-66 0 -111.5 -10t-78.5 -25t-56.5 -33t-45.5 -34l-48 -187h-109l12 306q27 1 52.5 7 t53 15t59.5 19t72.5 18.5t91.5 14t117 5.5q163 0 290 -58t213 -163t131 -250.5t45 -320.5q0 -170 -52.5 -311.5t-146 -243t-223.5 -158t-285 -56.5q-82 0 -141 12t-105 27t-83.5 27t-76.5 12zM260 1825q0 23 6.5 45.5t20 40.5t34 29t48.5 11h1q24 0 42.5 -10t30.5 -25.5 t18.5 -35.5t6.5 -39q0 -25 -7 -47.5t-21 -40t-35 -27.5t-50 -10h-1q-22 0 -39.5 8.5t-29.5 23.5t-18.5 35t-6.5 42zM742 1825q0 23 7 45.5t20.5 40.5t34 29t48.5 11h1q24 0 42.5 -10t30.5 -25.5t18.5 -35.5t6.5 -39q0 -25 -7 -47.5t-21 -40t-35 -27.5t-50 -10h-1 q-23 0 -40.5 8.5t-29.5 23.5t-18.5 35t-6.5 42z" />
<glyph unicode="&#x4ed;" horiz-adv-x="1083" d="M90 92l1 198h88l41 -158q42 -24 101.5 -45t143.5 -21q73 0 140.5 25.5t120 82.5t84.5 148t35 221q-35 -31 -82 -51t-106 -20q-47 0 -90.5 19.5t-83.5 43.5t-76.5 43.5t-69.5 19.5q-57 0 -94.5 -17t-65.5 -49l-36 47q35 54 98.5 86t143.5 32q46 0 89 -19.5t83 -43 t76.5 -43t71.5 -19.5q45 0 79 19t60 45q-8 115 -42 198t-86.5 137t-119.5 80t-142 26q-78 0 -138 -13t-93 -37l-40 -164h-79v259q23 11 63 20.5t89 16t102 10t102 3.5q121 0 221.5 -38.5t173.5 -115.5t113 -191.5t39 -266.5q-1 -137 -44.5 -245.5t-117 -183.5t-170 -115 t-201.5 -40q-68 0 -125 9t-104.5 25t-85.5 37t-67 45zM168 1487q0 24 6.5 46.5t20 40.5t34.5 28.5t49 10.5h1q24 0 42 -9.5t30.5 -25t18.5 -35t6 -39.5q0 -26 -7 -48.5t-20.5 -39.5t-35 -27t-49.5 -10h-1q-23 0 -40.5 8.5t-29.5 23.5t-18.5 34.5t-6.5 41.5zM610 1487 q0 24 6.5 46.5t20 40.5t34 28.5t48.5 10.5h1q24 0 42.5 -9.5t31 -25t18.5 -35t6 -39.5q0 -26 -7 -48.5t-21 -39.5t-35 -27t-50 -10h-1q-22 0 -39.5 8.5t-29.5 23.5t-18.5 34.5t-6.5 41.5z" />
<glyph unicode="&#x4ee;" horiz-adv-x="1268" d="M-10 1440v82h487v-82l-187 -20l329 -761l71 -201l74 203l274 759l-161 20v82h421v-82l-136 -20l-436 -1079q-12 -33 -25 -72.5t-30.5 -80t-40.5 -78.5t-53.5 -67.5t-71 -47.5t-92.5 -18q-48 0 -89.5 9.5t-72.5 23.5v118q4 -1 24 -2t44 -1.5t46 -1t30 -0.5q47 0 81.5 12.5 t61 38.5t47 65t39.5 93l-492 1088zM423 1763v113h531v-113h-531z" />
<glyph unicode="&#x4ef;" horiz-adv-x="1159" d="M5 1058v77h433v-77l-166 -21l225 -632l112 -345l109 347l192 629l-147 22v77h386v-77l-110 -22q-65 -197 -114 -347.5t-86 -262.5t-62.5 -190t-43.5 -130.5t-30 -84.5t-20 -51q-48 -119 -89 -209t-89.5 -150t-110.5 -90.5t-152 -30.5q-13 0 -27 1t-27 3t-23.5 4.5 t-16.5 5.5v142q6 -3 17.5 -5.5t25 -4t28 -2t26.5 -0.5q44 0 86 12t84 50.5t83.5 110.5t85.5 193h-79l-403 1035zM337 1432v113h531v-113h-531z" />
<glyph unicode="&#x4f0;" horiz-adv-x="1268" d="M-10 1440v82h487v-82l-187 -20l329 -761l71 -201l74 203l274 759l-161 20v82h421v-82l-136 -20l-436 -1079q-12 -33 -25 -72.5t-30.5 -80t-40.5 -78.5t-53.5 -67.5t-71 -47.5t-92.5 -18q-48 0 -89.5 9.5t-72.5 23.5v118q4 -1 24 -2t44 -1.5t46 -1t30 -0.5q47 0 81.5 12.5 t61 38.5t47 65t39.5 93l-492 1088zM342 1764q0 23 6.5 45.5t20 40.5t34 29t48.5 11h1q24 0 42.5 -10t30.5 -25.5t18.5 -35.5t6.5 -39q0 -25 -7 -47.5t-21 -40t-35 -27.5t-50 -10h-1q-22 0 -39.5 8.5t-29.5 23.5t-18.5 35t-6.5 42zM824 1764q0 23 7 45.5t20.5 40.5t34 29 t48.5 11h1q24 0 42.5 -10t30.5 -25.5t18.5 -35.5t6.5 -39q0 -25 -7 -47.5t-21 -40t-35 -27.5t-50 -10h-1q-23 0 -40.5 8.5t-29.5 23.5t-18.5 35t-6.5 42z" />
<glyph unicode="&#x4f1;" horiz-adv-x="1159" d="M5 1058v77h433v-77l-166 -21l225 -632l112 -345l109 347l192 629l-147 22v77h386v-77l-110 -22q-65 -197 -114 -347.5t-86 -262.5t-62.5 -190t-43.5 -130.5t-30 -84.5t-20 -51q-48 -119 -89 -209t-89.5 -150t-110.5 -90.5t-152 -30.5q-13 0 -27 1t-27 3t-23.5 4.5 t-16.5 5.5v142q6 -3 17.5 -5.5t25 -4t28 -2t26.5 -0.5q44 0 86 12t84 50.5t83.5 110.5t85.5 193h-79l-403 1035zM294 1487q0 24 6.5 46.5t20 40.5t34.5 28.5t49 10.5h1q24 0 42 -9.5t30.5 -25t18.5 -35t6 -39.5q0 -26 -7 -48.5t-20.5 -39.5t-35 -27t-49.5 -10h-1 q-23 0 -40.5 8.5t-29.5 23.5t-18.5 34.5t-6.5 41.5zM736 1487q0 24 6.5 46.5t20 40.5t34 28.5t48.5 10.5h1q24 0 42.5 -9.5t31 -25t18.5 -35t6 -39.5q0 -26 -7 -48.5t-21 -39.5t-35 -27t-50 -10h-1q-22 0 -39.5 8.5t-29.5 23.5t-18.5 34.5t-6.5 41.5z" />
<glyph unicode="&#x4f2;" horiz-adv-x="1268" d="M-10 1440v82h487v-82l-187 -20l329 -761l71 -201l74 203l274 759l-161 20v82h421v-82l-136 -20l-436 -1079q-12 -33 -25 -72.5t-30.5 -80t-40.5 -78.5t-53.5 -67.5t-71 -47.5t-92.5 -18q-48 0 -89.5 9.5t-72.5 23.5v118q4 -1 24 -2t44 -1.5t46 -1t30 -0.5q47 0 81.5 12.5 t61 38.5t47 65t39.5 93l-492 1088zM361 1719l278 288l104 -91q-36 -37 -76.5 -73t-82.5 -68.5t-82.5 -61t-76.5 -51.5zM845 1719l291 288l94 -92q-32 -34 -72 -69.5t-83 -68.5t-86 -62.5t-80 -52.5z" />
<glyph unicode="&#x4f3;" horiz-adv-x="1159" d="M5 1058v77h433v-77l-166 -21l225 -632l112 -345l109 347l192 629l-147 22v77h386v-77l-110 -22q-65 -197 -114 -347.5t-86 -262.5t-62.5 -190t-43.5 -130.5t-30 -84.5t-20 -51q-48 -119 -89 -209t-89.5 -150t-110.5 -90.5t-152 -30.5q-13 0 -27 1t-27 3t-23.5 4.5 t-16.5 5.5v142q6 -3 17.5 -5.5t25 -4t28 -2t26.5 -0.5q44 0 86 12t84 50.5t83.5 110.5t85.5 193h-79l-403 1035zM319 1397l322 399l104 -92q-17 -25 -45 -56t-62 -64.5t-72 -67.5t-74.5 -64.5t-68.5 -55.5t-55 -41zM786 1399l327 399l99 -88q-14 -23 -41 -53.5t-60.5 -64.5 t-72 -69t-75.5 -66.5t-70.5 -57.5t-56.5 -42z" />
<glyph unicode="&#x4f4;" horiz-adv-x="1368" d="M6 1440v82h466v-82l-189 -21v-299q0 -95 5.5 -162t19 -113t36.5 -73t57.5 -41.5t81.5 -18.5t110 -4q42 0 91.5 6t96 15.5t86.5 22t63 26.5v641l-194 21v82h529v-81l-190 -22v-1323l192 -14v-82h-556v82l219 14v591q-38 -21 -90 -37t-108 -27.5t-112.5 -17t-103.5 -5.5 q-103 0 -174.5 24.5t-116.5 79.5t-65 144t-20 217v355zM268 1764q0 23 6.5 45.5t20 40.5t34 29t48.5 11h1q24 0 42.5 -10t30.5 -25.5t18.5 -35.5t6.5 -39q0 -25 -7 -47.5t-21 -40t-35 -27.5t-50 -10h-1q-22 0 -39.5 8.5t-29.5 23.5t-18.5 35t-6.5 42zM750 1764q0 23 7 45.5 t20.5 40.5t34 29t48.5 11h1q24 0 42.5 -10t30.5 -25.5t18.5 -35.5t6.5 -39q0 -25 -7 -47.5t-21 -40t-35 -27.5t-50 -10h-1q-23 0 -40.5 8.5t-29.5 23.5t-18.5 35t-6.5 42z" />
<glyph unicode="&#x4f5;" horiz-adv-x="1318" d="M27 1053v82h437v-82l-160 -32v-128q0 -117 11 -193.5t42.5 -122t87.5 -63.5t146 -18q40 0 87 4.5t92 12t83 17.5t60 21v469l-191 33v82h477v-82l-145 -32v-925l156 -14v-82h-491v82l194 14v359q-37 -16 -84 -28.5t-97 -21t-99.5 -13t-91.5 -4.5q-100 0 -172 23.5 t-118.5 75.5t-68.5 135t-22 201v198zM282 1487q0 24 6.5 46.5t20 40.5t34.5 28.5t49 10.5h1q24 0 42 -9.5t30.5 -25t18.5 -35t6 -39.5q0 -26 -7 -48.5t-20.5 -39.5t-35 -27t-49.5 -10h-1q-23 0 -40.5 8.5t-29.5 23.5t-18.5 34.5t-6.5 41.5zM724 1487q0 24 6.5 46.5t20 40.5 t34 28.5t48.5 10.5h1q24 0 42.5 -9.5t31 -25t18.5 -35t6 -39.5q0 -26 -7 -48.5t-21 -39.5t-35 -27t-50 -10h-1q-22 0 -39.5 8.5t-29.5 23.5t-18.5 34.5t-6.5 41.5z" />
<glyph unicode="&#x4f6;" horiz-adv-x="1146" d="M65 0v77l227 22v1321l-218 20v82h1035l10 -505h-100l-52 412l-525 10v-1340l58 -3h341l-53 -464h-99q0 7 -1 26.5t-1.5 47t-1.5 59.5t-2 65q-3 77 -5 170h-613z" />
<glyph unicode="&#x4f7;" horiz-adv-x="1006" d="M100 0v82l169 14v924l-165 33v82h845l10 -406h-92l-46 302h-411v-935h306l-52 -464h-100q0 7 -0.5 26.5t-1.5 47t-1.5 59.5t-1.5 65q-2 77 -5 170h-454z" />
<glyph unicode="&#x4f8;" horiz-adv-x="1962" d="M112 0v82l179 14l1 1324l-175 20v82h515v-82l-196 -20v-518l1 2q17 4 48 8t69 7.5t79.5 6t79.5 2.5q126 0 222 -30.5t161 -88t98 -140.5t33 -188q0 -123 -39.5 -216.5t-111.5 -155.5t-171.5 -93.5t-219.5 -31.5q-18 0 -57.5 2.5t-86 5.5t-92.5 5.5t-78 2.5l2 3l-3 -3 h-258zM436 92q24 -3 47.5 -6t50.5 -5.5t61 -4.5t80 -2q93 0 166.5 24.5t125 73.5t79 123t27.5 173q0 90 -27 157.5t-78.5 112.5t-125 67t-166.5 22q-35 0 -70.5 -1.5t-68 -4t-59 -5.5t-41.5 -6h-1v-718zM661 1825q0 23 6.5 45.5t20 40.5t34 29t48.5 11h1q24 0 42.5 -10 t30.5 -25.5t18.5 -35.5t6.5 -39q0 -25 -7 -47.5t-21 -40t-35 -27.5t-50 -10h-1q-22 0 -39.5 8.5t-29.5 23.5t-18.5 35t-6.5 42zM1143 1825q0 23 7 45.5t20.5 40.5t34 29t48.5 11h1q24 0 42.5 -10t30.5 -25.5t18.5 -35.5t6.5 -39q0 -25 -7 -47.5t-21 -40t-35 -27.5t-50 -10 h-1q-23 0 -40.5 8.5t-29.5 23.5t-18.5 35t-6.5 42zM1316 0v82l205 14v1324l-205 21v81h558v-81l-204 -20v-1325l204 -14v-82h-558z" />
<glyph unicode="&#x4f9;" horiz-adv-x="1694" d="M65 0v82l198 14v924l-183 33v82h546v-90l-222 -24v-366q14 4 38 8t54 7.5t65 6t71 2.5q216 0 320 -86t104 -252q0 -88 -30 -155.5t-85.5 -114t-135.5 -70.5t-180 -24q-32 0 -79 3.5t-95.5 8t-91.5 8t-68 3.5h-226zM404 90q29 -5 84 -11t134 -6q66 0 118 15t88 46t55 79 t19 115q0 73 -20 121t-59 77t-96.5 41t-132.5 12q-30 0 -58.5 -2t-53.5 -5t-45 -7t-33 -8v-467zM532 1487q0 24 6.5 46.5t20 40.5t34.5 28.5t49 10.5h1q24 0 42 -9.5t30.5 -25t18.5 -35t6 -39.5q0 -26 -7 -48.5t-20.5 -39.5t-35 -27t-49.5 -10h-1q-23 0 -40.5 8.5 t-29.5 23.5t-18.5 34.5t-6.5 41.5zM974 1487q0 24 6.5 46.5t20 40.5t34 28.5t48.5 10.5h1q24 0 42.5 -9.5t31 -25t18.5 -35t6 -39.5q0 -26 -7 -48.5t-21 -39.5t-35 -27t-50 -10h-1q-22 0 -39.5 8.5t-29.5 23.5t-18.5 34.5t-6.5 41.5zM1122 1053v82h467v-82l-158 -33v-924 l169 -14v-82h-468v82l158 14v924z" />
<glyph unicode="&#x2000;" horiz-adv-x="1006" />
<glyph unicode="&#x2001;" horiz-adv-x="2013" />
<glyph unicode="&#x2002;" horiz-adv-x="1006" />
<glyph unicode="&#x2003;" horiz-adv-x="2013" />
<glyph unicode="&#x2004;" horiz-adv-x="671" />
<glyph unicode="&#x2005;" horiz-adv-x="503" />
<glyph unicode="&#x2006;" horiz-adv-x="335" />
<glyph unicode="&#x2007;" horiz-adv-x="335" />
<glyph unicode="&#x2008;" horiz-adv-x="251" />
<glyph unicode="&#x2009;" horiz-adv-x="402" />
<glyph unicode="&#x200a;" horiz-adv-x="111" />
<glyph unicode="&#x2010;" horiz-adv-x="1345" d="M230 560v112h885v-112h-885z" />
<glyph unicode="&#x2011;" horiz-adv-x="1345" d="M230 560v112h885v-112h-885z" />
<glyph unicode="&#x2012;" horiz-adv-x="1345" d="M230 560v112h885v-112h-885z" />
<glyph unicode="&#x2013;" horiz-adv-x="1480" d="M230 559v113h1020v-113h-1020z" />
<glyph unicode="&#x2014;" horiz-adv-x="2508" d="M230 559v113h2048v-113h-2048z" />
<glyph unicode="&#x2018;" horiz-adv-x="774" d="M242 1255q0 94 25.5 174t62 140.5t76 100.5t68.5 55h2l43 -44v-16q-17 -12 -43 -40t-50 -71.5t-41 -103t-17 -134.5q0 -48 10.5 -83t26 -61.5t33.5 -47.5t33.5 -39.5t26 -37.5t10.5 -42q0 -43 -22.5 -64t-57.5 -21h-1q-34 0 -67 27.5t-59.5 74t-42.5 107t-16 126.5z" />
<glyph unicode="&#x2019;" horiz-adv-x="774" d="M254 938v16q17 12 43 40t50 71.5t41 103t17 134.5q0 48 -10.5 83t-26 61.5t-33.5 47.5t-33.5 39.5t-26 37.5t-10.5 42q0 43 22.5 64t57.5 21h1q34 0 67 -27.5t59.5 -74t42.5 -107t16 -126.5q0 -94 -25.5 -174t-62 -140.5t-76 -100.5t-68.5 -55h-2z" />
<glyph unicode="&#x201a;" horiz-adv-x="774" d="M254 -445q17 12 43 40t50 71.5t41 103t17 134.5q0 48 -10.5 83t-26 61.5t-33.5 47.5t-33.5 39.5t-26 37.5t-10.5 42q0 43 22.5 64t57.5 21h1q34 0 67 -27.5t59.5 -74t42.5 -107t16 -126.5q0 -94 -25.5 -174t-62 -140.5t-76 -100.5t-68.5 -55h-2l-43 44v16z" />
<glyph unicode="&#x201c;" horiz-adv-x="1289" d="M242 1255q0 94 25.5 174t62 140.5t76 100.5t68.5 55h2l43 -44v-16q-17 -12 -43 -40t-50 -71.5t-41 -103t-17 -134.5q0 -48 10.5 -83t26 -61.5t33.5 -47.5t33.5 -39.5t26 -37.5t10.5 -42q0 -43 -22.5 -64t-57.5 -21h-1q-34 0 -67 27.5t-59.5 74t-42.5 107t-16 126.5z M757 1255q0 94 25.5 174t62 140.5t76 100.5t68.5 55h2l43 -44v-16q-17 -12 -43 -40t-50 -71.5t-41 -103t-17 -134.5q0 -48 10.5 -83t26 -61.5t33.5 -47.5t33.5 -39.5t26 -37.5t10.5 -42q0 -43 -22.5 -64t-57.5 -21h-1q-34 0 -67 27.5t-59.5 74t-42.5 107t-16 126.5z" />
<glyph unicode="&#x201d;" horiz-adv-x="1288" d="M254 938v16q17 12 43 40t50 71.5t41 103t17 134.5q0 48 -10.5 83t-26 61.5t-33.5 47.5t-33.5 39.5t-26 37.5t-10.5 42q0 43 22.5 64t57.5 21h1q34 0 67 -27.5t59.5 -74t42.5 -107t16 -126.5q0 -94 -25.5 -174t-62 -140.5t-76 -100.5t-68.5 -55h-2zM768 938v16 q17 12 43 40t50 71.5t41 103t17 134.5q0 48 -10.5 83t-26 61.5t-33.5 47.5t-33.5 39.5t-26 37.5t-10.5 42q0 43 22.5 64t57.5 21h1q34 0 67 -27.5t59.5 -74t42.5 -107t16 -126.5q0 -94 -25.5 -174t-62 -140.5t-76 -100.5t-68.5 -55h-2z" />
<glyph unicode="&#x201e;" horiz-adv-x="1288" d="M254 -445q17 12 43 40t50 71.5t41 103t17 134.5q0 48 -10.5 83t-26 61.5t-33.5 47.5t-33.5 39.5t-26 37.5t-10.5 42q0 43 22.5 64t57.5 21h1q34 0 67 -27.5t59.5 -74t42.5 -107t16 -126.5q0 -94 -25.5 -174t-62 -140.5t-76 -100.5t-68.5 -55h-2l-43 44v16zM768 -445 q17 12 43 40t50 71.5t41 103t17 134.5q0 48 -10.5 83t-26 61.5t-33.5 47.5t-33.5 39.5t-26 37.5t-10.5 42q0 43 22.5 64t57.5 21h1q34 0 67 -27.5t59.5 -74t42.5 -107t16 -126.5q0 -94 -25.5 -174t-62 -140.5t-76 -100.5t-68.5 -55h-2l-43 44v16z" />
<glyph unicode="&#x2020;" horiz-adv-x="1065" d="M163 1134l1 113l317 -4l-16 230v175h135v-175l-15 -230l317 4v-113l-317 4l16 -214l-29 -807h-78l-30 807l17 214z" />
<glyph unicode="&#x2021;" horiz-adv-x="1066" d="M162 517v113l319 -4l-17 298l17 214l-319 -4v113l319 -4l-16 230v175h135v-175l-15 -230l317 4v-113l-317 4l16 -214l-16 -298l317 4v-113l-317 3l16 -214l-29 -745h-78l-30 745l17 214z" />
<glyph unicode="&#x2022;" horiz-adv-x="841" d="M262 692q0 36 13.5 66.5t37 53t54 35.5t63.5 13q31 0 58.5 -12.5t47.5 -35t31.5 -52.5t11.5 -66q0 -35 -14 -65.5t-37 -53.5t-53 -36t-62 -13t-59.5 13.5t-48 36t-32 53t-11.5 63.5z" />
<glyph unicode="&#x2026;" horiz-adv-x="2118" d="M242 85q0 26 10 48.5t27 39.5t38 27t44 10q27 0 46 -9t31 -23.5t17.5 -34t5.5 -40.5q0 -28 -10 -51t-26.5 -39.5t-38 -25.5t-44.5 -9q-42 0 -71 29t-29 78zM948 85q0 26 10 48.5t27 39.5t38 27t44 10q27 0 46 -9t31 -23.5t17.5 -34t5.5 -40.5q0 -28 -10 -51t-26.5 -39.5 t-38 -25.5t-44.5 -9q-42 0 -71 29t-29 78zM1654 85q0 26 10 48.5t27 39.5t38 27t44 10q27 0 46 -9t31 -23.5t17.5 -34t5.5 -40.5q0 -28 -10 -51t-26.5 -39.5t-38 -25.5t-44.5 -9q-42 0 -71 29t-29 78z" />
<glyph unicode="&#x202f;" horiz-adv-x="402" />
<glyph unicode="&#x2030;" horiz-adv-x="2960" d="M120 1073q0 102 31.5 181t85 133t123 82t145.5 28q91 0 157.5 -32t109.5 -88t64 -131t21 -161q0 -102 -32.5 -180t-86.5 -131.5t-123.5 -81t-143.5 -27.5q-81 0 -146 32.5t-110.5 88.5t-70 130t-24.5 157zM259 1081q0 -68 15 -127.5t44 -103t70 -68.5t94 -25 q52 0 95 21.5t74.5 62.5t49 100.5t17.5 136.5q0 73 -14.5 133t-42.5 103t-69.5 67t-96.5 24q-53 0 -96 -22t-74.5 -63.5t-48.5 -102t-17 -136.5zM654 0l656 1538h122l-656 -1538h-122zM1227 459q0 102 31.5 181t85 133t123 82t145.5 28q91 0 157.5 -32t109.5 -88t64 -131 t21 -161q0 -102 -32.5 -180t-86.5 -131.5t-123.5 -81t-143.5 -27.5q-81 0 -146 32.5t-110.5 88.5t-70 130t-24.5 157zM1366 467q0 -68 15 -127.5t44 -103t70 -68.5t94 -25q52 0 95 21.5t74.5 62.5t49 100.5t17.5 136.5q0 73 -14.5 133t-42.5 103t-69.5 66.5t-96.5 23.5 q-53 0 -96 -22t-74.5 -63t-48.5 -101.5t-17 -136.5zM2103 459q0 102 31.5 181t85 133t123 82t145.5 28q91 0 157.5 -32t109.5 -88t64 -131t21 -161q0 -102 -32.5 -180t-86.5 -131.5t-123.5 -81t-143.5 -27.5q-81 0 -146 32.5t-110.5 88.5t-70 130t-24.5 157zM2242 467 q0 -68 15 -127.5t44 -103t70 -68.5t94 -25q52 0 95 21.5t74.5 62.5t49 100.5t17.5 136.5q0 73 -14.5 133t-42.5 103t-69.5 67t-96.5 24q-53 0 -96 -22t-74.5 -63.5t-48.5 -102t-17 -136.5z" />
<glyph unicode="&#x2039;" horiz-adv-x="1189" d="M245 549v127l659 443l44 -79l-530 -424l536 -416l-50 -82z" />
<glyph unicode="&#x203a;" horiz-adv-x="1189" d="M235 200l50 -82l659 431v127l-659 443l-44 -79l530 -424z" />
<glyph unicode="&#x2044;" horiz-adv-x="374" d="M-255 -138l764 1802l113 -8l-762 -1798z" />
<glyph unicode="&#x205f;" horiz-adv-x="503" />
<glyph unicode="&#x20ac;" horiz-adv-x="1551" d="M113 539v100h209q-1 21 -1.5 42t-0.5 43q0 51 3.5 99.5t10.5 94.5h-197v100h216q32 129 92 230.5t144.5 172.5t192 108.5t234.5 37.5q65 0 121 -8.5t103 -20t85 -23.5t68 -19l-16 -260h-84l-27 168q-16 13 -44.5 25.5t-67 22.5t-85.5 15.5t-100 5.5q-94 0 -171.5 -30.5 t-137.5 -89t-101 -143t-63 -192.5h628v-100h-643q-9 -77 -9 -162q0 -60 3 -117h617v-100h-607q15 -107 48 -195t90 -152t140 -99t198 -35q50 0 91 7.5t76 21t65.5 31.5t60.5 38l43 125l86 -14l-17 -198q-33 -2 -69 -17t-86 -33t-119 -32.5t-167 -14.5q-132 0 -234.5 40.5 t-176 114.5t-119 179t-63.5 233h-219z" />
<glyph unicode="&#x2122;" horiz-adv-x="2238" d="M140 1336l20 217h716v-216l-69 -4l-21 138l-202 9v-610l148 -13v-80h-427v80l144 12v610l-200 -8l-37 -134zM974 777v80l116 12l39 592l-118 7v85h298l166 -426l68 -204l219 630h293v-85l-122 -7l53 -592l109 -12v-80h-336v80l97 12l-26 389l-11 232l-38 -119l-216 -602 h-82l-208 545l-69 177l-5 -182l-28 -440l104 -12v-80h-303z" />
<glyph unicode="&#x2202;" horiz-adv-x="1284" d="M135 411q0 140 47.5 254t128.5 194.5t189 124t228 43.5q51 0 95.5 -10t82 -24.5t69.5 -31.5t58 -32q-2 87 -12.5 168t-33 152t-59.5 129t-92.5 99.5t-130.5 64.5t-173 23q-87 0 -160 -22t-147 -72l-34 81q84 61 183.5 94.5t204.5 33.5q112 0 199.5 -26.5t153 -75 t111 -116t74 -149t41 -175t12.5 -192.5q0 -106 -12 -219.5t-40 -221t-74.5 -204t-115 -168.5t-162 -114.5t-215.5 -42.5q-90 0 -166.5 31.5t-132 89t-86.5 137.5t-31 177zM277 453q0 -81 23.5 -147t66 -113t102 -72.5t131.5 -25.5q70 0 125.5 23.5t98.5 63t74.5 91.5 t54 109.5t36.5 116.5t22 113q7 44 11.5 83.5t6.5 80.5q-31 28 -68 53t-80 44t-91.5 30t-101.5 11q-74 0 -147.5 -27t-132 -83.5t-95 -143.5t-36.5 -207z" />
<glyph unicode="&#x2206;" horiz-adv-x="1769" d="M150 20l692 1496h28l750 -1492l-15 -23h-1443zM315 110h1095l-571 1168z" />
<glyph unicode="&#x220f;" horiz-adv-x="1415" d="M31 -111l181 22v1521l-177 19v71h1345v-71l-177 -20v-1520l181 -22v-76h-510v76l181 23v1519h-695v-1520l187 -22v-76h-516v76z" />
<glyph unicode="&#x2211;" horiz-adv-x="1592" d="M232 -137l615 811l-603 800l23 48h1024l33 -325h-86l-51 206l-742 10l566 -725l-564 -761l765 14l85 212l76 -11l-45 -323l-1075 1z" />
<glyph unicode="&#x221a;" horiz-adv-x="1472" d="M98 583l222 132h106l350 -919h8l612 2074h162l-711 -2224h-121l-411 937l-161 -91z" />
<glyph unicode="&#x221e;" horiz-adv-x="1808" d="M70 598q0 91 33 163t90.5 122t134 77t163.5 27q78 0 142.5 -28t118.5 -72.5t98 -98t81 -104.5q40 54 86 107.5t98 96t110 69.5t121 28q93 1 165.5 -30.5t123 -84t77 -120.5t26.5 -140q0 -90 -33.5 -162t-91 -122.5t-134.5 -77.5t-163 -27q-78 0 -142.5 28t-117.5 72 t-96.5 97.5t-80.5 103.5q-37 -53 -79 -105.5t-91.5 -95.5t-106.5 -70t-123 -28q-93 -2 -168.5 29.5t-129 84t-82.5 121t-29 140.5zM196 625q0 -68 24 -120.5t66.5 -89.5t100 -56t124.5 -19q49 0 94.5 20.5t87 54t78 77t69.5 89.5q-31 46 -69 99.5t-85.5 99.5t-103.5 76.5 t-123 30.5q-68 0 -117.5 -20.5t-82 -56t-48 -83t-15.5 -102.5zM969 626q31 -46 69 -99.5t84 -99t102 -76t123 -30.5t117 20.5t83 56t49 83t16 102.5q0 67 -23.5 120t-64.5 89.5t-98.5 56t-124.5 19.5q-50 0 -95.5 -20.5t-87 -54.5t-79 -77.5t-70.5 -89.5z" />
<glyph unicode="&#x222b;" horiz-adv-x="1075" d="M111 -397l83 105q15 -21 40 -41.5t57 -36.5t68 -25.5t74 -9.5q57 0 104.5 21.5t82 59t54 88.5t19.5 110q0 125 -32.5 240t-81.5 225t-105.5 217.5t-105.5 217.5t-81.5 224.5t-32.5 239.5q0 86 32.5 166.5t89 143t131.5 100t159 37.5q26 0 63.5 -2t79 -13.5t82.5 -37.5 t73 -74l-87 -89q-15 27 -40 47t-55.5 33t-64 19.5t-65.5 6.5q-57 0 -105 -21.5t-83.5 -58t-55.5 -86.5t-20 -107q0 -126 32.5 -241.5t81 -225.5t105.5 -217t105.5 -216.5t81 -224.5t32.5 -240q0 -88 -27.5 -170t-77.5 -145t-119.5 -101t-154.5 -38q-26 0 -67.5 4t-88.5 16.5 t-94.5 36t-85.5 63.5z" />
<glyph unicode="&#x2248;" horiz-adv-x="1390" d="M227 297q18 31 47 62.5t68 56.5t86 40.5t100 15.5q44 0 79 -12.5t65.5 -31.5t57 -41.5t53 -41.5t55 -31.5t61.5 -12.5q37 0 69.5 11t59.5 29t48.5 40t37.5 44l64 -68q-18 -33 -48 -64.5t-68.5 -56t-85 -39.5t-98.5 -15q-44 0 -78.5 12.5t-64 31.5t-56 41.5t-53 41.5 t-55.5 31.5t-64 12.5q-38 0 -71 -11.5t-60 -29.5t-48 -40t-37 -43zM227 880q18 31 47 62.5t68 56.5t86 40.5t100 15.5q44 0 79 -12.5t65.5 -31.5t57 -41.5t53 -41.5t55 -31.5t61.5 -12.5q37 0 69.5 11t59.5 29t48.5 40t37.5 44l64 -68q-18 -33 -48 -64.5t-68.5 -56 t-85 -39.5t-98.5 -15q-44 0 -78.5 12.5t-64 31.5t-56 41.5t-53 41.5t-55.5 31.5t-64 12.5q-38 0 -71 -11.5t-60 -29.5t-48 -40t-37 -43z" />
<glyph unicode="&#x2260;" horiz-adv-x="1337" d="M210 272v112h320l167 463h-487v112h530l88 226h133l-87 -226h253v-112h-297l-172 -463h469v-112h-512l-82 -224h-135l87 224h-275z" />
<glyph unicode="&#x2264;" horiz-adv-x="1370" d="M168 177v112h968v-112h-968zM168 946v64l968 433v-131l-788 -335l788 -338v-131z" />
<glyph unicode="&#x2265;" horiz-adv-x="1370" d="M234 177h968v112h-968v-112zM234 508l968 438v64l-968 433v-131l788 -335l-788 -338v-131z" />
<glyph unicode="&#x25ca;" horiz-adv-x="1175" d="M50 768l4 7l531 741l7 -5l533 -739l-4 -7l-531 -765l-6 5zM200 771l4 -7l383 -563l5 5l383 565l-4 7l-383 538l-5 -5z" />
<glyph unicode="&#x25fc;" horiz-adv-x="1135" d="M0 0v1135h1135v-1135h-1135z" />
<glyph unicode="&#xfb01;" horiz-adv-x="1505" d="M57 1021v77l213 37v102q0 93 36 174.5t96 142t137 96t160 35.5q45 0 69.5 -4.5t42.5 -10.5v-148q-13 8 -55.5 18t-98.5 10q-57 0 -101.5 -13.5t-76 -44.5t-48 -81.5t-16.5 -124.5v-151h305v-114h-305v-925l238 -15v-81h-567v81l184 15v925h-213zM917 0v82l185 13v921 l-169 33v81l273 30h5l35 -30v-1035l185 -13v-82h-514zM1044 1487q0 24 6.5 46.5t20 40.5t34.5 28.5t49 10.5h1q24 0 42 -9.5t30.5 -25t18.5 -35t6 -39.5q0 -26 -7 -48.5t-20.5 -39.5t-35 -27t-49.5 -10h-1q-23 0 -40.5 8.5t-29.5 23.5t-18.5 34.5t-6.5 41.5z" />
<glyph unicode="&#xfb02;" horiz-adv-x="1512" d="M57 1021v77l213 37v102q0 93 36 174.5t96 142t137 96t160 35.5q45 0 69.5 -4.5t42.5 -10.5v-148q-13 8 -55.5 18t-98.5 10q-57 0 -101.5 -13.5t-76 -44.5t-48 -81.5t-16.5 -124.5v-151h305v-114h-305v-925l238 -15v-81h-567v81l184 15v925h-213zM916 0v82l186 14v1462 l-180 19v67l288 33h1l35 -25v-1556l199 -14v-82h-529z" />
</font>
</defs>
</svg>
